<svg width="24" height="23" viewBox="0 0 24 23" fill="none" xmlns="http://www.w3.org/2000/svg">
<path d="M19.9335 10.8886C19.7061 10.8886 19.4881 10.8021 19.3274 10.648C19.1666 10.494 19.0763 10.2851 19.0763 10.0672V7.74749C19.0763 4.46178 15.9083 1.83321 12.0135 1.83321C8.11861 1.83321 4.95061 4.49463 4.95061 7.74749V10.0672C4.95061 10.2851 4.86031 10.494 4.69956 10.648C4.53882 10.8021 4.3208 10.8886 4.09347 10.8886C3.86614 10.8886 3.64812 10.8021 3.48738 10.648C3.32663 10.494 3.23633 10.2851 3.23633 10.0672V7.74749C3.23633 3.56806 7.17919 0.164062 12.0135 0.164062C16.8478 0.164062 20.7906 3.56806 20.7906 7.74749V10.0672C20.7915 10.1753 20.77 10.2825 20.7272 10.3826C20.6845 10.4826 20.6214 10.5735 20.5416 10.65C20.4618 10.7264 20.367 10.7869 20.2626 10.8279C20.1582 10.8689 20.0463 10.8895 19.9335 10.8886Z" fill="white"/>
<path d="M17.6158 18.6161C17.3884 18.6161 17.1704 18.5295 17.0097 18.3755C16.8489 18.2214 16.7586 18.0125 16.7586 17.7946V9.99436C16.7658 9.78109 16.8592 9.57885 17.0192 9.43044C17.1792 9.28204 17.3931 9.19911 17.6158 9.19922C20.5712 9.19922 22.9781 11.3218 22.9781 13.9241C22.9781 16.5264 20.5712 18.6161 17.6158 18.6161ZM18.4729 10.9012V16.8878C19.2234 16.7687 19.9087 16.4072 20.4151 15.8633C20.9216 15.3194 21.2186 14.6258 21.2569 13.8978C21.2201 13.1686 20.9238 12.4735 20.4172 11.9283C19.9107 11.383 19.2245 11.0205 18.4729 10.9012ZM6.38377 18.6161C3.42834 18.6161 1.02148 16.5001 1.02148 13.8978C1.02148 11.2955 3.42834 9.19922 6.38377 9.19922C6.6111 9.19922 6.82912 9.28576 6.98986 9.43981C7.15061 9.59386 7.24091 9.80279 7.24091 10.0206V17.7946C7.24091 18.0125 7.15061 18.2214 6.98986 18.3755C6.82912 18.5295 6.6111 18.6161 6.38377 18.6161ZM5.52663 10.9012C4.77509 11.0205 4.08889 11.383 3.58233 11.9283C3.07576 12.4735 2.77941 13.1686 2.74263 13.8978C2.78093 14.6258 3.07797 15.3194 3.5844 15.8633C4.09084 16.4072 4.77619 16.7687 5.52663 16.8878V10.9012Z" fill="white"/>
<path d="M17.3347 21.2924H14.4958C14.2685 21.2924 14.0505 21.2059 13.8897 21.0518C13.729 20.8978 13.6387 20.6889 13.6387 20.471C13.6387 20.2531 13.729 20.0442 13.8897 19.8902C14.0505 19.7361 14.2685 19.6496 14.4958 19.6496H17.3347C17.7784 19.6496 18.204 19.4806 18.5178 19.1799C18.8315 18.8792 19.0078 18.4714 19.0078 18.0461V17.6847C19.0078 17.4669 19.0981 17.2579 19.2589 17.1039C19.4196 16.9498 19.6376 16.8633 19.865 16.8633C20.0923 16.8633 20.3103 16.9498 20.471 17.1039C20.6318 17.2579 20.7221 17.4669 20.7221 17.6847V18.0461C20.7221 18.9071 20.3652 19.7328 19.7299 20.3416C19.0947 20.9504 18.2331 21.2924 17.3347 21.2924Z" fill="white"/>
<path d="M13.0291 22.8342H11.3354C10.7134 22.8342 10.1169 22.5974 9.67711 22.1759C9.23731 21.7545 8.99023 21.1828 8.99023 20.5868V20.4948C8.99205 19.8998 9.23993 19.3299 9.67953 18.9098C10.1191 18.4898 10.7146 18.2539 11.3354 18.2539H13.0291C13.6492 18.2539 14.244 18.49 14.6825 18.9102C15.121 19.3305 15.3674 19.9005 15.3674 20.4948V20.5868C15.3674 21.1817 15.1212 21.7523 14.6829 22.1736C14.2446 22.5949 13.6499 22.8325 13.0291 22.8342ZM11.3491 19.8968C11.183 19.8968 11.0235 19.9595 10.9054 20.0715C10.7873 20.1835 10.72 20.3356 10.7182 20.4948V20.5868C10.7182 20.7471 10.7847 20.9009 10.903 21.0143C11.0213 21.1276 11.1818 21.1913 11.3491 21.1913H13.0291C13.1952 21.1896 13.3539 21.1251 13.4707 21.012C13.5876 20.8988 13.6531 20.746 13.6531 20.5868V20.4948C13.6531 20.3362 13.5873 20.1841 13.4703 20.0719C13.3533 19.9598 13.1946 19.8968 13.0291 19.8968H11.3491Z" fill="white"/>
</svg>
