<svg width="40" height="40" viewBox="0 0 40 40" fill="none" xmlns="http://www.w3.org/2000/svg">
<g clip-path="url(#clip0_1_1128)">
<mask id="mask0_1_1128" style="mask-type:luminance" maskUnits="userSpaceOnUse" x="0" y="0" width="40" height="40">
<path d="M20.6914 0.00129673L0 19.3087L19.3074 40.0001L39.9988 20.6927L20.6914 0.00129673Z" fill="white"/>
</mask>
<g mask="url(#mask0_1_1128)">
<path d="M13.6184 28.58L18.5277 21.7408C18.9662 21.1302 18.8027 20.955 18.1633 21.3502L11.0011 25.7751C10.5746 26.0388 9.89744 26.015 9.4905 25.7228L2.65126 20.8135C2.04008 20.375 2.12408 19.8279 2.83868 19.5923L29.1889 10.9066C29.6649 10.7498 29.8978 10.9994 29.7084 11.4634L19.2222 37.1503C18.9378 37.8469 18.3862 37.8929 17.991 37.2528L13.5662 30.0906C13.3028 29.6645 13.3259 28.9873 13.6184 28.58Z" fill="#DBDBDB"/>
</g>
</g>
<defs>
<clipPath id="clip0_1_1128">
<rect width="27.9051" height="27.9051" fill="white" transform="translate(0 19.3087) scale(1.01416) rotate(-43.0183)"/>
</clipPath>
</defs>
</svg>
