<svg width="25" height="25" viewBox="0 0 25 25" fill="none" xmlns="http://www.w3.org/2000/svg">
<path d="M12.4393 9.98671C15.1971 9.98671 17.4327 7.75111 17.4327 4.99335C17.4327 2.2356 15.1971 0 12.4393 0C9.68156 0 7.44596 2.2356 7.44596 4.99335C7.44596 7.75111 9.68156 9.98671 12.4393 9.98671Z" fill="#DBDBDB"/>
<path d="M24.8062 21.5395C24.2882 19.1812 23.1005 17.0226 21.3857 15.3228C20.9695 14.9051 20.5185 14.5237 20.0375 14.1826C17.8471 12.5396 15.1773 11.6623 12.4393 11.6859C9.09137 11.6688 5.87246 12.9761 3.48455 15.3228C1.76975 17.0226 0.582061 19.1812 0.0641 21.5395C-0.0259294 21.9565 -0.0210662 22.3884 0.0783301 22.8033C0.177726 23.2181 0.369113 23.6054 0.638336 23.9363C0.917151 24.2743 1.26825 24.5455 1.66578 24.7299C2.0633 24.9143 2.49712 25.0071 2.93528 25.0015H21.9433C22.3828 25.0018 22.8166 24.9032 23.2128 24.7131C23.609 24.5229 23.9573 24.246 24.2319 23.903C24.4963 23.5759 24.6849 23.1944 24.7842 22.7857C24.8835 22.377 24.891 21.9514 24.8062 21.5395Z" fill="#DBDBDB"/>
</svg>
