<svg width="24" height="24" viewBox="0 0 24 24" fill="none" xmlns="http://www.w3.org/2000/svg">
<path d="M2.45207 20.6544C2.37303 20.6548 2.29447 20.6422 2.21957 20.6169C2.06293 20.5661 1.92739 20.4651 1.83386 20.3295C1.74033 20.194 1.69402 20.0314 1.70207 19.8669C1.70207 19.7544 2.47457 8.86441 13.3946 8.00941V4.09441C13.3944 3.9453 13.4388 3.79953 13.5219 3.67573C13.605 3.55193 13.7231 3.45571 13.8611 3.39936C13.9992 3.34302 14.1509 3.3291 14.2969 3.35939C14.4429 3.38967 14.5766 3.46279 14.6808 3.56941L22.0833 11.1294C22.2207 11.2696 22.2977 11.4581 22.2977 11.6544C22.2977 11.8507 22.2207 12.0392 22.0833 12.1794L14.6808 19.7394C14.5766 19.846 14.4429 19.9191 14.2969 19.9494C14.1509 19.9797 13.9992 19.9658 13.8611 19.9095C13.7231 19.8531 13.605 19.7569 13.5219 19.6331C13.4388 19.5093 13.3944 19.3635 13.3946 19.2144V15.3744C6.10457 15.6519 3.11582 20.2494 3.08582 20.3057C3.01816 20.4125 2.92457 20.5005 2.81377 20.5615C2.70296 20.6225 2.57854 20.6544 2.45207 20.6544ZM14.8946 5.93191V8.71066C14.8947 8.9051 14.8193 9.092 14.6843 9.23192C14.5492 9.37184 14.3651 9.45385 14.1708 9.46066C7.10582 9.71941 4.57832 14.4257 3.67082 17.4519C5.54582 15.8319 8.88707 13.8519 14.0996 13.8519H14.1333C14.3322 13.8519 14.523 13.9309 14.6636 14.0716C14.8043 14.2122 14.8833 14.403 14.8833 14.6019V17.3807L20.5083 11.6582L14.8946 5.93191Z" fill="#00C2FF"/>
</svg>
