<svg width="17" height="17" viewBox="0 0 17 17" fill="none" xmlns="http://www.w3.org/2000/svg">
<g clip-path="url(#clip0_1_13416)">
<path d="M2.47917 17.0013H13.1042C13.7627 16.9994 14.3936 16.7364 14.8584 16.2698C15.3232 15.8033 15.5839 15.1715 15.5833 14.5129V9.17422C15.5833 8.98636 15.5087 8.80619 15.3759 8.67335C15.243 8.54051 15.0629 8.46589 14.875 8.46589C14.6871 8.46589 14.507 8.54051 14.3741 8.67335C14.2413 8.80619 14.1667 8.98636 14.1667 9.17422V14.5129C14.1676 14.7959 14.0563 15.0676 13.8571 15.2685C13.6579 15.4694 13.3871 15.5831 13.1042 15.5846H2.47917C2.19624 15.5831 1.92547 15.4694 1.72627 15.2685C1.52707 15.0676 1.41573 14.7959 1.41667 14.5129V3.90634C1.41573 3.62341 1.52707 3.35167 1.72627 3.15074C1.92547 2.94982 2.19624 2.83613 2.47917 2.83464H7.79167C7.97953 2.83464 8.1597 2.76001 8.29253 2.62717C8.42537 2.49433 8.5 2.31416 8.5 2.1263C8.5 1.93844 8.42537 1.75827 8.29253 1.62543C8.1597 1.4926 7.97953 1.41797 7.79167 1.41797H2.47917C1.82063 1.41984 1.18974 1.68291 0.72495 2.14943C0.260158 2.61594 -0.000564606 3.24781 9.18077e-07 3.90634V14.5129C-0.000564606 15.1715 0.260158 15.8033 0.72495 16.2698C1.18974 16.7364 1.82063 16.9994 2.47917 17.0013Z" fill="#1356C5"/>
<path d="M6.69816 7.46774L6.13928 10.0277C6.11398 10.1438 6.11831 10.2644 6.15185 10.3784C6.1854 10.4924 6.24709 10.5961 6.33124 10.68C6.41655 10.7618 6.52032 10.8219 6.63376 10.855C6.7472 10.8882 6.86697 10.8935 6.98291 10.8706L9.53716 10.3103C9.66978 10.2812 9.79124 10.2145 9.88707 10.1183L16.3428 3.66257C16.5402 3.46524 16.6967 3.23097 16.8036 2.97313C16.9104 2.71529 16.9653 2.43893 16.9653 2.15984C16.9653 1.88075 16.9104 1.6044 16.8036 1.34656C16.6967 1.08872 16.5402 0.854442 16.3428 0.657112C15.9382 0.270459 15.4001 0.0546875 14.8404 0.0546875C14.2808 0.0546875 13.7427 0.270459 13.3381 0.657112L6.89224 7.11924C6.7955 7.21441 6.72813 7.33538 6.69816 7.46774ZM14.3397 1.6594C14.4744 1.5303 14.6538 1.45823 14.8404 1.45823C15.0271 1.45823 15.2065 1.5303 15.3412 1.6594C15.4723 1.79302 15.5457 1.9727 15.5457 2.15984C15.5457 2.34699 15.4723 2.52667 15.3412 2.66028L14.8404 3.16107L13.8389 2.15949L14.3397 1.6594ZM8.03549 7.97349L12.8337 3.1632L13.8254 4.15982L9.02503 8.97153L7.75357 9.25061L8.03549 7.97349Z" fill="#1356C5"/>
</g>
<defs>
<clipPath id="clip0_1_13416">
<rect width="17" height="17" fill="white"/>
</clipPath>
</defs>
</svg>
