<svg width="13" height="13" viewBox="0 0 13 13" fill="none" xmlns="http://www.w3.org/2000/svg">
<path d="M11.4706 11.4688H0.764706C0.34237 11.4688 0 11.8111 0 12.2335C0 12.6558 0.34237 12.9982 0.764706 12.9982H11.4706C11.8929 12.9982 12.2353 12.6558 12.2353 12.2335C12.2353 11.8111 11.8929 11.4688 11.4706 11.4688Z" fill="#1356C5"/>
<path d="M0 10.7059L0 12.2353C0 12.6576 0.34237 13 0.764706 13C1.18704 13 1.52941 12.6576 1.52941 12.2353L1.52941 10.7059C1.52941 10.2835 1.18704 9.94118 0.764706 9.94118C0.34237 9.94118 0 10.2835 0 10.7059Z" fill="#1356C5"/>
<path d="M10.7051 10.7059V12.2353C10.7051 12.6576 11.0474 13 11.4698 13C11.8921 13 12.2345 12.6576 12.2345 12.2353V10.7059C12.2345 10.2835 11.8921 9.94118 11.4698 9.94118C11.0474 9.94118 10.7051 10.2835 10.7051 10.7059Z" fill="#1356C5"/>
<path d="M6.11758 9.17509C5.95904 9.1763 5.80405 9.1282 5.67405 9.03745L2.61523 6.88098C2.45037 6.76403 2.33851 6.58656 2.30412 6.38738C2.26973 6.1882 2.3156 5.9835 2.4317 5.81804C2.48965 5.73533 2.56341 5.66493 2.64873 5.61088C2.73404 5.55684 2.82921 5.52023 2.92875 5.50316C3.02828 5.4861 3.13021 5.48892 3.22865 5.51147C3.32709 5.53401 3.4201 5.57583 3.50229 5.63451L6.11758 7.46215L8.71758 5.50451C8.87983 5.38282 9.08378 5.33057 9.28455 5.35925C9.48532 5.38793 9.66648 5.4952 9.78817 5.65745C9.90986 5.8197 9.96211 6.02364 9.93342 6.22442C9.90474 6.42519 9.79748 6.60635 9.63523 6.72804L6.5764 9.02215C6.44404 9.12143 6.28304 9.17509 6.11758 9.17509Z" fill="#1356C5"/>
<path d="M6.11822 7.64706C5.91541 7.64706 5.7209 7.56649 5.57749 7.42308C5.43408 7.27967 5.35352 7.08517 5.35352 6.88235V0.764706C5.35352 0.561893 5.43408 0.367387 5.57749 0.223977C5.7209 0.080567 5.91541 0 6.11822 0C6.32103 0 6.51554 0.080567 6.65895 0.223977C6.80236 0.367387 6.88293 0.561893 6.88293 0.764706V6.88235C6.88293 7.08517 6.80236 7.27967 6.65895 7.42308C6.51554 7.56649 6.32103 7.64706 6.11822 7.64706Z" fill="#1356C5"/>
</svg>
