<svg width="23" height="22" viewBox="0 0 23 22" fill="none" xmlns="http://www.w3.org/2000/svg">
<path d="M7.39286 4.88889C6.90547 4.88889 6.42902 4.74553 6.02377 4.47693C5.61852 4.20833 5.30267 3.82656 5.11615 3.37989C4.92964 2.93323 4.88084 2.44173 4.97592 1.96756C5.07101 1.49338 5.30571 1.05782 5.65034 0.715962C5.99498 0.374101 6.43407 0.14129 6.9121 0.0469704C7.39012 -0.047349 7.88561 0.00105913 8.3359 0.186073C8.78619 0.371088 9.17106 0.684398 9.44184 1.08638C9.71262 1.48837 9.85714 1.96098 9.85714 2.44445C9.85714 3.09275 9.59751 3.71451 9.13537 4.17293C8.67323 4.63135 8.04643 4.88889 7.39286 4.88889ZM18.0714 2.44445C18.0714 1.96098 17.9269 1.48837 17.6561 1.08638C17.3853 0.684398 17.0005 0.371088 16.5502 0.186073C16.0999 0.00105913 15.6044 -0.047349 15.1264 0.0469704C14.6484 0.14129 14.2093 0.374101 13.8646 0.715962C13.52 1.05782 13.2853 1.49338 13.1902 1.96756C13.0951 2.44173 13.1439 2.93323 13.3304 3.37989C13.517 3.82656 13.8328 4.20833 14.2381 4.47693C14.6433 4.74553 15.1198 4.88889 15.6071 4.88889C16.2607 4.88889 16.8875 4.63135 17.3497 4.17293C17.8118 3.71451 18.0714 3.09275 18.0714 2.44445ZM5.97179 7.56148C6.51173 7.68773 7.03739 7.86791 7.54071 8.09926C9.15579 8.85608 10.4831 10.1018 11.3346 11.6524C11.4039 11.7787 11.5956 11.7784 11.6643 11.6519C12.2259 10.6419 12.9926 9.75839 13.9158 9.05717C14.839 8.35594 15.8988 7.85221 17.0282 7.57778C17.6539 7.41976 18.2965 7.33768 18.9421 7.33333C19.1433 7.33333 19.2766 7.1268 19.1765 6.95236C18.7844 6.26899 18.1995 5.7099 17.4895 5.34675C16.6516 4.91818 15.6906 4.78856 14.7678 4.97967C13.845 5.17077 13.0165 5.67095 12.4215 6.39626C11.8265 7.12157 11.5011 8.02785 11.5 8.96296C11.4989 8.02785 11.1735 7.12157 10.5785 6.39626C9.98347 5.67095 9.15502 5.17077 8.23221 4.97967C7.30939 4.78856 6.34839 4.91818 5.51052 5.34675C4.80054 5.7099 4.21559 6.26899 3.82346 6.95236C3.72336 7.1268 3.85673 7.33333 4.05786 7.33333C4.70279 7.33235 5.34546 7.40896 5.97179 7.56148ZM17.2335 8.36415C17.2227 8.37216 17.2104 8.37792 17.1974 8.38113C16.1859 8.62954 15.2372 9.08299 14.411 9.713C13.5794 10.3471 12.8901 11.1462 12.3871 12.0593C12.1833 12.4371 12.7064 12.7757 13.0623 12.5355C14.3353 11.6765 16.0558 11.0549 18.055 10.7881C18.7588 10.6743 19.4696 10.609 20.1825 10.5926C20.8312 10.5926 21.3571 10.0667 21.3571 9.41795V9.37037C21.3571 8.69536 20.8099 8.14815 20.1349 8.14815H18.9421C18.379 8.15164 17.818 8.21839 17.27 8.34711C17.2568 8.35022 17.2444 8.35604 17.2335 8.36415ZM4.92857 10.7393C6.31652 10.9244 7.57012 11.2807 8.63392 11.7686C9.34038 12.0927 10.2491 11.3923 9.74726 10.7987C9.04672 9.97021 8.1734 9.3022 7.1875 8.84074C6.72705 8.62796 6.2452 8.46409 5.75 8.35185C5.19565 8.22003 4.6279 8.15168 4.05786 8.14815H2.86508C2.19006 8.14815 1.64286 8.69536 1.64286 9.37037V9.41795C1.64286 10.0667 2.16876 10.5926 2.8175 10.5926C3.52377 10.5929 4.22916 10.6419 4.92857 10.7393ZM20.1825 11.4074C19.5092 11.4072 18.8368 11.4535 18.17 11.5459C14.6625 12.0185 11.9764 13.6889 11.5986 15.7504C11.5475 15.9286 11.5145 16.1115 11.5 16.2963C11.5012 16.102 11.4819 15.9081 11.4425 15.7178C11.0236 13.6563 8.3375 11.9859 4.87107 11.5133C4.18993 11.4299 3.50369 11.3945 2.8175 11.4074C1.26144 11.4074 0 12.6688 0 14.2249V19C0 20.6569 1.34315 22 3 22H20C21.6569 22 23 20.6569 23 19V14.2249C23 12.6688 21.7386 11.4074 20.1825 11.4074Z" fill="#1356C5"/>
</svg>
