<svg width="101" height="97" viewBox="0 0 101 97" fill="none" xmlns="http://www.w3.org/2000/svg">
<path d="M63.184 57.1157C62.6952 56.3009 61.5544 55.975 60.7396 56.4639C59.9248 56.9527 59.5989 58.0935 60.0878 58.9083C63.51 64.9378 64.6507 69.9896 62.6952 71.9451C62.2063 72.434 61.3915 72.7599 60.4137 72.9229C60.2508 72.9229 59.9248 72.9229 59.7619 72.9229H59.436C59.11 72.9229 58.9471 72.9229 58.6212 72.9229C56.1767 72.597 53.0805 71.4562 49.3324 69.3378C49.1694 69.3378 49.1694 69.1748 49.0065 69.1748C48.6806 69.0118 48.3546 68.8489 48.0287 68.523C47.7028 68.36 47.3769 68.0341 47.051 67.8711C46.888 67.7081 46.725 67.7081 46.725 67.5452C46.2362 67.2193 45.7473 66.8933 45.2584 66.5674C44.2806 65.7526 43.1399 64.9378 41.9992 64.123C41.5103 63.6341 41.0214 63.3082 40.5325 62.8193C40.3696 62.6564 40.3696 62.6564 40.2066 62.4934C39.7177 62.1675 39.3918 61.6786 38.9029 61.3527C38.577 61.0268 38.0881 60.7008 37.7622 60.212C37.5992 60.049 37.4363 59.886 37.2733 59.7231C33.1993 55.6491 30.1031 51.575 27.8216 47.9899C24.7254 42.9381 23.4217 38.7012 23.7476 36.2568C23.9105 35.279 24.0735 34.6271 24.7254 33.9753C26.6809 32.0198 31.7327 33.1605 37.7622 36.5827C38.577 37.0716 39.7177 36.7456 40.2066 35.9308C40.6955 35.116 40.3696 33.9753 39.5548 33.4864C31.7327 28.9235 25.5402 28.2717 22.2809 31.3679C21.3032 32.3457 20.6513 33.8123 20.4884 35.442L12.8292 54.3454L0.444225 86.9375C-0.370578 89.2189 -0.0446573 91.5004 1.25903 93.4559C2.56271 95.4114 4.6812 96.5522 7.12561 96.5522C7.94041 96.5522 8.75521 96.3892 9.73298 96.0633L19.3477 92.4782L42.1621 83.8412L61.3915 76.508C63.0211 76.3451 64.3248 75.6932 65.4655 74.7155C68.3988 71.1303 67.7469 64.9378 63.184 57.1157ZM8.26633 92.6411C6.63673 93.293 5.00712 92.6411 4.02936 91.3374C3.70344 90.8486 3.05159 89.5449 3.70344 88.0782L8.10337 76.671C9.89594 81.2339 12.5033 85.6338 15.5996 89.8708L8.26633 92.6411ZM30.1031 84.3301C21.955 75.5303 17.2292 65.7526 16.2514 55.3231L20.4884 44.4048C20.6513 54.8343 24.3994 68.36 37.9252 81.3968L30.1031 84.3301Z" fill="#1356C5"/>
<path d="M71.4941 42.7749C52.4277 50.7599 50.961 63.1449 50.961 63.6338C50.7981 64.6116 51.6129 65.4264 52.5906 65.5893H52.7536C53.7314 65.5893 54.3832 64.9375 54.5462 63.9597C54.5462 63.7968 55.6869 53.2043 72.9607 46.0341C73.9385 45.7082 74.2644 44.5674 73.9385 43.7526C73.4496 42.9378 72.4718 42.4489 71.4941 42.7749ZM30.7539 43.7526C30.9169 44.7304 31.5687 45.3822 32.5465 45.3822H32.7094C33.1983 45.3822 45.7463 43.9156 53.5684 24.8492C53.8943 23.8714 53.5684 22.8937 52.5906 22.5678C51.6129 22.2418 50.6351 22.5678 50.3092 23.5455C43.3019 40.4934 32.8724 41.7971 32.3835 41.7971C31.4057 41.9601 30.7539 42.7749 30.7539 43.7526ZM43.9537 11.1605L46.5611 11.9753L45.7463 14.5827C45.4204 15.5605 45.9092 16.5382 46.887 16.8641C47.05 16.8641 47.2129 17.0271 47.3759 17.0271C48.1907 17.0271 48.8425 16.5382 49.0055 15.7234L49.8203 13.116L52.4277 13.9308C52.5906 13.9308 52.7536 14.0938 52.9165 14.0938C53.7313 14.0938 54.3832 13.6049 54.5462 12.7901C54.8721 11.8124 54.3832 10.8346 53.4054 10.5087L50.7981 9.69387L51.6129 7.0865C51.9388 6.10874 51.4499 5.13097 50.4721 4.80505C49.4944 4.47913 48.5166 4.96801 48.1907 5.94578L47.3759 8.55315L44.7685 7.73834C43.7908 7.41242 42.813 7.9013 42.4871 8.87907C42.4871 9.85683 42.976 10.8346 43.9537 11.1605ZM67.42 18.0049L68.3978 18.3308C68.8867 18.4937 69.3756 18.9826 69.5385 19.4715L69.8645 20.4493C70.5163 22.7307 72.6348 24.1974 74.9162 24.1974C76.7088 24.1974 78.1754 23.3826 79.1532 21.9159L79.805 21.1011C80.131 20.6122 80.6199 20.2863 81.2717 20.2863H82.4124C84.3679 20.2863 86.1605 19.1456 87.1383 17.353C88.116 15.5605 87.7901 13.442 86.6494 11.8124L85.9975 10.9976C85.6716 10.5087 85.5087 10.0198 85.6716 9.36795L85.9975 8.39019C86.4864 6.76058 86.3235 4.96801 85.3457 3.66433C84.042 1.7088 81.5976 0.893999 79.3162 1.7088L78.3384 2.03472C77.8495 2.19768 77.1977 2.19768 76.7088 1.7088L75.894 1.05696C73.7755 -0.572646 70.8422 -0.246725 69.0496 1.54584C68.0719 2.5236 67.583 3.82729 67.583 5.29393V6.2717C67.583 6.92354 67.2571 7.41242 66.9312 7.73834L66.1164 8.39019C64.4867 9.53091 63.6719 11.4864 63.9979 13.442C63.9979 15.7234 65.4645 17.353 67.42 18.0049ZM99.8492 39.1897L99.5233 38.8638C99.1973 38.3749 99.0344 37.8861 99.3603 37.2342L99.5233 36.9083C100.012 35.2787 99.8492 33.4861 98.8714 32.1824C97.5677 30.2269 95.1233 29.4121 92.8419 30.2269L92.516 30.3899C92.0271 30.5528 91.3752 30.5528 90.8864 30.0639L90.5604 29.738C88.4419 28.1084 85.3457 28.4343 83.5531 30.2269C82.5754 31.2047 82.0865 32.5084 82.0865 33.975V34.3009C82.0865 34.9528 81.7606 35.4416 81.2717 35.7676L80.9458 36.0935C79.3162 37.2342 78.5014 39.1897 78.8273 41.3082C79.1532 43.2638 80.6198 44.8934 82.4124 45.5452L82.9013 45.7082C83.3902 45.8711 83.8791 46.36 84.042 46.8489L84.205 47.3378C84.8568 49.6192 86.9753 51.0859 89.2568 51.0859C91.0493 51.0859 92.516 50.2711 93.4937 48.8044L93.8196 48.4785C94.1456 47.9896 94.6345 47.8266 95.2863 47.8266H95.7752C97.7307 47.8266 99.5233 46.6859 100.501 44.8934C101.316 42.9378 101.153 40.8193 99.8492 39.1897ZM42.976 51.7377C42.4871 52.5525 42.65 53.6932 43.4648 54.1821C43.7908 54.3451 44.1167 54.508 44.4426 54.508C44.9315 54.508 45.5833 54.1821 45.9092 53.6932C46.0722 53.5303 60.7387 32.9972 76.3829 31.3676C77.3606 31.2047 78.0125 30.3899 78.0125 29.4121C77.8495 28.4343 77.0347 27.7825 76.057 27.7825C58.7831 29.738 43.6278 50.9229 42.976 51.7377ZM85.1827 56.7895L82.5754 55.9747L83.3902 53.3673C83.7161 52.3895 83.2272 51.4118 82.2495 51.0859C81.2717 50.7599 80.2939 51.2488 79.968 52.2266L79.1532 54.834L76.5458 54.0191C75.5681 53.6932 74.5903 54.1821 74.2644 55.1599C73.9385 56.1376 74.4273 57.1154 75.4051 57.4413L78.0125 58.2561L77.1977 60.8635C76.8718 61.8413 77.3606 62.819 78.3384 63.1449C78.5014 63.1449 78.6643 63.1449 78.8273 63.1449C79.6421 63.1449 80.2939 62.6561 80.4569 61.8413L81.2717 59.2339L83.8791 60.0487C84.042 60.0487 84.205 60.0487 84.3679 60.0487C85.1827 60.0487 85.8346 59.5598 85.9975 58.745C86.6494 57.9302 86.1605 56.9524 85.1827 56.7895Z" fill="#1356C5"/>
</svg>
