<svg width="29" height="26" viewBox="0 0 29 26" fill="none" xmlns="http://www.w3.org/2000/svg">
<path d="M16.442 0.00504003C9.19708 -0.19713 3.26167 5.70914 3.26167 13.0017H0.713863C0.0733519 13.0017 -0.239787 13.7815 0.215688 14.2292L4.18686 18.2726C4.47153 18.5614 4.91277 18.5614 5.19744 18.2726L9.16861 14.2292C9.60985 13.7815 9.29672 13.0017 8.6562 13.0017H6.10839C6.10839 7.36982 10.6347 2.82099 16.2142 2.89319C21.5091 2.96539 25.9642 7.48535 26.0354 12.8573C26.1066 18.5036 21.623 23.1102 16.0719 23.1102C13.7803 23.1102 11.6595 22.316 9.97993 20.973C9.41058 20.5253 8.6135 20.5687 8.10109 21.0885C7.50328 21.695 7.54598 22.7203 8.21496 23.2402C10.3785 24.9731 13.0971 25.9984 16.0719 25.9984C23.2599 25.9984 29.0814 19.9766 28.8821 12.6263C28.6971 5.85354 23.1175 0.19277 16.442 0.00504003ZM15.7161 7.22541C15.1325 7.22541 14.6485 7.7164 14.6485 8.30847V13.6227C14.6485 14.1281 14.919 14.6046 15.346 14.8646L19.7869 17.5361C20.2993 17.8394 20.954 17.6661 21.2529 17.1607C21.5518 16.6408 21.381 15.9765 20.8829 15.6733L16.7836 13.2039V8.29403C16.7836 7.7164 16.2996 7.22541 15.7161 7.22541Z" fill="#E6E6E6"/>
</svg>
