<svg width="16" height="12" viewBox="0 0 16 12" fill="none" xmlns="http://www.w3.org/2000/svg">
<g clip-path="url(#clip0_1_4466)">
<path d="M0 1.41043V1.00004C0 0.73481 0.105361 0.480447 0.292904 0.292904C0.480447 0.105361 0.73481 0 1.00004 0L15.0005 0C15.2658 0 15.5201 0.105361 15.7077 0.292904C15.8952 0.480447 16.0006 0.73481 16.0006 1.00004V1.41043L8.00029 6.41061L0 1.41043ZM8.2653 7.4244C8.18581 7.47401 8.09399 7.50031 8.00029 7.50031C7.90659 7.50031 7.81477 7.47401 7.73528 7.4244L0 2.58972V11.0004C0 11.2656 0.105361 11.52 0.292904 11.7075C0.480447 11.8951 0.73481 12.0004 1.00004 12.0004H15.0005C15.2658 12.0004 15.5201 11.8951 15.7077 11.7075C15.8952 11.52 16.0006 11.2656 16.0006 11.0004V2.58972L8.2653 7.4244Z" fill="#1356C5"/>
</g>
<defs>
<clipPath id="clip0_1_4466">
<rect width="15.1099" height="11.3324" fill="white" transform="scale(1.05895)"/>
</clipPath>
</defs>
</svg>
