<svg width="22" height="22" viewBox="0 0 22 22" fill="none" xmlns="http://www.w3.org/2000/svg">
<path d="M16.637 8.38202L16.362 16.7056C16.3386 17.4184 16.0383 18.0941 15.5248 18.5892C15.0114 19.0843 14.3252 19.3598 13.612 19.3573H8.387C7.67422 19.3598 6.98846 19.0847 6.47509 18.5902C5.96173 18.0957 5.66112 17.4207 5.637 16.7083L5.362 8.38202C5.35598 8.19969 5.42265 8.02243 5.54732 7.88924C5.672 7.75606 5.84448 7.67785 6.02681 7.67183C6.20915 7.66582 6.38641 7.73248 6.51959 7.85716C6.65278 7.98183 6.73098 8.15431 6.737 8.33665L7.012 16.6623C7.02569 17.0177 7.17658 17.354 7.43298 17.6005C7.68937 17.847 8.03132 17.9846 8.387 17.9843H13.612C13.9681 17.9846 14.3105 17.8466 14.567 17.5995C14.8234 17.3524 14.974 17.0154 14.987 16.6595L15.262 8.33665C15.268 8.15431 15.3462 7.98183 15.4794 7.85716C15.6126 7.73248 15.7899 7.66582 15.9722 7.67183C16.1545 7.67785 16.327 7.75606 16.4517 7.88924C16.5764 8.02243 16.643 8.19969 16.637 8.38202ZM17.5466 5.61208C17.5466 5.79442 17.4741 5.96929 17.3452 6.09822C17.2163 6.22715 17.0414 6.29958 16.8591 6.29958H5.14063C4.95829 6.29958 4.78342 6.22715 4.65449 6.09822C4.52556 5.96929 4.45312 5.79442 4.45312 5.61208C4.45312 5.42975 4.52556 5.25488 4.65449 5.12595C4.78342 4.99702 4.95829 4.92459 5.14063 4.92459H7.27188C7.48971 4.92517 7.69997 4.84469 7.86174 4.69881C8.02351 4.55292 8.12521 4.35207 8.14706 4.13533C8.1978 3.62692 8.43599 3.1556 8.81524 2.81321C9.19449 2.47082 9.68762 2.28188 10.1986 2.28321H11.8004C12.3114 2.28188 12.8045 2.47082 13.1838 2.81321C13.563 3.1556 13.8012 3.62692 13.8519 4.13533C13.8738 4.35207 13.9755 4.55292 14.1373 4.69881C14.299 4.84469 14.5093 4.92517 14.7271 4.92459H16.8584C17.0407 4.92459 17.2156 4.99702 17.3445 5.12595C17.4734 5.25488 17.5459 5.42975 17.5459 5.61208H17.5466ZM9.34056 4.92459H12.6598C12.5695 4.71816 12.5104 4.49942 12.4845 4.27559C12.4675 4.10612 12.3881 3.94901 12.2619 3.8347C12.1356 3.72038 11.9714 3.657 11.8011 3.65684H10.1993C10.0289 3.657 9.86474 3.72038 9.73849 3.8347C9.61223 3.94901 9.53291 4.10612 9.51588 4.27559C9.48977 4.49946 9.43114 4.7182 9.34056 4.92459ZM10.0329 15.3409V9.48684C10.0329 9.3045 9.96044 9.12963 9.83151 9.0007C9.70258 8.87177 9.52771 8.79934 9.34538 8.79934C9.16304 8.79934 8.98817 8.87177 8.85924 9.0007C8.73031 9.12963 8.65788 9.3045 8.65788 9.48684V15.3436C8.65788 15.526 8.73031 15.7009 8.85924 15.8298C8.98817 15.9587 9.16304 16.0311 9.34538 16.0311C9.52771 16.0311 9.70258 15.9587 9.83151 15.8298C9.96044 15.7009 10.0329 15.526 10.0329 15.3436V15.3409ZM13.3425 15.3409V9.48684C13.3425 9.3045 13.2701 9.12963 13.1411 9.0007C13.0122 8.87177 12.8373 8.79934 12.655 8.79934C12.4727 8.79934 12.2978 8.87177 12.1689 9.0007C12.0399 9.12963 11.9675 9.3045 11.9675 9.48684V15.3436C11.9675 15.526 12.0399 15.7009 12.1689 15.8298C12.2978 15.9587 12.4727 16.0311 12.655 16.0311C12.8373 16.0311 13.0122 15.9587 13.1411 15.8298C13.2701 15.7009 13.3425 15.526 13.3425 15.3436V15.3409Z" fill="#00C2FF"/>
</svg>
