<svg width="39" height="29" viewBox="0 0 39 29" fill="none" xmlns="http://www.w3.org/2000/svg">
<path d="M3.17167 25.3355H10.8072C11.4623 25.3355 11.9945 24.8033 11.9945 24.1482C11.9945 23.4932 11.4623 22.9609 10.8072 22.9609H3.17167C2.51661 22.9609 1.98438 23.4932 1.98438 24.1482C1.98438 24.8033 2.51661 25.3355 3.17167 25.3355ZM27.716 25.3355C28.371 25.3355 28.9033 24.8033 28.9033 24.1482C28.9033 23.4932 28.371 22.9609 27.716 22.9609H15.7816C15.1265 22.9609 14.5943 23.4932 14.5943 24.1482C14.5943 24.8033 15.1265 25.3355 15.7816 25.3355H27.716Z" fill="#E6E6E6"/>
<path d="M38.5053 5.06983C36.7653 3.32982 34.9843 1.54888 32.057 0.791464C28.8431 -0.375362 25.445 -0.211597 22.4768 1.01664C22.1902 0.566288 21.6784 0.259228 21.0848 0.259228C20.1636 0.259228 19.4266 0.99617 19.4266 1.91735C19.4266 2.18347 19.488 2.42911 19.6109 2.65429C17.5843 4.16912 15.9466 6.25713 15.005 8.81595C14.9845 8.8569 14.9845 8.89784 14.964 8.93878C14.2476 11.7637 14.2476 14.6501 14.964 17.475C15.0664 17.9254 15.4349 18.2734 15.8852 18.3553C15.9671 18.3757 16.0285 18.3757 16.1104 18.3757C16.4789 18.3757 16.8473 18.1915 17.0725 17.8844C18.5464 15.8169 20.5116 14.732 22.7429 14.732C23.0909 14.732 23.4184 14.5887 23.6436 14.3226C24.2782 13.5651 25.1175 12.8077 26.0182 12.1117L26.0796 12.2346C28.966 16.3491 30.9107 21.0779 31.9956 26.6254H1.1873C0.532237 26.6254 0 27.1576 0 27.8127C0 28.4678 0.532237 29 1.1873 29H35.0253C35.6803 29 36.2126 28.4678 36.2126 27.8127C36.2126 27.1576 35.6803 26.6254 35.0253 26.6254H34.4111C33.2648 20.5456 31.1768 15.387 28.0243 10.8835C29.0274 10.3922 30.0714 10.0851 31.0335 10.0851C31.3815 10.0851 31.709 9.92137 31.9342 9.65525C33.3262 7.97666 34.6568 7.71054 37.8912 7.07595C38.321 6.99407 38.669 6.66654 38.7919 6.25712C38.9352 5.82724 38.8123 5.37689 38.5053 5.06983ZM16.8678 14.5887C16.704 12.9101 16.8473 11.2315 17.2567 9.57337C17.8504 7.99713 18.7511 6.64607 19.877 5.54065L21.5965 12.4393C19.836 12.6644 18.2393 13.4014 16.8678 14.5887ZM23.6436 10.9654L21.9241 4.08724V3.92347C22.1288 3.80065 22.313 3.6983 22.5177 3.59594L28.27 8.20184C26.5914 8.77501 24.9742 9.81902 23.6436 10.9654ZM30.9311 7.28066L25.1175 2.63382C27.1031 2.18347 29.2321 2.26535 31.2791 3.02276C31.3201 3.04323 31.361 3.04323 31.402 3.0637C32.9577 3.45265 34.145 4.251 35.23 5.21312C33.5104 5.62253 32.1594 6.1343 30.9311 7.28066ZM7.81978 9.4096C9.92826 9.4096 11.6478 7.69007 11.6478 5.58159C11.6478 3.47312 9.92826 1.75358 7.81978 1.75358C5.71131 1.75358 3.99177 3.47312 3.99177 5.58159C3.9713 7.69007 5.69084 9.4096 7.81978 9.4096ZM7.81978 4.08724C8.63861 4.08724 9.29367 4.7423 9.29367 5.56112C9.29367 6.37995 8.63861 7.03501 7.81978 7.03501C7.00096 7.03501 6.3459 6.37995 6.3459 5.56112C6.3459 4.76277 7.00096 4.08724 7.81978 4.08724Z" fill="#E6E6E6"/>
</svg>
