<svg width="18" height="18" viewBox="0 0 18 18" fill="none" xmlns="http://www.w3.org/2000/svg">
<g clip-path="url(#clip0_1_1823)">
<path d="M7.87365 3.37499C8.08366 3.37499 8.24867 3.54 8.24867 3.75001V5.25008H12.7489V9.75029H14.249C14.459 9.75029 14.624 9.9153 14.624 10.1253C14.624 10.3353 14.459 10.5003 14.249 10.5003H12.7489V15.0005H11.1588C10.6488 13.688 9.36623 12.7504 7.87365 12.7504C6.38108 12.7504 5.09852 13.688 4.5885 15.0005H2.99842V13.4105C4.31098 12.9004 5.24853 11.6179 5.24853 10.1253C5.24853 8.63274 4.31848 7.35018 3.00592 6.84016L2.99842 5.25008H7.49864V3.75001C7.49864 3.54 7.66364 3.37499 7.87365 3.37499ZM7.87365 1.87492C6.8386 1.87492 5.99856 2.71496 5.99856 3.75001H2.99842C2.17338 3.75001 1.50585 4.42504 1.50585 5.25008V8.10022H1.72336C2.84091 8.10022 3.74846 9.00776 3.74846 10.1253C3.74846 11.2429 2.84091 12.1504 1.72336 12.1504H1.49835V15.0005C1.49835 15.8256 2.17338 16.5006 2.99842 16.5006H5.84856V16.2756C5.84856 15.1581 6.7561 14.2505 7.87365 14.2505C8.99121 14.2505 9.89875 15.1581 9.89875 16.2756V16.5006H12.7489C13.5739 16.5006 14.249 15.8256 14.249 15.0005V12.0004C15.284 12.0004 16.124 11.1604 16.124 10.1253C16.124 9.09026 15.284 8.25022 14.249 8.25022V5.25008C14.249 4.42504 13.5739 3.75001 12.7489 3.75001H9.74874C9.74874 2.71496 8.9087 1.87492 7.87365 1.87492Z" fill="#E39600"/>
</g>
<defs>
<clipPath id="clip0_1_1823">
<rect width="17.7391" height="17.7391" fill="white" transform="scale(1.01475)"/>
</clipPath>
</defs>
</svg>
