<svg width="21" height="21" viewBox="0 0 21 21" fill="none" xmlns="http://www.w3.org/2000/svg">
<path d="M16.2217 7.87659L7.76902 3.02901C7.31164 2.76489 6.7925 2.62653 6.26434 2.62798C5.73618 2.62943 5.21781 2.77064 4.76188 3.03727C4.30596 3.30389 3.92872 3.68643 3.66848 4.14603C3.40825 4.60563 3.27428 5.12592 3.2802 5.65405V15.3842C3.2802 16.1779 3.59548 16.939 4.1567 17.5003C4.71791 18.0615 5.47907 18.3768 6.27275 18.3768C6.79814 18.3759 7.31409 18.2371 7.76902 17.9743L16.2217 13.1267C16.6758 12.8638 17.0529 12.4861 17.3151 12.0315C17.5772 11.5769 17.7152 11.0614 17.7152 10.5366C17.7152 10.0119 17.5772 9.49632 17.3151 9.04172C17.0529 8.58712 16.6758 8.20945 16.2217 7.94659V7.87659ZM15.3466 11.5429L6.89401 16.4605C6.70456 16.5678 6.49051 16.6243 6.27275 16.6243C6.05499 16.6243 5.84094 16.5678 5.65149 16.4605C5.46257 16.3514 5.3057 16.1945 5.19664 16.0056C5.08759 15.8167 5.03019 15.6024 5.03023 15.3842V5.61905C5.03019 5.40091 5.08759 5.1866 5.19664 4.99767C5.3057 4.80874 5.46257 4.65185 5.65149 4.54278C5.84172 4.43704 6.05513 4.37993 6.27275 4.37653C6.49022 4.38099 6.70337 4.43803 6.89401 4.54278L15.3466 9.42536C15.5356 9.53439 15.6926 9.69125 15.8017 9.88018C15.9108 10.0691 15.9683 10.2834 15.9683 10.5016C15.9683 10.7198 15.9108 10.9341 15.8017 11.1231C15.6926 11.312 15.5356 11.4689 15.3466 11.5779V11.5429Z" fill="#00C838"/>
</svg>
