<svg width="23" height="23" viewBox="0 0 23 23" fill="none" xmlns="http://www.w3.org/2000/svg">
<g clip-path="url(#clip0_1_1236)">
<path d="M19.103 10.8886C18.8851 10.8886 18.6762 10.8021 18.5222 10.648C18.3681 10.494 18.2816 10.2851 18.2816 10.0672V7.74749C18.2816 4.46178 15.2456 1.83321 11.513 1.83321C7.78042 1.83321 4.74442 4.49463 4.74442 7.74749V10.0672C4.74442 10.2851 4.65788 10.494 4.50383 10.648C4.34978 10.8021 4.14085 10.8886 3.92299 10.8886C3.70513 10.8886 3.4962 10.8021 3.34215 10.648C3.18811 10.494 3.10156 10.2851 3.10156 10.0672V7.74749C3.10156 3.56806 6.88013 0.164062 11.513 0.164062C16.1458 0.164062 19.9244 3.56806 19.9244 7.74749V10.0672C19.9253 10.1753 19.9046 10.2825 19.8637 10.3826C19.8227 10.4826 19.7622 10.5735 19.6858 10.65C19.6093 10.7264 19.5184 10.7869 19.4184 10.8279C19.3183 10.8689 19.2111 10.8895 19.103 10.8886Z" fill="black"/>
<path d="M16.8833 18.6161C16.6655 18.6161 16.4565 18.5295 16.3025 18.3755C16.1484 18.2214 16.0619 18.0125 16.0619 17.7946V9.99436C16.0687 9.78109 16.1583 9.57885 16.3116 9.43044C16.4649 9.28204 16.6699 9.19911 16.8833 9.19922C19.7156 9.19922 22.0222 11.3218 22.0222 13.9241C22.0222 16.5264 19.7156 18.6161 16.8833 18.6161ZM17.7048 10.9012V16.8878C18.4239 16.7687 19.0807 16.4072 19.5661 15.8633C20.0514 15.3194 20.336 14.6258 20.3728 13.8978C20.3375 13.1686 20.0535 12.4735 19.568 11.9283C19.0826 11.383 18.425 11.0205 17.7048 10.9012ZM6.11933 18.6161C3.28704 18.6161 0.980469 16.5001 0.980469 13.8978C0.980469 11.2955 3.28704 9.19922 6.11933 9.19922C6.33718 9.19922 6.54612 9.28576 6.70016 9.43981C6.85421 9.59386 6.94075 9.80279 6.94075 10.0206V17.7946C6.94075 18.0125 6.85421 18.2214 6.70016 18.3755C6.54612 18.5295 6.33718 18.6161 6.11933 18.6161ZM5.2979 10.9012C4.57767 11.0205 3.92007 11.383 3.43461 11.9283C2.94915 12.4735 2.66514 13.1686 2.6299 13.8978C2.6666 14.6258 2.95127 15.3194 3.4366 15.8633C3.92193 16.4072 4.57873 16.7687 5.2979 16.8878V10.9012Z" fill="black"/>
<path d="M16.6123 21.2924H13.8917C13.6739 21.2924 13.465 21.2059 13.3109 21.0518C13.1569 20.8978 13.0703 20.6889 13.0703 20.471C13.0703 20.2531 13.1569 20.0442 13.3109 19.8902C13.465 19.7361 13.6739 19.6496 13.8917 19.6496H16.6123C17.0376 19.6496 17.4454 19.4806 17.7461 19.1799C18.0468 18.8792 18.2157 18.4714 18.2157 18.0461V17.6847C18.2157 17.4669 18.3023 17.2579 18.4563 17.1039C18.6104 16.9498 18.8193 16.8633 19.0372 16.8633C19.255 16.8633 19.464 16.9498 19.618 17.1039C19.7721 17.2579 19.8586 17.4669 19.8586 17.6847V18.0461C19.8586 18.9071 19.5166 19.7328 18.9078 20.3416C18.299 20.9504 17.4733 21.2924 16.6123 21.2924Z" fill="black"/>
<path d="M12.4839 22.8342H10.8607C10.2647 22.8342 9.69301 22.5974 9.27154 22.1759C8.85006 21.7545 8.61328 21.1828 8.61328 20.5868V20.4948C8.61502 19.8998 8.85257 19.3299 9.27386 18.9098C9.69514 18.4898 10.2658 18.2539 10.8607 18.2539H12.4839C13.0782 18.2539 13.6481 18.49 14.0684 18.9102C14.4886 19.3305 14.7247 19.9005 14.7247 20.4948V20.5868C14.7247 21.1817 14.4888 21.7523 14.0688 22.1736C13.6487 22.5949 13.0788 22.8325 12.4839 22.8342ZM10.8739 19.8968C10.7146 19.8968 10.5619 19.9595 10.4487 20.0715C10.3355 20.1835 10.271 20.3356 10.2693 20.4948V20.5868C10.2693 20.7471 10.333 20.9009 10.4464 21.0143C10.5597 21.1276 10.7135 21.1913 10.8739 21.1913H12.4839C12.6431 21.1896 12.7951 21.1251 12.9071 21.012C13.0191 20.8988 13.0819 20.746 13.0819 20.5868V20.4948C13.0819 20.3362 13.0188 20.1841 12.9067 20.0719C12.7946 19.9598 12.6425 19.8968 12.4839 19.8968H10.8739Z" fill="black"/>
</g>
<defs>
<clipPath id="clip0_1_1236">
<rect width="23" height="23" fill="white"/>
</clipPath>
</defs>
</svg>
