<svg width="26" height="26" viewBox="0 0 26 26" fill="none" xmlns="http://www.w3.org/2000/svg">
<g clip-path="url(#clip0_1_1660)">
<path d="M3.79167 25.9993H20.0417C21.0488 25.9965 22.0137 25.5941 22.7246 24.8806C23.4354 24.1671 23.8342 23.2008 23.8333 22.1936V14.0285C23.8333 13.7412 23.7192 13.4656 23.516 13.2625C23.3129 13.0593 23.0373 12.9452 22.75 12.9452C22.4627 12.9452 22.1871 13.0593 21.984 13.2625C21.7808 13.4656 21.6667 13.7412 21.6667 14.0285V22.1936C21.6681 22.6263 21.4978 23.0419 21.1932 23.3492C20.8885 23.6565 20.4744 23.8304 20.0417 23.8327H3.79167C3.35896 23.8304 2.94483 23.6565 2.64018 23.3492C2.33552 23.0419 2.16523 22.6263 2.16667 22.1936V5.97177C2.16523 5.53905 2.33552 5.12344 2.64018 4.81614C2.94483 4.50885 3.35896 4.33498 3.79167 4.33268H11.9167C12.204 4.33268 12.4795 4.21855 12.6827 4.01538C12.8859 3.81222 13 3.53667 13 3.24935C13 2.96203 12.8859 2.68648 12.6827 2.48332C12.4795 2.28015 12.204 2.16602 11.9167 2.16602H3.79167C2.7845 2.16888 1.81961 2.57122 1.10875 3.28472C0.397888 3.99821 -0.000863516 4.96459 1.40412e-06 5.97177V22.1936C-0.000863516 23.2008 0.397888 24.1671 1.10875 24.8806C1.81961 25.5941 2.7845 25.9965 3.79167 25.9993Z" fill="white"/>
<path d="M10.2429 11.4235L9.38811 15.3387C9.34942 15.5163 9.35603 15.7008 9.40734 15.8751C9.45864 16.0495 9.55299 16.2081 9.68169 16.3365C9.81217 16.4616 9.97088 16.5534 10.1444 16.6041C10.3179 16.6548 10.501 16.663 10.6784 16.6279L14.5849 15.771C14.7877 15.7264 14.9735 15.6245 15.12 15.4774L24.9935 5.60388C25.2954 5.30208 25.5348 4.94378 25.6982 4.54943C25.8615 4.15509 25.9456 3.73243 25.9456 3.30559C25.9456 2.87874 25.8615 2.45608 25.6982 2.06174C25.5348 1.66739 25.2954 1.30909 24.9935 1.00729C24.3747 0.415941 23.5517 0.0859375 22.6958 0.0859375C21.8398 0.0859375 21.0168 0.415941 20.398 1.00729L10.5397 10.8905C10.3917 11.0361 10.2887 11.2211 10.2429 11.4235ZM21.9299 2.54021C22.136 2.34276 22.4104 2.23254 22.6958 2.23254C22.9812 2.23254 23.2556 2.34276 23.4617 2.54021C23.6621 2.74456 23.7744 3.01936 23.7744 3.30559C23.7744 3.59181 23.6621 3.86661 23.4617 4.07096L22.6958 4.83688L21.1639 3.30504L21.9299 2.54021ZM12.2882 12.197L19.6267 4.84013L21.1434 6.36438L13.8016 13.7235L11.857 14.1503L12.2882 12.197Z" fill="white"/>
</g>
<defs>
<clipPath id="clip0_1_1660">
<rect width="26" height="26" fill="white"/>
</clipPath>
</defs>
</svg>
