<svg width="13" height="15" viewBox="0 0 13 15" fill="none" xmlns="http://www.w3.org/2000/svg">
<path d="M11.6434 6.11953C11.6434 10.2639 6.11757 14.4083 6.11757 14.4083C6.11757 14.4083 0.591743 10.2639 0.591743 6.11953C0.591743 4.65399 1.17393 3.24848 2.21022 2.21219C3.24651 1.17589 4.65203 0.593709 6.11757 0.593709C7.58311 0.593709 8.98862 1.17589 10.0249 2.21219C11.0612 3.24848 11.6434 4.65399 11.6434 6.11953Z" stroke="black" stroke-width="1.1764" stroke-linecap="round" stroke-linejoin="round"/>
<path d="M6.11806 8.19024C7.26249 8.19024 8.19024 7.26249 8.19024 6.11806C8.19024 4.97362 7.26249 4.04587 6.11806 4.04587C4.97362 4.04587 4.04587 4.97362 4.04587 6.11806C4.04587 7.26249 4.97362 8.19024 6.11806 8.19024Z" stroke="black" stroke-width="1.1764" stroke-linecap="round" stroke-linejoin="round"/>
</svg>
