<svg width="18" height="18" viewBox="0 0 18 18" fill="none" xmlns="http://www.w3.org/2000/svg">
<g clip-path="url(#clip0_1_799)">
<path d="M11.625 4.125C12.45 4.125 13.125 3.45 13.125 2.625C13.125 1.8 12.45 1.125 11.625 1.125C10.8 1.125 10.125 1.8 10.125 2.625C10.125 3.45 10.8 4.125 11.625 4.125ZM3.75 9C1.65 9 0 10.65 0 12.75C0 14.85 1.65 16.5 3.75 16.5C5.85 16.5 7.5 14.85 7.5 12.75C7.5 10.65 5.85 9 3.75 9ZM3.75 15.375C2.325 15.375 1.125 14.175 1.125 12.75C1.125 11.325 2.325 10.125 3.75 10.125C5.175 10.125 6.375 11.325 6.375 12.75C6.375 14.175 5.175 15.375 3.75 15.375ZM8.1 7.875L9.9 6.075L10.5 6.675C11.295 7.47 12.285 8.01 13.47 8.19C13.92 8.2575 14.325 7.8975 14.325 7.44C14.325 7.0725 14.0475 6.7575 13.6875 6.6975C12.855 6.5625 12.1725 6.165 11.625 5.625L10.2 4.2C9.825 3.9 9.45 3.75 9 3.75C8.55 3.75 8.175 3.9 7.95 4.2L5.85 6.3C5.55 6.6 5.4 6.975 5.4 7.35C5.4 7.8 5.55 8.175 5.85 8.4L8.25 10.5V13.5C8.25 13.9125 8.5875 14.25 9 14.25C9.4125 14.25 9.75 13.9125 9.75 13.5V10.2C9.75 9.81 9.6 9.4425 9.3375 9.165L8.1 7.875ZM14.25 9C12.15 9 10.5 10.65 10.5 12.75C10.5 14.85 12.15 16.5 14.25 16.5C16.35 16.5 18 14.85 18 12.75C18 10.65 16.35 9 14.25 9ZM14.25 15.375C12.825 15.375 11.625 14.175 11.625 12.75C11.625 11.325 12.825 10.125 14.25 10.125C15.675 10.125 16.875 11.325 16.875 12.75C16.875 14.175 15.675 15.375 14.25 15.375Z" fill="black"/>
</g>
<defs>
<clipPath id="clip0_1_799">
<rect width="18" height="18" fill="white"/>
</clipPath>
</defs>
</svg>
