<svg width="18" height="18" viewBox="0 0 18 18" fill="none" xmlns="http://www.w3.org/2000/svg">
<path d="M7.8163 15.1957H4.8163C3.84421 15.1921 3.05605 14.4069 3.04891 13.4348V7.4674C3.05082 7.14199 3.19643 6.83405 3.44674 6.62609L3.975 6.23479C4.16786 6.02931 4.18747 5.71578 4.02172 5.48787C3.85597 5.25996 3.55164 5.18202 3.29674 5.30218L2.75543 5.70653C2.20941 6.12902 1.88538 6.77708 1.875 7.4674V13.4413C1.87859 15.0643 3.19335 16.379 4.8163 16.3826H7.8163C8.14047 16.3826 8.40326 16.1198 8.40326 15.7957C8.40326 15.4715 8.14047 15.2087 7.8163 15.2087V15.1957Z" fill="#200E32"/>
<path d="M15.9688 7.45527C15.9619 6.77002 15.6484 6.12389 15.1145 5.6944L10.6079 2.10092C9.61763 1.3049 8.20693 1.3049 7.21663 2.10092L5.78837 3.13788C5.52003 3.33058 5.45871 3.70432 5.65141 3.97266C5.84411 4.241 6.21785 4.30232 6.48619 4.10962L7.93402 3.02701C8.50229 2.55916 9.32227 2.55916 9.89054 3.02701L14.3971 6.62049C14.6564 6.82609 14.8097 7.13737 14.8145 7.46831V13.4422C14.8145 14.4147 14.0261 15.2031 13.0536 15.2031H11.7166C11.5798 15.2031 11.4688 15.0921 11.4688 14.9553V12.2618C11.4688 11.4035 10.7749 10.7067 9.91663 10.7031H7.96011C7.54671 10.7031 7.15025 10.8673 6.85794 11.1596C6.56563 11.4519 6.40141 11.8484 6.40141 12.2618V13.2922C6.40141 13.6164 6.6642 13.8792 6.98837 13.8792C7.31253 13.8792 7.57532 13.6164 7.57532 13.2922V12.2618C7.57357 12.1603 7.61265 12.0624 7.68378 11.9901C7.75491 11.9177 7.85212 11.877 7.95358 11.877H9.91011C10.119 11.877 10.2884 12.0464 10.2884 12.2553V14.9553C10.292 15.7415 10.9304 16.377 11.7166 16.377H13.021C14.6454 16.377 15.9623 15.0601 15.9623 13.4357L15.9688 7.45527Z" fill="#200E32"/>
</svg>
