<svg width="168" height="124" viewBox="0 0 168 124" fill="none" xmlns="http://www.w3.org/2000/svg">
<g clip-path="url(#clip0_1_304)">
<path d="M119.247 90.9486H28.7768C27.9707 90.9477 27.1979 90.6275 26.6279 90.0584C26.0579 89.4893 25.7373 88.7177 25.7363 87.9128V14.36C25.7373 13.5552 26.0579 12.7835 26.6279 12.2144C27.1979 11.6453 27.9707 11.3252 28.7768 11.3242H119.247C120.053 11.3252 120.826 11.6453 121.396 12.2144C121.966 12.7835 122.287 13.5552 122.288 14.36V87.9128C122.287 88.7177 121.966 89.4893 121.396 90.0584C120.826 90.6275 120.053 90.9477 119.247 90.9486Z" fill="#E6E6E6"/>
<path d="M30.8292 13.4844C30.0527 13.4853 29.3082 13.7937 28.7592 14.3419C28.2101 14.8901 27.9013 15.6334 27.9004 16.4087V85.8645C27.9013 86.6398 28.2102 87.383 28.7592 87.9312C29.3083 88.4794 30.0527 88.7878 30.8292 88.7887H92.7525C100.01 88.7804 106.968 85.8983 112.099 80.7744C117.231 75.6506 120.118 68.7035 120.126 61.4574V16.4087C120.125 15.6334 119.816 14.8901 119.267 14.3419C118.718 13.7937 117.974 13.4853 117.197 13.4844L30.8292 13.4844Z" fill="white"/>
<path d="M102.75 44.7213H86.3452C86.003 44.721 85.675 44.5851 85.4331 44.3435C85.1911 44.102 85.0551 43.7745 85.0547 43.4329V35.2807C85.0551 34.9391 85.1911 34.6115 85.4331 34.37C85.675 34.1284 86.003 33.9926 86.3452 33.9922H102.75C103.092 33.9926 103.42 34.1284 103.662 34.37C103.904 34.6115 104.04 34.9391 104.04 35.2807C105.055 38.1655 105.199 40.9067 104.04 43.4329C104.04 43.7745 103.904 44.102 103.662 44.3435C103.42 44.5851 103.092 44.721 102.75 44.7213Z" fill="#E6E6E6"/>
<path d="M100.807 43.9319H86.8698C86.5791 43.9316 86.3005 43.8162 86.0949 43.6109C85.8894 43.4057 85.7738 43.1275 85.7734 42.8372V35.9111C85.7738 35.6209 85.8894 35.3426 86.0949 35.1374C86.3005 34.9322 86.5791 34.8167 86.8698 34.8164H100.807C101.098 34.8167 101.376 34.9322 101.582 35.1374C101.787 35.3426 101.903 35.6209 101.903 35.9111C102.844 38.3778 102.995 40.7119 101.903 42.8372C101.903 43.1275 101.787 43.4057 101.582 43.6109C101.376 43.8162 101.098 43.9316 100.807 43.9319Z" fill="white"/>
<path d="M100.056 48.9913H89.0052C88.6801 48.9917 88.3681 48.8633 88.1379 48.6342C87.9076 48.405 87.778 48.094 87.7773 47.7694C87.7767 47.4448 87.9053 47.1333 88.1346 46.9033C88.364 46.6733 88.6755 46.5437 89.0006 46.543H100.056C100.381 46.5436 100.692 46.6728 100.921 46.9023C101.151 47.1318 101.28 47.4429 101.28 47.7671C101.28 48.0914 101.151 48.4024 100.921 48.6319C100.692 48.8614 100.381 48.9907 100.056 48.9913Z" fill="#E6E6E6"/>
<path d="M92.6259 36.6875C92.4988 36.6879 92.377 36.7386 92.2872 36.8284C92.1973 36.9182 92.1467 37.0399 92.1465 37.1668V42.3557C92.1465 42.4395 92.1685 42.5218 92.2103 42.5945C92.2522 42.6671 92.3124 42.7275 92.385 42.7696C92.4575 42.8116 92.5399 42.834 92.6238 42.8343C92.7077 42.8347 92.7903 42.813 92.8632 42.7715L97.4502 40.16C97.5239 40.1181 97.5852 40.0574 97.6277 39.9842C97.6702 39.9109 97.6925 39.8277 97.6923 39.743C97.6921 39.6583 97.6693 39.5752 97.6264 39.5021C97.5834 39.4291 97.5218 39.3687 97.4479 39.3272L92.8611 36.7496C92.7894 36.709 92.7084 36.6876 92.6259 36.6875Z" fill="#E6E6E6"/>
<path d="M159.546 114.074C159.293 113.753 158.95 113.514 158.56 113.39C158.17 113.266 157.752 113.261 157.359 113.376L157.273 113.401L156.503 116.404C156.388 115.956 156.141 114.946 155.985 113.957L155.972 113.876L155.895 113.909C155.09 114.264 154.333 114.72 153.642 115.265C152.419 116.245 151.423 117.479 150.726 118.882C150.028 120.285 149.645 121.823 149.602 123.389L149.601 123.447L149.6 123.483L149.702 123.447L151.89 122.665C152.859 122.751 153.835 122.619 154.746 122.28C155.658 121.94 156.481 121.402 157.158 120.704C158.042 119.773 158.649 118.575 159.235 117.416C159.407 117.079 159.583 116.731 159.762 116.396C159.963 116.031 160.05 115.615 160.011 115.202C159.973 114.788 159.811 114.395 159.546 114.074Z" fill="#F2F2F2"/>
<path d="M103.66 37.5091C103.704 37.7364 103.797 37.9513 103.933 38.1387C104.069 38.326 104.245 38.4814 104.447 38.5936C104.65 38.7059 104.875 38.7725 105.106 38.7886C105.338 38.8047 105.57 38.77 105.786 38.687L112.327 46.284L113.155 43.4795L106.67 36.529C106.506 36.1753 106.218 35.8939 105.86 35.7382C105.503 35.5824 105.1 35.5631 104.729 35.6839C104.358 35.8047 104.044 36.0572 103.847 36.3936C103.65 36.73 103.583 37.1269 103.66 37.5091Z" fill="#FFB8B8"/>
<path d="M130.02 121.629H127.856L126.826 113.293H130.021L130.02 121.629Z" fill="#FFB6B6"/>
<path d="M129.962 120.923L127.651 119.984L127.584 119.957L126.308 120.923C125.588 120.923 124.897 121.209 124.388 121.717C123.878 122.226 123.592 122.916 123.592 123.635V123.723H130.571V120.923H129.962Z" fill="#2F2E41"/>
<path d="M145.46 121.629H143.295L142.266 113.293H145.46L145.46 121.629Z" fill="#FFB6B6"/>
<path d="M145.403 120.923L143.092 119.984L143.026 119.957L141.75 120.923C141.029 120.923 140.338 121.209 139.829 121.717C139.32 122.226 139.033 122.916 139.033 123.635V123.723H146.012V120.923H145.403Z" fill="#2F2E41"/>
<path d="M140.352 71.8516C140.352 71.8516 143.067 74.6717 143.067 76.9888C143.067 79.306 142.388 82.4876 143.067 83.184C143.745 83.8803 144.594 84.7274 143.576 85.7439C142.557 86.7604 142.048 87.2687 142.727 87.9464C143.406 88.6241 143.067 100.483 143.067 100.483L146.63 116.409H142.141L136.449 100.483L134.922 87.2687L129.983 99.9751L130.528 116.545L125.835 116.409L123.893 98.7892C123.893 98.7892 126.777 82.0287 126.268 81.5991C125.759 81.1696 126.268 80.3025 126.268 80.3025L127.626 73.8846L140.352 71.8516Z" fill="#2F2E41"/>
<path d="M135.038 51.8548C135.038 51.8548 135.961 48.2228 131.708 47.1814C127.455 46.1401 115.298 44.8023 115.298 44.8023L109.154 38.293L107.072 41.3116L113.96 49.8572L130.279 53.204L135.038 51.8548Z" fill="#3F3D56"/>
<path d="M108.083 41.0907C108.273 40.8439 108.423 40.5677 108.525 40.273L109.406 38.1114L109.177 38.1019C108.861 38.0424 108.535 38.0504 108.222 38.1253C107.909 38.2002 107.615 38.3404 107.36 38.5366C107.105 38.7328 106.894 38.9806 106.741 39.2638C106.589 39.547 106.498 39.8592 106.475 40.1799C106.446 40.4573 106.496 40.7373 106.619 40.9877C106.681 41.1118 106.773 41.2194 106.885 41.3016C106.997 41.3838 107.127 41.4383 107.265 41.4606C107.421 41.469 107.576 41.4397 107.719 41.3753C107.861 41.3109 107.986 41.2133 108.083 41.0907Z" fill="#E6E6E6"/>
<path d="M126.759 74.7487L126.25 78.4331C126.25 78.4331 127.268 79.5247 127.777 79.3883C128.286 79.2518 130.153 78.4575 130.153 78.4575C130.153 78.4575 132.359 79.6612 133.546 79.7977C134.734 79.9341 141.012 79.1154 141.182 78.706C141.352 78.2966 143.324 76.6941 143.324 76.6941L142.539 72.0195L126.759 74.7487Z" fill="#E6E6E6"/>
<path d="M143.291 61.8604C143.291 61.8604 142.86 65.4131 143.199 65.7401C143.539 66.0653 142.86 68.1238 142.181 69.4791C141.502 70.8345 142.69 71.0039 142.69 72.0204C142.69 73.0369 143.199 76.7641 143.199 76.7641C143.199 76.7641 137.939 77.103 137.091 76.2559C136.242 75.4088 134.885 76.0865 133.018 77.9501C131.152 79.8137 127.098 78.2889 126.25 77.4418C125.401 76.5947 126.91 73.5452 127.419 72.9539C127.928 72.3626 126.929 73.0471 126.42 71.1733C125.911 69.2995 126.91 69.4791 127.758 68.632C128.607 67.7849 127.758 66.2602 127.08 64.7354C126.401 63.2106 126.91 51.8596 126.91 49.1489C126.91 46.4381 130.643 46.0993 130.643 46.0993L132.121 44.2442L133.207 42.8804L135.335 42.7956L135.391 42.794L137.449 42.7109L138.448 43.8732L140.654 46.4382L143.199 46.9464C145.235 47.6241 144.726 51.8596 144.726 51.8596L143.291 61.8604Z" fill="#3F3D56"/>
<path d="M135.231 42.0615C137.64 42.0615 139.593 40.1117 139.593 37.7065C139.593 35.3013 137.64 33.3516 135.231 33.3516C132.822 33.3516 130.869 35.3013 130.869 37.7065C130.869 40.1117 132.822 42.0615 135.231 42.0615Z" fill="#FFB6B6"/>
<path d="M140.287 36.2386C139.087 35.504 139.241 33.5833 138.085 32.9126C137.51 32.5819 136.864 32.3947 136.202 32.3669C135.539 32.3391 134.88 32.4716 134.28 32.753C133.465 32.4052 132.49 32.6827 131.839 33.3107C131.187 33.9388 130.835 34.8652 130.731 35.7969C130.656 36.733 130.723 37.6751 130.931 38.5911C130.995 38.2231 131.06 37.855 131.125 37.487L134.563 36.7367C134.259 37.0097 133.954 37.2828 133.65 37.5559C135.207 37.9098 136.841 37.6547 138.216 36.8429C139.713 37.5129 139.441 39.0177 138.127 41.0146C138.637 41.8617 141.654 37.0756 140.287 36.2386Z" fill="#2F2E41"/>
<path d="M138.448 43.8734C138.439 43.8813 138.429 43.8886 138.418 43.8954C138.058 44.1095 137.647 44.2208 137.228 44.2173C136.681 44.2629 136.137 44.0927 135.713 43.7429C135.491 43.5328 134.607 43.9767 134.027 44.2224C133.418 44.4743 132.735 44.4822 132.121 44.2444L133.207 42.8806L134.997 42.4844H135.444L137.449 42.7112L138.448 43.8734Z" fill="#E6E6E6"/>
<path d="M167.735 123.93L107.021 123.998C106.986 123.998 106.952 123.992 106.919 123.979C106.887 123.965 106.858 123.946 106.833 123.921C106.808 123.897 106.788 123.868 106.775 123.836C106.761 123.803 106.754 123.769 106.754 123.734C106.754 123.699 106.76 123.665 106.774 123.632C106.787 123.6 106.806 123.571 106.831 123.546C106.855 123.521 106.885 123.501 106.917 123.488C106.949 123.474 106.984 123.467 107.019 123.467H107.021L167.735 123.398C167.806 123.399 167.873 123.427 167.923 123.477C167.972 123.526 168 123.594 168 123.664C168 123.734 167.972 123.802 167.923 123.851C167.873 123.901 167.806 123.929 167.735 123.93Z" fill="#CACACA"/>
<path d="M95.0386 34.7295H94.5918V2.82031H112.165V3.26646H95.0386V34.7295Z" fill="#3F3D56"/>
<path d="M125.832 0H113.99C113.22 0 112.481 0.305533 111.937 0.849382C111.392 1.39323 111.086 2.13085 111.086 2.89997C111.086 3.66909 111.392 4.40671 111.937 4.95056C112.481 5.49441 113.22 5.79994 113.99 5.79994H125.832C126.602 5.79994 127.341 5.49441 127.885 4.95056C128.43 4.40671 128.736 3.66909 128.736 2.89997C128.736 2.13085 128.43 1.39323 127.885 0.849382C127.341 0.305533 126.602 0 125.832 0Z" fill="#00C2FF"/>
<path d="M94.5557 37.65C96.0297 37.65 97.2246 36.4569 97.2246 34.9851C97.2246 33.5134 96.0297 32.3203 94.5557 32.3203C93.0816 32.3203 91.8867 33.5134 91.8867 34.9851C91.8867 36.4569 93.0816 37.65 94.5557 37.65Z" fill="#00C2FF"/>
<path d="M62.3945 44.9973L74.1031 42.292L77.4639 41.5155C77.8842 41.4183 77.7096 40.7721 77.289 40.8693L65.5805 43.5746L62.2197 44.3511C61.7993 44.4482 61.974 45.0944 62.3945 44.9973Z" fill="#F2F2F2"/>
<path d="M74.4852 37.9539L80.7531 40.8327C80.9671 40.9066 81.1674 41.0149 81.3463 41.1533C81.5193 41.3225 81.3934 41.4853 81.2521 41.6327C80.8303 42.026 80.3848 42.3932 79.918 42.7321L77.2476 44.8998C76.9124 45.1719 77.3854 45.6468 77.7175 45.3772L80.0433 43.4892L81.2062 42.5452C81.5357 42.2778 81.9368 42.0049 82.0692 41.5788C82.3473 40.6837 81.2496 40.3278 80.6395 40.0476L77.9099 38.7939L74.8265 37.3777C74.4378 37.1992 74.0935 37.774 74.4852 37.9539Z" fill="#F2F2F2"/>
<path d="M160.983 59.868C159.866 59.1121 158.509 58.8312 157.183 58.7359C155.676 58.654 154.166 58.6558 152.659 58.7412C151.093 58.8031 149.531 58.9162 147.972 59.0805C146.415 59.245 144.865 59.4606 143.321 59.7271C141.939 59.942 140.571 60.2409 139.226 60.6222C137.952 60.9742 136.752 61.5527 135.684 62.3298C134.747 63.0339 134.026 63.9864 133.603 65.0792C133.188 66.1041 133.118 67.2357 133.402 68.304C133.554 68.8229 133.813 69.3041 134.163 69.7161C134.568 70.1682 135.048 70.5475 135.582 70.8374C136.689 71.4689 137.944 71.8486 138.946 72.6572C139.211 72.8687 139.451 73.1078 139.665 73.3703C139.81 73.5735 140.01 73.7308 140.242 73.8236C140.461 73.9002 140.699 73.9102 140.924 73.8523C141.15 73.7943 141.353 73.6711 141.508 73.498C141.709 73.2239 141.876 72.9268 142.007 72.6132L142.535 71.5951C142.571 71.506 142.615 71.4208 142.667 71.3406C142.707 71.2934 142.636 71.3416 142.65 71.3291C142.657 71.3223 142.672 71.3225 142.681 71.3171C142.725 71.2954 142.77 71.2779 142.817 71.2648C143.306 71.0787 143.797 70.8984 144.291 70.724C146.111 70.0761 147.954 69.4789 149.826 68.9952C150.789 68.7373 151.766 68.5332 152.752 68.384C154.029 68.2024 155.325 68.2235 156.608 68.0994C157.989 67.9657 159.414 67.6866 160.598 66.9273C161.578 66.3331 162.332 65.4314 162.744 64.3635C162.922 63.8546 162.983 63.312 162.923 62.7762C162.769 61.5639 161.975 60.5401 160.983 59.868Z" fill="#E6E6E6"/>
<path d="M158.698 60.55C157.689 59.8669 156.463 59.6131 155.265 59.527C153.903 59.453 152.538 59.4546 151.176 59.5318C149.761 59.5877 148.35 59.6899 146.941 59.8384C145.534 59.9871 144.133 60.1818 142.738 60.4227C141.489 60.6169 140.253 60.887 139.037 61.2316C137.886 61.5497 136.802 62.0724 135.836 62.7747C134.989 63.411 134.338 64.2717 133.956 65.2592C133.581 66.1854 133.517 67.208 133.774 68.1734C133.911 68.6423 134.146 69.0772 134.462 69.4495C134.828 69.858 135.262 70.2008 135.744 70.4627C136.745 71.0335 137.879 71.3766 138.784 72.1073C139.023 72.2984 139.241 72.5144 139.434 72.7517C139.565 72.9353 139.746 73.0774 139.955 73.1613C140.154 73.2305 140.368 73.2396 140.572 73.1872C140.776 73.1349 140.959 73.0235 141.1 72.8671C141.281 72.6193 141.432 72.3509 141.55 72.0675L142.028 71.1475C142.059 71.067 142.099 70.9899 142.147 70.9175C142.183 70.8748 142.119 70.9183 142.131 70.9071C142.138 70.901 142.152 70.9011 142.159 70.8962C142.199 70.8766 142.24 70.8608 142.283 70.849C142.724 70.6808 143.168 70.5179 143.614 70.3603C145.259 69.7748 146.924 69.2351 148.616 68.798C149.486 68.5649 150.369 68.3805 151.26 68.2457C152.414 68.0816 153.585 68.1007 154.745 67.9885C155.993 67.8677 157.28 67.6155 158.351 66.9293C159.236 66.3923 159.918 65.5775 160.289 64.6125C160.451 64.1525 160.506 63.6623 160.451 63.1781C160.312 62.0825 159.595 61.1573 158.698 60.55Z" fill="white"/>
<path d="M156.583 61.783L140.139 64.8112C140.092 64.8201 140.044 64.8197 139.997 64.81C139.95 64.8003 139.905 64.7814 139.866 64.7545C139.826 64.7275 139.792 64.6931 139.766 64.6531C139.74 64.6131 139.722 64.5683 139.713 64.5213C139.704 64.4743 139.705 64.4261 139.715 64.3793C139.725 64.3325 139.744 64.2882 139.771 64.2488C139.798 64.2094 139.833 64.1757 139.873 64.1497C139.913 64.1236 139.958 64.1058 140.005 64.0971L140.007 64.0967L156.451 61.0685C156.498 61.0599 156.546 61.0605 156.593 61.0705C156.64 61.0805 156.684 61.0995 156.723 61.1266C156.763 61.1536 156.796 61.1881 156.822 61.2282C156.848 61.2682 156.866 61.313 156.875 61.3599C156.883 61.4068 156.883 61.4549 156.873 61.5016C156.863 61.5482 156.844 61.5925 156.817 61.6318C156.789 61.6711 156.755 61.7046 156.715 61.7306C156.675 61.7565 156.63 61.7743 156.583 61.783Z" fill="#E6E6E6"/>
<path d="M156.989 63.9783L140.545 67.0065C140.498 67.0154 140.45 67.015 140.403 67.0053C140.356 66.9956 140.312 66.9767 140.272 66.9498C140.233 66.9228 140.199 66.8884 140.173 66.8484C140.146 66.8084 140.128 66.7636 140.12 66.7166C140.111 66.6696 140.111 66.6214 140.121 66.5746C140.131 66.5279 140.15 66.4835 140.177 66.4441C140.204 66.4047 140.239 66.371 140.279 66.345C140.319 66.319 140.364 66.3011 140.411 66.2924L140.413 66.292L156.857 63.2638C156.904 63.2552 156.952 63.2559 156.999 63.2658C157.046 63.2758 157.09 63.2948 157.129 63.3219C157.169 63.3489 157.202 63.3835 157.228 63.4235C157.254 63.4635 157.272 63.5083 157.281 63.5552C157.29 63.6021 157.289 63.6502 157.279 63.6969C157.269 63.7436 157.25 63.7878 157.223 63.8271C157.196 63.8664 157.161 63.8999 157.121 63.9259C157.081 63.9518 157.036 63.9696 156.989 63.9783Z" fill="#E6E6E6"/>
<path d="M142.866 68.8453L140.95 69.1982C140.855 69.2153 140.758 69.1942 140.678 69.1396C140.599 69.0849 140.545 69.0011 140.528 68.9066C140.51 68.8121 140.531 68.7145 140.585 68.6353C140.64 68.556 140.723 68.5015 140.818 68.4838L142.734 68.1309C142.829 68.1137 142.927 68.1347 143.006 68.1893C143.085 68.244 143.14 68.3278 143.157 68.4224C143.175 68.517 143.154 68.6146 143.099 68.6939C143.045 68.7732 142.961 68.8276 142.866 68.8453Z" fill="#E6E6E6"/>
<path d="M141.478 77.9598C142.318 77.8051 142.873 77 142.718 76.1614C142.563 75.3228 141.757 74.7684 140.917 74.9231C140.077 75.0777 139.522 75.8829 139.677 76.7215C139.832 77.56 140.638 78.1145 141.478 77.9598Z" fill="#D1D3D4"/>
<path d="M56.3779 44.306H42.3324C41.6804 44.3052 41.0553 44.0463 40.5942 43.5859C40.1332 43.1256 39.8738 42.5015 39.873 41.8505V32.6079C39.8738 31.9569 40.1332 31.3327 40.5942 30.8724C41.0553 30.4121 41.6804 30.1531 42.3324 30.1523H56.3779C57.0299 30.1531 57.655 30.4121 58.1161 30.8724C58.5771 31.3327 58.8365 31.9569 58.8373 32.6079V41.8505C58.8365 42.5015 58.5771 43.1256 58.1161 43.586C57.655 44.0463 57.0299 44.3052 56.3779 44.306Z" fill="#E6E6E6"/>
<path d="M54.8351 43.8104H42.6111C42.0436 43.8097 41.4996 43.5843 41.0984 43.1837C40.6971 42.783 40.4714 42.2398 40.4707 41.6732V33.6293C40.4714 33.0627 40.6971 32.5195 41.0984 32.1189C41.4996 31.7182 42.0436 31.4929 42.6111 31.4922H54.8351C55.4026 31.4929 55.9466 31.7182 56.3479 32.1189C56.7492 32.5195 56.9749 33.0627 56.9756 33.6293V41.6733C56.9749 42.2398 56.7492 42.783 56.3479 43.1837C55.9466 43.5843 55.4026 43.8097 54.8351 43.8104Z" fill="white"/>
<path d="M58.3559 52.6327H40.3336C40.2223 52.6325 40.1155 52.5881 40.0369 52.5094C39.9582 52.4307 39.9141 52.324 39.9141 52.2128C39.9141 52.1017 39.9582 51.995 40.0369 51.9163C40.1155 51.8376 40.2223 51.7932 40.3336 51.793H58.3559C58.4672 51.7932 58.5739 51.8376 58.6526 51.9163C58.7312 51.995 58.7754 52.1017 58.7754 52.2128C58.7754 52.324 58.7312 52.4307 58.6526 52.5094C58.5739 52.5881 58.4672 52.6325 58.3559 52.6327Z" fill="#E6E6E6"/>
<path d="M58.3559 50.2343H40.3336C40.2223 50.234 40.1155 50.1897 40.0369 50.111C39.9582 50.0322 39.9141 49.9256 39.9141 49.8144C39.9141 49.7032 39.9582 49.5966 40.0369 49.5179C40.1155 49.4391 40.2223 49.3948 40.3336 49.3945H58.3559C58.4672 49.3948 58.5739 49.4391 58.6526 49.5179C58.7312 49.5966 58.7754 49.7032 58.7754 49.8144C58.7754 49.9256 58.7312 50.0322 58.6526 50.111C58.5739 50.1897 58.4672 50.234 58.3559 50.2343Z" fill="#E6E6E6"/>
<path d="M58.3568 55.0351H40.3346C40.2231 55.0351 40.1161 54.9908 40.0372 54.9121C39.9584 54.8333 39.9141 54.7265 39.9141 54.6152C39.9141 54.5038 39.9584 54.397 40.0372 54.3183C40.1161 54.2396 40.2231 54.1953 40.3346 54.1953H58.3568C58.4684 54.1953 58.5753 54.2396 58.6542 54.3183C58.733 54.397 58.7773 54.5038 58.7773 54.6152C58.7773 54.7265 58.733 54.8333 58.6542 54.9121C58.5753 54.9908 58.4684 55.0351 58.3568 55.0351Z" fill="#E6E6E6"/>
<path d="M58.3568 57.4335H40.3346C40.2231 57.4335 40.1161 57.3893 40.0372 57.3105C39.9584 57.2318 39.9141 57.125 39.9141 57.0136C39.9141 56.9023 39.9584 56.7955 40.0372 56.7167C40.1161 56.638 40.2231 56.5938 40.3346 56.5938H58.3568C58.4684 56.5938 58.5753 56.638 58.6542 56.7167C58.733 56.7955 58.7773 56.9023 58.7773 57.0136C58.7773 57.125 58.733 57.2318 58.6542 57.3105C58.5753 57.3893 58.4684 57.4335 58.3568 57.4335Z" fill="#E6E6E6"/>
<path d="M58.3568 59.8319H40.3346C40.2231 59.8319 40.1161 59.7877 40.0372 59.709C39.9584 59.6302 39.9141 59.5234 39.9141 59.4121C39.9141 59.3007 39.9584 59.1939 40.0372 59.1152C40.1161 59.0364 40.2231 58.9922 40.3346 58.9922H58.3568C58.4684 58.9922 58.5753 59.0364 58.6542 59.1152C58.733 59.1939 58.7773 59.3007 58.7773 59.4121C58.7773 59.5234 58.733 59.6302 58.6542 59.709C58.5753 59.7877 58.4684 59.8319 58.3568 59.8319Z" fill="#E6E6E6"/>
<path d="M58.3559 62.2304H40.3336C40.2223 62.2301 40.1155 62.1858 40.0369 62.1071C39.9582 62.0283 39.9141 61.9217 39.9141 61.8105C39.9141 61.6993 39.9582 61.5927 40.0369 61.5139C40.1155 61.4352 40.2223 61.3909 40.3336 61.3906H58.3559C58.4672 61.3909 58.5739 61.4352 58.6526 61.5139C58.7312 61.5927 58.7754 61.6993 58.7754 61.8105C58.7754 61.9217 58.7312 62.0283 58.6526 62.1071C58.5739 62.1858 58.4672 62.2301 58.3559 62.2304Z" fill="#E6E6E6"/>
<path d="M48.4445 56.7305H48.8914V73.9168H16.5723V73.4706H48.4445V56.7305Z" fill="#3F3D56"/>
<path d="M2.90445 76.7374H14.7457C15.516 76.7374 16.2547 76.4319 16.7994 75.8881C17.3441 75.3442 17.6501 74.6066 17.6501 73.8375C17.6501 73.0683 17.3441 72.3307 16.7994 71.7869C16.2547 71.243 15.516 70.9375 14.7457 70.9375H2.90445C2.13414 70.9375 1.39538 71.243 0.850694 71.7869C0.306004 72.3307 0 73.0683 0 73.8375C0 74.6066 0.306004 75.3442 0.850694 75.8881C1.39538 76.4319 2.13414 76.7374 2.90445 76.7374Z" fill="#00C2FF"/>
<path d="M48.9775 58.025C50.4516 58.025 51.6465 56.8319 51.6465 55.3601C51.6465 53.8884 50.4516 52.6953 48.9775 52.6953C47.5035 52.6953 46.3086 53.8884 46.3086 55.3601C46.3086 56.8319 47.5035 58.025 48.9775 58.025Z" fill="#00C2FF"/>
<path d="M62.7726 56.1013C66.6911 56.9328 65.6943 57.0951 69.6128 57.9266L72.987 58.6426C73.4091 58.7322 73.5246 58.0729 73.1024 57.9833C69.1839 57.1518 70.1807 56.9895 66.2622 56.158L62.888 55.4419C62.4659 55.3524 62.3503 56.0117 62.7726 56.1013Z" fill="#F2F2F2"/>
<path d="M71.7997 54.1556L76.2593 59.4118C76.4218 59.5691 76.5575 59.7518 76.6609 59.9528C76.7459 60.1792 76.5629 60.2735 76.3725 60.3474C75.8236 60.5256 75.2643 60.6701 74.6977 60.7801L71.3596 61.6162C70.9406 61.7212 71.168 62.3512 71.5831 62.2472L74.4905 61.519L75.9442 61.1549C76.3561 61.0517 76.8351 60.9738 77.1356 60.6437C77.7669 59.9502 76.923 59.164 76.489 58.6524L74.5469 56.3634L72.3531 53.7777C72.0765 53.4518 71.521 53.8272 71.7997 54.1556Z" fill="#F2F2F2"/>
<path d="M85.939 77.0659C89.3668 77.0659 92.1456 74.2914 92.1456 70.8689C92.1456 67.4464 89.3668 64.6719 85.939 64.6719C82.5112 64.6719 79.7324 67.4464 79.7324 70.8689C79.7324 74.2914 82.5112 77.0659 85.939 77.0659Z" fill="#E6E6E6"/>
<path d="M85.3337 76.2778C87.9396 76.2778 90.0522 74.1686 90.0522 71.5667C90.0522 68.9647 87.9396 66.8555 85.3337 66.8555C82.7278 66.8555 80.6152 68.9647 80.6152 71.5667C80.6152 74.1686 82.7278 76.2778 85.3337 76.2778Z" fill="white"/>
<path d="M84.4873 74.7912C84.3801 74.7912 84.2744 74.7663 84.1785 74.7184C84.0827 74.6706 83.9993 74.601 83.935 74.5154L82.2418 72.2612C82.1874 72.1888 82.1477 72.1064 82.1252 72.0187C82.1026 71.9311 82.0976 71.8398 82.1104 71.7502C82.1232 71.6606 82.1535 71.5743 82.1997 71.4964C82.2458 71.4185 82.3069 71.3504 82.3794 71.2961C82.4519 71.2417 82.5344 71.2022 82.6222 71.1797C82.7101 71.1572 82.8014 71.1522 82.8912 71.1649C82.981 71.1777 83.0673 71.208 83.1454 71.254C83.2234 71.3001 83.2916 71.3611 83.346 71.4335L83.3464 71.4341L84.4542 72.9087L87.2994 68.6476C87.3496 68.5721 87.4143 68.5073 87.4896 68.4568C87.565 68.4063 87.6495 68.3711 87.7385 68.3533C87.8275 68.3355 87.9191 68.3354 88.0081 68.3529C88.0971 68.3705 88.1818 68.4054 88.2573 68.4556C88.3328 68.5059 88.3977 68.5705 88.4481 68.6458C88.4986 68.7211 88.5337 68.8056 88.5514 68.8944C88.5692 68.9833 88.5692 69.0748 88.5515 69.1636C88.5338 69.2525 88.4987 69.337 88.4483 69.4123L85.0618 74.4842C85.0006 74.576 84.9182 74.6517 84.8215 74.7051C84.7249 74.7584 84.6169 74.7879 84.5065 74.791C84.5001 74.7911 84.4937 74.7912 84.4873 74.7912Z" fill="#E6E6E6"/>
<path d="M143.894 77.2536C144.094 77.1363 144.265 76.9767 144.397 76.786C144.528 76.5952 144.616 76.3781 144.654 76.1498C144.692 75.9215 144.68 75.6876 144.618 75.4646C144.556 75.2416 144.445 75.0349 144.294 74.8591L149.278 66.1641L146.354 66.3227L141.962 74.7486C141.683 75.0211 141.514 75.3863 141.486 75.775C141.459 76.1638 141.575 76.5491 141.813 76.8578C142.052 77.1666 142.395 77.3774 142.778 77.4504C143.162 77.5234 143.559 77.4533 143.894 77.2536Z" fill="#FFB8B8"/>
<path d="M138.279 46.7758C138.279 46.7758 143.557 45.0816 144.915 49.1477C146.272 53.2137 150.836 64.226 150.836 64.226L145.933 74.2217L143.727 71.8498L146.085 64.9036L139.297 54.7385L138.279 46.7758Z" fill="#3F3D56"/>
<path d="M146.102 73.2025C145.943 72.9341 145.741 72.6933 145.505 72.4895L143.821 70.8711L143.727 71.0797C143.555 71.3511 143.441 71.6559 143.395 71.9741C143.349 72.2923 143.37 72.6167 143.458 72.926C143.546 73.2354 143.698 73.5227 143.905 73.7691C144.112 74.0155 144.369 74.2155 144.658 74.3559C144.906 74.4855 145.185 74.543 145.463 74.5219C145.602 74.5098 145.736 74.4651 145.854 74.3915C145.972 74.3179 146.071 74.2174 146.143 74.0982C146.208 73.9566 146.239 73.8013 146.232 73.6454C146.224 73.4895 146.18 73.3376 146.102 73.2025Z" fill="#E6E6E6"/>
<path d="M85.8843 79.207H85.4375V96.3934H100.553V95.9472H85.8843V79.207Z" fill="#3F3D56"/>
<path d="M117.125 96.314C117.124 95.5451 116.818 94.8079 116.273 94.2642C115.729 93.7206 114.99 93.4148 114.22 93.4141H102.379C101.609 93.4141 100.87 93.7196 100.325 94.2634C99.7806 94.8073 99.4746 95.5449 99.4746 96.314C99.4746 97.0831 99.7806 97.8208 100.325 98.3646C100.87 98.9085 101.609 99.214 102.379 99.214H114.22C114.99 99.2133 115.729 98.9075 116.273 98.3638C116.818 97.8201 117.124 97.0829 117.125 96.314Z" fill="#00C2FF"/>
<path d="M85.3506 80.5015C86.8246 80.5015 88.0195 79.3084 88.0195 77.8367C88.0195 76.365 86.8246 75.1719 85.3506 75.1719C83.8766 75.1719 82.6816 76.365 82.6816 77.8367C82.6816 79.3084 83.8766 80.5015 85.3506 80.5015Z" fill="#00C2FF"/>
</g>
<defs>
<clipPath id="clip0_1_304">
<rect width="168" height="124" fill="white"/>
</clipPath>
</defs>
</svg>
