<svg width="17" height="23" viewBox="0 0 17 23" fill="none" xmlns="http://www.w3.org/2000/svg">
<path d="M0 12.3214V20.5357C0 21.9321 1.105 23 2.55 23H14.45C15.895 23 17 21.9321 17 20.5357V2.46429C17 1.06786 15.895 0 14.45 0H2.55C1.105 0 0 1.06786 0 2.46429V12.3214ZM13.6 12.3214C13.6 11.8286 13.94 11.5 14.45 11.5C14.96 11.5 15.3 11.8286 15.3 12.3214V17.25C15.3 17.7429 14.96 18.0714 14.45 18.0714C13.94 18.0714 13.6 17.7429 13.6 17.25V12.3214ZM13.855 19.9607C14.195 19.6321 14.705 19.6321 15.045 19.9607C15.215 20.125 15.3 20.3714 15.3 20.5357C15.3 20.7 15.215 20.9464 15.045 21.1107C14.875 21.275 14.705 21.3571 14.45 21.3571C14.195 21.3571 14.025 21.275 13.855 21.1107C13.685 20.9464 13.6 20.7821 13.6 20.5357C13.6 20.2893 13.685 20.125 13.855 19.9607ZM7.65 1.64286H9.35C9.86 1.64286 10.2 1.97143 10.2 2.46429C10.2 2.95714 9.86 3.28571 9.35 3.28571H7.65C7.14 3.28571 6.8 2.95714 6.8 2.46429C6.8 1.97143 7.14 1.64286 7.65 1.64286Z" fill="#6B5CFF"/>
</svg>
