<svg width="26" height="26" viewBox="0 0 26 26" fill="none" xmlns="http://www.w3.org/2000/svg">
<path d="M23.2286 18.2731C23.0011 17.8669 22.7248 17.4606 22.4161 17.03C21.6814 16.1126 21.1722 15.0356 20.9292 13.8856L20.588 9.09187C20.3848 5.37875 18.2155 1.625 13.9011 1.625H12.0973C7.78297 1.625 5.59734 5.37875 5.37797 9.08375L5.03672 13.8856C4.79484 15.0458 4.28573 16.1335 3.54984 17.0625C3.27359 17.485 2.99734 17.875 2.81047 18.2406C2.60991 18.5098 2.48844 18.8296 2.45973 19.1641C2.43103 19.4985 2.49622 19.8343 2.64797 20.1337C2.82502 20.4482 3.08585 20.7073 3.40144 20.8823C3.71702 21.0573 4.07498 21.1413 4.43547 21.125H10.708C10.5743 21.4932 10.5314 21.8881 10.5828 22.2764C10.6342 22.6647 10.7784 23.0349 11.0032 23.3556C11.228 23.6763 11.5267 23.9382 11.8742 24.119C12.2216 24.2997 12.6075 24.3941 12.9992 24.3941C13.3909 24.3941 13.7768 24.2997 14.1242 24.119C14.4717 23.9382 14.7705 23.6763 14.9953 23.3556C15.2201 23.0349 15.3643 22.6647 15.4156 22.2764C15.467 21.8881 15.4241 21.4932 15.2905 21.125H21.563C21.9268 21.1382 22.287 21.0493 22.6029 20.8684C22.9188 20.6875 23.1778 20.4217 23.3505 20.1012C23.5023 19.8154 23.5714 19.4928 23.5499 19.1698C23.5283 18.8469 23.4171 18.5363 23.2286 18.2731ZM13.8117 21.9375C13.8117 22.0982 13.7641 22.2553 13.6748 22.3889C13.5855 22.5225 13.4586 22.6267 13.3101 22.6882C13.1617 22.7496 12.9983 22.7657 12.8407 22.7344C12.6831 22.703 12.5383 22.6257 12.4247 22.512C12.3111 22.3984 12.2337 22.2536 12.2023 22.096C12.171 21.9384 12.1871 21.775 12.2486 21.6266C12.3101 21.4781 12.4142 21.3512 12.5478 21.2619C12.6814 21.1726 12.8385 21.125 12.9992 21.125C13.2147 21.125 13.4214 21.2106 13.5737 21.363C13.7261 21.5153 13.8117 21.722 13.8117 21.9375ZM21.9367 19.3619C21.9367 19.4269 21.7986 19.5 21.5955 19.5H4.43547C4.23234 19.5 4.12672 19.4269 4.09422 19.3619C4.06172 19.2969 4.09422 19.2075 4.17547 19.0775C4.39484 18.7037 4.64672 18.3137 4.90672 17.9237C5.71922 16.7537 6.53172 15.4212 6.65359 13.9994L7.00297 9.1975C7.17359 6.45125 8.61172 3.25 12.0973 3.25H13.9011C17.3867 3.25 18.8248 6.45125 18.9955 9.20562L19.3448 13.9994C19.4423 15.4375 20.3117 16.7537 21.1242 17.9237C21.3842 18.3137 21.6361 18.7362 21.8961 19.1506C21.922 19.1785 21.9395 19.2131 21.9467 19.2504C21.9538 19.2878 21.9504 19.3264 21.9367 19.3619Z" fill="white"/>
</svg>
