<svg width="19" height="19" viewBox="0 0 19 19" fill="none" xmlns="http://www.w3.org/2000/svg">
<g clip-path="url(#clip0_1_1396)">
<path d="M2.77083 18.9987H14.6458C15.3818 18.9966 16.087 18.7026 16.6064 18.1812C17.1259 17.6598 17.4173 16.9536 17.4167 16.2176V10.2508C17.4167 10.0408 17.3333 9.83945 17.1848 9.69099C17.0363 9.54252 16.835 9.45911 16.625 9.45911C16.415 9.45911 16.2137 9.54252 16.0652 9.69099C15.9167 9.83945 15.8333 10.0408 15.8333 10.2508V16.2176C15.8344 16.5338 15.7099 16.8375 15.4873 17.0621C15.2647 17.2866 14.962 17.4137 14.6458 17.4154H2.77083C2.45462 17.4137 2.15199 17.2866 1.92936 17.0621C1.70673 16.8375 1.58228 16.5338 1.58333 16.2176V4.36316C1.58228 4.04694 1.70673 3.74323 1.92936 3.51866C2.15199 3.2941 2.45462 3.16704 2.77083 3.16536H8.70833C8.9183 3.16536 9.11966 3.08196 9.26813 2.93349C9.41659 2.78502 9.5 2.58366 9.5 2.3737C9.5 2.16373 9.41659 1.96237 9.26813 1.81391C9.11966 1.66544 8.9183 1.58203 8.70833 1.58203H2.77083C2.03482 1.58413 1.32971 1.87814 0.810238 2.39954C0.290764 2.92095 -0.000631031 3.62714 1.02609e-06 4.36316V16.2176C-0.000631031 16.9536 0.290764 17.6598 0.810238 18.1812C1.32971 18.7026 2.03482 18.9966 2.77083 18.9987Z" fill="#00C2FF"/>
<path d="M7.48652 8.34767L6.86189 11.2088C6.83362 11.3385 6.83845 11.4733 6.87594 11.6007C6.91344 11.7282 6.98238 11.8441 7.07644 11.9379C7.17178 12.0293 7.28776 12.0964 7.41455 12.1335C7.54134 12.1705 7.67519 12.1765 7.80477 12.1508L10.6595 11.5246C10.8077 11.4921 10.9435 11.4176 11.0506 11.3101L18.2659 4.09484C18.4864 3.8743 18.6614 3.61246 18.7808 3.32429C18.9002 3.03611 18.9616 2.72724 18.9616 2.41532C18.9616 2.1034 18.9002 1.79453 18.7808 1.50635C18.6614 1.21818 18.4864 0.956343 18.2659 0.735798C17.8136 0.303656 17.2122 0.0625 16.5867 0.0625C15.9612 0.0625 15.3598 0.303656 14.9076 0.735798L7.70344 7.95817C7.59531 8.06455 7.52002 8.19974 7.48652 8.34767ZM16.027 1.85601C16.1776 1.71172 16.3782 1.63117 16.5867 1.63117C16.7953 1.63117 16.9958 1.71172 17.1464 1.85601C17.2929 2.00534 17.3749 2.20616 17.3749 2.41532C17.3749 2.62448 17.2929 2.8253 17.1464 2.97463L16.5867 3.53434L15.4673 2.41492L16.027 1.85601ZM8.98119 8.91292L14.3439 3.53672L15.4523 4.65059L10.0871 10.0284L8.6661 10.3403L8.98119 8.91292Z" fill="#00C2FF"/>
</g>
<defs>
<clipPath id="clip0_1_1396">
<rect width="19" height="19" fill="white"/>
</clipPath>
</defs>
</svg>
