<svg width="317" height="16" viewBox="0 0 317 16" fill="none" xmlns="http://www.w3.org/2000/svg">
<path d="M311.855 8.7739C311.855 8.39758 311.915 8.06427 312.033 7.77396C312.162 7.48365 312.318 7.2256 312.501 6.99981C312.694 6.77401 312.898 6.56435 313.113 6.37081C313.328 6.17727 313.527 5.99449 313.71 5.82245C313.904 5.63967 314.06 5.45151 314.178 5.25797C314.307 5.06443 314.371 4.84939 314.371 4.61284C314.371 4.22577 314.21 3.91396 313.888 3.67741C313.576 3.44086 313.156 3.32259 312.63 3.32259C312.124 3.32259 311.673 3.43011 311.275 3.64515C310.877 3.84944 310.549 4.13975 310.291 4.51607L308.34 3.37098C308.77 2.7151 309.366 2.19362 310.13 1.80655C310.893 1.40872 311.818 1.2098 312.904 1.2098C313.71 1.2098 314.42 1.32808 315.033 1.56462C315.646 1.79042 316.124 2.12373 316.468 2.56457C316.823 3.0054 317 3.54839 317 4.19351C317 4.61284 316.936 4.98379 316.807 5.30635C316.678 5.62892 316.511 5.90847 316.307 6.14502C316.103 6.38156 315.882 6.60198 315.646 6.80627C315.42 7.01056 315.205 7.20947 315 7.40301C314.796 7.59655 314.624 7.80084 314.484 8.01588C314.355 8.23092 314.291 8.4836 314.291 8.7739H311.855ZM313.081 12.8221C312.63 12.8221 312.259 12.6769 311.968 12.3866C311.678 12.0963 311.533 11.7522 311.533 11.3544C311.533 10.9458 311.678 10.6071 311.968 10.3383C312.259 10.0588 312.63 9.919 313.081 9.919C313.544 9.919 313.914 10.0588 314.194 10.3383C314.484 10.6071 314.629 10.9458 314.629 11.3544C314.629 11.7522 314.484 12.0963 314.194 12.3866C313.914 12.6769 313.544 12.8221 313.081 12.8221Z" fill="black"/>
<path d="M305.578 12.6938V11.0003L305.416 10.6294V7.59729C305.416 7.05969 305.25 6.64035 304.916 6.3393C304.594 6.03824 304.094 5.88771 303.416 5.88771C302.954 5.88771 302.497 5.96297 302.046 6.1135C301.605 6.25328 301.228 6.44682 300.917 6.69411L300.013 4.93615C300.486 4.60283 301.056 4.34478 301.723 4.162C302.39 3.97921 303.067 3.88782 303.755 3.88782C305.078 3.88782 306.104 4.19963 306.836 4.82325C307.567 5.44687 307.932 6.41994 307.932 7.74244V12.6938H305.578ZM302.933 12.8228C302.255 12.8228 301.675 12.7099 301.191 12.4841C300.707 12.2476 300.336 11.9304 300.078 11.5326C299.82 11.1347 299.691 10.6885 299.691 10.1939C299.691 9.67782 299.814 9.22623 300.062 8.83916C300.32 8.45208 300.723 8.15102 301.271 7.93598C301.82 7.71019 302.535 7.59729 303.416 7.59729H305.723V9.06495H303.691C303.099 9.06495 302.691 9.16172 302.465 9.35526C302.25 9.5488 302.142 9.79072 302.142 10.081C302.142 10.4036 302.266 10.6616 302.513 10.8552C302.771 11.038 303.121 11.1294 303.562 11.1294C303.981 11.1294 304.357 11.0326 304.691 10.839C305.024 10.6348 305.266 10.3391 305.416 9.952L305.803 11.1132C305.621 11.6723 305.287 12.097 304.803 12.3874C304.32 12.6777 303.696 12.8228 302.933 12.8228Z" fill="black"/>
<path d="M295.404 12.6914V0.724316H297.92V12.6914H295.404Z" fill="black"/>
<path d="M290.774 12.6938V11.0003L290.613 10.6294V7.59729C290.613 7.05969 290.446 6.64035 290.113 6.3393C289.79 6.03824 289.29 5.88771 288.613 5.88771C288.151 5.88771 287.694 5.96297 287.242 6.1135C286.801 6.25328 286.425 6.44682 286.113 6.69411L285.21 4.93615C285.683 4.60283 286.253 4.34478 286.919 4.162C287.586 3.97921 288.263 3.88782 288.952 3.88782C290.274 3.88782 291.301 4.19963 292.032 4.82325C292.763 5.44687 293.129 6.41994 293.129 7.74244V12.6938H290.774ZM288.129 12.8228C287.452 12.8228 286.871 12.7099 286.387 12.4841C285.903 12.2476 285.532 11.9304 285.274 11.5326C285.016 11.1347 284.887 10.6885 284.887 10.1939C284.887 9.67782 285.011 9.22623 285.258 8.83916C285.516 8.45208 285.92 8.15102 286.468 7.93598C287.016 7.71019 287.731 7.59729 288.613 7.59729H290.919V9.06495H288.887C288.296 9.06495 287.887 9.16172 287.661 9.35526C287.446 9.5488 287.339 9.79072 287.339 10.081C287.339 10.4036 287.462 10.6616 287.71 10.8552C287.968 11.038 288.317 11.1294 288.758 11.1294C289.177 11.1294 289.554 11.0326 289.887 10.839C290.22 10.6348 290.462 10.3391 290.613 9.952L291 11.1132C290.817 11.6723 290.484 12.097 290 12.3874C289.516 12.6777 288.892 12.8228 288.129 12.8228Z" fill="black"/>
<path d="M279.574 3.88543C280.263 3.88543 280.875 4.02521 281.413 4.30477C281.961 4.57357 282.392 4.9929 282.703 5.56276C283.015 6.12187 283.171 6.84226 283.171 7.72393V12.6914H280.655V8.11101C280.655 7.41212 280.499 6.89602 280.187 6.56271C279.886 6.22939 279.456 6.06273 278.897 6.06273C278.499 6.06273 278.139 6.14875 277.816 6.32078C277.505 6.48206 277.257 6.73474 277.075 7.07881C276.903 7.42287 276.817 7.86371 276.817 8.40131V12.6914H274.301V0.724316H276.817V6.41755L276.252 5.69179C276.564 5.11117 277.01 4.66496 277.591 4.35315C278.171 4.04134 278.833 3.88543 279.574 3.88543Z" fill="black"/>
<path d="M267.903 12.8866C267 12.8866 266.134 12.7683 265.307 12.5318C264.479 12.2845 263.812 11.9673 263.307 11.5802L264.194 9.61257C264.677 9.95663 265.247 10.2416 265.903 10.4674C266.57 10.6824 267.242 10.7899 267.919 10.7899C268.435 10.7899 268.849 10.7415 269.161 10.6448C269.484 10.5372 269.72 10.3921 269.871 10.2093C270.021 10.0265 270.097 9.81686 270.097 9.58031C270.097 9.27925 269.978 9.04271 269.742 8.87067C269.505 8.68789 269.193 8.54274 268.806 8.43521C268.419 8.31694 267.989 8.20942 267.516 8.11265C267.054 8.00513 266.586 7.87611 266.113 7.72558C265.651 7.57505 265.226 7.38151 264.839 7.14496C264.452 6.90842 264.135 6.5966 263.887 6.20953C263.651 5.82245 263.532 5.32786 263.532 4.72574C263.532 4.08061 263.704 3.49462 264.048 2.96777C264.403 2.43017 264.93 2.00546 265.629 1.69365C266.339 1.37109 267.226 1.2098 268.29 1.2098C269 1.2098 269.699 1.29582 270.387 1.46785C271.075 1.62914 271.682 1.87643 272.209 2.20975L271.403 4.19351C270.876 3.89245 270.349 3.67203 269.822 3.53226C269.296 3.38173 268.779 3.30646 268.274 3.30646C267.769 3.30646 267.355 3.3656 267.032 3.48387C266.71 3.60215 266.478 3.75805 266.339 3.95159C266.199 4.13437 266.129 4.34942 266.129 4.59671C266.129 4.88702 266.247 5.12357 266.484 5.30635C266.72 5.47839 267.032 5.61816 267.419 5.72569C267.806 5.83321 268.231 5.94073 268.693 6.04825C269.167 6.15577 269.634 6.27942 270.097 6.4192C270.57 6.55897 271 6.74713 271.387 6.98368C271.774 7.22023 272.086 7.53204 272.322 7.91911C272.57 8.30619 272.693 8.79541 272.693 9.38677C272.693 10.0211 272.516 10.6018 272.161 11.1286C271.806 11.6555 271.274 12.0802 270.564 12.4027C269.865 12.7253 268.978 12.8866 267.903 12.8866Z" fill="black"/>
<path d="M256.746 12.823C256.026 12.823 255.381 12.6832 254.811 12.4037C254.252 12.1241 253.817 11.6994 253.505 11.1295C253.193 10.5489 253.037 9.8124 253.037 8.91998V4.01702H255.553V8.54903C255.553 9.26942 255.704 9.80165 256.005 10.1457C256.316 10.479 256.752 10.6457 257.311 10.6457C257.698 10.6457 258.042 10.565 258.343 10.4038C258.644 10.2317 258.881 9.97368 259.053 9.62961C259.225 9.2748 259.311 8.83396 259.311 8.30711V4.01702H261.827V12.694H259.44V10.307L259.875 11.0005C259.585 11.6026 259.155 12.0596 258.585 12.3714C258.026 12.6725 257.413 12.823 256.746 12.823Z" fill="black"/>
<path d="M245.645 12.8204C244.828 12.8204 244.092 12.6376 243.436 12.2721C242.78 11.8957 242.259 11.3743 241.871 10.7076C241.495 10.041 241.307 9.25611 241.307 8.35293C241.307 7.439 241.495 6.64872 241.871 5.98209C242.259 5.31546 242.78 4.79936 243.436 4.43379C244.092 4.06822 244.828 3.88543 245.645 3.88543C246.377 3.88543 247.016 4.04672 247.565 4.36928C248.113 4.69184 248.538 5.18106 248.839 5.83694C249.14 6.49282 249.29 7.33148 249.29 8.35293C249.29 9.36363 249.145 10.2023 248.855 10.8689C248.565 11.5248 248.145 12.014 247.597 12.3366C247.059 12.6591 246.409 12.8204 245.645 12.8204ZM246.081 10.756C246.489 10.756 246.86 10.6593 247.194 10.4657C247.527 10.2722 247.79 9.998 247.984 9.64318C248.188 9.27761 248.29 8.84753 248.29 8.35293C248.29 7.84758 248.188 7.4175 247.984 7.06268C247.79 6.70786 247.527 6.43368 247.194 6.24014C246.86 6.04661 246.489 5.94984 246.081 5.94984C245.662 5.94984 245.285 6.04661 244.952 6.24014C244.619 6.43368 244.35 6.70786 244.146 7.06268C243.952 7.4175 243.855 7.84758 243.855 8.35293C243.855 8.84753 243.952 9.27761 244.146 9.64318C244.35 9.998 244.619 10.2722 244.952 10.4657C245.285 10.6593 245.662 10.756 246.081 10.756ZM248.355 12.6914V10.9173L248.403 8.3368L248.242 5.77243V0.724316H250.758V12.6914H248.355Z" fill="black"/>
<path d="M233.726 5.94979H239.161V7.98193H233.726V5.94979ZM233.92 10.5947H240.065V12.6914H231.323V1.40165H239.855V3.49831H233.92V10.5947Z" fill="black"/>
<path d="M220.701 3.88782C221.389 3.88782 222.002 4.02759 222.54 4.30715C223.088 4.57595 223.518 4.99528 223.83 5.56514C224.142 6.12425 224.298 6.84464 224.298 7.72632V12.6938H221.782V8.11339C221.782 7.41451 221.626 6.8984 221.314 6.56509C221.013 6.23177 220.583 6.06512 220.024 6.06512C219.626 6.06512 219.266 6.15113 218.943 6.32317C218.631 6.48445 218.384 6.73712 218.201 7.08119C218.029 7.42526 217.943 7.86609 217.943 8.4037V12.6938H215.427V4.01684H217.83V6.41994L217.379 5.69417C217.691 5.11356 218.137 4.66734 218.717 4.35553C219.298 4.04372 219.959 3.88782 220.701 3.88782Z" fill="black"/>
<path d="M208.988 12.8228C208.063 12.8228 207.241 12.6293 206.52 12.2422C205.811 11.8551 205.246 11.3283 204.827 10.6616C204.418 9.98426 204.214 9.21548 204.214 8.35531C204.214 7.48439 204.418 6.71562 204.827 6.04899C205.246 5.37161 205.811 4.84475 206.52 4.46843C207.241 4.08135 208.063 3.88782 208.988 3.88782C209.902 3.88782 210.719 4.08135 211.44 4.46843C212.16 4.84475 212.724 5.36623 213.133 6.03286C213.542 6.69949 213.746 7.47364 213.746 8.35531C213.746 9.21548 213.542 9.98426 213.133 10.6616C212.724 11.3283 212.16 11.8551 211.44 12.2422C210.719 12.6293 209.902 12.8228 208.988 12.8228ZM208.988 10.7584C209.407 10.7584 209.784 10.6616 210.117 10.4681C210.45 10.2746 210.714 10.0004 210.907 9.64557C211.101 9.27999 211.198 8.84991 211.198 8.35531C211.198 7.84996 211.101 7.41988 210.907 7.06506C210.714 6.71024 210.45 6.43606 210.117 6.24253C209.784 6.04899 209.407 5.95222 208.988 5.95222C208.569 5.95222 208.192 6.04899 207.859 6.24253C207.526 6.43606 207.257 6.71024 207.053 7.06506C206.859 7.41988 206.762 7.84996 206.762 8.35531C206.762 8.84991 206.859 9.27999 207.053 9.64557C207.257 10.0004 207.526 10.2746 207.859 10.4681C208.192 10.6616 208.569 10.7584 208.988 10.7584Z" fill="black"/>
<path d="M193.345 12.6938V4.01684H195.749V6.46832L195.41 5.75868C195.668 5.14581 196.082 4.68347 196.652 4.37166C197.222 4.0491 197.915 3.88782 198.732 3.88782V6.21027C198.625 6.19952 198.528 6.19414 198.442 6.19414C198.356 6.18339 198.265 6.17801 198.168 6.17801C197.48 6.17801 196.921 6.37693 196.49 6.77475C196.071 7.16183 195.861 7.76932 195.861 8.59724V12.6938H193.345Z" fill="black"/>
<path d="M186.906 12.8228C185.982 12.8228 185.159 12.6293 184.439 12.2422C183.729 11.8551 183.164 11.3283 182.745 10.6616C182.337 9.98426 182.132 9.21548 182.132 8.35531C182.132 7.48439 182.337 6.71562 182.745 6.04899C183.164 5.37161 183.729 4.84475 184.439 4.46843C185.159 4.08135 185.982 3.88782 186.906 3.88782C187.82 3.88782 188.637 4.08135 189.358 4.46843C190.078 4.84475 190.643 5.36623 191.051 6.03286C191.46 6.69949 191.664 7.47364 191.664 8.35531C191.664 9.21548 191.46 9.98426 191.051 10.6616C190.643 11.3283 190.078 11.8551 189.358 12.2422C188.637 12.6293 187.82 12.8228 186.906 12.8228ZM186.906 10.7584C187.326 10.7584 187.702 10.6616 188.035 10.4681C188.369 10.2746 188.632 10.0004 188.825 9.64557C189.019 9.27999 189.116 8.84991 189.116 8.35531C189.116 7.84996 189.019 7.41988 188.825 7.06506C188.632 6.71024 188.369 6.43606 188.035 6.24253C187.702 6.04899 187.326 5.95222 186.906 5.95222C186.487 5.95222 186.111 6.04899 185.777 6.24253C185.444 6.43606 185.175 6.71024 184.971 7.06506C184.777 7.41988 184.681 7.84996 184.681 8.35531C184.681 8.84991 184.777 9.27999 184.971 9.64557C185.175 10.0004 185.444 10.2746 185.777 10.4681C186.111 10.6616 186.487 10.7584 186.906 10.7584Z" fill="black"/>
<path d="M179.583 12.8238C178.562 12.8238 177.766 12.5657 177.196 12.0496C176.626 11.5228 176.341 10.7432 176.341 9.71104V2.09856H178.857V9.67879C178.857 10.0444 178.954 10.3293 179.148 10.5336C179.341 10.7271 179.605 10.8239 179.938 10.8239C180.336 10.8239 180.674 10.7164 180.954 10.5013L181.631 12.2754C181.373 12.4582 181.061 12.598 180.696 12.6948C180.341 12.7808 179.97 12.8238 179.583 12.8238ZM175.003 6.14672V4.21135H181.018V6.14672H175.003Z" fill="black"/>
<path d="M168.623 12.823C167.902 12.823 167.257 12.6832 166.687 12.4037C166.128 12.1241 165.693 11.6994 165.381 11.1295C165.069 10.5489 164.913 9.8124 164.913 8.91998V4.01702H167.429V8.54903C167.429 9.26942 167.58 9.80165 167.881 10.1457C168.193 10.479 168.628 10.6457 169.187 10.6457C169.574 10.6457 169.918 10.565 170.219 10.4038C170.52 10.2317 170.757 9.97368 170.929 9.62961C171.101 9.2748 171.187 8.83396 171.187 8.30711V4.01702H173.703V12.694H171.316V10.307L171.751 11.0005C171.461 11.6026 171.031 12.0596 170.461 12.3714C169.902 12.6725 169.289 12.823 168.623 12.823Z" fill="black"/>
<path d="M161.503 12.8238C160.481 12.8238 159.685 12.5657 159.116 12.0496C158.546 11.5228 158.261 10.7432 158.261 9.71104V2.09856H160.777V9.67879C160.777 10.0444 160.874 10.3293 161.067 10.5336C161.261 10.7271 161.524 10.8239 161.857 10.8239C162.255 10.8239 162.594 10.7164 162.873 10.5013L163.551 12.2754C163.293 12.4582 162.981 12.598 162.615 12.6948C162.261 12.7808 161.89 12.8238 161.503 12.8238ZM156.922 6.14672V4.21135H162.938V6.14672H156.922Z" fill="black"/>
<path d="M147.736 12.8228C146.994 12.8228 146.279 12.7368 145.591 12.5648C144.914 12.382 144.376 12.1562 143.978 11.8874L144.817 10.081C145.215 10.3283 145.683 10.5326 146.22 10.6939C146.769 10.8444 147.306 10.9197 147.833 10.9197C148.414 10.9197 148.822 10.8498 149.059 10.71C149.306 10.5702 149.43 10.3767 149.43 10.1294C149.43 9.92512 149.333 9.77459 149.139 9.67782C148.957 9.5703 148.709 9.48966 148.398 9.4359C148.086 9.38214 147.742 9.32838 147.365 9.27462C147 9.22086 146.629 9.15097 146.252 9.06495C145.876 8.96818 145.532 8.82841 145.22 8.64562C144.908 8.46283 144.656 8.21554 144.462 7.90373C144.279 7.59191 144.188 7.18871 144.188 6.69411C144.188 6.14576 144.344 5.66191 144.656 5.24258C144.978 4.82325 145.441 4.49531 146.043 4.25876C146.645 4.01147 147.365 3.88782 148.204 3.88782C148.795 3.88782 149.397 3.95233 150.01 4.08135C150.623 4.21038 151.134 4.39854 151.543 4.64584L150.704 6.43606C150.285 6.18877 149.86 6.02211 149.43 5.93609C149.01 5.83932 148.602 5.79094 148.204 5.79094C147.645 5.79094 147.236 5.8662 146.978 6.01673C146.72 6.16726 146.591 6.3608 146.591 6.59735C146.591 6.81239 146.683 6.97367 146.865 7.08119C147.059 7.18871 147.312 7.27473 147.623 7.33924C147.935 7.40375 148.274 7.46289 148.639 7.51665C149.016 7.55966 149.392 7.62955 149.768 7.72632C150.145 7.82308 150.483 7.96286 150.785 8.14565C151.096 8.31768 151.349 8.5596 151.543 8.87141C151.736 9.17247 151.833 9.5703 151.833 10.0649C151.833 10.6025 151.672 11.081 151.349 11.5003C151.026 11.9089 150.559 12.2314 149.946 12.468C149.344 12.7045 148.607 12.8228 147.736 12.8228Z" fill="black"/>
<path d="M140.187 12.6938V11.0003L140.025 10.6294V7.59729C140.025 7.05969 139.859 6.64035 139.526 6.3393C139.203 6.03824 138.703 5.88771 138.026 5.88771C137.563 5.88771 137.106 5.96297 136.655 6.1135C136.214 6.25328 135.838 6.44682 135.526 6.69411L134.623 4.93615C135.096 4.60283 135.666 4.34478 136.332 4.162C136.999 3.97921 137.676 3.88782 138.364 3.88782C139.687 3.88782 140.714 4.19963 141.445 4.82325C142.176 5.44687 142.541 6.41994 142.541 7.74244V12.6938H140.187ZM137.542 12.8228C136.864 12.8228 136.284 12.7099 135.8 12.4841C135.316 12.2476 134.945 11.9304 134.687 11.5326C134.429 11.1347 134.3 10.6885 134.3 10.1939C134.3 9.67782 134.424 9.22623 134.671 8.83916C134.929 8.45208 135.332 8.15102 135.881 7.93598C136.429 7.71019 137.144 7.59729 138.026 7.59729H140.332V9.06495H138.3C137.708 9.06495 137.3 9.16172 137.074 9.35526C136.859 9.5488 136.751 9.79072 136.751 10.081C136.751 10.4036 136.875 10.6616 137.122 10.8552C137.38 11.038 137.73 11.1294 138.171 11.1294C138.59 11.1294 138.966 11.0326 139.3 10.839C139.633 10.6348 139.875 10.3391 140.025 9.952L140.413 11.1132C140.23 11.6723 139.896 12.097 139.413 12.3874C138.929 12.6777 138.305 12.8228 137.542 12.8228Z" fill="black"/>
<path d="M123.349 12.6938V4.01684H125.752V6.46832L125.414 5.75868C125.672 5.14581 126.086 4.68347 126.655 4.37166C127.225 4.0491 127.919 3.88782 128.736 3.88782V6.21027C128.628 6.19952 128.532 6.19414 128.446 6.19414C128.36 6.18339 128.268 6.17801 128.171 6.17801C127.483 6.17801 126.924 6.37693 126.494 6.77475C126.075 7.16183 125.865 7.76932 125.865 8.59724V12.6938H123.349Z" fill="black"/>
<path d="M117.483 12.8228C116.494 12.8228 115.623 12.6293 114.87 12.2422C114.128 11.8551 113.553 11.3283 113.144 10.6616C112.736 9.98426 112.531 9.21548 112.531 8.35531C112.531 7.48439 112.73 6.71562 113.128 6.04899C113.537 5.37161 114.09 4.84475 114.789 4.46843C115.488 4.08135 116.278 3.88782 117.16 3.88782C118.01 3.88782 118.773 4.0706 119.45 4.43617C120.138 4.79099 120.681 5.30709 121.079 5.98448C121.477 6.65111 121.676 7.45214 121.676 8.38757C121.676 8.48434 121.671 8.59724 121.66 8.72626C121.649 8.84453 121.638 8.95743 121.628 9.06495H114.58V7.59729H120.305L119.337 8.03275C119.337 7.58116 119.246 7.18871 119.063 6.8554C118.88 6.52208 118.628 6.26403 118.305 6.08124C117.983 5.88771 117.606 5.79094 117.176 5.79094C116.746 5.79094 116.364 5.88771 116.031 6.08124C115.709 6.26403 115.456 6.52746 115.273 6.87152C115.09 7.20484 114.999 7.60267 114.999 8.06501V8.45208C114.999 8.92517 115.101 9.34451 115.305 9.71008C115.52 10.0649 115.816 10.3391 116.192 10.5326C116.58 10.7154 117.031 10.8068 117.547 10.8068C118.01 10.8068 118.413 10.7369 118.757 10.5971C119.112 10.4573 119.434 10.2477 119.725 9.96813L121.063 11.4197C120.665 11.8712 120.165 12.2207 119.563 12.468C118.961 12.7045 118.268 12.8228 117.483 12.8228Z" fill="black"/>
<path d="M109.982 12.8238C108.961 12.8238 108.165 12.5657 107.595 12.0496C107.025 11.5228 106.74 10.7432 106.74 9.71104V2.09856H109.256V9.67879C109.256 10.0444 109.353 10.3293 109.547 10.5336C109.74 10.7271 110.004 10.8239 110.337 10.8239C110.735 10.8239 111.073 10.7164 111.353 10.5013L112.03 12.2754C111.772 12.4582 111.461 12.598 111.095 12.6948C110.74 12.7808 110.369 12.8238 109.982 12.8238ZM105.402 6.14672V4.21135H111.418V6.14672H105.402Z" fill="black"/>
<path d="M100.789 12.8228C100.047 12.8228 99.3319 12.7368 98.6438 12.5648C97.9664 12.382 97.4288 12.1562 97.031 11.8874L97.8697 10.081C98.2675 10.3283 98.7352 10.5326 99.2728 10.6939C99.8212 10.8444 100.359 10.9197 100.886 10.9197C101.466 10.9197 101.875 10.8498 102.111 10.71C102.359 10.5702 102.482 10.3767 102.482 10.1294C102.482 9.92512 102.386 9.77459 102.192 9.67782C102.009 9.5703 101.762 9.48966 101.45 9.4359C101.138 9.38214 100.794 9.32838 100.418 9.27462C100.052 9.22086 99.6814 9.15097 99.3051 9.06495C98.9287 8.96818 98.5847 8.82841 98.2729 8.64562C97.961 8.46283 97.7084 8.21554 97.5148 7.90373C97.332 7.59191 97.2407 7.18871 97.2407 6.69411C97.2407 6.14576 97.3966 5.66191 97.7084 5.24258C98.0309 4.82325 98.4933 4.49531 99.0954 4.25876C99.6975 4.01147 100.418 3.88782 101.257 3.88782C101.848 3.88782 102.45 3.95233 103.063 4.08135C103.676 4.21038 104.187 4.39854 104.595 4.64584L103.756 6.43606C103.337 6.18877 102.912 6.02211 102.482 5.93609C102.063 5.83932 101.654 5.79094 101.257 5.79094C100.697 5.79094 100.289 5.8662 100.031 6.01673C99.7728 6.16726 99.6437 6.3608 99.6437 6.59735C99.6437 6.81239 99.7351 6.97367 99.9179 7.08119C100.111 7.18871 100.364 7.27473 100.676 7.33924C100.988 7.40375 101.326 7.46289 101.692 7.51665C102.068 7.55966 102.445 7.62955 102.821 7.72632C103.197 7.82308 103.536 7.96286 103.837 8.14565C104.149 8.31768 104.402 8.5596 104.595 8.87141C104.789 9.17247 104.885 9.5703 104.885 10.0649C104.885 10.6025 104.724 11.081 104.402 11.5003C104.079 11.9089 103.611 12.2314 102.998 12.468C102.396 12.7045 101.66 12.8228 100.789 12.8228Z" fill="black"/>
<path d="M93.015 12.6929V4.01591H95.531V12.6929H93.015ZM94.273 2.8063C93.8107 2.8063 93.4343 2.6719 93.144 2.40309C92.8537 2.13429 92.7086 1.80098 92.7086 1.40315C92.7086 1.00532 92.8537 0.672006 93.144 0.403204C93.4343 0.134401 93.8107 0 94.273 0C94.7354 0 95.1117 0.129025 95.402 0.387076C95.6923 0.634375 95.8374 0.956937 95.8374 1.35477C95.8374 1.7741 95.6923 2.12354 95.402 2.40309C95.1224 2.6719 94.7461 2.8063 94.273 2.8063Z" fill="black"/>
<path d="M85.802 15.9517C84.9848 15.9517 84.1946 15.8495 83.4312 15.6452C82.6785 15.4517 82.0495 15.156 81.5442 14.7582L82.5441 12.9518C82.9097 13.2529 83.372 13.4894 83.9311 13.6615C84.501 13.8443 85.0601 13.9357 85.6085 13.9357C86.5009 13.9357 87.146 13.7367 87.5438 13.3389C87.9524 12.9411 88.1567 12.3497 88.1567 11.5648V10.2584L88.318 8.08113L88.2857 5.88771V4.01684H90.6727V11.2423C90.6727 12.8551 90.2534 14.0432 89.4147 14.8066C88.576 15.57 87.3718 15.9517 85.802 15.9517ZM85.4149 12.2745C84.6085 12.2745 83.8774 12.1024 83.2215 11.7584C82.5764 11.4035 82.0549 10.9143 81.6571 10.2907C81.27 9.65632 81.0765 8.9198 81.0765 8.08113C81.0765 7.23172 81.27 6.4952 81.6571 5.87158C82.0549 5.23721 82.5764 4.74798 83.2215 4.40392C83.8774 4.05985 84.6085 3.88782 85.4149 3.88782C86.1461 3.88782 86.7912 4.03835 87.3503 4.33941C87.9094 4.62971 88.3449 5.08668 88.6567 5.7103C88.9685 6.32317 89.1244 7.11345 89.1244 8.08113C89.1244 9.03807 88.9685 9.82835 88.6567 10.452C88.3449 11.0648 87.9094 11.5218 87.3503 11.8229C86.7912 12.1239 86.1461 12.2745 85.4149 12.2745ZM85.9149 10.2101C86.3557 10.2101 86.7482 10.124 87.0923 9.952C87.4363 9.76921 87.7051 9.51654 87.8987 9.19398C88.0922 8.87141 88.189 8.50047 88.189 8.08113C88.189 7.65105 88.0922 7.2801 87.8987 6.96829C87.7051 6.64573 87.4363 6.39843 87.0923 6.2264C86.7482 6.04361 86.3557 5.95222 85.9149 5.95222C85.4741 5.95222 85.0816 6.04361 84.7375 6.2264C84.3935 6.39843 84.1193 6.64573 83.915 6.96829C83.7215 7.2801 83.6247 7.65105 83.6247 8.08113C83.6247 8.50047 83.7215 8.87141 83.915 9.19398C84.1193 9.51654 84.3935 9.76921 84.7375 9.952C85.0816 10.124 85.4741 10.2101 85.9149 10.2101Z" fill="black"/>
<path d="M75.856 12.8228C74.8669 12.8228 73.9959 12.6293 73.2433 12.2422C72.5014 11.8551 71.9261 11.3283 71.5176 10.6616C71.109 9.98426 70.9047 9.21548 70.9047 8.35531C70.9047 7.48439 71.1036 6.71562 71.5014 6.04899C71.91 5.37161 72.4638 4.84475 73.1626 4.46843C73.8615 4.08135 74.6518 3.88782 75.5335 3.88782C76.3829 3.88782 77.1463 4.0706 77.8237 4.43617C78.5118 4.79099 79.0548 5.30709 79.4526 5.98448C79.8504 6.65111 80.0494 7.45214 80.0494 8.38757C80.0494 8.48434 80.044 8.59724 80.0332 8.72626C80.0225 8.84453 80.0117 8.95743 80.001 9.06495H72.953V7.59729H78.6785L77.7108 8.03275C77.7108 7.58116 77.6194 7.18871 77.4366 6.8554C77.2538 6.52208 77.0011 6.26403 76.6786 6.08124C76.356 5.88771 75.9797 5.79094 75.5496 5.79094C75.1195 5.79094 74.7378 5.88771 74.4045 6.08124C74.0819 6.26403 73.8293 6.52746 73.6465 6.87152C73.4637 7.20484 73.3723 7.60267 73.3723 8.06501V8.45208C73.3723 8.92517 73.4745 9.34451 73.6787 9.71008C73.8938 10.0649 74.1895 10.3391 74.5658 10.5326C74.9529 10.7154 75.4045 10.8068 75.9206 10.8068C76.3829 10.8068 76.7861 10.7369 77.1302 10.5971C77.485 10.4573 77.8075 10.2477 78.0979 9.96813L79.4365 11.4197C79.0387 11.8712 78.5387 12.2207 77.9366 12.468C77.3345 12.7045 76.6409 12.8228 75.856 12.8228Z" fill="black"/>
<path d="M64.7304 12.6938V4.01684H67.1335V6.46832L66.7948 5.75868C67.0528 5.14581 67.4668 4.68347 68.0367 4.37166C68.6065 4.0491 69.3 3.88782 70.1172 3.88782V6.21027C70.0097 6.19952 69.9129 6.19414 69.8269 6.19414C69.7409 6.18339 69.6495 6.17801 69.5527 6.17801C68.8646 6.17801 68.3055 6.37693 67.8754 6.77475C67.456 7.16183 67.2464 7.76932 67.2464 8.59724V12.6938H64.7304Z" fill="black"/>
<path d="M53.7221 12.8228C52.7974 12.8228 51.9748 12.6293 51.2544 12.2422C50.5448 11.8551 49.9803 11.3283 49.561 10.6616C49.1524 9.98426 48.9481 9.21548 48.9481 8.35531C48.9481 7.48439 49.1524 6.71562 49.561 6.04899C49.9803 5.37161 50.5448 4.84475 51.2544 4.46843C51.9748 4.08135 52.7974 3.88782 53.7221 3.88782C54.636 3.88782 55.4531 4.08135 56.1735 4.46843C56.8939 4.84475 57.4584 5.36623 57.867 6.03286C58.2756 6.69949 58.4799 7.47364 58.4799 8.35531C58.4799 9.21548 58.2756 9.98426 57.867 10.6616C57.4584 11.3283 56.8939 11.8551 56.1735 12.2422C55.4531 12.6293 54.636 12.8228 53.7221 12.8228ZM53.7221 10.7584C54.1414 10.7584 54.5177 10.6616 54.851 10.4681C55.1843 10.2746 55.4478 10.0004 55.6413 9.64557C55.8348 9.27999 55.9316 8.84991 55.9316 8.35531C55.9316 7.84996 55.8348 7.41988 55.6413 7.06506C55.4478 6.71024 55.1843 6.43606 54.851 6.24253C54.5177 6.04899 54.1414 5.95222 53.7221 5.95222C53.3027 5.95222 52.9264 6.04899 52.5931 6.24253C52.2598 6.43606 51.991 6.71024 51.7867 7.06506C51.5931 7.41988 51.4964 7.84996 51.4964 8.35531C51.4964 8.84991 51.5931 9.27999 51.7867 9.64557C51.991 10.0004 52.2598 10.2746 52.5931 10.4681C52.9264 10.6616 53.3027 10.7584 53.7221 10.7584Z" fill="black"/>
<path d="M46.3989 12.8238C45.3774 12.8238 44.5818 12.5657 44.0119 12.0496C43.4421 11.5228 43.1571 10.7432 43.1571 9.71104V2.09856H45.6731V9.67879C45.6731 10.0444 45.7699 10.3293 45.9634 10.5336C46.157 10.7271 46.4204 10.8239 46.7537 10.8239C47.1515 10.8239 47.4902 10.7164 47.7698 10.5013L48.4472 12.2754C48.1891 12.4582 47.8773 12.598 47.5117 12.6948C47.1569 12.7808 46.786 12.8238 46.3989 12.8238ZM41.8185 6.14672V4.21135H47.8343V6.14672H41.8185Z" fill="black"/>
<path d="M25.1637 12.694L22.0349 4.01702H24.4057L27.0023 11.4844H25.8734L28.5829 4.01702H30.7118L33.3407 11.4844H32.2117L34.889 4.01702H37.1147L33.9697 12.694H31.5344L29.228 6.29109H29.9699L27.583 12.694H25.1637Z" fill="black"/>
<path d="M16.9777 12.8228C16.053 12.8228 15.2305 12.6293 14.5101 12.2422C13.8004 11.8551 13.236 11.3283 12.8166 10.6616C12.408 9.98426 12.2038 9.21548 12.2038 8.35531C12.2038 7.48439 12.408 6.71562 12.8166 6.04899C13.236 5.37161 13.8004 4.84475 14.5101 4.46843C15.2305 4.08135 16.053 3.88782 16.9777 3.88782C17.8916 3.88782 18.7088 4.08135 19.4292 4.46843C20.1496 4.84475 20.714 5.36623 21.1226 6.03286C21.5312 6.69949 21.7355 7.47364 21.7355 8.35531C21.7355 9.21548 21.5312 9.98426 21.1226 10.6616C20.714 11.3283 20.1496 11.8551 19.4292 12.2422C18.7088 12.6293 17.8916 12.8228 16.9777 12.8228ZM16.9777 10.7584C17.397 10.7584 17.7733 10.6616 18.1067 10.4681C18.44 10.2746 18.7034 10.0004 18.8969 9.64557C19.0905 9.27999 19.1872 8.84991 19.1872 8.35531C19.1872 7.84996 19.0905 7.41988 18.8969 7.06506C18.7034 6.71024 18.44 6.43606 18.1067 6.24253C17.7733 6.04899 17.397 5.95222 16.9777 5.95222C16.5584 5.95222 16.182 6.04899 15.8487 6.24253C15.5154 6.43606 15.2466 6.71024 15.0423 7.06506C14.8488 7.41988 14.752 7.84996 14.752 8.35531C14.752 8.84991 14.8488 9.27999 15.0423 9.64557C15.2466 10.0004 15.5154 10.2746 15.8487 10.4681C16.182 10.6616 16.5584 10.7584 16.9777 10.7584Z" fill="black"/>
<path d="M7.74151 1.40165H10.3543V12.6914H7.74151V1.40165ZM2.61276 12.6914H0V1.40165H2.61276V12.6914ZM7.93505 8.06258H2.41922V5.85302H7.93505V8.06258Z" fill="black"/>
</svg>
