<svg width="21" height="21" viewBox="0 0 21 21" fill="none" xmlns="http://www.w3.org/2000/svg">
<path d="M18.7626 14.7591C18.5789 14.4309 18.3557 14.1028 18.1064 13.755C17.513 13.014 17.1016 12.1441 16.9054 11.2153L16.6298 7.34344C16.4657 4.34437 14.7135 1.3125 11.2289 1.3125H9.77198C6.28729 1.3125 4.52198 4.34437 4.3448 7.33687L4.06917 11.2153C3.8738 12.1524 3.4626 13.0309 2.86823 13.7812C2.64511 14.1225 2.42198 14.4375 2.27105 14.7328C2.10906 14.9502 2.01095 15.2085 1.98776 15.4787C1.96457 15.7488 2.01723 16.02 2.1398 16.2619C2.2828 16.5158 2.49347 16.7252 2.74837 16.8665C3.00326 17.0079 3.29238 17.0757 3.58355 17.0625H8.64979C8.54186 17.3599 8.50718 17.6789 8.54869 17.9925C8.59019 18.3061 8.70666 18.6051 8.88822 18.8641C9.06979 19.1232 9.31111 19.3347 9.59174 19.4807C9.87238 19.6267 10.1841 19.7029 10.5004 19.7029C10.8168 19.7029 11.1285 19.6267 11.4091 19.4807C11.6897 19.3347 11.9311 19.1232 12.1126 18.8641C12.2942 18.6051 12.4106 18.3061 12.4522 17.9925C12.4937 17.6789 12.459 17.3599 12.351 17.0625H17.4173C17.7111 17.0732 18.0021 17.0014 18.2573 16.8553C18.5124 16.7091 18.7216 16.4945 18.861 16.2356C18.9837 16.0047 19.0395 15.7442 19.0221 15.4833C19.0047 15.2225 18.9148 14.9716 18.7626 14.7591ZM11.1567 17.7187C11.1567 17.8485 11.1182 17.9754 11.0461 18.0833C10.974 18.1913 10.8715 18.2754 10.7516 18.325C10.6316 18.3747 10.4997 18.3877 10.3724 18.3624C10.2451 18.3371 10.1282 18.2746 10.0364 18.1828C9.9446 18.091 9.8821 17.9741 9.85678 17.8468C9.83146 17.7195 9.84445 17.5875 9.89412 17.4676C9.94379 17.3477 10.0279 17.2452 10.1358 17.1731C10.2437 17.101 10.3706 17.0625 10.5004 17.0625C10.6745 17.0625 10.8414 17.1316 10.9645 17.2547C11.0875 17.3778 11.1567 17.5447 11.1567 17.7187ZM17.7192 15.6384C17.7192 15.6909 17.6076 15.75 17.4435 15.75H3.58355C3.41948 15.75 3.33417 15.6909 3.30792 15.6384C3.28167 15.5859 3.30792 15.5137 3.37355 15.4087C3.55073 15.1069 3.75417 14.7919 3.96417 14.4769C4.62042 13.5319 5.27667 12.4556 5.37511 11.3072L5.65729 7.42875C5.79511 5.21062 6.95667 2.625 9.77198 2.625H11.2289C14.0442 2.625 15.2057 5.21062 15.3435 7.43531L15.6257 11.3072C15.7045 12.4687 16.4067 13.5319 17.0629 14.4769C17.2729 14.7919 17.4764 15.1331 17.6864 15.4678C17.7073 15.4903 17.7214 15.5183 17.7272 15.5484C17.733 15.5786 17.7302 15.6098 17.7192 15.6384Z" fill="#00C2FF"/>
</svg>
