<svg width="22" height="23" viewBox="0 0 22 23" fill="none" xmlns="http://www.w3.org/2000/svg">
<g clip-path="url(#clip0_1_13227)">
<path d="M21.988 11.7141C21.988 10.7718 21.9132 10.0842 21.7512 9.37109H11.2188V13.6242H17.4011C17.2765 14.6811 16.6034 16.2728 15.1076 17.3424L15.0867 17.4848L18.4168 20.1204L18.6475 20.144C20.7665 18.1447 21.988 15.2032 21.988 11.7141Z" fill="#4285F4"/>
<path d="M11.2206 22.9204C14.2495 22.9204 16.7922 21.9017 18.6494 20.1444L15.1095 17.3429C14.1622 18.0178 12.8908 18.489 11.2206 18.489C8.25413 18.489 5.73634 16.4898 4.83881 13.7266L4.70726 13.738L1.2445 16.4758L1.19922 16.6044C3.04393 20.3481 6.83313 22.9204 11.2206 22.9204Z" fill="#34A853"/>
<path d="M4.83615 13.7286C4.59933 13.0156 4.46227 12.2515 4.46227 11.462C4.46227 10.6725 4.59933 9.90845 4.82369 9.19536L4.81742 9.04349L1.31127 6.26172L1.19656 6.31746C0.43626 7.87102 0 9.61559 0 11.462C0 13.3084 0.43626 15.0529 1.19656 16.6065L4.83615 13.7286Z" fill="#FBBC05"/>
<path d="M11.2206 4.43136C13.3271 4.43136 14.748 5.36093 15.5582 6.13775L18.7242 2.97973C16.7798 1.13332 14.2495 0 11.2206 0C6.83313 0 3.04393 2.57222 1.19922 6.31596L4.82635 9.19385C5.73634 6.43061 8.25413 4.43136 11.2206 4.43136Z" fill="#EB4335"/>
</g>
<defs>
<clipPath id="clip0_1_13227">
<rect width="22" height="23" fill="white"/>
</clipPath>
</defs>
</svg>
