<svg width="39" height="48" viewBox="0 0 39 48" fill="none" xmlns="http://www.w3.org/2000/svg">
<path d="M9.75 38.9995C9.30394 38.9995 8.86031 38.8495 8.46788 38.5525C8.11486 38.2829 7.82352 37.907 7.62136 37.4603C7.4192 37.0135 7.3129 36.5108 7.3125 35.9995V11.9995C7.3125 10.9585 7.75125 9.99246 8.46788 9.44646C8.82167 9.17875 9.22497 9.02617 9.63985 9.00308C10.0547 8.97999 10.4676 9.08714 10.8396 9.31446L30.3396 21.3145C30.7444 21.5641 31.0849 21.9474 31.3228 22.4216C31.5607 22.8958 31.6868 23.4421 31.6868 23.9995C31.6868 24.5568 31.5607 25.1031 31.3228 25.5773C31.0849 26.0515 30.7444 26.4349 30.3396 26.6845L10.8396 38.6845C10.4983 38.8945 10.1205 38.9995 9.75 38.9995Z" fill="white"/>
</svg>
