<svg width="157" height="109" viewBox="0 0 157 109" fill="none" xmlns="http://www.w3.org/2000/svg">
<g clip-path="url(#clip0_1_6562)">
<path d="M156.679 108.163H0.226742C0.166606 108.163 0.108933 108.14 0.066411 108.099C0.0238886 108.058 0 108.002 0 107.945C0 107.887 0.0238886 107.831 0.066411 107.79C0.108933 107.75 0.166606 107.727 0.226742 107.727H156.679C156.739 107.727 156.797 107.75 156.839 107.79C156.882 107.831 156.905 107.887 156.905 107.945C156.905 108.002 156.882 108.058 156.839 108.099C156.797 108.14 156.739 108.163 156.679 108.163Z" fill="#CCCCCC"/>
<path d="M141.193 70.1367H49.1359C48.745 70.1367 48.3702 70.286 48.0938 70.5519C47.8174 70.8177 47.6621 71.1782 47.6621 71.5541C47.6621 71.93 47.8174 72.2905 48.0938 72.5563C48.3702 72.8221 48.745 72.9714 49.1359 72.9714H51.7435V106.879C51.7435 107.255 51.8987 107.615 52.1751 107.881C52.4515 108.147 52.8264 108.296 53.2173 108.296C53.6082 108.296 53.983 108.147 54.2594 107.881C54.5358 107.615 54.6911 107.255 54.6911 106.879L54.7135 72.9714H135.411V106.879C135.411 107.255 135.567 107.615 135.843 107.881C136.119 108.147 136.494 108.296 136.885 108.296C137.276 108.296 137.651 108.147 137.927 107.881C138.204 107.615 138.359 107.255 138.359 106.879V73.7188L138.788 72.9714H141.193C141.584 72.9714 141.959 72.8221 142.235 72.5563C142.512 72.2905 142.667 71.93 142.667 71.5541C142.667 71.1782 142.512 70.8177 142.235 70.5519C141.959 70.286 141.584 70.1367 141.193 70.1367Z" fill="#CCCCCC"/>
<path d="M100.174 70.8766H72.2885C71.7486 70.876 71.2309 70.6695 70.8491 70.3023C70.4673 69.9351 70.2526 69.4373 70.252 68.9181V54.1538C70.2526 53.6346 70.4673 53.1368 70.8491 52.7696C71.2309 52.4024 71.7486 52.1959 72.2885 52.1953H100.174C100.714 52.1959 101.231 52.4024 101.613 52.7696C101.995 53.1368 102.21 53.6346 102.21 54.1538V68.9181C102.21 69.4373 101.995 69.9351 101.613 70.3023C101.231 70.6695 100.714 70.876 100.174 70.8766Z" fill="#3F3D56"/>
<path d="M100.173 53.7031H72.2877C72.1633 53.7034 72.044 53.751 71.9561 53.8356C71.8681 53.9202 71.8186 54.0349 71.8184 54.1545V68.9189C71.8186 69.0385 71.8681 69.1532 71.9561 69.2378C72.0441 69.3224 72.1633 69.37 72.2877 69.3703H100.173C100.297 69.37 100.416 69.3224 100.504 69.2378C100.592 69.1532 100.642 69.0385 100.642 68.9189V54.1545C100.642 54.0349 100.592 53.9202 100.504 53.8356C100.416 53.751 100.297 53.7034 100.173 53.7031Z" fill="white"/>
<path d="M88.6097 64.1545C88.6097 64.1545 85.2715 63.4148 83.4355 64.7709C81.5995 66.1271 85.7722 69.2094 85.7722 69.2094L88.6097 64.1545Z" fill="#2F2E41"/>
<path d="M86.3949 62.7594C88.1339 62.7594 89.5437 61.4036 89.5437 59.7312C89.5437 58.0589 88.1339 56.7031 86.3949 56.7031C84.6559 56.7031 83.2461 58.0589 83.2461 59.7312C83.2461 61.4036 84.6559 62.7594 86.3949 62.7594Z" fill="#A0616A"/>
<path d="M83.9592 55.4807C84.1692 55.138 84.4736 54.8577 84.8387 54.6709C85.2039 54.484 85.6157 54.3979 86.0286 54.4219C86.4605 54.474 86.8819 54.5875 87.2792 54.7586L89.3376 55.5308C89.8702 55.7306 90.4536 55.9753 90.6847 56.4782C90.8992 56.945 90.7392 57.484 90.5772 57.97L89.807 60.2799C89.7217 59.7571 89.5753 59.2452 89.3706 58.754C89.1626 58.2595 88.7866 57.8473 88.3039 57.5844C87.7693 57.3206 87.1391 57.3261 86.5388 57.3538C85.6887 57.3932 84.7644 57.4972 84.1605 58.0738C83.8398 58.4013 83.6225 58.8096 83.5336 59.2512C83.4462 59.6904 83.4022 60.1366 83.4022 60.5838C83.0536 60.0076 82.7599 59.4021 82.5248 58.775C82.3314 58.308 82.2212 57.813 82.1988 57.3108C82.1786 56.8043 82.3534 56.3084 82.6896 55.9181C82.8603 55.7273 83.083 55.5862 83.3326 55.5107C83.5823 55.4352 83.8488 55.4282 84.1024 55.4905L83.9592 55.4807Z" fill="#2F2E41"/>
<path d="M93.912 66.7836C93.8824 66.6813 93.8221 66.5897 93.7386 66.5203C93.6551 66.4509 93.5522 66.4067 93.4427 66.3933C93.4354 66.3884 93.4278 66.3841 93.42 66.3802L88.7193 63.8468C88.5851 63.7745 88.427 63.7547 88.278 63.7916C88.129 63.8285 88.0005 63.9192 87.9193 64.0449L86.6337 66.0466L84.6973 64.1844L84.6665 64.1548C84.5671 64.0592 84.4359 64.0004 84.2959 63.9886C84.1559 63.9769 84.0161 64.0129 83.9009 64.0904L80.0377 66.692C80.0309 66.692 80.0241 66.6942 80.0173 66.6942C79.8324 66.7239 79.6636 66.8133 79.5386 66.9477C79.4137 67.0821 79.3402 67.2534 79.3302 67.4334L79.2305 69.3719H94.658L93.912 66.7836Z" fill="#00C2FF"/>
<path d="M102.523 69.0708H99.5469C99.5469 68.9909 99.5139 68.9143 99.4551 68.8578C99.3963 68.8013 99.3167 68.7695 99.2336 68.7695H98.2936C98.2105 68.7695 98.1308 68.8013 98.0721 68.8578C98.0133 68.9143 97.9803 68.9909 97.9803 69.0708H97.0403C97.0403 68.9909 97.0073 68.9143 96.9486 68.8578C96.8898 68.8013 96.8101 68.7695 96.727 68.7695H95.7871C95.704 68.7695 95.6243 68.8013 95.5655 68.8578C95.5068 68.9143 95.4738 68.9909 95.4738 69.0708H94.5338C94.5338 68.9909 94.5008 68.9143 94.442 68.8578C94.3833 68.8013 94.3036 68.7695 94.2205 68.7695H93.2805C93.1974 68.7695 93.1178 68.8013 93.059 68.8578C93.0002 68.9143 92.9672 68.9909 92.9672 69.0708H92.0273C92.0273 68.9909 91.9943 68.9143 91.9355 68.8578C91.8768 68.8013 91.7971 68.7695 91.714 68.7695H90.774C90.6909 68.7695 90.6112 68.8013 90.5525 68.8578C90.4937 68.9143 90.4607 68.9909 90.4607 69.0708H89.5208C89.5208 68.9909 89.4877 68.9143 89.429 68.8578C89.3702 68.8013 89.2905 68.7695 89.2074 68.7695H88.2675C88.1844 68.7695 88.1047 68.8013 88.046 68.8578C87.9872 68.9143 87.9542 68.9909 87.9542 69.0708H87.0142C87.0142 68.9909 86.9812 68.9143 86.9225 68.8578C86.8637 68.8013 86.784 68.7695 86.7009 68.7695H85.761C85.6779 68.7695 85.5982 68.8013 85.5394 68.8578C85.4807 68.9143 85.4476 68.9909 85.4476 69.0708H84.5077C84.5077 68.9909 84.4747 68.9143 84.4159 68.8578C84.3572 68.8013 84.2775 68.7695 84.1944 68.7695H83.2544C83.1713 68.7695 83.0916 68.8013 83.0329 68.8578C82.9741 68.9143 82.9411 68.9909 82.9411 69.0708H82.0012C82.0012 68.9909 81.9682 68.9143 81.9094 68.8578C81.8506 68.8013 81.7709 68.7695 81.6878 68.7695H80.7479C80.6648 68.7695 80.5851 68.8013 80.5264 68.8578C80.4676 68.9143 80.4346 68.9909 80.4346 69.0708H79.4946C79.4946 68.9909 79.4616 68.9143 79.4029 68.8578C79.3441 68.8013 79.2644 68.7695 79.1813 68.7695H78.2414C78.1583 68.7695 78.0786 68.8013 78.0198 68.8578C77.9611 68.9143 77.9281 68.9909 77.9281 69.0708H76.9881C76.9881 68.9909 76.9551 68.9143 76.8963 68.8578C76.8376 68.8013 76.7579 68.7695 76.6748 68.7695H75.7348C75.6518 68.7695 75.5721 68.8013 75.5133 68.8578C75.4545 68.9143 75.4215 68.9909 75.4215 69.0708H74.4816C74.4816 68.9909 74.4486 68.9143 74.3898 68.8578C74.3311 68.8013 74.2514 68.7695 74.1683 68.7695H73.2283C73.1452 68.7695 73.0655 68.8013 73.0068 68.8578C72.948 68.9143 72.915 68.9909 72.915 69.0708H69.9385C69.6895 69.0712 69.4508 69.1666 69.2748 69.3361C69.0988 69.5056 69 69.7353 69 69.9748C69 70.2143 69.0988 70.444 69.2748 70.6135C69.4508 70.7829 69.6895 70.8783 69.9385 70.8787H102.523C102.773 70.8787 103.012 70.7835 103.188 70.614C103.364 70.4444 103.463 70.2145 103.463 69.9748C103.463 69.735 103.364 69.5051 103.188 69.3356C103.012 69.1661 102.773 69.0708 102.523 69.0708Z" fill="#3F3D56"/>
<path d="M65.0923 63.8182V69.8203H49.4557C49.0368 69.8343 48.6192 69.7671 48.2278 69.6226C47.8365 69.4781 47.4794 69.2593 47.1779 68.9792C46.8764 68.6992 46.6366 68.3636 46.4728 67.9925C46.309 67.6214 46.2246 67.2224 46.2246 66.8193C46.2246 66.4161 46.309 66.0171 46.4728 65.646C46.6366 65.275 46.8764 64.9394 47.1779 64.6593C47.4794 64.3793 47.8365 64.1605 48.2278 64.016C48.6192 63.8714 49.0368 63.8042 49.4557 63.8182H65.0923Z" fill="#F2F2F2"/>
<path d="M65.4766 69.7741C65.4765 69.8353 65.4512 69.894 65.4062 69.9373C65.3612 69.9806 65.3002 70.0049 65.2365 70.005H49.1773C48.3051 70.005 47.4686 69.6718 46.8519 69.0786C46.2352 68.4855 45.8887 67.6811 45.8887 66.8423C45.8887 66.0035 46.2352 65.1991 46.8519 64.606C47.4686 64.0129 48.3051 63.6797 49.1773 63.6797H65.2365C65.3002 63.6797 65.3612 63.704 65.4062 63.7473C65.4513 63.7906 65.4766 63.8493 65.4766 63.9105C65.4766 63.9718 65.4513 64.0305 65.4062 64.0738C65.3612 64.1171 65.3002 64.1414 65.2365 64.1414H49.1773C48.4329 64.142 47.7192 64.4269 47.193 64.9333C46.6668 65.4398 46.3713 66.1264 46.3713 66.8423C46.3713 67.5582 46.6668 68.2449 47.193 68.7513C47.7192 69.2578 48.4329 69.5426 49.1773 69.5433H65.2365C65.3002 69.5433 65.3612 69.5676 65.4062 69.6109C65.4512 69.6542 65.4765 69.7129 65.4766 69.7741Z" fill="#00C2FF"/>
<path d="M65.0919 65.2056H48.2886C48.2822 65.2057 48.276 65.2045 48.2701 65.2022C48.2642 65.1999 48.2589 65.1965 48.2544 65.1922C48.2499 65.1879 48.2464 65.1828 48.2439 65.1772C48.2415 65.1716 48.2402 65.1655 48.2402 65.1595C48.2402 65.1534 48.2415 65.1473 48.2439 65.1417C48.2464 65.1361 48.2499 65.131 48.2544 65.1267C48.2589 65.1224 48.2642 65.119 48.2701 65.1167C48.276 65.1144 48.2822 65.1132 48.2886 65.1133H65.0919C65.1046 65.1134 65.1167 65.1183 65.1256 65.1269C65.1346 65.1356 65.1396 65.1473 65.1396 65.1595C65.1396 65.1716 65.1346 65.1833 65.1256 65.192C65.1167 65.2006 65.1046 65.2055 65.0919 65.2056Z" fill="#CCCCCC"/>
<path d="M65.0919 66.3111H48.2886C48.2822 66.3111 48.276 66.31 48.2701 66.3077C48.2642 66.3054 48.2589 66.302 48.2544 66.2977C48.2499 66.2934 48.2464 66.2883 48.2439 66.2827C48.2415 66.277 48.2402 66.271 48.2402 66.2649C48.2402 66.2588 48.2415 66.2528 48.2439 66.2472C48.2464 66.2416 48.2499 66.2365 48.2544 66.2322C48.2589 66.2279 48.2642 66.2245 48.2701 66.2222C48.276 66.2199 48.2822 66.2187 48.2886 66.2188H65.0919C65.1046 66.2188 65.1167 66.2237 65.1256 66.2324C65.1346 66.241 65.1396 66.2527 65.1396 66.2649C65.1396 66.2771 65.1346 66.2888 65.1256 66.2975C65.1167 66.3061 65.1046 66.311 65.0919 66.3111Z" fill="#CCCCCC"/>
<path d="M65.0919 67.4205H48.2886C48.2822 67.4205 48.276 67.4193 48.2701 67.417C48.2642 67.4147 48.2589 67.4113 48.2544 67.4071C48.2499 67.4028 48.2464 67.3977 48.2439 67.392C48.2415 67.3864 48.2402 67.3804 48.2402 67.3743C48.2402 67.3682 48.2415 67.3622 48.2439 67.3566C48.2464 67.3509 48.2499 67.3458 48.2544 67.3415C48.2589 67.3372 48.2642 67.3338 48.2701 67.3315C48.276 67.3292 48.2822 67.3281 48.2886 67.3281H65.0919C65.1046 67.3282 65.1167 67.3331 65.1256 67.3418C65.1346 67.3504 65.1396 67.3621 65.1396 67.3743C65.1396 67.3865 65.1346 67.3982 65.1256 67.4068C65.1167 67.4155 65.1046 67.4204 65.0919 67.4205Z" fill="#CCCCCC"/>
<path d="M65.0919 68.5298H48.2886C48.2822 68.5299 48.276 68.5287 48.2701 68.5264C48.2642 68.5241 48.2589 68.5207 48.2544 68.5164C48.2499 68.5121 48.2464 68.507 48.2439 68.5014C48.2415 68.4958 48.2402 68.4898 48.2402 68.4837C48.2402 68.4776 48.2415 68.4716 48.2439 68.4659C48.2464 68.4603 48.2499 68.4552 48.2544 68.4509C48.2589 68.4466 48.2642 68.4432 48.2701 68.4409C48.276 68.4386 48.2822 68.4375 48.2886 68.4375H65.0919C65.1046 68.4376 65.1167 68.4425 65.1256 68.4511C65.1346 68.4598 65.1396 68.4715 65.1396 68.4837C65.1396 68.4959 65.1346 68.5076 65.1256 68.5162C65.1167 68.5249 65.1046 68.5298 65.0919 68.5298Z" fill="#CCCCCC"/>
<path d="M62.1451 57.4979V63.5H46.5084C46.0895 63.514 45.6719 63.4468 45.2806 63.3023C44.8892 63.1578 44.5322 62.939 44.2306 62.6589C43.9291 62.3788 43.6893 62.0433 43.5255 61.6722C43.3617 61.3011 43.2773 60.9021 43.2773 60.499C43.2773 60.0958 43.3617 59.6968 43.5255 59.3257C43.6893 58.9546 43.9291 58.6191 44.2306 58.339C44.5322 58.059 44.8892 57.8401 45.2806 57.6956C45.6719 57.5511 46.0895 57.4839 46.5084 57.4979H62.1451Z" fill="#F2F2F2"/>
<path d="M62.5293 63.4538C62.5293 63.515 62.504 63.5737 62.459 63.617C62.4139 63.6603 62.3529 63.6846 62.2892 63.6847H46.2301C45.7982 63.6847 45.3705 63.6028 44.9715 63.4439C44.5725 63.285 44.21 63.052 43.9046 62.7583C43.5993 62.4647 43.357 62.116 43.1917 61.7323C43.0265 61.3486 42.9414 60.9373 42.9414 60.522C42.9414 60.1067 43.0265 59.6954 43.1917 59.3117C43.357 58.928 43.5993 58.5794 43.9046 58.2857C44.21 57.992 44.5725 57.7591 44.9715 57.6001C45.3705 57.4412 45.7982 57.3594 46.2301 57.3594H62.2892C62.3529 57.3594 62.414 57.3837 62.459 57.427C62.504 57.4703 62.5293 57.529 62.5293 57.5902C62.5293 57.6515 62.504 57.7102 62.459 57.7535C62.414 57.7968 62.3529 57.8211 62.2892 57.8211H46.2301C45.4856 57.8217 44.7719 58.1066 44.2457 58.613C43.7196 59.1195 43.424 59.8061 43.424 60.522C43.424 61.2379 43.7196 61.9246 44.2457 62.431C44.7719 62.9375 45.4856 63.2223 46.2301 63.223H62.2892C62.3529 63.223 62.4139 63.2473 62.4589 63.2906C62.504 63.3339 62.5293 63.3926 62.5293 63.4538Z" fill="#3F3D56"/>
<path d="M62.1446 58.8814H45.3413C45.335 58.8814 45.3287 58.8803 45.3228 58.878C45.317 58.8757 45.3116 58.8723 45.3071 58.868C45.3027 58.8637 45.2991 58.8586 45.2967 58.853C45.2942 58.8474 45.293 58.8413 45.293 58.8352C45.293 58.8291 45.2942 58.8231 45.2967 58.8175C45.2991 58.8119 45.3027 58.8068 45.3071 58.8025C45.3116 58.7982 45.317 58.7948 45.3228 58.7925C45.3287 58.7902 45.335 58.789 45.3413 58.7891H62.1446C62.1573 58.7891 62.1694 58.794 62.1784 58.8027C62.1873 58.8113 62.1923 58.823 62.1923 58.8352C62.1923 58.8474 62.1873 58.8591 62.1784 58.8678C62.1694 58.8764 62.1573 58.8813 62.1446 58.8814Z" fill="#CCCCCC"/>
<path d="M62.1446 59.9908H45.3413C45.335 59.9908 45.3287 59.9897 45.3228 59.9873C45.317 59.985 45.3116 59.9817 45.3071 59.9774C45.3027 59.9731 45.2991 59.968 45.2967 59.9623C45.2942 59.9567 45.293 59.9507 45.293 59.9446C45.293 59.9385 45.2942 59.9325 45.2967 59.9269C45.2991 59.9212 45.3027 59.9161 45.3071 59.9118C45.3116 59.9076 45.317 59.9042 45.3228 59.9019C45.3287 59.8996 45.335 59.8984 45.3413 59.8984H62.1446C62.1573 59.8985 62.1694 59.9034 62.1784 59.9121C62.1873 59.9207 62.1923 59.9324 62.1923 59.9446C62.1923 59.9568 62.1873 59.9685 62.1784 59.9771C62.1694 59.9858 62.1573 59.9907 62.1446 59.9908Z" fill="#CCCCCC"/>
<path d="M62.1446 61.0962H45.3413C45.335 61.0963 45.3287 61.0951 45.3228 61.0928C45.317 61.0905 45.3116 61.0871 45.3071 61.0828C45.3027 61.0785 45.2991 61.0734 45.2967 61.0678C45.2942 61.0622 45.293 61.0562 45.293 61.0501C45.293 61.044 45.2942 61.038 45.2967 61.0323C45.2991 61.0267 45.3027 61.0216 45.3071 61.0173C45.3116 61.013 45.317 61.0096 45.3228 61.0073C45.3287 61.005 45.335 61.0039 45.3413 61.0039H62.1446C62.1573 61.004 62.1694 61.0089 62.1784 61.0175C62.1873 61.0262 62.1923 61.0379 62.1923 61.0501C62.1923 61.0623 62.1873 61.074 62.1784 61.0826C62.1694 61.0913 62.1573 61.0962 62.1446 61.0962Z" fill="#CCCCCC"/>
<path d="M62.1446 62.2056H45.3413C45.335 62.2057 45.3287 62.2045 45.3228 62.2022C45.317 62.1999 45.3116 62.1965 45.3071 62.1922C45.3027 62.1879 45.2991 62.1828 45.2967 62.1772C45.2942 62.1716 45.293 62.1655 45.293 62.1595C45.293 62.1534 45.2942 62.1473 45.2967 62.1417C45.2991 62.1361 45.3027 62.131 45.3071 62.1267C45.3116 62.1224 45.317 62.119 45.3228 62.1167C45.3287 62.1144 45.335 62.1132 45.3413 62.1133H62.1446C62.1573 62.1134 62.1694 62.1183 62.1784 62.1269C62.1873 62.1356 62.1923 62.1473 62.1923 62.1595C62.1923 62.1716 62.1873 62.1833 62.1784 62.192C62.1694 62.2006 62.1573 62.2055 62.1446 62.2056Z" fill="#CCCCCC"/>
<path d="M80.3361 91.1563V85.923C80.3361 85.6917 80.2406 85.4698 80.0705 85.3062C79.9004 85.1427 79.6697 85.0508 79.4292 85.0508H58.7956C58.5551 85.0508 58.3244 85.1427 58.1543 85.3062C57.9842 85.4698 57.8887 85.6917 57.8887 85.923V91.1563H80.3361Z" fill="#CCCCCC"/>
<path d="M80.3361 93.1172H57.8887V99.8769H80.3361V93.1172Z" fill="#CCCCCC"/>
<path d="M57.8887 101.84V107.073C57.8887 107.304 57.9842 107.526 58.1543 107.69C58.3244 107.853 58.5551 107.945 58.7956 107.945H79.4292C79.6697 107.945 79.9004 107.853 80.0705 107.69C80.2406 107.526 80.3361 107.304 80.3361 107.073V101.84H57.8887Z" fill="#CCCCCC"/>
<path d="M68.9986 88.9763C69.3743 88.9763 69.6788 88.6834 69.6788 88.3221C69.6788 87.9608 69.3743 87.668 68.9986 87.668C68.6229 87.668 68.3184 87.9608 68.3184 88.3221C68.3184 88.6834 68.6229 88.9763 68.9986 88.9763Z" fill="white"/>
<path d="M68.9986 97.6989C69.3743 97.6989 69.6788 97.4061 69.6788 97.0448C69.6788 96.6835 69.3743 96.3906 68.9986 96.3906C68.6229 96.3906 68.3184 96.6835 68.3184 97.0448C68.3184 97.4061 68.6229 97.6989 68.9986 97.6989Z" fill="white"/>
<path d="M69.0357 106.234C69.4114 106.234 69.7159 105.941 69.7159 105.58C69.7159 105.219 69.4114 104.926 69.0357 104.926C68.66 104.926 68.3555 105.219 68.3555 105.58C68.3555 105.941 68.66 106.234 69.0357 106.234Z" fill="white"/>
<path d="M77.7896 79.0838V85.0859H62.153C61.734 85.1 61.3164 85.0327 60.9251 84.8882C60.5338 84.7437 60.1767 84.5249 59.8752 84.2448C59.5736 83.9648 59.3338 83.6292 59.1701 83.2581C59.0063 82.887 58.9219 82.488 58.9219 82.0849C58.9219 81.6818 59.0063 81.2828 59.1701 80.9117C59.3338 80.5406 59.5736 80.205 59.8752 79.9249C60.1767 79.6449 60.5338 79.4261 60.9251 79.2816C61.3164 79.1371 61.734 79.0698 62.153 79.0838H77.7896Z" fill="#F2F2F2"/>
<path d="M78.1746 85.0397C78.1746 85.101 78.1493 85.1597 78.1043 85.203C78.0592 85.2462 77.9982 85.2706 77.9345 85.2706H61.8754C61.4433 85.2709 61.0153 85.1894 60.616 85.0306C60.2167 84.8718 59.8538 84.6389 59.5482 84.3452C59.2425 84.0515 59 83.7027 58.8346 83.3188C58.6691 82.935 58.584 82.5235 58.584 82.1079C58.584 81.6924 58.6691 81.2809 58.8346 80.8971C59 80.5132 59.2425 80.1644 59.5482 79.8707C59.8538 79.577 60.2167 79.3441 60.616 79.1853C61.0153 79.0265 61.4433 78.945 61.8754 78.9453H77.9345C77.9982 78.9453 78.0593 78.9696 78.1043 79.0129C78.1493 79.0562 78.1746 79.1149 78.1746 79.1762C78.1746 79.2374 78.1493 79.2961 78.1043 79.3394C78.0593 79.3827 77.9982 79.407 77.9345 79.407H61.8754C61.1309 79.4077 60.4172 79.6925 59.891 80.1989C59.3649 80.7054 59.0693 81.392 59.0693 82.1079C59.0693 82.8239 59.3649 83.5105 59.891 84.0169C60.4172 84.5234 61.1309 84.8082 61.8754 84.8089H77.9345C77.9982 84.8089 78.0592 84.8332 78.1042 84.8765C78.1493 84.9198 78.1746 84.9785 78.1746 85.0397Z" fill="#3F3D56"/>
<path d="M77.7911 80.4673H60.9878C60.9815 80.4674 60.9752 80.4662 60.9693 80.4639C60.9635 80.4616 60.9581 80.4582 60.9536 80.4539C60.9491 80.4496 60.9456 80.4445 60.9431 80.4389C60.9407 80.4333 60.9395 80.4273 60.9395 80.4212C60.9395 80.4151 60.9407 80.4091 60.9431 80.4034C60.9456 80.3978 60.9491 80.3927 60.9536 80.3884C60.9581 80.3841 60.9635 80.3807 60.9693 80.3784C60.9752 80.3761 60.9815 80.375 60.9878 80.375H77.7911C77.8038 80.3751 77.8159 80.38 77.8249 80.3886C77.8338 80.3973 77.8388 80.409 77.8388 80.4212C77.8388 80.4334 77.8338 80.4451 77.8249 80.4537C77.8159 80.4624 77.8038 80.4673 77.7911 80.4673Z" fill="#CCCCCC"/>
<path d="M77.7911 81.5767H60.9878C60.9815 81.5768 60.9752 81.5756 60.9693 81.5733C60.9635 81.571 60.9581 81.5676 60.9536 81.5633C60.9491 81.559 60.9456 81.5539 60.9431 81.5483C60.9407 81.5427 60.9395 81.5366 60.9395 81.5305C60.9395 81.5245 60.9407 81.5184 60.9431 81.5128C60.9456 81.5072 60.9491 81.5021 60.9536 81.4978C60.9581 81.4935 60.9635 81.4901 60.9693 81.4878C60.9752 81.4855 60.9815 81.4843 60.9878 81.4844H77.7911C77.8038 81.4845 77.8159 81.4894 77.8249 81.498C77.8338 81.5067 77.8388 81.5184 77.8388 81.5305C77.8388 81.5427 77.8338 81.5544 77.8249 81.5631C77.8159 81.5717 77.8038 81.5766 77.7911 81.5767Z" fill="#CCCCCC"/>
<path d="M77.7911 82.6861H60.9878C60.9815 82.6861 60.9752 82.685 60.9693 82.6827C60.9635 82.6804 60.9581 82.677 60.9536 82.6727C60.9491 82.6684 60.9456 82.6633 60.9431 82.6577C60.9407 82.652 60.9395 82.646 60.9395 82.6399C60.9395 82.6338 60.9407 82.6278 60.9431 82.6222C60.9456 82.6166 60.9491 82.6114 60.9536 82.6072C60.9581 82.6029 60.9635 82.5995 60.9693 82.5972C60.9752 82.5949 60.9815 82.5937 60.9878 82.5938H77.7911C77.8038 82.5938 77.8159 82.5987 77.8249 82.6074C77.8338 82.616 77.8388 82.6277 77.8388 82.6399C77.8388 82.6521 77.8338 82.6638 77.8249 82.6725C77.8159 82.6811 77.8038 82.686 77.7911 82.6861Z" fill="#CCCCCC"/>
<path d="M77.7911 83.7916H60.9878C60.9815 83.7916 60.9752 83.7904 60.9693 83.7881C60.9635 83.7858 60.9581 83.7824 60.9536 83.7782C60.9491 83.7739 60.9456 83.7688 60.9431 83.7631C60.9407 83.7575 60.9395 83.7515 60.9395 83.7454C60.9395 83.7393 60.9407 83.7333 60.9431 83.7276C60.9456 83.722 60.9491 83.7169 60.9536 83.7126C60.9581 83.7083 60.9635 83.7049 60.9693 83.7026C60.9752 83.7003 60.9815 83.6992 60.9878 83.6992H77.7911C77.8038 83.6993 77.8159 83.7042 77.8249 83.7129C77.8338 83.7215 77.8388 83.7332 77.8388 83.7454C77.8388 83.7576 77.8338 83.7693 77.8249 83.7779C77.8159 83.7866 77.8038 83.7915 77.7911 83.7916Z" fill="#CCCCCC"/>
<path d="M56.7109 39.9085V1.64008C56.7115 1.20525 56.8913 0.788382 57.211 0.480915C57.5307 0.173449 57.9642 0.000494598 58.4164 0H89.872C90.3241 0.000497477 90.7576 0.173453 91.0773 0.480919C91.397 0.788385 91.5769 1.20526 91.5774 1.64008V39.9085C91.5769 40.3433 91.397 40.7602 91.0773 41.0677C90.7576 41.3751 90.3241 41.5481 89.872 41.5486H58.4164C57.9642 41.5481 57.5307 41.3751 57.211 41.0677C56.8913 40.7602 56.7115 40.3433 56.7109 39.9085ZM58.4164 0.364462C58.0647 0.364841 57.7275 0.499358 57.4789 0.7385C57.2302 0.977642 57.0903 1.30188 57.0899 1.64008V39.9085C57.0903 40.2467 57.2302 40.5709 57.4789 40.8101C57.7275 41.0492 58.0647 41.1838 58.4164 41.1841H89.872C90.2236 41.1837 90.5608 41.0492 90.8094 40.8101C91.0581 40.5709 91.198 40.2467 91.1984 39.9085V1.64008C91.198 1.30188 91.0581 0.977642 90.8094 0.7385C90.5608 0.499358 90.2236 0.364841 89.872 0.364462H58.4164Z" fill="#E6E6E6"/>
<path d="M75.9082 17.5762V9.71848C75.9085 9.50106 75.9984 9.29263 76.1582 9.13889C76.3181 8.98516 76.5348 8.89868 76.7609 8.89844H83.6849C83.911 8.89868 84.1277 8.98516 84.2876 9.13889C84.4475 9.29263 84.5374 9.50106 84.5376 9.71848V17.5762C84.5374 17.7936 84.4475 18.002 84.2876 18.1558C84.1277 18.3095 83.911 18.396 83.6849 18.3962H76.7609C76.5348 18.396 76.3181 18.3095 76.1582 18.1558C75.9984 18.002 75.9085 17.7936 75.9082 17.5762Z" fill="#00C2FF"/>
<path d="M62.4531 21.2207V13.363C62.4534 13.1456 62.5433 12.9371 62.7032 12.7834C62.863 12.6297 63.0798 12.5432 63.3058 12.543H70.2299C70.4559 12.5432 70.6727 12.6297 70.8325 12.7834C70.9924 12.9371 71.0823 13.1456 71.0826 13.363V21.2207C71.0823 21.4381 70.9924 21.6466 70.8325 21.8003C70.6727 21.954 70.4559 22.0405 70.2299 22.0408H63.3058C63.0798 22.0405 62.863 21.954 62.7032 21.8003C62.5433 21.6466 62.4534 21.4381 62.4531 21.2207Z" fill="#CCCCCC"/>
<path d="M73.2539 32.334V24.4763C73.2542 24.2589 73.3441 24.0504 73.5039 23.8967C73.6638 23.743 73.8805 23.6565 74.1066 23.6562H81.0306C81.2567 23.6565 81.4735 23.743 81.6333 23.8967C81.7932 24.0504 81.8831 24.2589 81.8833 24.4763V32.334C81.8831 32.5514 81.7932 32.7599 81.6333 32.9136C81.4735 33.0673 81.2567 33.1538 81.0306 33.154H74.1066C73.8805 33.1538 73.6638 33.0673 73.5039 32.9136C73.3441 32.7599 73.2542 32.5514 73.2539 32.334Z" fill="#FF6584"/>
<path d="M114.633 68.2584H107.509C107.441 68.2584 107.375 68.2733 107.314 68.302L105.516 69.1677C105.457 69.1919 105.406 69.2323 105.371 69.2838C105.335 69.3354 105.316 69.3959 105.316 69.4577C105.316 69.5195 105.335 69.58 105.371 69.6316C105.406 69.6831 105.457 69.7235 105.516 69.7477L107.314 70.6134C107.375 70.6421 107.441 70.6571 107.509 70.657H114.633C114.731 70.6625 114.828 70.6305 114.902 70.5681C114.976 70.5056 115.021 70.4177 115.028 70.3234V68.592C115.021 68.4977 114.976 68.4098 114.902 68.3473C114.828 68.2849 114.731 68.253 114.633 68.2584Z" fill="#3F3D56"/>
<path d="M115.027 68.5921V70.3234C115.02 70.4177 114.975 70.5056 114.901 70.5681C114.827 70.6305 114.73 70.6625 114.632 70.657H113.213V68.2584H114.632C114.73 68.253 114.827 68.2849 114.901 68.3474C114.975 68.4098 115.02 68.4977 115.027 68.5921Z" fill="#00C2FF"/>
<path d="M114.578 55.3096C114.901 55.1757 115.249 55.1089 115.601 55.1135C115.952 55.1181 116.299 55.1941 116.618 55.3365C116.936 55.4788 117.22 55.6843 117.451 55.9395C117.681 56.1947 117.853 56.4939 117.955 56.8174C117.986 56.92 118.011 57.0245 118.027 57.1303L127.99 61.8813L130.295 60.4119L133.164 63.588L129.644 66.3376C129.22 66.6657 128.698 66.8537 128.155 66.8739C127.612 66.894 127.076 66.7452 126.628 66.4494L116.52 59.7272C116.445 59.7579 116.368 59.7848 116.29 59.8079C115.953 59.9058 115.599 59.9342 115.25 59.8912C114.902 59.8483 114.567 59.735 114.267 59.5587C113.967 59.3825 113.709 59.1473 113.51 58.8685C113.311 58.5898 113.176 58.2738 113.113 57.9412C113.094 57.8447 113.082 57.7472 113.076 57.6491C113.048 57.1583 113.177 56.671 113.446 56.2527C113.714 55.8345 114.109 55.5054 114.578 55.3096Z" fill="#FFB8B8"/>
<path d="M135.329 84.5586H124.443C124.443 84.8595 113.224 85.1037 113.224 85.1037C113.048 85.2312 112.887 85.3775 112.746 85.5398C112.319 86.0286 112.086 86.6464 112.088 87.2843V87.7204C112.088 88.4432 112.387 89.1363 112.918 89.6474C113.45 90.1585 114.171 90.4458 114.922 90.446H135.329C136.08 90.4454 136.801 90.1581 137.332 89.647C137.864 89.136 138.163 88.4431 138.163 87.7204V87.2843C138.162 86.5617 137.863 85.869 137.332 85.358C136.801 84.8471 136.08 84.5596 135.329 84.5586Z" fill="#3F3D56"/>
<path d="M123.488 108.656H126.436V90.3397H123.488V108.656Z" fill="#3F3D56"/>
<path d="M115.098 108.555C115.098 108.862 119.564 108.674 125.074 108.674C130.584 108.674 135.051 108.862 135.051 108.555C135.051 108.249 130.584 105.82 125.074 105.82C119.564 105.82 115.098 108.249 115.098 108.555Z" fill="#3F3D56"/>
<path d="M117.758 106.41L114.979 106.41L113.656 99.4766L117.759 99.4768L117.758 106.41Z" fill="#FFB8B8"/>
<path d="M118.467 109L109.504 108.999V108.89C109.504 108.45 109.594 108.013 109.769 107.606C109.945 107.199 110.202 106.829 110.526 106.518C110.85 106.206 111.234 105.959 111.658 105.791C112.081 105.622 112.535 105.535 112.993 105.535H112.993L118.467 105.535L118.467 109Z" fill="#2F2E41"/>
<path d="M113.602 102.108L108.06 90.1574C107.598 89.1501 107.546 88.0122 107.917 86.9702C108.288 85.9283 109.053 85.0589 110.06 84.535L122.08 78.3363L127.565 77.8876L132.625 77.4453L132.661 77.5047C132.708 77.5805 133.796 79.3876 133.061 81.369C132.503 82.872 131.052 84.0459 128.748 84.8583C123.371 86.7543 117.16 88.3748 114.739 88.9834C114.632 89.0097 114.532 89.0575 114.445 89.1237C114.359 89.1898 114.288 89.2728 114.237 89.3672C114.187 89.4604 114.156 89.5628 114.149 89.6678C114.141 89.7729 114.156 89.8783 114.193 89.9775L119.341 101.101C119.395 101.242 119.415 101.394 119.398 101.543C119.381 101.692 119.329 101.836 119.246 101.963C119.163 102.09 119.05 102.197 118.917 102.276C118.783 102.354 118.633 102.402 118.478 102.416L114.631 102.685C114.598 102.688 114.565 102.69 114.533 102.69C114.336 102.69 114.143 102.635 113.978 102.532C113.813 102.429 113.682 102.281 113.602 102.108Z" fill="#2F2E41"/>
<path d="M119.12 106.41L116.34 106.41L115.018 99.4766L119.12 99.4768L119.12 106.41Z" fill="#FFB8B8"/>
<path d="M119.828 109L110.865 108.999V108.89C110.865 108.45 110.955 108.013 111.131 107.606C111.306 107.199 111.563 106.829 111.887 106.518C112.211 106.206 112.596 105.959 113.019 105.791C113.442 105.622 113.896 105.535 114.354 105.535H114.354L119.829 105.535L119.828 109Z" fill="#2F2E41"/>
<path d="M115.188 102.765L109.646 90.8136C109.183 89.8063 109.132 88.6684 109.503 87.6265C109.873 86.5846 110.639 85.7151 111.646 85.1913L123.666 78.9925L129.151 78.5438L134.211 78.1016L134.247 78.161C134.294 78.2368 135.382 80.0438 134.647 82.0253C134.089 83.5282 132.638 84.7022 130.334 85.5145C124.957 87.4106 118.746 89.0311 116.325 89.6397C116.218 89.666 116.118 89.7138 116.031 89.7799C115.945 89.8461 115.874 89.929 115.823 90.0234C115.772 90.1167 115.742 90.219 115.735 90.3241C115.727 90.4291 115.742 90.5345 115.779 90.6337L120.927 101.758C120.981 101.899 121 102.05 120.984 102.199C120.967 102.349 120.915 102.492 120.832 102.619C120.748 102.746 120.636 102.853 120.503 102.932C120.369 103.01 120.219 103.058 120.064 103.072L116.217 103.342C116.184 103.345 116.151 103.346 116.119 103.346C115.922 103.346 115.729 103.291 115.564 103.188C115.399 103.085 115.268 102.938 115.188 102.765Z" fill="#2F2E41"/>
<path d="M112.427 66.2538C110.099 63.2749 108.258 59.9708 106.968 56.4562C106.894 56.246 106.899 56.0171 106.983 55.8103C107.068 55.6035 107.226 55.4322 107.429 55.3269L115.398 51.2205C115.527 51.1536 115.67 51.1159 115.816 51.1101C115.963 51.1044 116.109 51.1309 116.243 51.1876C116.379 51.2447 116.501 51.331 116.597 51.44C116.694 51.5489 116.764 51.6777 116.801 51.8164C117.728 55.2032 119.472 58.3324 121.89 60.9509C121.99 61.0575 122.063 61.1845 122.103 61.3223C122.144 61.4601 122.152 61.605 122.126 61.746C122.1 61.8848 122.043 62.0162 121.957 62.1303C121.87 62.2443 121.759 62.338 121.629 62.4041L113.66 66.5104C113.456 66.615 113.221 66.6465 112.995 66.5995C112.769 66.5525 112.568 66.43 112.427 66.2538Z" fill="#CCCCCC"/>
<path d="M112.971 65.8629C113.014 65.9144 113.074 65.9498 113.141 65.9632C113.208 65.9765 113.278 65.9669 113.339 65.936L121.308 61.8296C121.346 61.8102 121.38 61.7824 121.405 61.7485C121.431 61.7146 121.448 61.6754 121.456 61.634C121.464 61.5903 121.462 61.5454 121.449 61.5027C121.436 61.46 121.413 61.4208 121.382 61.388C118.892 58.6924 117.097 55.471 116.143 51.9845C116.132 51.9414 116.11 51.9014 116.08 51.8675C116.051 51.8337 116.013 51.8069 115.971 51.7893C115.931 51.7722 115.887 51.7641 115.844 51.7659C115.8 51.7676 115.757 51.7791 115.719 51.7993L107.75 55.9056C107.69 55.937 107.643 55.9876 107.617 56.0488C107.591 56.11 107.589 56.1779 107.61 56.2408C108.876 59.6924 110.684 62.9374 112.971 65.8629Z" fill="white"/>
<path d="M138.901 65.1592L132.66 67.4399L131.136 63.3695C130.934 62.829 130.937 62.2372 131.144 61.6985C131.352 61.1599 131.75 60.7091 132.27 60.4259C132.796 60.1394 133.411 60.0432 134.004 60.1545C134.597 60.2658 135.129 60.5775 135.504 61.0331L138.901 65.1592Z" fill="#F9A826"/>
<path d="M123.026 81.2869C122.895 81.1976 122.785 81.0823 122.703 80.9489C122.622 80.8155 122.571 80.6669 122.554 80.5131C121.754 73.337 122.311 67.7211 124.256 63.3446C124.598 62.5898 125.114 61.9194 125.765 61.3839C126.415 60.8483 127.184 60.4616 128.012 60.2527L133.057 60.0078L133.083 60.02C134.221 60.5562 135.15 61.4309 135.731 62.5146C136.311 63.5982 136.514 64.8329 136.307 66.0357C134.685 70.1489 133.326 74.4314 134.362 77.8861C134.406 78.0305 134.418 78.1819 134.399 78.3312C134.38 78.4804 134.33 78.6245 134.252 78.7547C134.177 78.8806 134.075 78.9902 133.953 79.0768C133.832 79.1634 133.693 79.2251 133.546 79.2582L123.937 81.4564C123.781 81.492 123.62 81.4953 123.463 81.4661C123.305 81.4368 123.157 81.3758 123.026 81.2869Z" fill="#00C2FF"/>
<path d="M131.374 58.1956C134.449 58.1956 136.943 55.7978 136.943 52.84C136.943 49.8822 134.449 47.4844 131.374 47.4844C128.298 47.4844 125.805 49.8822 125.805 52.84C125.805 55.7978 128.298 58.1956 131.374 58.1956Z" fill="#FFB8B8"/>
<path d="M115.92 57.08L111.58 58.9225C111.415 58.9923 111.227 58.9964 111.059 58.9337C110.891 58.871 110.756 58.7468 110.683 58.5882L110.575 58.3543C110.503 58.1956 110.498 58.0156 110.564 57.8539C110.629 57.6922 110.758 57.5619 110.923 57.4917L115.263 55.6492C115.428 55.5794 115.615 55.5753 115.783 55.638C115.952 55.7007 116.087 55.8249 116.16 55.9835L116.267 56.2174C116.34 56.3761 116.344 56.5561 116.279 56.7178C116.214 56.8795 116.085 57.0098 115.92 57.08Z" fill="#CCCCCC"/>
<path d="M117.508 59.9159L113.168 61.7584C113.002 61.8283 112.815 61.8323 112.647 61.7696C112.479 61.707 112.344 61.5827 112.271 61.4241L112.163 61.1902C112.091 61.0315 112.086 60.8515 112.151 60.6898C112.217 60.5281 112.346 60.3978 112.511 60.3276L116.851 58.4852C117.016 58.4153 117.203 58.4113 117.371 58.4739C117.539 58.5366 117.675 58.6609 117.748 58.8194L117.855 59.0533C117.928 59.2121 117.932 59.392 117.867 59.5537C117.802 59.7155 117.673 59.8457 117.508 59.9159Z" fill="#CCCCCC"/>
<path d="M120.855 70.9886L111.179 63.6476C111.102 63.6737 111.023 63.6959 110.944 63.7142C110.602 63.7911 110.248 63.7979 109.903 63.7344C109.559 63.6708 109.232 63.5383 108.945 63.3454C108.655 63.1524 108.412 62.9021 108.231 62.6113C108.05 62.3204 107.935 61.9958 107.896 61.6591C107.831 61.1208 107.957 60.5773 108.254 60.1166C108.55 59.656 109 59.3052 109.53 59.1214C109.861 59.0073 110.213 58.9616 110.564 58.9875C110.914 59.0134 111.255 59.1102 111.564 59.2715C111.872 59.4329 112.142 59.6551 112.356 59.9238C112.569 60.1924 112.721 60.5013 112.801 60.8303C112.826 60.9346 112.843 61.0404 112.853 61.147L122.485 66.4909L124.882 65.1637L127.538 68.5069L123.816 71.058C123.38 71.3542 122.857 71.5074 122.324 71.4949C121.79 71.4824 121.275 71.3048 120.855 70.9886Z" fill="#FFB8B8"/>
<path d="M128.718 69.5461L123.197 65.9357L125.792 62.4018C126.136 61.9325 126.642 61.5955 127.22 61.4502C127.798 61.305 128.411 61.3609 128.95 61.608C129.496 61.8581 129.93 62.2874 130.175 62.8186C130.42 63.3497 130.46 63.9476 130.287 64.5044L128.718 69.5461Z" fill="#F9A826"/>
<path d="M129.332 52.0418C127.901 52.9839 126.022 53.9523 124.56 52.949C123.6 52.2903 123.297 51.0704 123.687 49.9999C124.387 48.0748 126.31 47.2273 128.149 46.5776C130.54 45.7331 133.143 45.0612 135.611 45.666C138.079 46.2708 140.261 48.569 139.815 50.9806C139.457 52.9201 137.555 54.5338 137.825 56.4864C138.096 58.4515 140.394 59.4859 142.423 59.8371C144.452 60.1884 146.722 60.3012 148.18 61.7026C150.04 63.4904 149.576 66.6859 147.826 68.5734C146.076 70.4609 143.435 71.3165 140.875 71.8982C137.484 72.6688 133.817 73.0739 130.597 71.7949C127.376 70.5159 124.87 67.0731 125.803 63.8447C126.197 62.481 127.125 61.3286 128.022 60.2066C128.92 59.0846 129.828 57.9114 130.17 56.5348C130.455 55.3877 130.244 54.0558 129.453 53.1953C129.309 53.0447 129.219 52.8541 129.195 52.651C129.17 52.4478 129.214 52.2424 129.319 52.0644L129.332 52.0418Z" fill="#2F2E41"/>
<path d="M24.7314 78.0631C23.2963 78.5482 21.7556 78.6697 20.2575 78.4159C18.7595 78.1622 17.3547 77.5416 16.1784 76.6142C13.1827 74.1961 12.2434 70.2124 11.4792 66.5237C10.7257 62.8869 9.97223 59.2501 9.21875 55.6133L13.9512 58.747C17.3545 61.0006 20.8345 63.3264 23.191 66.5907C25.5474 69.8549 26.576 74.3109 24.6827 77.8429" fill="#E6E6E6"/>
<path d="M24.3274 91.2705C24.8064 87.9152 25.2989 84.5168 24.9629 81.1255C24.6645 78.1137 23.709 75.1721 21.7638 72.7601C20.7313 71.4822 19.4749 70.3874 18.0512 69.5247C17.6799 69.2993 17.3382 69.8652 17.7079 70.0896C20.1714 71.5868 22.0768 73.7978 23.1494 76.4036C24.3341 79.3014 24.5244 82.4603 24.3202 85.5386C24.1968 87.4002 23.9351 89.2496 23.6714 91.0966C23.6506 91.1801 23.6636 91.2681 23.7077 91.3428C23.7518 91.4175 23.8237 91.4733 23.909 91.4989C23.9959 91.5215 24.0886 91.5101 24.167 91.4673C24.2453 91.4246 24.3029 91.3538 24.3274 91.2705Z" fill="#F2F2F2"/>
<path d="M19.7128 85.3355C19.0973 86.2351 18.2513 86.967 17.2563 87.4609C16.2613 87.9548 15.1508 88.1939 14.0318 88.1552C11.156 88.0239 8.75853 86.0937 6.60033 84.2612L0.216797 78.841L4.44164 78.6466C7.47989 78.5067 10.5965 78.3763 13.4904 79.2773C16.3842 80.1784 19.053 82.3468 19.5822 85.2274" fill="#E6E6E6"/>
<path d="M25.6806 93.2025C23.3751 89.2795 20.701 84.9195 15.9228 83.5259C14.5942 83.1398 13.2011 83.0014 11.8185 83.1184C11.3828 83.1545 11.4916 83.8005 11.9266 83.7644C14.2441 83.5794 16.5572 84.1679 18.4763 85.4309C20.3231 86.6398 21.761 88.3204 22.9781 90.1027C23.7236 91.1944 24.3913 92.3324 25.0592 93.4689C25.2727 93.8321 25.8965 93.57 25.6806 93.2025Z" fill="#F2F2F2"/>
<path d="M29.3751 97.3305C29.2974 96.4649 28.9742 95.6364 28.4408 94.9353C27.9073 94.2341 27.1841 93.6871 26.3497 93.3539V91.0859H22.3942V93.4254C21.601 93.7749 20.9183 94.3205 20.4157 95.0066C19.9132 95.6926 19.6088 96.4945 19.5336 97.3305L18.6035 107.728H30.3052L29.3751 97.3305Z" fill="#F2F2F2"/>
</g>
<defs>
<clipPath id="clip0_1_6562">
<rect width="156.905" height="109" fill="white"/>
</clipPath>
</defs>
</svg>
