<svg width="26" height="26" viewBox="0 0 26 26" fill="none" xmlns="http://www.w3.org/2000/svg">
<g clip-path="url(#clip0_1_6864)">
<path d="M25.4173 25.7758H6.10828C5.78734 25.7758 5.52734 25.5158 5.52734 25.1948V5.88172C5.52734 5.56078 5.78734 5.30078 6.10828 5.30078H25.4173C25.7383 5.30078 25.9983 5.56078 25.9983 5.88172V25.1908C25.9983 25.5158 25.7383 25.7758 25.4173 25.7758ZM6.68922 24.6098H24.8364V6.46672H6.68922V24.6098Z" fill="#1356C5"/>
<path d="M10.536 14.8111C10.3816 14.8111 10.2313 14.7502 10.1216 14.6364L8.00101 12.4671C7.77757 12.2355 7.78163 11.8699 8.00913 11.6424C8.24069 11.4189 8.60632 11.423 8.83382 11.6505L10.5076 13.3608L14.1882 8.96925C14.3954 8.72143 14.761 8.68893 15.0088 8.89612C15.2566 9.10331 15.2891 9.46893 15.0819 9.71675L10.9829 14.6039C10.8773 14.7299 10.7229 14.8071 10.5604 14.8111C10.5482 14.8111 10.5441 14.8111 10.536 14.8111ZM23.1176 13.3121H15.8132C15.4923 13.3121 15.2323 13.0521 15.2323 12.7311C15.2323 12.4102 15.4923 12.1502 15.8132 12.1502H23.1176C23.4385 12.1502 23.6985 12.4102 23.6985 12.7311C23.6985 13.0521 23.4385 13.3121 23.1176 13.3121ZM10.536 22.3105C10.3816 22.3105 10.2313 22.2496 10.1216 22.1358L8.00101 19.9664C7.77757 19.7349 7.78163 19.3692 8.00913 19.1417C8.24069 18.9183 8.60632 18.9224 8.83382 19.1499L10.5076 20.8602L14.1882 16.4686C14.3954 16.2249 14.761 16.1883 15.0088 16.3955C15.2566 16.6027 15.2891 16.9683 15.0819 17.2161L10.9829 22.1033C10.8773 22.2292 10.7229 22.3064 10.5604 22.3105C10.5482 22.3105 10.5441 22.3105 10.536 22.3105ZM23.1176 20.8114H15.8132C15.4923 20.8114 15.2323 20.5514 15.2323 20.2305C15.2323 19.9096 15.4923 19.6496 15.8132 19.6496H23.1176C23.4385 19.6496 23.6985 19.9096 23.6985 20.2305C23.6985 20.5514 23.4385 20.8114 23.1176 20.8114Z" fill="#1356C5"/>
<path d="M4.13562 12.3694H0.580938C0.26 12.3694 0 12.1094 0 11.7884V0.8075C0 0.486563 0.26 0.226562 0.580938 0.226562H12.0291C12.35 0.226562 12.61 0.486563 12.61 0.8075V3.96406C12.61 4.285 12.35 4.545 12.0291 4.545C11.7081 4.545 11.4481 4.285 11.4481 3.96406V1.38844H1.16594V11.2075H4.13562C4.45656 11.2075 4.71656 11.4675 4.71656 11.7884C4.71656 12.1094 4.45656 12.3694 4.13562 12.3694Z" fill="#1356C5"/>
</g>
<defs>
<clipPath id="clip0_1_6864">
<rect width="26" height="26" fill="white"/>
</clipPath>
</defs>
</svg>
