<svg width="16" height="12" viewBox="0 0 16 12" fill="none" xmlns="http://www.w3.org/2000/svg">
<path d="M1.30883 10.435H4.45321C4.72297 10.435 4.94215 10.2158 4.94215 9.94607C4.94215 9.67631 4.72297 9.45713 4.45321 9.45713H1.30883C1.03907 9.45713 0.819888 9.67631 0.819888 9.94607C0.819888 10.2158 1.03907 10.435 1.30883 10.435ZM11.4164 10.435C11.6861 10.435 11.9053 10.2158 11.9053 9.94607C11.9053 9.67631 11.6861 9.45713 11.4164 9.45713H6.50169C6.23193 9.45713 6.01275 9.67631 6.01275 9.94607C6.01275 10.2158 6.23193 10.435 6.50169 10.435H11.4164Z" fill="#F40000"/>
<path d="M15.8568 2.0878C15.1402 1.37125 14.4068 0.63784 13.2013 0.325931C11.8778 -0.154577 10.4785 -0.0871372 9.25611 0.418661C9.13809 0.233202 8.92735 0.106752 8.68288 0.106752C8.30353 0.106752 8.00005 0.410231 8.00005 0.78958C8.00005 0.89917 8.02534 1.00033 8.07592 1.09306C7.24135 1.71688 6.56695 2.57674 6.17917 3.63048C6.17074 3.64734 6.17074 3.6642 6.16231 3.68106C5.86726 4.8444 5.86726 6.03303 6.16231 7.19636C6.20446 7.38182 6.3562 7.52513 6.54166 7.55885C6.57538 7.56728 6.60067 7.56728 6.63439 7.56728C6.78613 7.56728 6.93787 7.49141 7.0306 7.36496C7.63756 6.51353 8.44684 6.06674 9.3657 6.06674C9.50901 6.06674 9.64389 6.00773 9.73662 5.89815C9.99795 5.58624 10.3436 5.27433 10.7145 4.98771L10.7398 5.03829C11.9284 6.73271 12.7293 8.68004 13.1761 10.9646H0.488939C0.21918 10.9646 0 11.1837 0 11.4535C0 11.7233 0.21918 11.9424 0.488939 11.9424H14.4237C14.6934 11.9424 14.9126 11.7233 14.9126 11.4535C14.9126 11.1837 14.6934 10.9646 14.4237 10.9646H14.1708C13.6987 8.46086 12.8389 6.3365 11.5406 4.48191C11.9537 4.27959 12.3836 4.15314 12.7798 4.15314C12.9232 4.15314 13.058 4.0857 13.1508 3.97611C13.724 3.28485 14.272 3.17526 15.6039 2.91393C15.7809 2.88021 15.9242 2.74533 15.9748 2.57674C16.0338 2.39971 15.9832 2.21425 15.8568 2.0878ZM6.9463 6.00774C6.87886 5.31648 6.93787 4.62522 7.10647 3.94239C7.35094 3.29328 7.72186 2.7369 8.18551 2.28169L8.89363 5.12259C8.16865 5.21532 7.51111 5.5188 6.9463 6.00774ZM9.73662 4.51563L9.0285 1.68316V1.61572C9.1128 1.56514 9.18867 1.52299 9.27297 1.48084L11.6418 3.37758C10.9505 3.61362 10.2846 4.04355 9.73662 4.51563ZM12.7377 2.99823L10.3436 1.08463C11.1613 0.89917 12.038 0.93289 12.881 1.2448C12.8979 1.25323 12.9147 1.25323 12.9316 1.26166C13.5723 1.42183 14.0612 1.7506 14.508 2.14681C13.7999 2.31541 13.2435 2.52616 12.7377 2.99823ZM3.22025 3.87495C4.08854 3.87495 4.79666 3.16683 4.79666 2.29855C4.79666 1.43026 4.08854 0.722141 3.22025 0.722141C2.35196 0.722141 1.64385 1.43026 1.64385 2.29855C1.63542 3.16683 2.34353 3.87495 3.22025 3.87495ZM3.22025 1.68316C3.55745 1.68316 3.82721 1.95292 3.82721 2.29012C3.82721 2.62732 3.55745 2.89707 3.22025 2.89707C2.88305 2.89707 2.61329 2.62732 2.61329 2.29012C2.61329 1.96135 2.88305 1.68316 3.22025 1.68316Z" fill="#F40000"/>
</svg>
