<svg width="22" height="22" viewBox="0 0 22 22" fill="none" xmlns="http://www.w3.org/2000/svg">
<path d="M17.875 8.25H16.5V5.5C16.5 5.04858 16.4111 4.60158 16.2383 4.18453C16.0656 3.76747 15.8124 3.38852 15.4932 3.06932C15.174 2.75012 14.795 2.49691 14.378 2.32416C13.9609 2.15141 13.5139 2.0625 13.0625 2.0625H5.5C4.58832 2.0625 3.71398 2.42466 3.06932 3.06932C2.42466 3.71398 2.0625 4.58832 2.0625 5.5V13.75C2.0625 13.9323 2.13493 14.1072 2.26386 14.2361C2.3928 14.3651 2.56766 14.4375 2.75 14.4375C2.93234 14.4375 3.1072 14.3651 3.23614 14.2361C3.36507 14.1072 3.4375 13.9323 3.4375 13.75V5.5C3.4375 4.95299 3.6548 4.42839 4.04159 4.04159C4.42839 3.6548 4.95299 3.4375 5.5 3.4375H13.0625C13.6095 3.4375 14.1341 3.6548 14.5209 4.04159C14.9077 4.42839 15.125 4.95299 15.125 5.5V8.9375C15.125 9.11984 15.1974 9.2947 15.3264 9.42364C15.4553 9.55257 15.6302 9.625 15.8125 9.625H17.875C18.0573 9.625 18.2322 9.69743 18.3611 9.82636C18.4901 9.9553 18.5625 10.1302 18.5625 10.3125V16.5C18.5625 17.047 18.3452 17.5716 17.9584 17.9584C17.5716 18.3452 17.047 18.5625 16.5 18.5625H5.5C4.95299 18.5625 4.42839 18.3452 4.04159 17.9584C3.6548 17.5716 3.4375 17.047 3.4375 16.5C3.4375 16.3177 3.36507 16.1428 3.23614 16.0139C3.1072 15.8849 2.93234 15.8125 2.75 15.8125C2.56766 15.8125 2.3928 15.8849 2.26386 16.0139C2.13493 16.1428 2.0625 16.3177 2.0625 16.5C2.0625 17.4117 2.42466 18.286 3.06932 18.9307C3.71398 19.5753 4.58832 19.9375 5.5 19.9375H16.5C17.4117 19.9375 18.286 19.5753 18.9307 18.9307C19.5753 18.286 19.9375 17.4117 19.9375 16.5V10.3125C19.9375 9.76549 19.7202 9.24089 19.3334 8.85409C18.9466 8.4673 18.422 8.25 17.875 8.25Z" fill="#00C2FF"/>
<path d="M7.90625 9.625H10.6562C11.1121 9.625 11.5493 9.44392 11.8716 9.12159C12.1939 8.79926 12.375 8.36209 12.375 7.90625C12.375 7.45041 12.1939 7.01324 11.8716 6.69091C11.5493 6.36858 11.1121 6.1875 10.6562 6.1875H7.90625C7.45041 6.1875 7.01324 6.36858 6.69091 6.69091C6.36858 7.01324 6.1875 7.45041 6.1875 7.90625C6.1875 8.36209 6.36858 8.79926 6.69091 9.12159C7.01324 9.44392 7.45041 9.625 7.90625 9.625ZM7.90625 7.5625H10.6562C10.7474 7.5625 10.8349 7.59872 10.8993 7.66318C10.9638 7.72765 11 7.81508 11 7.90625C11 7.99742 10.9638 8.08485 10.8993 8.14932C10.8349 8.21378 10.7474 8.25 10.6562 8.25H7.90625C7.81508 8.25 7.72765 8.21378 7.66318 8.14932C7.59872 8.08485 7.5625 7.99742 7.5625 7.90625C7.5625 7.81508 7.59872 7.72765 7.66318 7.66318C7.72765 7.59872 7.81508 7.5625 7.90625 7.5625ZM7.90625 15.8125H14.0938C14.5496 15.8125 14.9868 15.6314 15.3091 15.3091C15.6314 14.9868 15.8125 14.5496 15.8125 14.0938C15.8125 13.6379 15.6314 13.2007 15.3091 12.8784C14.9868 12.5561 14.5496 12.375 14.0938 12.375H7.90625C7.45041 12.375 7.01324 12.5561 6.69091 12.8784C6.36858 13.2007 6.1875 13.6379 6.1875 14.0938C6.1875 14.5496 6.36858 14.9868 6.69091 15.3091C7.01324 15.6314 7.45041 15.8125 7.90625 15.8125ZM7.90625 13.75H14.0938C14.1849 13.75 14.2724 13.7862 14.3368 13.8507C14.4013 13.9151 14.4375 14.0026 14.4375 14.0938C14.4375 14.1849 14.4013 14.2724 14.3368 14.3368C14.2724 14.4013 14.1849 14.4375 14.0938 14.4375H7.90625C7.81508 14.4375 7.72765 14.4013 7.66318 14.3368C7.59872 14.2724 7.5625 14.1849 7.5625 14.0938C7.5625 14.0026 7.59872 13.9151 7.66318 13.8507C7.72765 13.7862 7.81508 13.75 7.90625 13.75Z" fill="#00C2FF"/>
</svg>
