<svg width="24" height="24" viewBox="0 0 24 24" fill="none" xmlns="http://www.w3.org/2000/svg">
<path d="M21.9 6.08359L16.1953 0.561719C15.8484 0.224219 15.375 0.0320312 14.8875 0.0320312L4.14375 0.00390625C2.84063 0.00390625 1.78125 1.05391 1.78125 2.34766V21.6508C1.78125 22.9211 2.87344 23.9992 4.16719 23.9992H20.0578C21.3281 23.9992 22.3594 22.9445 22.3594 21.6461V7.20391C22.3594 6.76797 22.1953 6.36953 21.9 6.08359ZM16.1719 3.14922L19.1203 5.99922H16.6828C16.4109 5.99922 16.1719 5.78828 16.1719 5.54922V3.14922ZM20.0578 22.1242H4.16719C3.90469 22.1242 3.65625 21.8945 3.65625 21.6461V2.34766C3.65625 2.09922 3.88594 1.87891 4.14375 1.87891L14.2969 1.90703V5.54922C14.2969 6.82891 15.3656 7.87422 16.6828 7.87422H20.4844V21.6461C20.4844 21.8805 20.325 22.1242 20.0578 22.1242Z" fill="#DBDBDB"/>
<path d="M5.85938 12.5156C5.85938 13.0312 6.28125 13.4531 6.79688 13.4531H15C15.5156 13.4531 15.9375 13.0312 15.9375 12.5156C15.9375 12 15.5156 11.5781 15 11.5781H6.79688C6.28125 11.5781 5.85938 12 5.85938 12.5156ZM6.75 9.70312H12.1875C12.7031 9.70312 13.125 9.28125 13.125 8.76562C13.125 8.25 12.7031 7.82812 12.1875 7.82812H6.75C6.23438 7.82812 5.8125 8.25 5.8125 8.76562C5.8125 9.28125 6.23438 9.70312 6.75 9.70312ZM17.3438 15.3281H6.79688C6.28125 15.3281 5.85938 15.75 5.85938 16.2656C5.85938 16.7812 6.28125 17.2031 6.79688 17.2031H17.3438C17.8594 17.2031 18.2812 16.7812 18.2812 16.2656C18.2812 15.75 17.8594 15.3281 17.3438 15.3281Z" fill="#DBDBDB"/>
</svg>
