<svg width="16" height="16" viewBox="0 0 16 16" fill="none" xmlns="http://www.w3.org/2000/svg">
<g clip-path="url(#clip0_1_4409)">
<path d="M8.0023 0H7.9983C3.58714 0 1.04973e-05 3.58813 1.04973e-05 8.00029C-0.0027287 9.68536 0.530679 11.3276 1.52307 12.6895L0.52603 15.6616L3.60114 14.6785C4.90556 15.5439 6.43692 16.0039 8.0023 16.0006C12.4135 16.0006 16.0006 12.4115 16.0006 8.00029C16.0006 3.58913 12.4135 0 8.0023 0ZM12.6575 11.2974C12.4645 11.8424 11.6984 12.2944 11.0874 12.4265C10.6694 12.5155 10.1234 12.5865 8.28531 11.8244C5.93423 10.8504 4.42017 8.46131 4.30217 8.3063C4.18916 8.1513 3.35213 7.04126 3.35213 5.89322C3.35213 4.74517 3.93515 4.18615 4.17016 3.94614C4.36317 3.74914 4.68218 3.65913 4.98819 3.65913C5.0872 3.65913 5.1762 3.66413 5.2562 3.66813C5.49121 3.67813 5.60922 3.69214 5.76422 4.06315C5.95723 4.52817 6.42725 5.67621 6.48325 5.79421C6.54025 5.91222 6.59725 6.07222 6.51725 6.22723C6.44225 6.38723 6.37624 6.45824 6.25824 6.59424C6.14023 6.73025 6.02823 6.83425 5.91023 6.98026C5.80222 7.10726 5.68022 7.24327 5.81622 7.47827C5.95223 7.70828 6.42225 8.47531 7.11427 9.09133C8.0073 9.88636 8.73133 10.1404 8.99034 10.2484C9.18335 10.3284 9.41335 10.3094 9.55436 10.1594C9.73337 9.96636 9.95437 9.64635 10.1794 9.33134C10.3394 9.10533 10.5414 9.07733 10.7534 9.15733C10.9694 9.23234 12.1125 9.79736 12.3475 9.91436C12.5825 10.0324 12.7375 10.0884 12.7945 10.1874C12.8505 10.2864 12.8505 10.7514 12.6575 11.2974Z" fill="#1356C5"/>
</g>
<defs>
<clipPath id="clip0_1_4409">
<rect width="15.1099" height="15.1099" fill="white" transform="scale(1.05895)"/>
</clipPath>
</defs>
</svg>
