<svg width="50" height="50" viewBox="0 0 50 50" fill="none" xmlns="http://www.w3.org/2000/svg">
<path d="M34.4087 6.25C41.5939 6.25 45.8346 10.3846 45.8346 17.4621H37.0198V17.5343C32.9288 17.5343 29.6124 20.7677 29.6124 24.7563C29.6124 28.7448 32.9288 31.9782 37.0198 31.9782H45.8346V32.6282C45.8346 39.6154 41.5939 43.75 34.4087 43.75H15.5939C8.40871 43.75 4.16797 39.6154 4.16797 32.6282V17.3718C4.16797 10.3846 8.40871 6.25 15.5939 6.25H34.4087ZM44.2791 20.5675C45.1382 20.5675 45.8346 21.2465 45.8346 22.0841V27.3562C45.8246 28.1897 45.134 28.863 44.2791 28.8728H37.1865C35.1154 28.8999 33.3044 27.5174 32.8346 25.5507C32.5994 24.3298 32.9296 23.0699 33.7369 22.1088C34.5441 21.1476 35.7458 20.5835 37.0198 20.5675H44.2791ZM38.0198 23.0049H37.3346C36.914 23.0001 36.5088 23.1597 36.2096 23.448C35.9104 23.7363 35.742 24.1294 35.742 24.5396C35.742 25.4001 36.4521 26.1005 37.3346 26.1104H38.0198C38.8994 26.1104 39.6124 25.4152 39.6124 24.5577C39.6124 23.7001 38.8994 23.0049 38.0198 23.0049ZM25.7976 14.3566H14.0383C13.166 14.3566 12.4559 15.0408 12.4457 15.8913C12.4457 16.7518 13.1558 17.4522 14.0383 17.4621H25.7976C26.6772 17.4621 27.3902 16.7669 27.3902 15.9094C27.3902 15.0518 26.6772 14.3566 25.7976 14.3566Z" fill="#00C2FF"/>
</svg>
