<svg width="16" height="16" viewBox="0 0 16 16" fill="none" xmlns="http://www.w3.org/2000/svg">
<g clip-path="url(#clip0_1_4391)">
<path fill-rule="evenodd" clip-rule="evenodd" d="M15.7129 13.8629C15.219 15.3637 13.284 16.1125 11.9015 15.9877C10.0135 15.8171 7.95901 14.8154 6.39948 13.7125C4.10713 12.0911 1.95985 9.58324 0.708609 6.92181C-0.17569 5.04121 -0.374097 2.72859 0.941151 1.01439C1.42757 0.380769 1.95452 0.0426232 2.74388 0.0031551C3.84046 -0.0501802 3.99406 0.577043 4.37061 1.55415C4.65115 2.28484 5.02557 3.03047 5.23464 3.78783C5.62612 5.20121 4.25754 5.25988 4.08473 6.41512C3.97806 7.14368 4.86023 8.12079 5.25917 8.64027C6.02815 9.65201 6.96997 10.5198 8.04114 11.2036C8.64917 11.5865 9.6284 12.2767 10.3239 11.8959C11.3949 11.3092 11.2946 9.50324 12.7912 10.1145C13.5667 10.4302 14.3176 10.8857 15.0579 11.2846C16.2025 11.9001 16.1492 12.538 15.7129 13.8629C16.0393 12.873 15.3865 14.8528 15.7129 13.8629Z" fill="#1356C5"/>
</g>
<defs>
<clipPath id="clip0_1_4391">
<rect width="15.1099" height="15.1099" fill="white" transform="scale(1.05895)"/>
</clipPath>
</defs>
</svg>
