<svg width="22" height="22" viewBox="0 0 22 22" fill="none" xmlns="http://www.w3.org/2000/svg">
<path d="M16.637 8.38398L16.362 16.7075C16.3386 17.4204 16.0383 18.0961 15.5248 18.5912C15.0114 19.0862 14.3252 19.3618 13.612 19.3592H8.387C7.67422 19.3618 6.98846 19.0866 6.47509 18.5921C5.96173 18.0977 5.66112 17.4227 5.637 16.7103L5.362 8.38398C5.35598 8.20164 5.42265 8.02438 5.54732 7.89119C5.672 7.75801 5.84448 7.67981 6.02681 7.67379C6.20915 7.66777 6.38641 7.73443 6.51959 7.85911C6.65278 7.98379 6.73098 8.15626 6.737 8.3386L7.012 16.6642C7.02569 17.0196 7.17658 17.3559 7.43298 17.6025C7.68937 17.849 8.03132 17.9866 8.387 17.9863H13.612C13.9681 17.9865 14.3105 17.8486 14.567 17.6015C14.8234 17.3544 14.974 17.0174 14.987 16.6615L15.262 8.3386C15.268 8.15626 15.3462 7.98379 15.4794 7.85911C15.6126 7.73443 15.7899 7.66777 15.9722 7.67379C16.1545 7.67981 16.327 7.75801 16.4517 7.89119C16.5764 8.02438 16.643 8.20164 16.637 8.38398ZM17.5466 5.61404C17.5466 5.79637 17.4741 5.97124 17.3452 6.10017C17.2163 6.22911 17.0414 6.30154 16.8591 6.30154H5.14063C4.95829 6.30154 4.78342 6.22911 4.65449 6.10017C4.52556 5.97124 4.45312 5.79637 4.45312 5.61404C4.45312 5.4317 4.52556 5.25683 4.65449 5.1279C4.78342 4.99897 4.95829 4.92654 5.14063 4.92654H7.27188C7.48971 4.92712 7.69997 4.84665 7.86174 4.70076C8.02351 4.55488 8.12521 4.35402 8.14706 4.13729C8.1978 3.62887 8.43599 3.15755 8.81524 2.81516C9.19449 2.47277 9.68762 2.28383 10.1986 2.28516H11.8004C12.3114 2.28383 12.8045 2.47277 13.1838 2.81516C13.563 3.15755 13.8012 3.62887 13.8519 4.13729C13.8738 4.35402 13.9755 4.55488 14.1373 4.70076C14.299 4.84665 14.5093 4.92712 14.7271 4.92654H16.8584C17.0407 4.92654 17.2156 4.99897 17.3445 5.1279C17.4734 5.25683 17.5459 5.4317 17.5459 5.61404H17.5466ZM9.34056 4.92654H12.6598C12.5695 4.72011 12.5104 4.50138 12.4845 4.27754C12.4675 4.10808 12.3881 3.95097 12.2619 3.83665C12.1356 3.72234 11.9714 3.65896 11.8011 3.65879H10.1993C10.0289 3.65896 9.86474 3.72234 9.73849 3.83665C9.61223 3.95097 9.53291 4.10808 9.51588 4.27754C9.48977 4.50141 9.43114 4.72015 9.34056 4.92654ZM10.0329 15.3429V9.48879C10.0329 9.30645 9.96044 9.13158 9.83151 9.00265C9.70258 8.87372 9.52771 8.80129 9.34538 8.80129C9.16304 8.80129 8.98817 8.87372 8.85924 9.00265C8.73031 9.13158 8.65788 9.30645 8.65788 9.48879V15.3456C8.65788 15.5279 8.73031 15.7028 8.85924 15.8317C8.98817 15.9607 9.16304 16.0331 9.34538 16.0331C9.52771 16.0331 9.70258 15.9607 9.83151 15.8317C9.96044 15.7028 10.0329 15.5279 10.0329 15.3456V15.3429ZM13.3425 15.3429V9.48879C13.3425 9.30645 13.2701 9.13158 13.1411 9.00265C13.0122 8.87372 12.8373 8.80129 12.655 8.80129C12.4727 8.80129 12.2978 8.87372 12.1689 9.00265C12.0399 9.13158 11.9675 9.30645 11.9675 9.48879V15.3456C11.9675 15.5279 12.0399 15.7028 12.1689 15.8317C12.2978 15.9607 12.4727 16.0331 12.655 16.0331C12.8373 16.0331 13.0122 15.9607 13.1411 15.8317C13.2701 15.7028 13.3425 15.5279 13.3425 15.3456V15.3429Z" fill="#1356C5"/>
</svg>
