<svg width="29" height="29" viewBox="0 0 29 29" fill="none" xmlns="http://www.w3.org/2000/svg">
<path d="M19.9375 5.4375V4.23038C19.9375 4.06982 19.8737 3.91584 19.7602 3.80231C19.6467 3.68878 19.4927 3.625 19.3321 3.625H18.7304C18.5698 3.625 18.4158 3.68878 18.3023 3.80231C18.1888 3.91584 18.125 4.06982 18.125 4.23038V5.4375M9.0625 5.4375V4.23038C9.0625 4.06982 8.99872 3.91584 8.88519 3.80231C8.77166 3.68878 8.61768 3.625 8.45712 3.625H7.85538C7.69482 3.625 7.54084 3.68878 7.42731 3.80231C7.31378 3.91584 7.25 4.06982 7.25 4.23038V5.4375M5.4375 7.25H21.75V9.0625H5.4375V7.25ZM5.4375 10.875H21.75V23.5625H5.4375V10.875ZM7.25 12.6875V14.5H9.0625V12.6875H7.25ZM10.875 12.6875V14.5H12.6875V12.6875H10.875ZM14.5 12.6875V14.5H16.3125V12.6875H14.5ZM18.125 12.6875V14.5H19.9375V12.6875H18.125ZM7.25 16.3125V18.125H9.0625V16.3125H7.25ZM10.875 16.3125V18.125H12.6875V16.3125H10.875ZM14.5 16.3125V18.125H16.3125V16.3125H14.5ZM18.125 16.3125V18.125H19.9375V16.3125H18.125ZM7.25 19.9375V21.75H9.0625V19.9375H7.25ZM10.875 19.9375V21.75H12.6875V19.9375H10.875ZM14.5 19.9375V21.75H16.3125V19.9375H14.5Z" fill="black"/>
</svg>
