<svg width="18" height="18" viewBox="0 0 18 18" fill="none" xmlns="http://www.w3.org/2000/svg">
<g clip-path="url(#clip0_1_1388)">
<path d="M17.2266 10.6945C17.6344 10.6945 17.9648 10.3641 17.9648 9.95625C17.9648 9.54844 17.6344 9.21797 17.2266 9.21797H14.6883C14.5687 8.40938 14.3508 7.65703 14.0414 6.95742C14.1609 6.88008 14.2805 6.79922 14.4 6.71484C15.9082 5.66719 17.1035 4.22227 17.8594 2.54883C18.0176 2.19375 17.8629 1.77891 17.5078 1.61719C17.1527 1.45898 16.7379 1.61367 16.5762 1.96875C15.8695 3.52969 14.7234 4.82695 13.3488 5.70937C13.282 5.61094 13.2117 5.51602 13.1414 5.42461C12.5684 4.67578 11.8934 4.10273 11.1551 3.72305C11.5453 3.3293 11.7633 2.84063 11.7633 2.33086C11.7633 1.6875 11.4187 1.0793 10.8141 0.653906C10.2832 0.277734 9.58359 0.0703125 8.84883 0.0703125C8.11406 0.0703125 7.41445 0.277734 6.88008 0.653906C6.27891 1.07578 5.93086 1.6875 5.93086 2.33086C5.93086 2.87227 6.17695 3.39258 6.61641 3.79688C5.93086 4.17656 5.30508 4.725 4.76719 5.42461C4.71094 5.49492 4.6582 5.56875 4.60547 5.64258C3.29062 4.7707 2.22539 3.51914 1.58203 1.99687C1.43086 1.63828 1.01953 1.47305 0.660937 1.62422C0.302344 1.77539 0.133594 2.18672 0.284766 2.54531C1.05117 4.35586 2.32734 5.85 3.90586 6.87305C3.62812 7.48125 3.41719 8.12813 3.28711 8.83125H0.773438C0.365625 8.83125 0.0351562 9.16172 0.0351562 9.56953C0.0351562 9.97734 0.365625 10.3078 0.773438 10.3078H3.12539C3.12188 10.3781 3.12188 10.5012 3.12188 10.5996C3.12188 11.7633 3.33281 12.8848 3.72656 13.8973C2.81602 14.3121 1.31133 15.2262 0.474609 16.998C0.309375 17.3496 0.457031 17.768 0.808594 17.9332C0.907031 17.9789 1.00898 18 1.10742 18C1.37109 18 1.62422 17.8523 1.74375 17.5957C2.40469 16.1965 3.65273 15.4688 4.35234 15.1523C4.48242 15.3633 4.61953 15.5637 4.76719 15.757C5.87109 17.202 7.36172 17.9965 8.9543 17.9965C10.5504 17.9965 12.0375 17.202 13.1414 15.757C13.2926 15.5602 13.4332 15.3527 13.5633 15.1383C14.2559 15.4406 15.518 16.1648 16.1965 17.5922C16.316 17.8453 16.5691 17.9965 16.8328 17.9965C16.9348 17.9965 17.0367 17.9754 17.1316 17.9297C17.4832 17.7645 17.6309 17.3461 17.4656 16.9945C16.6184 15.2086 15.0926 14.298 14.1855 13.8902C14.5688 12.9059 14.7762 11.8195 14.7867 10.6945H17.2266ZM8.84883 1.47656C9.71367 1.47656 10.3605 1.92656 10.3605 2.33086C10.3605 2.73516 9.71367 3.18516 8.84883 3.18516C7.98398 3.18516 7.33711 2.73516 7.33711 2.33086C7.33711 1.92656 7.98398 1.47656 8.84883 1.47656ZM8.24414 16.5129C7.36523 16.3195 6.54258 15.7641 5.88516 14.9027C5.66719 14.618 5.47031 14.3051 5.30156 13.9746C5.29805 13.9676 5.29453 13.957 5.29102 13.95C4.7918 12.9656 4.52461 11.8055 4.52461 10.5855C4.52461 9.49219 4.73906 8.44805 5.14336 7.53398C6.11367 7.97695 7.16484 8.2582 8.2582 8.35664L8.21953 16.3336C8.21953 16.4004 8.23008 16.4566 8.24414 16.5129ZM5.85352 6.31758C5.86406 6.30352 5.87461 6.28945 5.88516 6.27891C6.71836 5.18906 7.8082 4.59141 8.95781 4.59141C10.1039 4.59141 11.1973 5.19258 12.0305 6.27891C12.0551 6.31055 12.0797 6.34219 12.1008 6.37383C11.1551 6.77461 10.1461 6.99609 9.12305 6.99609C7.96992 6.99258 6.8625 6.75352 5.85352 6.31758ZM12.027 14.9027C11.352 15.7852 10.5082 16.3477 9.60117 16.527C9.61875 16.4672 9.6293 16.4039 9.6293 16.3406L9.66797 8.38125C10.7473 8.31445 11.8055 8.0543 12.8039 7.61133C13.1871 8.50781 13.391 9.52734 13.391 10.5891C13.384 12.2273 12.9023 13.7602 12.027 14.9027Z" fill="#00C2FF"/>
</g>
<defs>
<clipPath id="clip0_1_1388">
<rect width="18" height="18" fill="white"/>
</clipPath>
</defs>
</svg>
