<svg width="38" height="38" viewBox="0 0 38 38" fill="none" xmlns="http://www.w3.org/2000/svg">
<path d="M24.4441 25.3367C24.0172 25.1222 23.5409 25.0252 23.0642 25.0556C22.8045 25.0808 22.5506 25.1477 22.3121 25.2536L24.718 26.2249C24.0078 27.0714 23.3586 27.9672 22.7752 28.9055C22.3582 29.5605 22.021 30.2629 21.7706 30.9979C21.5474 31.5839 21.4605 32.2131 21.5165 32.8377C22.6644 32.5812 23.8788 31.3177 24.6634 29.8056C25.2204 28.8412 25.4891 27.7373 25.4376 26.6247C25.3882 26.3458 25.272 26.083 25.099 25.8587C24.926 25.6344 24.7013 25.4553 24.4441 25.3367ZM8.21094 13.168V17.059L21.5608 21.8177H21.5687C22.5901 21.819 23.6107 21.7608 24.6254 21.6436C27.2276 21.2636 28.913 20.5352 28.913 19.7689V13.3564L20.7177 16.1336L8.21094 13.168Z" fill="white"/>
<path d="M17.67 5.11328L0 9.95432L8.21117 11.8955L20.6601 14.8452L28.9132 12.053L38 8.97107L17.67 5.11328Z" fill="white"/>
<path d="M20.3466 31.4843C20.3632 31.4051 20.3798 31.3109 20.3957 31.212C20.4115 31.113 20.4455 30.9974 20.4867 30.8818L20.512 30.8074C20.8144 29.9157 21.2192 29.0621 21.7185 28.2638C22.0169 27.7608 22.348 27.2779 22.7097 26.8182C22.7223 26.8026 22.7334 26.7859 22.743 26.7683L21.1153 26.116C20.7325 26.5179 20.4073 26.9708 20.1487 27.4618C19.7935 28.0713 19.4981 28.7137 19.2667 29.3801L0.421908 20.9805L0.306325 21.4848C0.147992 22.2614 0.190742 23.0871 0.695033 23.2937L20.5706 32.7565C20.2975 32.5499 20.2318 32.0955 20.3466 31.4843Z" fill="white"/>
<path d="M0.0366198 19.4513L0.0383281 19.4479L0.0332031 19.4453L0.0366198 19.4513Z" fill="white"/>
<path d="M19.0458 26.8893C20.1684 24.7272 22.1389 23.4851 23.6557 23.8881L23.5963 23.8659L2.83486 16.4543C2.06298 16.1258 0.957026 16.9998 0.348234 18.4335C0.208208 18.759 0.103891 19.0988 0.0371094 19.4468L18.6666 27.7482C18.7747 27.4542 18.9014 27.1673 19.0458 26.8893ZM35.8276 13.9685V11.0195L34.5878 11.4328V13.9661C34.3244 14.0834 34.1006 14.2747 33.9438 14.5167C33.787 14.7587 33.7038 15.041 33.7043 15.3294V16.3783C33.7043 16.776 33.8623 17.1574 34.1435 17.4386C34.4247 17.7198 34.8061 17.8777 35.2037 17.8777C35.6014 17.8777 35.9828 17.7198 36.264 17.4386C36.5452 17.1574 36.7032 16.776 36.7032 16.3783V15.3317C36.7053 15.044 36.6236 14.7619 36.4681 14.5199C36.3127 14.2778 36.0901 14.0862 35.8276 13.9685Z" fill="white"/>
</svg>
