<svg width="286" height="27" viewBox="0 0 286 27" fill="none" xmlns="http://www.w3.org/2000/svg">
<path d="M156.984 24.2137C156.461 24.2137 155.965 24.1412 155.498 23.9963C155.032 23.8433 154.665 23.6541 154.4 23.4287L154.786 22.7525C155.044 22.9457 155.374 23.1148 155.776 23.2597C156.179 23.3965 156.601 23.465 157.044 23.465C157.648 23.465 158.083 23.3724 158.348 23.1872C158.614 22.994 158.747 22.7404 158.747 22.4264C158.747 22.193 158.67 22.0118 158.517 21.883C158.373 21.7462 158.179 21.6455 157.938 21.5811C157.696 21.5087 157.427 21.4483 157.129 21.4C156.831 21.3517 156.533 21.2953 156.235 21.2309C155.945 21.1665 155.68 21.0739 155.438 20.9532C155.197 20.8244 154.999 20.6513 154.846 20.4339C154.701 20.2166 154.629 19.9267 154.629 19.5645C154.629 19.2183 154.726 18.9084 154.919 18.6346C155.112 18.3609 155.394 18.1476 155.764 17.9946C156.143 17.8336 156.601 17.7531 157.141 17.7531C157.551 17.7531 157.962 17.8095 158.373 17.9222C158.783 18.0268 159.121 18.1677 159.387 18.3448L159.013 19.0331C158.731 18.8399 158.429 18.7031 158.107 18.6226C157.785 18.534 157.463 18.4897 157.141 18.4897C156.569 18.4897 156.147 18.5904 155.873 18.7916C155.607 18.9848 155.474 19.2344 155.474 19.5403C155.474 19.7818 155.547 19.971 155.692 20.1079C155.845 20.2447 156.042 20.3534 156.283 20.4339C156.533 20.5064 156.803 20.5668 157.092 20.6151C157.39 20.6634 157.684 20.7237 157.974 20.7962C158.272 20.8606 158.542 20.9532 158.783 21.0739C159.033 21.1867 159.23 21.3517 159.375 21.5691C159.528 21.7784 159.604 22.0561 159.604 22.4023C159.604 22.7726 159.5 23.0946 159.29 23.3684C159.089 23.634 158.791 23.8433 158.397 23.9963C158.01 24.1412 157.539 24.2137 156.984 24.2137Z" fill="black" fill-opacity="0.8"/>
<path d="M150.685 24.2137C150.025 24.2137 149.445 24.0768 148.946 23.8031C148.447 23.5213 148.057 23.1389 147.775 22.6559C147.493 22.1648 147.352 21.6053 147.352 20.9773C147.352 20.3494 147.485 19.7939 147.751 19.3109C148.025 18.8278 148.395 18.4495 148.862 18.1758C149.337 17.894 149.868 17.7531 150.456 17.7531C151.052 17.7531 151.579 17.89 152.038 18.1637C152.505 18.4293 152.871 18.8077 153.137 19.2988C153.402 19.7818 153.535 20.3413 153.535 20.9773C153.535 21.0176 153.531 21.0619 153.523 21.1102C153.523 21.1504 153.523 21.1947 153.523 21.243H148.004V20.603H153.064L152.726 20.8566C152.726 20.3977 152.625 19.9911 152.424 19.6369C152.231 19.2747 151.965 18.9929 151.627 18.7916C151.289 18.5904 150.899 18.4897 150.456 18.4897C150.021 18.4897 149.631 18.5904 149.284 18.7916C148.938 18.9929 148.669 19.2747 148.475 19.6369C148.282 19.9992 148.186 20.4138 148.186 20.8807V21.0136C148.186 21.4966 148.29 21.9233 148.499 22.2936C148.717 22.6559 149.015 22.9417 149.393 23.151C149.78 23.3522 150.218 23.4529 150.709 23.4529C151.096 23.4529 151.454 23.3845 151.784 23.2476C152.122 23.1107 152.412 22.9014 152.654 22.6197L153.137 23.1751C152.855 23.5133 152.501 23.7709 152.074 23.948C151.655 24.1251 151.192 24.2137 150.685 24.2137Z" fill="black" fill-opacity="0.8"/>
<path d="M145.317 24.2173C144.721 24.2173 144.262 24.0563 143.94 23.7343C143.618 23.4123 143.457 22.9574 143.457 22.3697V16.4163H144.314V22.3214C144.314 22.6917 144.407 22.9775 144.592 23.1788C144.785 23.3801 145.059 23.4807 145.413 23.4807C145.792 23.4807 146.106 23.372 146.355 23.1546L146.657 23.7705C146.488 23.9235 146.283 24.0362 146.041 24.1086C145.808 24.1811 145.566 24.2173 145.317 24.2173ZM142.322 18.5296V17.8171H146.246V18.5296H142.322Z" fill="black" fill-opacity="0.8"/>
<path d="M137.819 24.2158C137.279 24.2158 136.808 24.1152 136.406 23.9139C136.003 23.7127 135.689 23.4108 135.464 23.0082C135.246 22.6057 135.138 22.1026 135.138 21.4988V17.8156H135.995V21.4022C135.995 22.0784 136.16 22.5896 136.49 22.9358C136.828 23.2739 137.299 23.443 137.903 23.443C138.346 23.443 138.728 23.3544 139.05 23.1773C139.38 22.9921 139.63 22.7265 139.799 22.3803C139.976 22.0341 140.065 21.6195 140.065 21.1365V17.8156H140.922V24.1554H140.101V22.4165L140.234 22.7305C140.032 23.1974 139.719 23.5637 139.292 23.8294C138.873 24.087 138.382 24.2158 137.819 24.2158Z" fill="black" fill-opacity="0.8"/>
<path d="M130.275 17.7531C130.791 17.7531 131.241 17.8537 131.628 18.055C132.022 18.2482 132.328 18.5461 132.546 18.9486C132.771 19.3511 132.884 19.8583 132.884 20.4702V24.1533H132.026V20.5547C132.026 19.8865 131.857 19.3833 131.519 19.0452C131.189 18.699 130.722 18.526 130.118 18.526C129.668 18.526 129.273 18.6185 128.935 18.8037C128.605 18.9808 128.347 19.2424 128.162 19.5886C127.985 19.9267 127.896 20.3373 127.896 20.8204V24.1533H127.039V17.8135H127.86V19.5524L127.727 19.2263C127.929 18.7675 128.251 18.4092 128.693 18.1516C129.136 17.8859 129.663 17.7531 130.275 17.7531Z" fill="black" fill-opacity="0.8"/>
<path d="M123.793 24.1532V17.8134H124.65V24.1532H123.793ZM124.227 16.4126C124.05 16.4126 123.901 16.3522 123.781 16.2315C123.66 16.1107 123.599 15.9658 123.599 15.7967C123.599 15.6277 123.66 15.4868 123.781 15.3741C123.901 15.2533 124.05 15.1929 124.227 15.1929C124.404 15.1929 124.553 15.2493 124.674 15.362C124.795 15.4747 124.855 15.6156 124.855 15.7846C124.855 15.9618 124.795 16.1107 124.674 16.2315C124.561 16.3522 124.413 16.4126 124.227 16.4126Z" fill="black" fill-opacity="0.8"/>
<path d="M118.912 17.7531C119.427 17.7531 119.874 17.8537 120.252 18.055C120.639 18.2482 120.937 18.5461 121.146 18.9486C121.363 19.3511 121.472 19.8583 121.472 20.4702V24.1533H120.615V20.5547C120.615 19.8865 120.454 19.3833 120.131 19.0452C119.818 18.699 119.371 18.526 118.791 18.526C118.356 18.526 117.978 18.6185 117.656 18.8037C117.342 18.9808 117.096 19.2424 116.919 19.5886C116.75 19.9267 116.666 20.3373 116.666 20.8204V24.1533H115.808V20.5547C115.808 19.8865 115.647 19.3833 115.325 19.0452C115.003 18.699 114.552 18.526 113.973 18.526C113.546 18.526 113.172 18.6185 112.85 18.8037C112.528 18.9808 112.278 19.2424 112.101 19.5886C111.932 19.9267 111.847 20.3373 111.847 20.8204V24.1533H110.99V17.8135H111.811V19.5282L111.678 19.2263C111.872 18.7675 112.182 18.4092 112.608 18.1516C113.043 17.8859 113.554 17.7531 114.142 17.7531C114.762 17.7531 115.289 17.9101 115.724 18.2241C116.159 18.53 116.44 18.9929 116.569 19.6128L116.231 19.4799C116.416 18.9647 116.742 18.5501 117.209 18.2361C117.684 17.9141 118.252 17.7531 118.912 17.7531Z" fill="black" fill-opacity="0.8"/>
<path d="M103.089 24.2266C102.485 24.2266 101.909 24.13 101.362 23.9368C100.814 23.7355 100.38 23.4698 100.058 23.1398L100.48 22.4514C100.746 22.7332 101.108 22.9667 101.567 23.1518C102.034 23.337 102.537 23.4296 103.077 23.4296C103.793 23.4296 104.336 23.2726 104.707 22.9586C105.085 22.6366 105.274 22.218 105.274 21.7027C105.274 21.3405 105.186 21.0305 105.009 20.7729C104.84 20.5072 104.55 20.3019 104.139 20.157C103.729 20.0121 103.165 19.9397 102.449 19.9397H100.649L101.084 15.7011H105.709V16.4739H101.434L101.881 16.0513L101.507 19.6015L101.06 19.1668H102.642C103.495 19.1668 104.179 19.2715 104.695 19.4808C105.21 19.6901 105.58 19.9839 105.806 20.3623C106.039 20.7326 106.156 21.1674 106.156 21.6665C106.156 22.1415 106.043 22.5762 105.818 22.9707C105.592 23.3571 105.254 23.663 104.803 23.8885C104.353 24.1139 103.781 24.2266 103.089 24.2266Z" fill="black" fill-opacity="0.8"/>
<path d="M94.9263 24.2173C94.3306 24.2173 93.8717 24.0563 93.5497 23.7343C93.2276 23.4123 93.0666 22.9574 93.0666 22.3697V16.4163H93.924V22.3214C93.924 22.6917 94.0166 22.9775 94.2018 23.1788C94.395 23.3801 94.6687 23.4807 95.0229 23.4807C95.4013 23.4807 95.7153 23.372 95.9648 23.1546L96.2667 23.7705C96.0977 23.9235 95.8924 24.0362 95.6508 24.1086C95.4174 24.1811 95.1759 24.2173 94.9263 24.2173ZM91.9315 18.5296V17.8171H95.8561V18.5296H91.9315Z" fill="black" fill-opacity="0.8"/>
<path d="M88.727 24.2137C88.2037 24.2137 87.7086 24.1412 87.2417 23.9963C86.7748 23.8433 86.4085 23.6541 86.1428 23.4287L86.5292 22.7525C86.7868 22.9457 87.1169 23.1148 87.5194 23.2597C87.922 23.3965 88.3446 23.465 88.7874 23.465C89.3912 23.465 89.8259 23.3724 90.0916 23.1872C90.3572 22.994 90.4901 22.7404 90.4901 22.4264C90.4901 22.193 90.4136 22.0118 90.2606 21.883C90.1157 21.7462 89.9225 21.6455 89.681 21.5811C89.4395 21.5087 89.1698 21.4483 88.8719 21.4C88.5741 21.3517 88.2762 21.2953 87.9783 21.2309C87.6885 21.1665 87.4228 21.0739 87.1813 20.9532C86.9398 20.8244 86.7426 20.6513 86.5896 20.4339C86.4447 20.2166 86.3722 19.9267 86.3722 19.5645C86.3722 19.2183 86.4688 18.9084 86.6621 18.6346C86.8553 18.3609 87.137 18.1476 87.5074 17.9946C87.8857 17.8336 88.3446 17.7531 88.884 17.7531C89.2946 17.7531 89.7052 17.8095 90.1157 17.9222C90.5263 18.0268 90.8644 18.1677 91.1301 18.3448L90.7557 19.0331C90.474 18.8399 90.1721 18.7031 89.8501 18.6226C89.528 18.534 89.206 18.4897 88.884 18.4897C88.3124 18.4897 87.8898 18.5904 87.616 18.7916C87.3504 18.9848 87.2175 19.2344 87.2175 19.5403C87.2175 19.7818 87.29 19.971 87.4349 20.1079C87.5879 20.2447 87.7851 20.3534 88.0266 20.4339C88.2762 20.5064 88.5459 20.5668 88.8357 20.6151C89.1336 20.6634 89.4274 20.7237 89.7172 20.7962C90.0151 20.8606 90.2848 20.9532 90.5263 21.0739C90.7759 21.1867 90.9731 21.3517 91.118 21.5691C91.271 21.7784 91.3475 22.0561 91.3475 22.4023C91.3475 22.7726 91.2428 23.0946 91.0335 23.3684C90.8322 23.634 90.5344 23.8433 90.1399 23.9963C89.7535 24.1412 89.2825 24.2137 88.727 24.2137Z" fill="black" fill-opacity="0.8"/>
<path d="M81.5301 24.2158C80.9907 24.2158 80.5197 24.1152 80.1172 23.9139C79.7147 23.7127 79.4007 23.4108 79.1753 23.0082C78.9579 22.6057 78.8492 22.1026 78.8492 21.4988V17.8156H79.7066V21.4022C79.7066 22.0784 79.8717 22.5896 80.2017 22.9358C80.5399 23.2739 81.0108 23.443 81.6146 23.443C82.0574 23.443 82.4398 23.3544 82.7618 23.1773C83.0919 22.9921 83.3414 22.7265 83.5105 22.3803C83.6876 22.0341 83.7762 21.6195 83.7762 21.1365V17.8156H84.6336V24.1554H83.8124V22.4165L83.9452 22.7305C83.744 23.1974 83.43 23.5637 83.0033 23.8294C82.5847 24.087 82.0936 24.2158 81.5301 24.2158Z" fill="black" fill-opacity="0.8"/>
<path d="M74.655 26.5563C74.3974 26.5563 74.1518 26.52 73.9184 26.4476C73.6769 26.3832 73.4756 26.2825 73.3146 26.1457L73.6165 25.4936C73.8741 25.711 74.2042 25.8196 74.6067 25.8196C74.9448 25.8196 75.2024 25.719 75.3796 25.5177C75.5647 25.3165 75.6573 25.0186 75.6573 24.6241V17.8134H76.5147V24.6241C76.5147 25.2118 76.3537 25.6788 76.0316 26.0249C75.7177 26.3792 75.2588 26.5563 74.655 26.5563ZM76.092 16.4126C75.9149 16.4126 75.766 16.3522 75.6452 16.2315C75.5245 16.1107 75.4641 15.9658 75.4641 15.7967C75.4641 15.6277 75.5245 15.4868 75.6452 15.3741C75.766 15.2533 75.9149 15.1929 76.092 15.1929C76.2691 15.1929 76.4181 15.2493 76.5388 15.362C76.6596 15.4747 76.72 15.6156 76.72 15.7846C76.72 15.9618 76.6596 16.1107 76.5388 16.2315C76.4261 16.3522 76.2772 16.4126 76.092 16.4126Z" fill="black" fill-opacity="0.8"/>
<path d="M67.5141 17.7531C68.0293 17.7531 68.4802 17.8537 68.8666 18.055C69.2611 18.2482 69.567 18.5461 69.7844 18.9486C70.0098 19.3511 70.1225 19.8583 70.1225 20.4702V24.1533H69.2651V20.5547C69.2651 19.8865 69.096 19.3833 68.7579 19.0452C68.4278 18.699 67.9609 18.526 67.3571 18.526C66.9063 18.526 66.5118 18.6185 66.1737 18.8037C65.8436 18.9808 65.586 19.2424 65.4008 19.5886C65.2237 19.9267 65.1352 20.3373 65.1352 20.8204V24.1533H64.2778V17.8135H65.0989V19.5524L64.9661 19.2263C65.1674 18.7675 65.4894 18.4092 65.9322 18.1516C66.375 17.8859 66.9023 17.7531 67.5141 17.7531Z" fill="black" fill-opacity="0.8"/>
<path d="M61.0314 24.1532V17.8134H61.8888V24.1532H61.0314ZM61.4661 16.4126C61.289 16.4126 61.1401 16.3522 61.0193 16.2315C60.8986 16.1107 60.8382 15.9658 60.8382 15.7967C60.8382 15.6277 60.8986 15.4868 61.0193 15.3741C61.1401 15.2533 61.289 15.1929 61.4661 15.1929C61.6432 15.1929 61.7922 15.2493 61.9129 15.362C62.0337 15.4747 62.0941 15.6156 62.0941 15.7846C62.0941 15.9618 62.0337 16.1107 61.9129 16.2315C61.8002 16.3522 61.6513 16.4126 61.4661 16.4126Z" fill="black" fill-opacity="0.8"/>
<path d="M54.7226 24.1533V22.7525L54.6864 22.523V20.1803C54.6864 19.641 54.5334 19.2263 54.2275 18.9365C53.9297 18.6467 53.4829 18.5018 52.8871 18.5018C52.4765 18.5018 52.0861 18.5702 51.7158 18.7071C51.3454 18.8439 51.0315 19.0251 50.7739 19.2505L50.3874 18.6105C50.7094 18.3368 51.0959 18.1274 51.5467 17.9825C51.9975 17.8296 52.4725 17.7531 52.9716 17.7531C53.7928 17.7531 54.4248 17.9584 54.8675 18.369C55.3184 18.7715 55.5438 19.3874 55.5438 20.2166V24.1533H54.7226ZM52.5369 24.2137C52.0619 24.2137 51.6473 24.1372 51.2931 23.9842C50.9469 23.8232 50.6813 23.6058 50.4961 23.3321C50.3109 23.0504 50.2184 22.7283 50.2184 22.3661C50.2184 22.036 50.2948 21.7381 50.4478 21.4724C50.6088 21.1987 50.8664 20.9814 51.2207 20.8204C51.5829 20.6513 52.066 20.5668 52.6698 20.5668H54.8555V21.2068H52.6939C52.0821 21.2068 51.6554 21.3155 51.4139 21.5328C51.1804 21.7502 51.0637 22.0199 51.0637 22.3419C51.0637 22.7042 51.2046 22.994 51.4863 23.2114C51.7681 23.4287 52.1626 23.5374 52.6698 23.5374C53.1528 23.5374 53.5674 23.4287 53.9136 23.2114C54.2678 22.986 54.5254 22.6639 54.6864 22.2453L54.8796 22.837C54.7186 23.2556 54.4368 23.5897 54.0343 23.8393C53.6398 24.0889 53.1407 24.2137 52.5369 24.2137Z" fill="black" fill-opacity="0.8"/>
<path d="M47.5058 24.1532V15.1929H48.3631V24.1532H47.5058Z" fill="black" fill-opacity="0.8"/>
<path d="M44.3569 24.1533V22.7525L44.3207 22.523V20.1803C44.3207 19.641 44.1677 19.2263 43.8618 18.9365C43.5639 18.6467 43.1171 18.5018 42.5214 18.5018C42.1108 18.5018 41.7203 18.5702 41.35 18.7071C40.9797 18.8439 40.6657 19.0251 40.4081 19.2505L40.0217 18.6105C40.3437 18.3368 40.7301 18.1274 41.181 17.9825C41.6318 17.8296 42.1068 17.7531 42.6059 17.7531C43.4271 17.7531 44.059 17.9584 44.5018 18.369C44.9526 18.7715 45.178 19.3874 45.178 20.2166V24.1533H44.3569ZM42.1712 24.2137C41.6962 24.2137 41.2816 24.1372 40.9274 23.9842C40.5812 23.8232 40.3155 23.6058 40.1304 23.3321C39.9452 23.0504 39.8526 22.7283 39.8526 22.3661C39.8526 22.036 39.9291 21.7381 40.0821 21.4724C40.2431 21.1987 40.5007 20.9814 40.8549 20.8204C41.2172 20.6513 41.7002 20.5668 42.304 20.5668H44.4897V21.2068H42.3282C41.7163 21.2068 41.2896 21.3155 41.0481 21.5328C40.8147 21.7502 40.6979 22.0199 40.6979 22.3419C40.6979 22.7042 40.8388 22.994 41.1206 23.2114C41.4023 23.4287 41.7968 23.5374 42.304 23.5374C42.787 23.5374 43.2016 23.4287 43.5478 23.2114C43.902 22.986 44.1597 22.6639 44.3207 22.2453L44.5139 22.837C44.3529 23.2556 44.0711 23.5897 43.6686 23.8393C43.2741 24.0889 42.775 24.2137 42.1712 24.2137Z" fill="black" fill-opacity="0.8"/>
<path d="M35.4592 17.753C35.9745 17.753 36.4253 17.8536 36.8117 18.0549C37.2062 18.2481 37.5121 18.546 37.7295 18.9485C37.9549 19.351 38.0676 19.8582 38.0676 20.4701V24.1532H37.2102V20.5546C37.2102 19.8864 37.0412 19.3832 36.7031 19.0451C36.373 18.6989 35.9061 18.5259 35.3023 18.5259C34.8514 18.5259 34.457 18.6184 34.1188 18.8036C33.7888 18.9807 33.5311 19.2424 33.346 19.5885C33.1689 19.9266 33.0803 20.3372 33.0803 20.8203V24.1532H32.2229V15.1929H33.0803V19.5523L32.9113 19.2263C33.1125 18.7674 33.4345 18.4091 33.8773 18.1515C34.3201 17.8858 34.8474 17.753 35.4592 17.753Z" fill="black" fill-opacity="0.8"/>
<path d="M27.3069 24.2287C26.679 24.2287 26.0752 24.128 25.4955 23.9268C24.9239 23.7175 24.4812 23.4518 24.1672 23.1298L24.5174 22.4415C24.8153 22.7313 25.2138 22.9768 25.7129 23.1781C26.2201 23.3713 26.7514 23.4679 27.3069 23.4679C27.8382 23.4679 28.2689 23.4035 28.599 23.2747C28.9371 23.1378 29.1827 22.9567 29.3356 22.7313C29.4967 22.5059 29.5772 22.2563 29.5772 21.9826C29.5772 21.6525 29.4806 21.3868 29.2873 21.1856C29.1022 20.9843 28.8566 20.8273 28.5507 20.7146C28.2448 20.5939 27.9067 20.4892 27.5363 20.4006C27.166 20.3121 26.7957 20.2195 26.4254 20.1229C26.055 20.0182 25.7129 19.8814 25.3989 19.7123C25.093 19.5433 24.8434 19.3219 24.6502 19.0482C24.4651 18.7664 24.3725 18.4001 24.3725 17.9493C24.3725 17.5306 24.4812 17.1482 24.6985 16.8021C24.9239 16.4478 25.2661 16.1661 25.725 15.9567C26.1839 15.7394 26.7715 15.6307 27.488 15.6307C27.963 15.6307 28.434 15.6991 28.9009 15.836C29.3678 15.9648 29.7704 16.1459 30.1085 16.3794L29.8066 17.0919C29.4443 16.8504 29.0579 16.6732 28.6473 16.5605C28.2448 16.4478 27.8543 16.3915 27.476 16.3915C26.9688 16.3915 26.5502 16.4599 26.2201 16.5968C25.89 16.7336 25.6445 16.9188 25.4835 17.1523C25.3305 17.3777 25.254 17.6353 25.254 17.9251C25.254 18.2552 25.3466 18.5208 25.5318 18.7221C25.725 18.9234 25.9745 19.0804 26.2805 19.1931C26.5944 19.3058 26.9366 19.4064 27.3069 19.495C27.6772 19.5835 28.0435 19.6801 28.4058 19.7848C28.7761 19.8894 29.1143 20.0263 29.4202 20.1954C29.7341 20.3564 29.9837 20.5737 30.1689 20.8475C30.3621 21.1212 30.4587 21.4794 30.4587 21.9222C30.4587 22.3328 30.346 22.7152 30.1206 23.0694C29.8952 23.4156 29.549 23.6973 29.0821 23.9147C28.6232 24.124 28.0315 24.2287 27.3069 24.2287Z" fill="black" fill-opacity="0.8"/>
<path d="M19.5388 24.2158C18.9995 24.2158 18.5285 24.1152 18.126 23.9139C17.7235 23.7127 17.4095 23.4108 17.1841 23.0082C16.9667 22.6057 16.858 22.1026 16.858 21.4988V17.8156H17.7154V21.4022C17.7154 22.0784 17.8804 22.5896 18.2105 22.9358C18.5486 23.2739 19.0196 23.443 19.6234 23.443C20.0662 23.443 20.4486 23.3544 20.7706 23.1773C21.1007 22.9921 21.3502 22.7265 21.5193 22.3803C21.6964 22.0341 21.7849 21.6195 21.7849 21.1365V17.8156H22.6423V24.1554H21.8212V22.4165L21.954 22.7305C21.7527 23.1974 21.4388 23.5637 21.0121 23.8294C20.5935 24.087 20.1024 24.2158 19.5388 24.2158Z" fill="black" fill-opacity="0.8"/>
<path d="M11.2587 24.2136C10.6549 24.2136 10.1115 24.0767 9.62845 23.803C9.15346 23.5293 8.77911 23.1509 8.5054 22.6679C8.23168 22.1768 8.09482 21.6132 8.09482 20.9772C8.09482 20.3332 8.23168 19.7697 8.5054 19.2866C8.77911 18.8036 9.15346 18.4292 9.62845 18.1636C10.1115 17.8899 10.6549 17.753 11.2587 17.753C11.8142 17.753 12.3093 17.8778 12.744 18.1274C13.1868 18.3769 13.537 18.7432 13.7946 19.2263C14.0603 19.7012 14.1931 20.2849 14.1931 20.9772C14.1931 21.6615 14.0643 22.2452 13.8067 22.7282C13.5491 23.2113 13.1989 23.5816 12.7561 23.8392C12.3214 24.0888 11.8222 24.2136 11.2587 24.2136ZM11.3191 23.4528C11.7699 23.4528 12.1724 23.3522 12.5266 23.1509C12.8889 22.9416 13.1707 22.6518 13.3719 22.2814C13.5813 21.9031 13.6859 21.4683 13.6859 20.9772C13.6859 20.4781 13.5813 20.0434 13.3719 19.6731C13.1707 19.3027 12.8889 19.0169 12.5266 18.8157C12.1724 18.6064 11.7699 18.5017 11.3191 18.5017C10.8763 18.5017 10.4778 18.6064 10.1236 18.8157C9.76933 19.0169 9.48756 19.3027 9.27825 19.6731C9.06893 20.0434 8.96428 20.4781 8.96428 20.9772C8.96428 21.4683 9.06893 21.9031 9.27825 22.2814C9.48756 22.6518 9.76933 22.9416 10.1236 23.1509C10.4778 23.3522 10.8763 23.4528 11.3191 23.4528ZM13.7101 24.1532V22.2452L13.7946 20.9652L13.6738 19.6851V15.1929H14.5312V24.1532H13.7101Z" fill="black" fill-opacity="0.8"/>
<path d="M1.72726 19.4808H6.19531V20.2416H1.72726V19.4808ZM1.82387 23.3813H6.90778V24.1541H0.930259V15.7011H6.72665V16.4739H1.82387V23.3813Z" fill="black" fill-opacity="0.8"/>
<path d="M283.393 2.56017C283.908 2.56017 284.359 2.6608 284.745 2.86206C285.14 3.05528 285.446 3.35315 285.663 3.75567C285.889 4.1582 286.001 4.66538 286.001 5.27722V8.96035H285.144V5.36175C285.144 4.69356 284.975 4.1904 284.637 3.85228C284.307 3.50611 283.84 3.33302 283.236 3.33302C282.785 3.33302 282.391 3.4256 282.052 3.61076C281.722 3.78787 281.465 4.04952 281.28 4.39569C281.103 4.73381 281.014 5.14439 281.014 5.62742V8.96035H280.157V2.62055H280.978V4.35946L280.845 4.03342C281.046 3.57453 281.368 3.21629 281.811 2.95867C282.254 2.693 282.781 2.56017 283.393 2.56017Z" fill="black" fill-opacity="0.8"/>
<path d="M275.169 9.02072C274.557 9.02072 274.005 8.88387 273.514 8.61015C273.031 8.32838 272.649 7.94598 272.367 7.46295C272.085 6.97186 271.944 6.41235 271.944 5.78441C271.944 5.14842 272.085 4.5889 272.367 4.10587C272.649 3.62284 273.031 3.24446 273.514 2.97074C273.997 2.69703 274.549 2.56017 275.169 2.56017C275.797 2.56017 276.352 2.69703 276.835 2.97074C277.326 3.24446 277.709 3.62284 277.982 4.10587C278.264 4.5889 278.405 5.14842 278.405 5.78441C278.405 6.41235 278.264 6.97186 277.982 7.46295C277.709 7.94598 277.326 8.32838 276.835 8.61015C276.344 8.88387 275.789 9.02072 275.169 9.02072ZM275.169 8.25995C275.628 8.25995 276.034 8.15932 276.388 7.95805C276.743 7.74874 277.02 7.45892 277.222 7.0886C277.431 6.71022 277.536 6.27549 277.536 5.78441C277.536 5.28527 277.431 4.85055 277.222 4.48022C277.02 4.1099 276.743 3.8241 276.388 3.62284C276.034 3.41352 275.632 3.30887 275.181 3.30887C274.73 3.30887 274.327 3.41352 273.973 3.62284C273.619 3.8241 273.337 4.1099 273.128 4.48022C272.919 4.85055 272.814 5.28527 272.814 5.78441C272.814 6.27549 272.919 6.71022 273.128 7.0886C273.337 7.45892 273.619 7.74874 273.973 7.95805C274.327 8.15932 274.726 8.25995 275.169 8.25995Z" fill="black" fill-opacity="0.8"/>
<path d="M263.765 9.02063C263.162 9.02063 262.618 8.88377 262.135 8.61005C261.66 8.33633 261.286 7.95796 261.012 7.47493C260.738 6.98384 260.602 6.4203 260.602 5.78431C260.602 5.14027 260.738 4.57673 261.012 4.0937C261.286 3.61067 261.66 3.23632 262.135 2.97065C262.618 2.69693 263.162 2.56007 263.765 2.56007C264.321 2.56007 264.816 2.68485 265.251 2.93442C265.694 3.18399 266.044 3.55029 266.301 4.03332C266.567 4.5083 266.7 5.09197 266.7 5.78431C266.7 6.46861 266.571 7.05227 266.313 7.5353C266.056 8.01834 265.706 8.38866 265.263 8.64628C264.828 8.89584 264.329 9.02063 263.765 9.02063ZM263.826 8.25985C264.277 8.25985 264.679 8.15922 265.033 7.95796C265.396 7.74864 265.677 7.45882 265.879 7.0885C266.088 6.71012 266.193 6.27539 266.193 5.78431C266.193 5.28518 266.088 4.85045 265.879 4.48012C265.677 4.1098 265.396 3.82401 265.033 3.62274C264.679 3.41343 264.277 3.30877 263.826 3.30877C263.383 3.30877 262.985 3.41343 262.63 3.62274C262.276 3.82401 261.994 4.1098 261.785 4.48012C261.576 4.85045 261.471 5.28518 261.471 5.78431C261.471 6.27539 261.576 6.71012 261.785 7.0885C261.994 7.45882 262.276 7.74864 262.63 7.95796C262.985 8.15922 263.383 8.25985 263.826 8.25985ZM266.217 8.96025V7.05227L266.301 5.77224L266.181 4.4922V0H267.038V8.96025H266.217Z" fill="black" fill-opacity="0.8"/>
<path d="M256.645 9.02072C255.985 9.02072 255.405 8.88387 254.906 8.61015C254.407 8.32838 254.016 7.94598 253.735 7.46295C253.453 6.97186 253.312 6.41235 253.312 5.78441C253.312 5.15647 253.445 4.60098 253.71 4.11795C253.984 3.63491 254.354 3.25654 254.821 2.98282C255.296 2.70105 255.828 2.56017 256.415 2.56017C257.011 2.56017 257.538 2.69703 257.997 2.97074C258.464 3.23641 258.831 3.61479 259.096 4.10587C259.362 4.5889 259.495 5.14842 259.495 5.78441C259.495 5.82466 259.491 5.86894 259.483 5.91724C259.483 5.95749 259.483 6.00177 259.483 6.05008H253.964V5.41006H259.024L258.686 5.66365C258.686 5.20477 258.585 4.79822 258.384 4.44399C258.191 4.08172 257.925 3.79995 257.587 3.59869C257.249 3.39742 256.858 3.29679 256.415 3.29679C255.981 3.29679 255.59 3.39742 255.244 3.59869C254.898 3.79995 254.628 4.08172 254.435 4.44399C254.242 4.80627 254.145 5.22087 254.145 5.6878V5.82063C254.145 6.30367 254.25 6.73035 254.459 7.10067C254.676 7.46294 254.974 7.74874 255.353 7.95805C255.739 8.15932 256.178 8.25995 256.669 8.25995C257.055 8.25995 257.414 8.19152 257.744 8.05466C258.082 7.9178 258.372 7.70849 258.613 7.42672L259.096 7.9822C258.814 8.32033 258.46 8.57795 258.034 8.75506C257.615 8.93217 257.152 9.02072 256.645 9.02072Z" fill="black" fill-opacity="0.8"/>
<path d="M249.259 8.96035V2.62055H250.08V4.34739L249.995 4.04549C250.172 3.56246 250.47 3.19616 250.889 2.94659C251.308 2.68898 251.827 2.56017 252.447 2.56017V3.3934C252.414 3.3934 252.382 3.3934 252.35 3.3934C252.318 3.38535 252.286 3.38132 252.253 3.38132C251.585 3.38132 251.062 3.58661 250.684 3.99719C250.305 4.39972 250.116 4.97533 250.116 5.72403V8.96035H249.259Z" fill="black" fill-opacity="0.8"/>
<path d="M244.665 9.02072C244.005 9.02072 243.425 8.88387 242.926 8.61015C242.427 8.32838 242.036 7.94598 241.755 7.46295C241.473 6.97186 241.332 6.41235 241.332 5.78441C241.332 5.15647 241.465 4.60098 241.73 4.11795C242.004 3.63491 242.374 3.25654 242.841 2.98282C243.316 2.70105 243.848 2.56017 244.435 2.56017C245.031 2.56017 245.558 2.69703 246.017 2.97074C246.484 3.23641 246.851 3.61479 247.116 4.10587C247.382 4.5889 247.515 5.14842 247.515 5.78441C247.515 5.82466 247.511 5.86894 247.503 5.91724C247.503 5.95749 247.503 6.00177 247.503 6.05008H241.984V5.41006H247.044L246.706 5.66365C246.706 5.20477 246.605 4.79822 246.404 4.44399C246.211 4.08172 245.945 3.79995 245.607 3.59869C245.269 3.39742 244.878 3.29679 244.435 3.29679C244.001 3.29679 243.61 3.39742 243.264 3.59869C242.918 3.79995 242.648 4.08172 242.455 4.44399C242.262 4.80627 242.165 5.22087 242.165 5.6878V5.82063C242.165 6.30367 242.27 6.73035 242.479 7.10067C242.696 7.46294 242.994 7.74874 243.373 7.95805C243.759 8.15932 244.198 8.25995 244.689 8.25995C245.075 8.25995 245.434 8.19152 245.764 8.05466C246.102 7.9178 246.392 7.70849 246.633 7.42672L247.116 7.9822C246.834 8.32033 246.48 8.57795 246.054 8.75506C245.635 8.93217 245.172 9.02072 244.665 9.02072Z" fill="black" fill-opacity="0.8"/>
<path d="M239.292 9.02047C238.697 9.02047 238.238 8.85946 237.916 8.53744C237.594 8.21542 237.433 7.76056 237.433 7.17287V1.2195H238.29V7.12457C238.29 7.49489 238.383 7.78069 238.568 7.98195C238.761 8.18322 239.035 8.28385 239.389 8.28385C239.767 8.28385 240.081 8.17516 240.331 7.9578L240.633 8.57367C240.464 8.72663 240.258 8.83933 240.017 8.91179C239.783 8.98424 239.542 9.02047 239.292 9.02047ZM236.298 3.33277V2.62029H240.222V3.33277H236.298Z" fill="black" fill-opacity="0.8"/>
<path d="M233.093 9.02072C232.57 9.02072 232.075 8.94827 231.608 8.80336C231.141 8.6504 230.775 8.46121 230.509 8.2358L230.895 7.55955C231.153 7.75276 231.483 7.92183 231.885 8.06674C232.288 8.20359 232.711 8.27202 233.153 8.27202C233.757 8.27202 234.192 8.17944 234.458 7.99428C234.723 7.80107 234.856 7.54748 234.856 7.23351C234.856 7.00004 234.78 6.8189 234.627 6.69009C234.482 6.55323 234.289 6.4526 234.047 6.3882C233.806 6.31574 233.536 6.25536 233.238 6.20706C232.94 6.15876 232.642 6.1024 232.344 6.038C232.055 5.9736 231.789 5.88101 231.547 5.76026C231.306 5.63145 231.109 5.45836 230.956 5.241C230.811 5.02363 230.738 4.73381 230.738 4.37154C230.738 4.02536 230.835 3.71542 231.028 3.4417C231.221 3.16798 231.503 2.95464 231.873 2.80168C232.252 2.64067 232.711 2.56017 233.25 2.56017C233.661 2.56017 234.071 2.61652 234.482 2.72923C234.892 2.83389 235.23 2.97477 235.496 3.15188L235.122 3.8402C234.84 3.64699 234.538 3.51013 234.216 3.42963C233.894 3.34107 233.572 3.29679 233.25 3.29679C232.678 3.29679 232.256 3.39742 231.982 3.59869C231.716 3.7919 231.584 4.04147 231.584 4.34739C231.584 4.5889 231.656 4.77809 231.801 4.91495C231.954 5.05181 232.151 5.16049 232.393 5.241C232.642 5.31345 232.912 5.37383 233.202 5.42213C233.5 5.47044 233.793 5.53082 234.083 5.60327C234.381 5.66767 234.651 5.76026 234.892 5.88101C235.142 5.99372 235.339 6.15876 235.484 6.37612C235.637 6.58544 235.714 6.86318 235.714 7.20935C235.714 7.57968 235.609 7.9017 235.4 8.17542C235.198 8.44109 234.9 8.6504 234.506 8.80336C234.12 8.94827 233.649 9.02072 233.093 9.02072Z" fill="black" fill-opacity="0.8"/>
<path d="M228.15 8.96025V2.62045H229.007V8.96025H228.15ZM228.584 1.21966C228.407 1.21966 228.258 1.15928 228.138 1.03852C228.017 0.917762 227.957 0.772852 227.957 0.60379C227.957 0.434729 228.017 0.293845 228.138 0.181137C228.258 0.0603791 228.407 0 228.584 0C228.762 0 228.91 0.0563536 229.031 0.169061C229.152 0.281769 229.212 0.422653 229.212 0.591715C229.212 0.768827 229.152 0.917762 229.031 1.03852C228.919 1.15928 228.77 1.21966 228.584 1.21966Z" fill="black" fill-opacity="0.8"/>
<path d="M222.585 11.3634C222.006 11.3634 221.45 11.2789 220.919 11.1098C220.387 10.9408 219.957 10.6993 219.627 10.3853L220.061 9.7332C220.359 9.99886 220.726 10.2082 221.16 10.3611C221.603 10.5221 222.07 10.6027 222.561 10.6027C223.366 10.6027 223.958 10.4135 224.336 10.0351C224.715 9.66477 224.904 9.08513 224.904 8.29618V6.71425L225.025 5.62742L224.94 4.5406V2.62055H225.761V8.18749C225.761 9.28237 225.491 10.0834 224.952 10.5906C224.421 11.1058 223.632 11.3634 222.585 11.3634ZM222.428 8.71883C221.824 8.71883 221.281 8.59002 220.798 8.3324C220.315 8.06674 219.933 7.70044 219.651 7.2335C219.377 6.76657 219.24 6.23121 219.24 5.62742C219.24 5.02363 219.377 4.4923 219.651 4.03342C219.933 3.56648 220.315 3.20421 220.798 2.94659C221.281 2.68898 221.824 2.56017 222.428 2.56017C222.992 2.56017 223.499 2.6769 223.95 2.91037C224.401 3.14383 224.759 3.49 225.025 3.94888C225.29 4.40777 225.423 4.96728 225.423 5.62742C225.423 6.28757 225.29 6.84708 225.025 7.30596C224.759 7.76484 224.401 8.11504 223.95 8.35655C223.499 8.59807 222.992 8.71883 222.428 8.71883ZM222.513 7.95805C222.98 7.95805 223.394 7.86145 223.757 7.66823C224.119 7.46697 224.405 7.19325 224.614 6.84708C224.823 6.49286 224.928 6.0863 224.928 5.62742C224.928 5.16854 224.823 4.76601 224.614 4.41984C224.405 4.07367 224.119 3.80398 223.757 3.61076C223.394 3.4095 222.98 3.30887 222.513 3.30887C222.054 3.30887 221.639 3.4095 221.269 3.61076C220.907 3.80398 220.621 4.07367 220.412 4.41984C220.21 4.76601 220.11 5.16854 220.11 5.62742C220.11 6.0863 220.21 6.49286 220.412 6.84708C220.621 7.19325 220.907 7.46697 221.269 7.66823C221.639 7.86145 222.054 7.95805 222.513 7.95805Z" fill="black" fill-opacity="0.8"/>
<path d="M215.287 9.02072C214.627 9.02072 214.048 8.88387 213.548 8.61015C213.049 8.32838 212.659 7.94598 212.377 7.46295C212.095 6.97186 211.954 6.41235 211.954 5.78441C211.954 5.15647 212.087 4.60098 212.353 4.11795C212.627 3.63491 212.997 3.25654 213.464 2.98282C213.939 2.70105 214.47 2.56017 215.058 2.56017C215.654 2.56017 216.181 2.69703 216.64 2.97074C217.107 3.23641 217.473 3.61479 217.739 4.10587C218.004 4.5889 218.137 5.14842 218.137 5.78441C218.137 5.82466 218.133 5.86894 218.125 5.91724C218.125 5.95749 218.125 6.00177 218.125 6.05008H212.607V5.41006H217.666L217.328 5.66365C217.328 5.20477 217.228 4.79822 217.026 4.44399C216.833 4.08172 216.567 3.79995 216.229 3.59869C215.891 3.39742 215.501 3.29679 215.058 3.29679C214.623 3.29679 214.233 3.39742 213.887 3.59869C213.54 3.79995 213.271 4.08172 213.078 4.44399C212.884 4.80627 212.788 5.22087 212.788 5.6878V5.82063C212.788 6.30367 212.892 6.73035 213.102 7.10067C213.319 7.46294 213.617 7.74874 213.995 7.95805C214.382 8.15932 214.82 8.25995 215.312 8.25995C215.698 8.25995 216.056 8.19152 216.386 8.05466C216.724 7.9178 217.014 7.70849 217.256 7.42672L217.739 7.9822C217.457 8.32033 217.103 8.57795 216.676 8.75506C216.258 8.93217 215.795 9.02072 215.287 9.02072Z" fill="black" fill-opacity="0.8"/>
<path d="M207.901 8.96035V2.62055H208.722V4.34739L208.638 4.04549C208.815 3.56246 209.113 3.19616 209.531 2.94659C209.95 2.68898 210.469 2.56017 211.089 2.56017V3.3934C211.057 3.3934 211.025 3.3934 210.993 3.3934C210.96 3.38535 210.928 3.38132 210.896 3.38132C210.228 3.38132 209.705 3.58661 209.326 3.99719C208.948 4.39972 208.759 4.97533 208.759 5.72403V8.96035H207.901Z" fill="black" fill-opacity="0.8"/>
<path d="M201.84 9.02047C201.244 9.02047 200.785 8.85946 200.463 8.53744C200.141 8.21542 199.98 7.76056 199.98 7.17287V1.2195H200.837V7.12457C200.837 7.49489 200.93 7.78069 201.115 7.98195C201.308 8.18322 201.582 8.28385 201.936 8.28385C202.315 8.28385 202.629 8.17516 202.878 7.9578L203.18 8.57367C203.011 8.72663 202.806 8.83933 202.564 8.91179C202.331 8.98424 202.089 9.02047 201.84 9.02047ZM198.845 3.33277V2.62029H202.77V3.33277H198.845Z" fill="black" fill-opacity="0.8"/>
<path d="M195.24 9.02072C194.58 9.02072 194 8.88387 193.501 8.61015C193.002 8.32838 192.611 7.94598 192.33 7.46295C192.048 6.97186 191.907 6.41235 191.907 5.78441C191.907 5.15647 192.04 4.60098 192.306 4.11795C192.579 3.63491 192.95 3.25654 193.416 2.98282C193.891 2.70105 194.423 2.56017 195.01 2.56017C195.606 2.56017 196.134 2.69703 196.592 2.97074C197.059 3.23641 197.426 3.61479 197.691 4.10587C197.957 4.5889 198.09 5.14842 198.09 5.78441C198.09 5.82466 198.086 5.86894 198.078 5.91724C198.078 5.95749 198.078 6.00177 198.078 6.05008H192.559V5.41006H197.619L197.281 5.66365C197.281 5.20477 197.18 4.79822 196.979 4.44399C196.786 4.08172 196.52 3.79995 196.182 3.59869C195.844 3.39742 195.453 3.29679 195.01 3.29679C194.576 3.29679 194.185 3.39742 193.839 3.59869C193.493 3.79995 193.223 4.08172 193.03 4.44399C192.837 4.80627 192.74 5.22087 192.74 5.6878V5.82063C192.74 6.30367 192.845 6.73035 193.054 7.10067C193.272 7.46294 193.569 7.74874 193.948 7.95805C194.334 8.15932 194.773 8.25995 195.264 8.25995C195.651 8.25995 196.009 8.19152 196.339 8.05466C196.677 7.9178 196.967 7.70849 197.208 7.42672L197.691 7.9822C197.41 8.32033 197.055 8.57795 196.629 8.75506C196.21 8.93217 195.747 9.02072 195.24 9.02072Z" fill="black" fill-opacity="0.8"/>
<path d="M186.985 11.3634C186.406 11.3634 185.85 11.2789 185.319 11.1098C184.787 10.9408 184.357 10.6993 184.027 10.3853L184.461 9.7332C184.759 9.99886 185.126 10.2082 185.56 10.3611C186.003 10.5221 186.47 10.6027 186.961 10.6027C187.766 10.6027 188.358 10.4135 188.736 10.0351C189.115 9.66477 189.304 9.08513 189.304 8.29618V6.71425L189.425 5.62742L189.34 4.5406V2.62055H190.161V8.18749C190.161 9.28237 189.891 10.0834 189.352 10.5906C188.821 11.1058 188.032 11.3634 186.985 11.3634ZM186.828 8.71883C186.224 8.71883 185.681 8.59002 185.198 8.3324C184.715 8.06674 184.333 7.70044 184.051 7.2335C183.777 6.76657 183.64 6.23121 183.64 5.62742C183.64 5.02363 183.777 4.4923 184.051 4.03342C184.333 3.56648 184.715 3.20421 185.198 2.94659C185.681 2.68898 186.224 2.56017 186.828 2.56017C187.392 2.56017 187.899 2.6769 188.35 2.91037C188.801 3.14383 189.159 3.49 189.425 3.94888C189.69 4.40777 189.823 4.96728 189.823 5.62742C189.823 6.28757 189.69 6.84708 189.425 7.30596C189.159 7.76484 188.801 8.11504 188.35 8.35655C187.899 8.59807 187.392 8.71883 186.828 8.71883ZM186.913 7.95805C187.38 7.95805 187.794 7.86145 188.157 7.66823C188.519 7.46697 188.805 7.19325 189.014 6.84708C189.223 6.49286 189.328 6.0863 189.328 5.62742C189.328 5.16854 189.223 4.76601 189.014 4.41984C188.805 4.07367 188.519 3.80398 188.157 3.61076C187.794 3.4095 187.38 3.30887 186.913 3.30887C186.454 3.30887 186.039 3.4095 185.669 3.61076C185.307 3.80398 185.021 4.07367 184.812 4.41984C184.61 4.76601 184.51 5.16854 184.51 5.62742C184.51 6.0863 184.61 6.49286 184.812 6.84708C185.021 7.19325 185.307 7.46697 185.669 7.66823C186.039 7.86145 186.454 7.95805 186.913 7.95805Z" fill="black" fill-opacity="0.8"/>
<path d="M176.131 9.02072C175.519 9.02072 174.968 8.88387 174.477 8.61015C173.994 8.32838 173.611 7.94598 173.33 7.46295C173.048 6.97186 172.907 6.41235 172.907 5.78441C172.907 5.14842 173.048 4.5889 173.33 4.10587C173.611 3.62284 173.994 3.24446 174.477 2.97074C174.96 2.69703 175.511 2.56017 176.131 2.56017C176.759 2.56017 177.315 2.69703 177.798 2.97074C178.289 3.24446 178.671 3.62284 178.945 4.10587C179.227 4.5889 179.368 5.14842 179.368 5.78441C179.368 6.41235 179.227 6.97186 178.945 7.46295C178.671 7.94598 178.289 8.32838 177.798 8.61015C177.307 8.88387 176.751 9.02072 176.131 9.02072ZM176.131 8.25995C176.59 8.25995 176.997 8.15932 177.351 7.95805C177.705 7.74874 177.983 7.45892 178.184 7.0886C178.393 6.71022 178.498 6.27549 178.498 5.78441C178.498 5.28527 178.393 4.85055 178.184 4.48022C177.983 4.1099 177.705 3.8241 177.351 3.62284C176.997 3.41352 176.594 3.30887 176.143 3.30887C175.693 3.30887 175.29 3.41352 174.936 3.62284C174.582 3.8241 174.3 4.1099 174.09 4.48022C173.881 4.85055 173.777 5.28527 173.777 5.78441C173.777 6.27549 173.881 6.71022 174.09 7.0886C174.3 7.45892 174.582 7.74874 174.936 7.95805C175.29 8.15932 175.689 8.25995 176.131 8.25995Z" fill="black" fill-opacity="0.8"/>
<path d="M170.871 9.02047C170.276 9.02047 169.817 8.85946 169.495 8.53744C169.173 8.21542 169.012 7.76056 169.012 7.17287V1.2195H169.869V7.12457C169.869 7.49489 169.962 7.78069 170.147 7.98195C170.34 8.18322 170.614 8.28385 170.968 8.28385C171.346 8.28385 171.66 8.17516 171.91 7.9578L172.212 8.57367C172.043 8.72663 171.837 8.83933 171.596 8.91179C171.362 8.98424 171.121 9.02047 170.871 9.02047ZM167.877 3.33277V2.62029H171.801V3.33277H167.877Z" fill="black" fill-opacity="0.8"/>
<path d="M161.514 9.02072C160.991 9.02072 160.496 8.94827 160.029 8.80336C159.562 8.6504 159.195 8.46121 158.93 8.2358L159.316 7.55955C159.574 7.75276 159.904 7.92183 160.306 8.06674C160.709 8.20359 161.132 8.27202 161.574 8.27202C162.178 8.27202 162.613 8.17944 162.878 7.99428C163.144 7.80107 163.277 7.54748 163.277 7.23351C163.277 7.00004 163.201 6.8189 163.048 6.69009C162.903 6.55323 162.709 6.4526 162.468 6.3882C162.226 6.31574 161.957 6.25536 161.659 6.20706C161.361 6.15876 161.063 6.1024 160.765 6.038C160.475 5.9736 160.21 5.88101 159.968 5.76026C159.727 5.63145 159.529 5.45836 159.377 5.241C159.232 5.02363 159.159 4.73381 159.159 4.37154C159.159 4.02536 159.256 3.71542 159.449 3.4417C159.642 3.16798 159.924 2.95464 160.294 2.80168C160.673 2.64067 161.132 2.56017 161.671 2.56017C162.081 2.56017 162.492 2.61652 162.903 2.72923C163.313 2.83389 163.651 2.97477 163.917 3.15188L163.543 3.8402C163.261 3.64699 162.959 3.51013 162.637 3.42963C162.315 3.34107 161.993 3.29679 161.671 3.29679C161.099 3.29679 160.677 3.39742 160.403 3.59869C160.137 3.7919 160.004 4.04147 160.004 4.34739C160.004 4.5889 160.077 4.77809 160.222 4.91495C160.375 5.05181 160.572 5.16049 160.814 5.241C161.063 5.31345 161.333 5.37383 161.623 5.42213C161.92 5.47044 162.214 5.53082 162.504 5.60327C162.802 5.66767 163.072 5.76026 163.313 5.88101C163.563 5.99372 163.76 6.15876 163.905 6.37612C164.058 6.58544 164.134 6.86318 164.134 7.20935C164.134 7.57968 164.03 7.9017 163.82 8.17542C163.619 8.44109 163.321 8.6504 162.927 8.80336C162.54 8.94827 162.069 9.02072 161.514 9.02072Z" fill="black" fill-opacity="0.8"/>
<path d="M155.616 9.02072C155.092 9.02072 154.597 8.94827 154.13 8.80336C153.664 8.6504 153.297 8.46121 153.032 8.2358L153.418 7.55955C153.676 7.75276 154.006 7.92183 154.408 8.06674C154.811 8.20359 155.233 8.27202 155.676 8.27202C156.28 8.27202 156.715 8.17944 156.98 7.99428C157.246 7.80107 157.379 7.54748 157.379 7.23351C157.379 7.00004 157.302 6.8189 157.149 6.69009C157.004 6.55323 156.811 6.4526 156.57 6.3882C156.328 6.31574 156.059 6.25536 155.761 6.20706C155.463 6.15876 155.165 6.1024 154.867 6.038C154.577 5.9736 154.312 5.88101 154.07 5.76026C153.829 5.63145 153.631 5.45836 153.478 5.241C153.333 5.02363 153.261 4.73381 153.261 4.37154C153.261 4.02536 153.358 3.71542 153.551 3.4417C153.744 3.16798 154.026 2.95464 154.396 2.80168C154.774 2.64067 155.233 2.56017 155.773 2.56017C156.183 2.56017 156.594 2.61652 157.004 2.72923C157.415 2.83389 157.753 2.97477 158.019 3.15188L157.645 3.8402C157.363 3.64699 157.061 3.51013 156.739 3.42963C156.417 3.34107 156.095 3.29679 155.773 3.29679C155.201 3.29679 154.779 3.39742 154.505 3.59869C154.239 3.7919 154.106 4.04147 154.106 4.34739C154.106 4.5889 154.179 4.77809 154.324 4.91495C154.477 5.05181 154.674 5.16049 154.915 5.241C155.165 5.31345 155.435 5.37383 155.724 5.42213C156.022 5.47044 156.316 5.53082 156.606 5.60327C156.904 5.66767 157.174 5.76026 157.415 5.88101C157.665 5.99372 157.862 6.15876 158.007 6.37612C158.16 6.58544 158.236 6.86318 158.236 7.20935C158.236 7.57968 158.132 7.9017 157.922 8.17542C157.721 8.44109 157.423 8.6504 157.029 8.80336C156.642 8.94827 156.171 9.02072 155.616 9.02072Z" fill="black" fill-opacity="0.8"/>
<path d="M149.317 9.02072C148.657 9.02072 148.077 8.88387 147.578 8.61015C147.079 8.32838 146.689 7.94598 146.407 7.46295C146.125 6.97186 145.984 6.41235 145.984 5.78441C145.984 5.15647 146.117 4.60098 146.383 4.11795C146.656 3.63491 147.027 3.25654 147.494 2.98282C147.969 2.70105 148.5 2.56017 149.088 2.56017C149.683 2.56017 150.211 2.69703 150.67 2.97074C151.137 3.23641 151.503 3.61479 151.769 4.10587C152.034 4.5889 152.167 5.14842 152.167 5.78441C152.167 5.82466 152.163 5.86894 152.155 5.91724C152.155 5.95749 152.155 6.00177 152.155 6.05008H146.636V5.41006H151.696L151.358 5.66365C151.358 5.20477 151.257 4.79822 151.056 4.44399C150.863 4.08172 150.597 3.79995 150.259 3.59869C149.921 3.39742 149.531 3.29679 149.088 3.29679C148.653 3.29679 148.263 3.39742 147.916 3.59869C147.57 3.79995 147.301 4.08172 147.107 4.44399C146.914 4.80627 146.817 5.22087 146.817 5.6878V5.82063C146.817 6.30367 146.922 6.73035 147.131 7.10067C147.349 7.46294 147.647 7.74874 148.025 7.95805C148.411 8.15932 148.85 8.25995 149.341 8.25995C149.728 8.25995 150.086 8.19152 150.416 8.05466C150.754 7.9178 151.044 7.70849 151.286 7.42672L151.769 7.9822C151.487 8.32033 151.133 8.57795 150.706 8.75506C150.287 8.93217 149.824 9.02072 149.317 9.02072Z" fill="black" fill-opacity="0.8"/>
<path d="M142.561 9.02072C141.933 9.02072 141.37 8.88387 140.871 8.61015C140.38 8.32838 139.993 7.94598 139.711 7.46295C139.43 6.97186 139.289 6.41235 139.289 5.78441C139.289 5.14842 139.43 4.5889 139.711 4.10587C139.993 3.62284 140.38 3.24446 140.871 2.97074C141.37 2.69703 141.933 2.56017 142.561 2.56017C143.101 2.56017 143.588 2.66482 144.022 2.87414C144.457 3.08345 144.799 3.39742 145.049 3.81605L144.409 4.25078C144.192 3.92876 143.922 3.69127 143.6 3.53831C143.278 3.38535 142.928 3.30887 142.549 3.30887C142.098 3.30887 141.692 3.41352 141.33 3.62284C140.967 3.8241 140.681 4.1099 140.472 4.48022C140.263 4.85055 140.158 5.28527 140.158 5.78441C140.158 6.28354 140.263 6.71827 140.472 7.0886C140.681 7.45892 140.967 7.74874 141.33 7.95805C141.692 8.15932 142.098 8.25995 142.549 8.25995C142.928 8.25995 143.278 8.18347 143.6 8.03051C143.922 7.87755 144.192 7.64408 144.409 7.33011L145.049 7.76484C144.799 8.17542 144.457 8.48939 144.022 8.70675C143.588 8.91607 143.101 9.02072 142.561 9.02072Z" fill="black" fill-opacity="0.8"/>
<path d="M134.942 9.02072C134.33 9.02072 133.779 8.88387 133.288 8.61015C132.804 8.32838 132.422 7.94598 132.14 7.46295C131.859 6.97186 131.718 6.41235 131.718 5.78441C131.718 5.14842 131.859 4.5889 132.14 4.10587C132.422 3.62284 132.804 3.24446 133.288 2.97074C133.771 2.69703 134.322 2.56017 134.942 2.56017C135.57 2.56017 136.125 2.69703 136.608 2.97074C137.099 3.24446 137.482 3.62284 137.756 4.10587C138.037 4.5889 138.178 5.14842 138.178 5.78441C138.178 6.41235 138.037 6.97186 137.756 7.46295C137.482 7.94598 137.099 8.32838 136.608 8.61015C136.117 8.88387 135.562 9.02072 134.942 9.02072ZM134.942 8.25995C135.401 8.25995 135.807 8.15932 136.162 7.95805C136.516 7.74874 136.794 7.45892 136.995 7.0886C137.204 6.71022 137.309 6.27549 137.309 5.78441C137.309 5.28527 137.204 4.85055 136.995 4.48022C136.794 4.1099 136.516 3.8241 136.162 3.62284C135.807 3.41352 135.405 3.30887 134.954 3.30887C134.503 3.30887 134.101 3.41352 133.746 3.62284C133.392 3.8241 133.11 4.1099 132.901 4.48022C132.692 4.85055 132.587 5.28527 132.587 5.78441C132.587 6.27549 132.692 6.71022 132.901 7.0886C133.11 7.45892 133.392 7.74874 133.746 7.95805C134.101 8.15932 134.499 8.25995 134.942 8.25995Z" fill="black" fill-opacity="0.8"/>
<path d="M127.66 8.96035V2.62055H128.482V4.34739L128.397 4.04549C128.574 3.56246 128.872 3.19616 129.291 2.94659C129.709 2.68898 130.229 2.56017 130.849 2.56017V3.3934C130.816 3.3934 130.784 3.3934 130.752 3.3934C130.72 3.38535 130.687 3.38132 130.655 3.38132C129.987 3.38132 129.464 3.58661 129.085 3.99719C128.707 4.39972 128.518 4.97533 128.518 5.72403V8.96035H127.66Z" fill="black" fill-opacity="0.8"/>
<path d="M122.752 9.02072C122.205 9.02072 121.71 8.89594 121.267 8.64638C120.824 8.38876 120.47 8.02246 120.204 7.54748C119.947 7.06444 119.818 6.47675 119.818 5.78441C119.818 5.09206 119.947 4.5084 120.204 4.03342C120.462 3.55038 120.812 3.18408 121.255 2.93452C121.698 2.68495 122.197 2.56017 122.752 2.56017C123.356 2.56017 123.895 2.69703 124.37 2.97074C124.853 3.23641 125.232 3.61479 125.506 4.10587C125.779 4.5889 125.916 5.14842 125.916 5.78441C125.916 6.42845 125.779 6.99199 125.506 7.47502C125.232 7.95805 124.853 8.33643 124.37 8.61015C123.895 8.88387 123.356 9.02072 122.752 9.02072ZM119.48 11.3031V2.62055H120.301V4.52852L120.216 5.79648L120.337 7.07652V11.3031H119.48ZM122.692 8.25995C123.143 8.25995 123.545 8.15932 123.899 7.95805C124.254 7.74874 124.535 7.45892 124.745 7.0886C124.954 6.71022 125.059 6.27549 125.059 5.78441C125.059 5.29333 124.954 4.86262 124.745 4.4923C124.535 4.12197 124.254 3.83215 123.899 3.62284C123.545 3.41352 123.143 3.30887 122.692 3.30887C122.241 3.30887 121.834 3.41352 121.472 3.62284C121.118 3.83215 120.836 4.12197 120.627 4.4923C120.426 4.86262 120.325 5.29333 120.325 5.78441C120.325 6.27549 120.426 6.71022 120.627 7.0886C120.836 7.45892 121.118 7.74874 121.472 7.95805C121.834 8.15932 122.241 8.25995 122.692 8.25995Z" fill="black" fill-opacity="0.8"/>
<path d="M111.405 9.02072C110.858 9.02072 110.363 8.89594 109.92 8.64638C109.477 8.38876 109.123 8.02246 108.857 7.54748C108.6 7.06444 108.471 6.47675 108.471 5.78441C108.471 5.09206 108.6 4.5084 108.857 4.03342C109.115 3.55038 109.465 3.18408 109.908 2.93452C110.351 2.68495 110.85 2.56017 111.405 2.56017C112.009 2.56017 112.549 2.69703 113.024 2.97074C113.507 3.23641 113.885 3.61479 114.159 4.10587C114.432 4.5889 114.569 5.14842 114.569 5.78441C114.569 6.42845 114.432 6.99199 114.159 7.47502C113.885 7.95805 113.507 8.33643 113.024 8.61015C112.549 8.88387 112.009 9.02072 111.405 9.02072ZM108.133 11.3031V2.62055H108.954V4.52852L108.869 5.79648L108.99 7.07652V11.3031H108.133ZM111.345 8.25995C111.796 8.25995 112.198 8.15932 112.553 7.95805C112.907 7.74874 113.189 7.45892 113.398 7.0886C113.607 6.71022 113.712 6.27549 113.712 5.78441C113.712 5.29333 113.607 4.86262 113.398 4.4923C113.189 4.12197 112.907 3.83215 112.553 3.62284C112.198 3.41352 111.796 3.30887 111.345 3.30887C110.894 3.30887 110.488 3.41352 110.125 3.62284C109.771 3.83215 109.489 4.12197 109.28 4.4923C109.079 4.86262 108.978 5.29333 108.978 5.78441C108.978 6.27549 109.079 6.71022 109.28 7.0886C109.489 7.45892 109.771 7.74874 110.125 7.95805C110.488 8.15932 110.894 8.25995 111.345 8.25995Z" fill="black" fill-opacity="0.8"/>
<path d="M103.539 9.02072C102.879 9.02072 102.299 8.88387 101.8 8.61015C101.301 8.32838 100.911 7.94598 100.629 7.46295C100.347 6.97186 100.206 6.41235 100.206 5.78441C100.206 5.15647 100.339 4.60098 100.605 4.11795C100.878 3.63491 101.249 3.25654 101.716 2.98282C102.191 2.70105 102.722 2.56017 103.31 2.56017C103.905 2.56017 104.433 2.69703 104.892 2.97074C105.358 3.23641 105.725 3.61479 105.99 4.10587C106.256 4.5889 106.389 5.14842 106.389 5.78441C106.389 5.82466 106.385 5.86894 106.377 5.91724C106.377 5.95749 106.377 6.00177 106.377 6.05008H100.858V5.41006H105.918L105.58 5.66365C105.58 5.20477 105.479 4.79822 105.278 4.44399C105.085 4.08172 104.819 3.79995 104.481 3.59869C104.143 3.39742 103.752 3.29679 103.31 3.29679C102.875 3.29679 102.484 3.39742 102.138 3.59869C101.792 3.79995 101.522 4.08172 101.329 4.44399C101.136 4.80627 101.039 5.22087 101.039 5.6878V5.82063C101.039 6.30367 101.144 6.73035 101.353 7.10067C101.571 7.46294 101.869 7.74874 102.247 7.95805C102.633 8.15932 103.072 8.25995 103.563 8.25995C103.95 8.25995 104.308 8.19152 104.638 8.05466C104.976 7.9178 105.266 7.70849 105.507 7.42672L105.99 7.9822C105.709 8.32033 105.354 8.57795 104.928 8.75506C104.509 8.93217 104.046 9.02072 103.539 9.02072Z" fill="black" fill-opacity="0.8"/>
<path d="M98.1666 9.02047C97.5708 9.02047 97.112 8.85946 96.7899 8.53744C96.4679 8.21542 96.3069 7.76056 96.3069 7.17287V1.2195H97.1643V7.12457C97.1643 7.49489 97.2569 7.78069 97.442 7.98195C97.6352 8.18322 97.909 8.28385 98.2632 8.28385C98.6416 8.28385 98.9555 8.17516 99.2051 7.9578L99.507 8.57367C99.3379 8.72663 99.1326 8.83933 98.8911 8.91179C98.6577 8.98424 98.4161 9.02047 98.1666 9.02047ZM95.1718 3.33277V2.62029H99.0964V3.33277H95.1718Z" fill="black" fill-opacity="0.8"/>
<path d="M91.9712 9.02072C91.4479 9.02072 90.9528 8.94827 90.4859 8.80336C90.0189 8.6504 89.6526 8.46121 89.387 8.2358L89.7734 7.55955C90.031 7.75276 90.3611 7.92183 90.7636 8.06674C91.1661 8.20359 91.5888 8.27202 92.0316 8.27202C92.6354 8.27202 93.0701 8.17944 93.3358 7.99428C93.6014 7.80107 93.7343 7.54748 93.7343 7.23351C93.7343 7.00004 93.6578 6.8189 93.5048 6.69009C93.3599 6.55323 93.1667 6.4526 92.9252 6.3882C92.6837 6.31574 92.414 6.25536 92.1161 6.20706C91.8182 6.15876 91.5204 6.1024 91.2225 6.038C90.9327 5.9736 90.667 5.88101 90.4255 5.76026C90.184 5.63145 89.9867 5.45836 89.8338 5.241C89.6889 5.02363 89.6164 4.73381 89.6164 4.37154C89.6164 4.02536 89.713 3.71542 89.9062 3.4417C90.0994 3.16798 90.3812 2.95464 90.7515 2.80168C91.1299 2.64067 91.5888 2.56017 92.1282 2.56017C92.5388 2.56017 92.9493 2.61652 93.3599 2.72923C93.7705 2.83389 94.1086 2.97477 94.3743 3.15188L93.9999 3.8402C93.7182 3.64699 93.4163 3.51013 93.0942 3.42963C92.7722 3.34107 92.4502 3.29679 92.1282 3.29679C91.5566 3.29679 91.1339 3.39742 90.8602 3.59869C90.5946 3.7919 90.4617 4.04147 90.4617 4.34739C90.4617 4.5889 90.5342 4.77809 90.6791 4.91495C90.832 5.05181 91.0293 5.16049 91.2708 5.241C91.5204 5.31345 91.7901 5.37383 92.0799 5.42213C92.3777 5.47044 92.6716 5.53082 92.9614 5.60327C93.2593 5.66767 93.529 5.76026 93.7705 5.88101C94.0201 5.99372 94.2173 6.15876 94.3622 6.37612C94.5152 6.58544 94.5916 6.86318 94.5916 7.20935C94.5916 7.57968 94.487 7.9017 94.2777 8.17542C94.0764 8.44109 93.7785 8.6504 93.3841 8.80336C92.9976 8.94827 92.5267 9.02072 91.9712 9.02072Z" fill="black" fill-opacity="0.8"/>
<path d="M80.6099 11.3617C80.3121 11.3617 80.0263 11.3134 79.7525 11.2168C79.4869 11.1202 79.2574 10.9753 79.0642 10.782L79.4627 10.142C79.6237 10.295 79.7968 10.4117 79.982 10.4922C80.1752 10.5808 80.3885 10.6251 80.622 10.6251C80.9038 10.6251 81.1453 10.5446 81.3465 10.3835C81.5559 10.2306 81.7531 9.95686 81.9383 9.56239L82.3488 8.63255L82.4454 8.49972L85.0538 2.6188H85.8991L82.7232 9.71937C82.5461 10.1299 82.3488 10.456 82.1315 10.6975C81.9222 10.939 81.6927 11.1081 81.4432 11.2047C81.1936 11.3094 80.9158 11.3617 80.6099 11.3617ZM82.3005 9.13973L79.3782 2.6188H80.2718L82.856 8.43934L82.3005 9.13973Z" fill="black" fill-opacity="0.8"/>
<path d="M75.8289 9.02063C75.2734 9.02063 74.7742 8.89584 74.3315 8.64628C73.8887 8.38866 73.5385 8.01834 73.2809 7.5353C73.0232 7.05227 72.8944 6.46861 72.8944 5.78431C72.8944 5.09197 73.0232 4.5083 73.2809 4.03332C73.5465 3.55029 73.9008 3.18399 74.3435 2.93442C74.7863 2.68485 75.2814 2.56007 75.8289 2.56007C76.4326 2.56007 76.972 2.69693 77.447 2.97065C77.93 3.23632 78.3084 3.61067 78.5821 4.0937C78.8559 4.57673 78.9927 5.14027 78.9927 5.78431C78.9927 6.4203 78.8559 6.98384 78.5821 7.47493C78.3084 7.95796 77.93 8.33633 77.447 8.61005C76.972 8.88377 76.4326 9.02063 75.8289 9.02063ZM72.5563 8.96025V0H73.4137V4.4922L73.2929 5.77224L73.3775 7.05227V8.96025H72.5563ZM75.7685 8.25985C76.2193 8.25985 76.6218 8.15922 76.9761 7.95796C77.3303 7.74864 77.6121 7.45882 77.8214 7.0885C78.0307 6.71012 78.1353 6.27539 78.1353 5.78431C78.1353 5.28518 78.0307 4.85045 77.8214 4.48012C77.6121 4.1098 77.3303 3.82401 76.9761 3.62274C76.6218 3.41343 76.2193 3.30877 75.7685 3.30877C75.3177 3.30877 74.9111 3.41343 74.5488 3.62274C74.1946 3.82401 73.9128 4.1098 73.7035 4.48012C73.5023 4.85045 73.4016 5.28518 73.4016 5.78431C73.4016 6.27539 73.5023 6.71012 73.7035 7.0885C73.9128 7.45882 74.1946 7.74864 74.5488 7.95796C74.9111 8.15922 75.3177 8.25985 75.7685 8.25985Z" fill="black" fill-opacity="0.8"/>
<path d="M64.482 9.02072C63.9346 9.02072 63.4395 8.89594 62.9967 8.64638C62.5539 8.38876 62.1997 8.02246 61.934 7.54748C61.6764 7.06444 61.5476 6.47675 61.5476 5.78441C61.5476 5.09206 61.6764 4.5084 61.934 4.03342C62.1917 3.55038 62.5419 3.18408 62.9846 2.93452C63.4274 2.68495 63.9266 2.56017 64.482 2.56017C65.0858 2.56017 65.6252 2.69703 66.1002 2.97074C66.5832 3.23641 66.9616 3.61479 67.2353 4.10587C67.509 4.5889 67.6459 5.14842 67.6459 5.78441C67.6459 6.42845 67.509 6.99199 67.2353 7.47502C66.9616 7.95805 66.5832 8.33643 66.1002 8.61015C65.6252 8.88387 65.0858 9.02072 64.482 9.02072ZM61.2095 11.3031V2.62055H62.0306V4.52852L61.9461 5.79648L62.0669 7.07652V11.3031H61.2095ZM64.4217 8.25995C64.8725 8.25995 65.275 8.15932 65.6292 7.95805C65.9835 7.74874 66.2652 7.45892 66.4745 7.0886C66.6839 6.71022 66.7885 6.27549 66.7885 5.78441C66.7885 5.29333 66.6839 4.86262 66.4745 4.4923C66.2652 4.12197 65.9835 3.83215 65.6292 3.62284C65.275 3.41352 64.8725 3.30887 64.4217 3.30887C63.9708 3.30887 63.5643 3.41352 63.202 3.62284C62.8478 3.83215 62.566 4.12197 62.3567 4.4923C62.1554 4.86262 62.0548 5.29333 62.0548 5.78441C62.0548 6.27549 62.1554 6.71022 62.3567 7.0886C62.566 7.45892 62.8478 7.74874 63.202 7.95805C63.5643 8.15932 63.9708 8.25995 64.4217 8.25995Z" fill="black" fill-opacity="0.8"/>
<path d="M56.6157 9.02072C55.9555 9.02072 55.3759 8.88387 54.8768 8.61015C54.3776 8.32838 53.9872 7.94598 53.7054 7.46295C53.4236 6.97186 53.2827 6.41235 53.2827 5.78441C53.2827 5.15647 53.4156 4.60098 53.6813 4.11795C53.955 3.63491 54.3253 3.25654 54.7922 2.98282C55.2672 2.70105 55.7985 2.56017 56.3862 2.56017C56.982 2.56017 57.5093 2.69703 57.9682 2.97074C58.4351 3.23641 58.8014 3.61479 59.0671 4.10587C59.3327 4.5889 59.4656 5.14842 59.4656 5.78441C59.4656 5.82466 59.4615 5.86894 59.4535 5.91724C59.4535 5.95749 59.4535 6.00177 59.4535 6.05008H53.9348V5.41006H58.9946L58.6565 5.66365C58.6565 5.20477 58.5559 4.79822 58.3546 4.44399C58.1614 4.08172 57.8957 3.79995 57.5576 3.59869C57.2195 3.39742 56.829 3.29679 56.3862 3.29679C55.9515 3.29679 55.5611 3.39742 55.2149 3.59869C54.8687 3.79995 54.599 4.08172 54.4058 4.44399C54.2126 4.80627 54.116 5.22087 54.116 5.6878V5.82063C54.116 6.30367 54.2206 6.73035 54.43 7.10067C54.6473 7.46294 54.9452 7.74874 55.3236 7.95805C55.71 8.15932 56.1487 8.25995 56.6398 8.25995C57.0263 8.25995 57.3845 8.19152 57.7146 8.05466C58.0527 7.9178 58.3425 7.70849 58.584 7.42672L59.0671 7.9822C58.7853 8.32033 58.4311 8.57795 58.0044 8.75506C57.5858 8.93217 57.1229 9.02072 56.6157 9.02072Z" fill="black" fill-opacity="0.8"/>
<path d="M51.2471 9.02047C50.6514 9.02047 50.1925 8.85946 49.8705 8.53744C49.5484 8.21542 49.3874 7.76056 49.3874 7.17287V1.2195H50.2448V7.12457C50.2448 7.49489 50.3374 7.78069 50.5226 7.98195C50.7158 8.18322 50.9895 8.28385 51.3437 8.28385C51.7221 8.28385 52.0361 8.17516 52.2856 7.9578L52.5875 8.57367C52.4185 8.72663 52.2132 8.83933 51.9717 8.91179C51.7382 8.98424 51.4967 9.02047 51.2471 9.02047ZM48.2523 3.33277V2.62029H52.1769V3.33277H48.2523Z" fill="black" fill-opacity="0.8"/>
<path d="M45.0478 9.02072C44.5245 9.02072 44.0294 8.94827 43.5625 8.80336C43.0956 8.6504 42.7293 8.46121 42.4636 8.2358L42.85 7.55955C43.1076 7.75276 43.4377 7.92183 43.8402 8.06674C44.2428 8.20359 44.6654 8.27202 45.1082 8.27202C45.712 8.27202 46.1467 8.17944 46.4124 7.99428C46.6781 7.80107 46.8109 7.54748 46.8109 7.23351C46.8109 7.00004 46.7344 6.8189 46.5815 6.69009C46.4365 6.55323 46.2433 6.4526 46.0018 6.3882C45.7603 6.31574 45.4906 6.25536 45.1927 6.20706C44.8949 6.15876 44.597 6.1024 44.2991 6.038C44.0093 5.9736 43.7436 5.88101 43.5021 5.76026C43.2606 5.63145 43.0634 5.45836 42.9104 5.241C42.7655 5.02363 42.693 4.73381 42.693 4.37154C42.693 4.02536 42.7896 3.71542 42.9829 3.4417C43.1761 3.16798 43.4578 2.95464 43.8282 2.80168C44.2065 2.64067 44.6654 2.56017 45.2048 2.56017C45.6154 2.56017 46.026 2.61652 46.4365 2.72923C46.8471 2.83389 47.1852 2.97477 47.4509 3.15188L47.0766 3.8402C46.7948 3.64699 46.4929 3.51013 46.1709 3.42963C45.8489 3.34107 45.5268 3.29679 45.2048 3.29679C44.6332 3.29679 44.2106 3.39742 43.9368 3.59869C43.6712 3.7919 43.5383 4.04147 43.5383 4.34739C43.5383 4.5889 43.6108 4.77809 43.7557 4.91495C43.9087 5.05181 44.1059 5.16049 44.3474 5.241C44.597 5.31345 44.8667 5.37383 45.1565 5.42213C45.4544 5.47044 45.7482 5.53082 46.038 5.60327C46.3359 5.66767 46.6056 5.76026 46.8471 5.88101C47.0967 5.99372 47.2939 6.15876 47.4388 6.37612C47.5918 6.58544 47.6683 6.86318 47.6683 7.20935C47.6683 7.57968 47.5636 7.9017 47.3543 8.17542C47.153 8.44109 46.8552 8.6504 46.4607 8.80336C46.0743 8.94827 45.6033 9.02072 45.0478 9.02072Z" fill="black" fill-opacity="0.8"/>
<path d="M35.2599 2.56007C35.7751 2.56007 36.226 2.6607 36.6124 2.86197C37.0069 3.05518 37.3128 3.35305 37.5302 3.75558C37.7556 4.1581 37.8683 4.66529 37.8683 5.27713V8.96025H37.0109V5.36166C37.0109 4.69346 36.8418 4.19031 36.5037 3.85218C36.1736 3.50601 35.7067 3.33292 35.1029 3.33292C34.6521 3.33292 34.2576 3.4255 33.9195 3.61067C33.5894 3.78778 33.3318 4.04942 33.1466 4.39559C32.9695 4.73372 32.881 5.14429 32.881 5.62733V8.96025H32.0236V0H32.881V4.35937L32.7119 4.03332C32.9132 3.57444 33.2352 3.21619 33.678 2.95857C34.1208 2.6929 34.6481 2.56007 35.2599 2.56007Z" fill="black" fill-opacity="0.8"/>
<path d="M27.9479 9.02072C27.3199 9.02072 26.7564 8.88387 26.2573 8.61015C25.7662 8.32838 25.3797 7.94598 25.098 7.46295C24.8162 6.97186 24.6753 6.41235 24.6753 5.78441C24.6753 5.14842 24.8162 4.5889 25.098 4.10587C25.3797 3.62284 25.7662 3.24446 26.2573 2.97074C26.7564 2.69703 27.3199 2.56017 27.9479 2.56017C28.4873 2.56017 28.9743 2.66482 29.409 2.87414C29.8438 3.08345 30.1859 3.39742 30.4355 3.81605L29.7955 4.25078C29.5781 3.92876 29.3084 3.69127 28.9864 3.53831C28.6644 3.38535 28.3142 3.30887 27.9358 3.30887C27.485 3.30887 27.0784 3.41352 26.7161 3.62284C26.3539 3.8241 26.0681 4.1099 25.8587 4.48022C25.6494 4.85055 25.5448 5.28527 25.5448 5.78441C25.5448 6.28354 25.6494 6.71827 25.8587 7.0886C26.0681 7.45892 26.3539 7.74874 26.7161 7.95805C27.0784 8.15932 27.485 8.25995 27.9358 8.25995C28.3142 8.25995 28.6644 8.18347 28.9864 8.03051C29.3084 7.87755 29.5781 7.64408 29.7955 7.33011L30.4355 7.76484C30.1859 8.17542 29.8438 8.48939 29.409 8.70675C28.9743 8.91607 28.4873 9.02072 27.9479 9.02072Z" fill="black" fill-opacity="0.8"/>
<path d="M22.6358 9.02047C22.04 9.02047 21.5812 8.85946 21.2591 8.53744C20.9371 8.21542 20.7761 7.76056 20.7761 7.17287V1.2195H21.6335V7.12457C21.6335 7.49489 21.7261 7.78069 21.9112 7.98195C22.1044 8.18322 22.3782 8.28385 22.7324 8.28385C23.1108 8.28385 23.4247 8.17516 23.6743 7.9578L23.9762 8.57367C23.8071 8.72663 23.6018 8.83933 23.3603 8.91179C23.1269 8.98424 22.8853 9.02047 22.6358 9.02047ZM19.641 3.33277V2.62029H23.5656V3.33277H19.641Z" fill="black" fill-opacity="0.8"/>
<path d="M17.481 8.96035V7.55955L17.4448 7.33011V4.9874C17.4448 4.44802 17.2918 4.03342 16.9859 3.7436C16.688 3.45378 16.2412 3.30887 15.6455 3.30887C15.2349 3.30887 14.8445 3.3773 14.4741 3.51416C14.1038 3.65102 13.7898 3.83215 13.5322 4.05757L13.1458 3.41755C13.4678 3.14383 13.8542 2.93452 14.3051 2.78961C14.7559 2.63665 15.2309 2.56017 15.73 2.56017C16.5512 2.56017 17.1831 2.76546 17.6259 3.17603C18.0767 3.57856 18.3022 4.19443 18.3022 5.02363V8.96035H17.481ZM15.2953 9.02072C14.8203 9.02072 14.4057 8.94424 14.0515 8.79128C13.7053 8.63027 13.4396 8.41291 13.2545 8.13919C13.0693 7.85742 12.9767 7.5354 12.9767 7.17313C12.9767 6.84305 13.0532 6.54518 13.2062 6.27952C13.3672 6.0058 13.6248 5.78843 13.979 5.62742C14.3413 5.45836 14.8243 5.37383 15.4281 5.37383H17.6138V6.01385H15.4523C14.8404 6.01385 14.4137 6.12253 14.1722 6.3399C13.9388 6.55726 13.822 6.82695 13.822 7.14897C13.822 7.51125 13.9629 7.80107 14.2447 8.01843C14.5265 8.2358 14.9209 8.34448 15.4281 8.34448C15.9111 8.34448 16.3258 8.2358 16.6719 8.01843C17.0261 7.79302 17.2838 7.471 17.4448 7.05237L17.638 7.64408C17.477 8.06271 17.1952 8.39681 16.7927 8.64637C16.3982 8.89594 15.8991 9.02072 15.2953 9.02072Z" fill="black" fill-opacity="0.8"/>
<path d="M2.84989 8.96119L0 0.508125H0.917762L3.58652 8.46608H3.12763L5.88092 0.508125H6.70207L9.41913 8.46608H8.9844L11.6773 0.508125H12.5347L9.6848 8.96119H8.74289L6.14659 1.41381H6.3881L3.77973 8.96119H2.84989Z" fill="black" fill-opacity="0.8"/>
</svg>
