<svg width="30" height="24" viewBox="0 0 30 24" fill="none" xmlns="http://www.w3.org/2000/svg">
<path d="M5.125 14.666C4.82663 14.666 4.54048 14.7845 4.3295 14.9955C4.11853 15.2065 4 15.4926 4 15.791C4 16.0894 4.11853 16.3755 4.3295 16.5865C4.54048 16.7975 4.82663 16.916 5.125 16.916H14.125C14.4234 16.916 14.7095 16.7975 14.9205 16.5865C15.1315 16.3755 15.25 16.0894 15.25 15.791C15.25 15.4926 15.1315 15.2065 14.9205 14.9955C14.7095 14.7845 14.4234 14.666 14.125 14.666H5.125Z" fill="#1356C5"/>
<path fill-rule="evenodd" clip-rule="evenodd" d="M4.5 0C3.30653 0 2.16193 0.474106 1.31802 1.31802C0.474106 2.16193 0 3.30653 0 4.5V19.5C0 20.6935 0.474106 21.8381 1.31802 22.682C2.16193 23.5259 3.30653 24 4.5 24H25.5C26.6935 24 27.8381 23.5259 28.682 22.682C29.5259 21.8381 30 20.6935 30 19.5V4.5C30 3.30653 29.5259 2.16193 28.682 1.31802C27.8381 0.474106 26.6935 0 25.5 0H4.5ZM25.5 2.25H4.5C3.90326 2.25 3.33097 2.48705 2.90901 2.90901C2.48705 3.33097 2.25 3.90326 2.25 4.5V6.375H27.75V4.5C27.75 3.90326 27.5129 3.33097 27.091 2.90901C26.669 2.48705 26.0967 2.25 25.5 2.25ZM2.25 19.5V8.625H27.75V19.5C27.75 20.0967 27.5129 20.669 27.091 21.091C26.669 21.5129 26.0967 21.75 25.5 21.75H4.5C3.90326 21.75 3.33097 21.5129 2.90901 21.091C2.48705 20.669 2.25 20.0967 2.25 19.5Z" fill="#1356C5"/>
</svg>
