<svg width="39" height="39" viewBox="0 0 39 39" fill="none" xmlns="http://www.w3.org/2000/svg">
<path d="M19.4954 39.0002C16.9343 39.0045 14.3976 38.5029 12.0308 37.5242C9.66405 36.5455 7.51389 35.1091 5.70375 33.2972C-1.90125 25.6922 -1.90125 13.3189 5.70375 5.71389C9.38766 2.02998 14.2855 0 19.4954 0C24.7053 0 29.6032 2.02842 33.2871 5.71389C40.8921 13.3189 40.8921 25.6922 33.2871 33.2972C31.4769 35.1091 29.3268 36.5455 26.96 37.5242C24.5933 38.5029 22.0565 39.0045 19.4954 39.0002ZM7.91004 31.0909C14.298 37.4789 24.6928 37.4789 31.0808 31.0909C34.1749 27.9953 35.8788 23.8807 35.8788 19.5056C35.8788 15.1304 34.1749 11.0159 31.0808 7.92018C27.9867 4.82451 23.8721 3.12064 19.4954 3.12064C15.1187 3.12064 11.0057 4.82607 7.91004 7.92018C4.81437 11.0143 3.11206 15.1289 3.11206 19.5056C3.11206 23.8823 4.81593 27.9953 7.91004 31.0909Z" fill="white"/>
</svg>
