<svg width="35" height="35" viewBox="0 0 35 35" fill="none" xmlns="http://www.w3.org/2000/svg">
<path d="M17.5013 32.0846C20.3856 32.0846 23.2052 31.2293 25.6034 29.6269C28.0016 28.0245 29.8708 25.7469 30.9745 23.0821C32.0783 20.4174 32.3671 17.4851 31.8044 14.6562C31.2417 11.8274 29.8528 9.22885 27.8133 7.18933C25.7738 5.14982 23.1753 3.76089 20.3464 3.19819C17.5175 2.63549 14.5853 2.92429 11.9205 4.02807C9.25575 5.13184 6.97814 7.00103 5.3757 9.39924C3.77327 11.7975 2.91797 14.617 2.91797 17.5013C2.91797 21.369 4.45442 25.0784 7.18933 27.8133C8.54352 29.1675 10.1512 30.2417 11.9205 30.9746C13.6898 31.7074 15.5862 32.0846 17.5013 32.0846ZM12.0953 16.4703C12.2306 16.3348 12.3913 16.2273 12.5683 16.154C12.7452 16.0807 12.9348 16.0429 13.1263 16.0429C13.3178 16.0429 13.5074 16.0807 13.6843 16.154C13.8613 16.2273 14.022 16.3348 14.1573 16.4703L16.043 18.3557L20.8453 13.5536C21.1203 13.288 21.4887 13.141 21.8711 13.1443C22.2534 13.1476 22.6192 13.301 22.8896 13.5714C23.16 13.8418 23.3133 14.2075 23.3167 14.5899C23.32 14.9723 23.173 15.3406 22.9073 15.6157L17.074 21.449C16.9386 21.5845 16.7779 21.6919 16.601 21.7652C16.4241 21.8386 16.2345 21.8763 16.043 21.8763C15.8515 21.8763 15.6618 21.8386 15.4849 21.7652C15.308 21.6919 15.1473 21.5845 15.0119 21.449L12.0953 18.5323C11.9598 18.397 11.8523 18.2363 11.779 18.0594C11.7057 17.8824 11.6679 17.6928 11.6679 17.5013C11.6679 17.3098 11.7057 17.1202 11.779 16.9433C11.8523 16.7663 11.9598 16.6056 12.0953 16.4703Z" fill="#1356C5"/>
</svg>
