<svg width="263" height="210" viewBox="0 0 263 210" fill="none" xmlns="http://www.w3.org/2000/svg">
<g clip-path="url(#clip0_1_8016)">
<path d="M175.728 45.9998C175.689 46.0064 175.632 46.0161 175.562 46.0277C174.193 46.2547 165.919 47.5338 157.577 44.3499C154.042 43.001 155.248 42.6648 147.377 37.9754C138.149 32.4776 135.781 32.516 135.094 29.9524C133.722 24.8335 141.049 16.7863 145.898 17.3161C147.175 17.4556 148.542 18.2183 150.669 17.7012C151.136 17.5875 153.182 17.0902 154.179 15.3938C155.069 13.8805 154.315 12.7889 154.673 11.5477C155.612 8.28994 163.44 6.66414 170.302 7.81286C174.249 8.47356 177.319 10.2773 183.298 13.8579C193.705 20.0899 198.908 23.206 200.078 27.9801C201.186 32.5051 198.526 34.4548 200.461 39.2987C202.262 43.8089 205.124 43.5077 206.108 47.1562C207.693 53.0275 201.812 59.4712 199.362 62.1555C196.676 65.0985 194.107 66.7137 190.697 68.858C186.416 71.5494 184.276 72.8952 181.703 72.7583C177.038 72.51 163.175 73.355 162.994 69.4869C162.926 68.0373 146.113 69.2242 154.392 53.6173C155.407 51.703 175.3 53.7477 175.563 52.648" fill="#2F2E41"/>
<path d="M183.778 55.9844L198.077 77.3547L157.031 85.6715L159.646 58.9166L183.778 55.9844Z" fill="#FFB6B6"/>
<path opacity="0.1" d="M183.778 55.9844L198.077 77.3547L157.031 85.6715L159.646 58.9166L183.778 55.9844Z" fill="black"/>
<path d="M153.959 71.813L198.229 69.9648L217.905 80.7458L216.982 150.052L237.58 189.172L133.668 169.458L141.661 139.887L137.972 77.6656L153.959 71.813Z" fill="#E9E9E9"/>
<path d="M1.19225 206.453C-0.221114 204.221 -0.388029 201.462 0.745841 199.075L17.5953 163.604C18.8528 160.957 21.5562 159.246 24.4823 159.246H237.304C240.149 159.246 242.737 160.814 244.058 163.338L262.119 197.832C263.367 200.216 263.285 203.017 261.899 205.323C260.513 207.63 258.082 209.013 255.395 209.024L7.66281 210.001H7.6318C5.00561 210.001 2.59988 208.676 1.19225 206.453Z" fill="white"/>
<path d="M1.19225 206.453C-0.221114 204.221 -0.388029 201.462 0.745841 199.075L17.5953 163.604C18.8528 160.957 21.5562 159.246 24.4823 159.246H237.304C240.149 159.246 242.737 160.814 244.058 163.338L262.119 197.832C263.367 200.216 263.285 203.017 261.899 205.323C260.513 207.63 258.082 209.013 255.395 209.024L7.66281 210.001H7.6318C5.00561 210.001 2.59988 208.676 1.19225 206.453ZM24.4823 160.048C21.8633 160.048 19.4437 161.579 18.3182 163.949L1.46875 199.42C0.453841 201.556 0.603164 204.025 1.86825 206.023C3.12825 208.013 5.28119 209.199 7.63193 209.199H7.65969L255.391 208.222C257.796 208.213 259.973 206.974 261.213 204.91C262.454 202.845 262.527 200.338 261.41 198.205L243.35 163.71C242.167 161.452 239.85 160.048 237.304 160.048H24.4823Z" fill="#3F3D56"/>
<path d="M217.491 196.439L129.665 190.389C128.368 190.3 127.334 189.424 127.03 188.158C126.727 186.892 127.251 185.64 128.365 184.971L147.786 173.295C148.279 172.999 148.845 172.855 149.418 172.882L225.387 176.342C226.391 176.388 227.288 176.937 227.786 177.812C228.285 178.687 228.3 179.74 227.829 180.63L220.265 194.895C219.758 195.853 218.762 196.446 217.691 196.446C217.624 196.446 217.558 196.443 217.491 196.439Z" fill="#3F3D56"/>
<path d="M128.902 186.86L216.367 192.867L223.284 177.927L148.287 174.98L128.902 186.86Z" fill="white"/>
<path d="M171.943 63.1836C186.459 63.1836 198.226 51.3934 198.226 36.8496C198.226 22.3057 186.459 10.5156 171.943 10.5156C157.427 10.5156 145.66 22.3057 145.66 36.8496C145.66 51.3934 157.427 63.1836 171.943 63.1836Z" fill="#FFB6B6"/>
<path d="M180.408 38.5545C180.369 38.561 180.311 38.5708 180.241 38.5824C178.873 38.8094 170.598 40.0885 162.256 36.9045C158.722 35.5557 159.928 35.2195 152.057 30.5301C142.829 25.0323 140.461 25.0707 139.774 22.5071C138.402 17.3881 145.728 9.341 150.578 9.87083C151.855 10.0103 153.222 10.773 155.349 10.2559C155.816 10.1422 157.862 9.64488 158.859 7.94849C159.748 6.43518 158.995 5.34354 159.353 4.10242C160.292 0.84463 168.119 -0.781177 174.982 0.367544C178.929 1.02825 181.999 2.83201 187.978 6.41257C198.385 12.6446 203.588 15.7607 204.757 20.5348C205.866 25.0597 203.205 27.0095 205.14 31.8534C206.942 36.3636 209.803 36.0623 210.788 39.7109C212.372 45.5822 206.491 52.0259 204.042 54.7102C201.356 57.6532 198.787 59.2684 195.376 61.4127C191.096 64.1041 188.956 65.4499 186.383 65.3129C181.717 65.0647 177.077 60.8287 176.896 56.9606C176.829 55.5109 177.432 55.0762 178.926 50.0927C179.548 48.0164 179.98 46.3024 180.242 45.2027" fill="#2F2E41"/>
<path d="M198.422 179.645C200.113 179.712 201.4 181.23 201.493 182.875C201.59 184.582 200.405 186.154 198.982 186.967C197.315 187.919 195.234 188.072 193.357 187.908C191.668 187.76 189.831 187.234 188.745 185.837C187.83 184.662 187.494 182.886 188.272 181.551C189.043 180.229 190.682 179.863 192.054 180.394C193.505 180.956 194.418 182.279 194.427 183.841C194.437 185.574 193.438 187.175 192.037 188.133C190.526 189.166 188.623 189.498 186.824 189.494C184.864 189.489 182.912 189.077 181.109 188.312C179.419 187.594 177.731 186.56 176.523 185.155C175.391 183.838 174.713 182.01 175.342 180.301C175.857 178.9 177.16 178.041 178.652 178.159C180.018 178.268 181.399 179.062 182.005 180.327C182.689 181.753 182.382 183.465 181.512 184.74C180.507 186.213 178.918 187.041 177.154 187.16C175.276 187.288 173.416 186.619 171.872 185.586C170.442 184.629 169.185 183.404 167.649 182.608C166.91 182.225 166.106 181.981 165.269 181.982C164.204 181.983 163.18 182.334 162.144 182.537C161.266 182.71 160.361 182.81 159.494 182.529C158.752 182.288 158.058 181.847 157.591 181.215C157.149 180.617 156.994 179.867 157.245 179.157C157.441 178.6 158.332 178.84 158.134 179.403C157.676 180.702 159.246 181.656 160.346 181.775C161.179 181.865 162.04 181.624 162.844 181.435C163.682 181.239 164.54 181.038 165.406 181.059C168.477 181.135 170.508 183.765 172.984 185.192C175.587 186.692 179.399 186.797 180.993 183.816C181.572 182.733 181.692 181.294 180.896 180.282C180.234 179.439 179.057 178.935 177.99 179.098C176.65 179.303 175.982 180.582 176.031 181.853C176.091 183.409 177.173 184.673 178.327 185.605C180.896 187.679 184.303 188.735 187.589 188.55C189.131 188.463 190.769 188.06 191.967 187.032C193.002 186.143 193.708 184.698 193.46 183.314C193.244 182.116 192.242 181.207 191.03 181.087C189.791 180.963 188.822 181.845 188.767 183.085C188.704 184.481 189.532 185.645 190.731 186.281C192.089 187.001 193.735 187.09 195.24 187.011C196.838 186.928 198.503 186.506 199.622 185.287C200.575 184.247 200.937 182.704 200.058 181.501C199.67 180.97 199.087 180.595 198.422 180.569C197.831 180.546 197.828 179.622 198.422 179.645Z" fill="#6C63FF"/>
<path d="M156.39 178.657L156.86 175.744L182.953 125.776C183.385 124.948 184.409 124.627 185.235 125.06C186.061 125.493 186.381 126.519 185.949 127.346L159.868 177.292L157.736 179.363C157.483 179.606 157.119 179.659 156.809 179.496C156.498 179.333 156.334 179.004 156.39 178.657Z" fill="#3F3D56"/>
<path d="M174.173 146.863C177.117 147.419 179.885 148.672 182.246 150.519L182.379 150.548L182.406 150.415L210.844 154.878L208.784 116.98L230.336 105.152L225.242 169.214C224.139 173.305 219.901 175.694 215.838 174.516L179.638 164.083L179.728 163.637L179.602 163.603C176.709 164.385 173.671 164.461 170.742 163.825C163.396 162.335 158.208 157.33 159.154 152.645C160.101 147.961 166.824 145.372 174.173 146.863Z" fill="#FFB6B6"/>
<path d="M193.617 87.5227L217.904 80.7461C217.904 80.7461 230.663 90.141 232.2 100.306C232.383 101.515 232.89 157.829 232.354 159.293C228.381 170.142 206.529 152.825 206.529 152.825L193.617 87.5227Z" fill="#E9E9E9"/>
<path d="M88.2715 188.737L85.7537 186.574C85.3788 186.252 84.9229 186.039 84.4355 185.957L28.3342 176.589C27.0537 176.375 26.1078 175.449 25.8655 174.171C25.6234 172.893 26.1644 171.683 27.2777 171.014L47.2921 158.982C47.961 158.58 48.7482 158.454 49.5097 158.626L120.642 174.728C122.024 175.04 122.947 176.16 122.993 177.58C123.038 179 122.188 180.176 120.828 180.577L91.0867 189.341C90.8045 189.425 90.5168 189.465 90.2314 189.465C89.5215 189.465 88.8268 189.214 88.2715 188.737Z" fill="#3F3D56"/>
<path d="M61.2523 118.861C64.0332 119.977 66.5069 121.743 68.4664 124.013L68.5912 124.067L68.6432 123.943L95.681 133.837L124.55 87.0039L140.509 96.9142L107.037 150.694C105.164 154.494 100.545 156.016 96.7863 154.072L63.2865 136.815L63.4614 136.395L63.3438 136.337C60.3544 136.542 57.3592 136.028 54.6091 134.836C47.6892 131.949 43.5666 126.032 45.4007 121.62C47.2349 117.208 54.3304 115.972 61.2523 118.861Z" fill="#FFB6B6"/>
<path d="M155.518 95.4598L142.749 76.3281C142.749 76.3281 127.555 79.3415 121.295 87.4881C120.513 88.5065 93.6376 127.559 93.4644 129.264C92.2524 141.194 123.141 146.784 123.141 146.784L155.518 95.4598Z" fill="#E9E9E9"/>
<path d="M86.8813 189.309L22.5719 180.403C20.4196 180.105 18.6431 178.56 18.046 176.467L3.27581 124.671C2.77533 122.915 3.14896 121.098 4.30094 119.683C5.45291 118.269 7.1549 117.538 8.97233 117.677L73.7641 122.65C76.1081 122.83 78.0758 124.484 78.6608 126.766L92.9485 182.493C93.4044 184.272 92.9485 186.152 91.7286 187.522C90.6783 188.702 89.1889 189.361 87.6362 189.361C87.3859 189.361 87.1335 189.344 86.8813 189.309Z" fill="#3F3D56"/>
<path d="M72.5468 83.2178C72.9227 83.6321 74.2868 83.21 76.9997 82.349C79.0619 81.6945 79.3795 81.4563 79.5757 81.2856C80.2653 80.6852 80.446 80.054 81.1291 77.2651C82.3551 72.2596 82.393 71.7625 83.0226 70.7003C83.2393 70.3345 83.787 69.462 83.6534 69.3539C83.5162 69.2427 82.9236 70.1517 81.8283 70.4951C80.7607 70.8298 80.2802 70.2936 79.3689 70.4302C78.1908 70.6067 77.4903 71.728 76.3915 73.5428C75.4186 75.15 75.2961 75.7965 73.932 78.9898C73.5455 79.8944 73.2343 80.5946 72.9954 81.1479C70.3171 83.6526 67.6608 86.1902 65.0285 88.7499C65.0792 88.6721 65.127 88.5988 65.1684 88.5351C66.3343 86.7414 66.4928 85.7799 66.4759 85.0593C66.4485 83.892 65.892 83.0029 64.7803 81.2722C63.6908 79.5763 62.6586 78.4573 61.4149 77.1219C59.7846 75.3716 58.9694 74.4963 58.6448 74.5539C56.3262 74.965 55.7062 90.7831 58.6234 93.612C58.214 93.9051 57.8749 94.2121 57.6297 94.5141C55.1325 91.7361 50.8546 88.6324 46.1156 88.2503C43.1941 88.0147 41.5817 88.9333 41.0803 89.2488C38.763 90.7071 37.3851 93.6259 38.0771 94.4494C38.7224 95.2175 40.586 93.4715 44.2386 93.5677C46.7873 93.6348 48.7781 94.5612 49.96 95.1112C52.4394 96.265 53.3462 97.3992 55.1742 98.1763C54.3173 98.8838 53.6383 99.7668 53.212 100.59C53.0643 100.743 52.9172 100.896 52.7696 101.049C50.8834 99.984 48.7594 99.2027 46.533 99.0232C43.6114 98.7876 41.9989 99.7061 41.4975 100.022C39.9358 101.005 38.804 102.649 38.4417 103.87C38.205 103.918 37.9859 103.972 37.7854 104.031C37.0774 102.428 34.9704 100.737 33.0114 99.8852C29.6391 98.4186 25.2587 98.8073 24.7899 100.202C24.775 100.246 24.7712 100.29 24.7646 100.334C25.1343 97.3459 25.6362 94.3784 26.2633 91.4326C26.2845 91.5166 26.3113 91.6017 26.3468 91.6912C27.1793 93.7861 29.4288 95.7968 32.495 96.84C34.9015 97.6586 35.9095 97.2343 36.1656 97.1158C36.4102 97.0025 37.4667 96.5482 37.7256 95.6447C38.2055 93.9697 35.2665 89.0194 33.4126 90.6799C27.4563 96.0147 26.639 91.6948 26.3654 90.9677C26.8718 88.6387 27.4547 86.3231 28.1084 84.0206C28.1197 84.0347 28.1294 84.0485 28.1412 84.0627C29.4425 85.644 31.9468 86.758 34.8898 86.8072C37.1996 86.8459 37.9543 86.1981 38.1431 86.0242C38.3233 85.858 39.1117 85.1707 39.0852 84.3168C39.0361 82.7335 36.225 81.4441 33.9759 81.2205C31.9032 81.0145 29.6714 81.6503 28.5643 82.4554C29.0791 80.7312 29.6328 79.0144 30.2234 77.3051C31.736 77.9242 33.8787 77.8409 35.9836 76.8982C37.7194 76.1208 38.0569 75.3743 38.1372 75.1787C38.2138 74.992 38.5627 74.2043 38.2461 73.5767C37.659 72.4133 35.1145 72.433 33.3596 73.0513C32.6368 73.306 31.9498 73.6978 31.3611 74.1407C32.4078 71.3391 33.5487 68.5574 34.7757 65.7963L33.546 65.4883C31.9785 69.0155 30.6119 72.5886 29.4374 76.2013C29.2913 75.1418 28.9253 74.0131 28.4435 73.096C27.0266 70.3996 24.0001 68.3767 22.9766 69.0331C22.7719 69.1643 22.6857 69.3782 22.6078 69.6327C21.9804 71.6811 22.4529 74.512 24.1052 77.113C25.402 79.1543 26.4007 79.4409 26.6609 79.5057C26.8806 79.5605 27.7286 79.7951 28.4257 79.4929C27.9569 81.1023 27.5234 82.7188 27.1282 84.3424C26.6525 83.1592 25.7152 81.8986 24.724 81.0268C22.4381 79.0166 18.8896 78.2122 18.1682 79.192C18.0239 79.3879 18.0198 79.6185 18.0379 79.8841C18.1833 82.0219 19.6352 84.4961 22.1067 86.3328C24.0466 87.7743 25.0815 87.6839 25.3476 87.6512C25.5043 87.632 25.9776 87.5848 26.4339 87.378C26.0103 89.3508 25.64 91.3332 25.32 93.3239C24.6799 91.097 22.5056 88.3187 20.4535 89.2026C16.8121 90.771 12.5317 88.3618 12.0606 89.4153C11.938 89.6895 12.0395 89.9721 12.1568 90.2788C13.1002 92.7469 15.7057 95.1382 19.2833 96.4081C22.0912 97.4048 23.2791 96.923 23.581 96.788C23.7811 96.6985 24.4414 96.4221 24.9332 95.9093C24.5796 98.4672 24.3086 101.038 24.1177 103.62C23.3585 101.96 21.2201 100.21 19.2182 99.3076C15.7065 97.7251 11.1137 98.0718 10.6036 99.526C10.5016 99.8169 10.582 100.097 10.7023 100.412C11.6707 102.945 14.3449 105.4 18.017 106.703C20.8991 107.726 22.1183 107.232 22.4282 107.093C22.6546 106.992 23.4541 106.657 23.964 106.022C23.8987 107.216 23.8483 108.411 23.8164 109.609C23.8073 109.951 23.802 110.292 23.7954 110.633C23.754 110.7 23.7179 110.769 23.6939 110.84C23.5955 111.133 23.6624 111.415 23.7779 111.722C23.7754 111.939 23.774 112.156 23.7726 112.372C23.1301 111.789 22.3637 110.911 21.4419 109.661C20.6101 108.533 19.8202 109.361 19.3128 110.321C18.5174 110.144 17.7586 110.254 17.1619 110.812C13.1604 114.557 8.67228 112.57 8.60878 113.687C8.59047 114.009 8.76272 114.265 8.97986 114.543C10.727 116.78 14.157 118.411 18.2318 118.583C21.4299 118.718 22.4981 117.847 22.7656 117.613C22.8595 117.531 23.0702 117.353 23.2983 117.103C23.4814 117.25 23.6597 117.383 23.8384 117.504C23.9088 119.648 24.0346 121.789 24.2212 123.927C24.0695 123.941 23.9245 123.966 23.8164 123.977C22.2673 124.135 21.7453 122.041 19.4052 121.276C18.6281 121.022 17.1309 120.744 16.3419 121.276C16.2283 121.352 15.8406 121.64 15.2391 121.889C14.8835 122.037 14.6119 122.105 14.5039 122.135C13.5438 122.398 12.6545 123.12 12.0533 123.608C10.9231 124.526 10.3581 124.985 10.0927 125.818C10.0093 126.08 9.77442 126.818 10.0927 127.537C10.2431 127.876 10.5922 128.382 11.9307 128.887C12.7263 129.188 15.0466 130.065 17.8123 129.133C18.4421 128.921 17.9613 128.997 20.3854 127.782C22.2926 126.827 23.4081 126.37 23.5713 125.45C23.6287 125.126 23.5709 124.731 23.8164 124.59C23.9528 124.512 24.1178 124.55 24.2825 124.61C24.4429 126.328 24.6434 128.044 24.8862 129.756H22.7039C19.8061 129.756 17.2064 131.372 15.9196 133.973L7.75655 150.474C7.24121 151.515 6.96875 152.68 6.96875 153.843V196.271C6.96875 200.455 10.3656 203.858 14.5408 203.858H33.5946C37.7699 203.858 41.1667 200.455 41.1667 196.271V157.203C41.1667 156.25 40.9906 155.318 40.6432 154.431L32.8634 134.571C31.9198 132.162 29.8762 130.458 27.4332 129.931C28.2168 129 29.0016 128.07 29.7926 127.143C30.7884 127.625 31.8839 128.02 33.0618 128.297C36.1779 129.031 37.3901 128.377 37.6968 128.197C37.9897 128.025 39.2592 127.327 39.4744 126.163C39.4974 126.039 39.5064 125.912 39.5047 125.785C42.6966 128.385 44.3616 129.666 45.5781 129.239C46.6239 128.872 47.221 127.668 47.5629 126.588C47.9199 126.638 48.2986 126.688 48.7022 126.742C53.0737 127.327 55.2767 127.599 56.1193 126.561C57.2856 125.125 56.1786 122.357 55.8735 121.594C55.2104 119.935 54.1903 118.926 53.5566 118.312C52.7337 117.515 50.3884 115.243 46.6961 114.94C45.8935 114.874 45.1724 114.925 44.4378 115.079C44.1819 114.844 43.9118 114.615 43.6143 114.396C43.0475 113.98 42.4878 113.672 41.8854 113.431C42.8095 112.417 43.7362 111.406 44.6672 110.399C44.8146 110.466 44.9545 110.531 45.0831 110.591C48.1331 112.01 48.8032 113.4 51.7364 114.131C53.0671 114.463 54.5737 114.839 54.9466 114.274C55.6092 113.27 52.7968 109.141 48.4508 106.346C48.7438 106.035 49.0376 105.726 49.3313 105.415C49.7287 105.582 50.0789 105.745 50.3772 105.884C53.4272 107.303 54.0974 108.693 57.0306 109.425C58.3612 109.757 59.8677 110.133 60.2408 109.568C60.8319 108.672 58.6566 105.287 55.0941 102.582C56.0727 102.271 57.3703 101.926 59.0506 101.97C61.5992 102.037 63.59 102.964 64.772 103.514C67.822 104.933 68.4921 106.323 71.4252 107.055C72.7559 107.387 74.2625 107.762 74.6354 107.197C75.6204 105.705 68.9303 97.2982 60.9276 96.6529C60.3064 96.6028 59.748 96.6071 59.2433 96.6445C59.1735 96.5287 59.0978 96.4098 59.018 96.2889C61.7257 96.3761 67.0137 95.6004 71.5145 98.7665C72.8124 99.6794 75.3335 101.827 79.5528 103.591C80.9014 104.155 81.5795 104.433 81.7663 104.201C82.4348 103.372 76.8759 96.5503 69.0552 93.1896C65.9545 91.8572 64.0386 91.7311 62.676 91.933C62.886 91.6931 63.0907 91.4455 63.2877 91.1968C66.333 88.2043 69.4167 85.2431 72.5281 82.3217C72.3775 82.7883 72.3825 83.0367 72.5468 83.2178ZM33.4667 120.463C30.027 119.348 25.862 119.947 24.7759 121.216C24.6228 120.091 24.4897 118.965 24.38 117.836C25.9471 118.713 27.5822 118.947 30.6839 119.362C32.005 119.539 33.1249 119.686 34.0722 119.778C34.1994 120.124 34.3351 120.435 34.4926 120.732C34.5109 120.767 34.5304 120.8 34.5491 120.834L34.5216 120.865C34.1684 120.712 33.8145 120.576 33.4667 120.463ZM24.328 105.348C24.4261 105.022 24.4281 104.675 24.3532 104.317C24.4602 103.02 24.5938 101.727 24.7519 100.438C24.7478 100.635 24.8103 100.833 24.8954 101.047C25.8516 103.453 28.4354 105.763 31.9573 106.961C32.6143 107.184 33.1779 107.325 33.6634 107.411C33.4498 107.784 33.2862 108.148 33.1777 108.484C31.977 107.517 30.4314 106.815 28.6778 107.56C28.2006 107.763 27.9173 108.505 27.6713 109.393C26.0513 109.421 24.6975 109.76 24.0528 110.333C24.0563 110.094 24.055 109.855 24.0614 109.616C24.0978 108.252 24.1649 106.892 24.2594 105.536C24.2852 105.475 24.3085 105.413 24.328 105.348ZM24.0574 112.365C24.1272 112.509 24.2037 112.651 24.2831 112.793C24.211 112.74 24.1372 112.683 24.0615 112.621C24.0595 112.536 24.059 112.451 24.0574 112.365ZM26.8234 129.826C26.6348 129.801 26.4444 129.783 26.2523 129.772C25.8088 127.567 25.3993 125.362 25.0566 123.154C25.9579 124.587 27.4289 125.899 29.3027 126.894C28.4712 127.869 27.6467 128.847 26.8234 129.826ZM41.341 113.236C40.168 112.859 38.7915 112.678 36.8865 112.456C36.4037 111.784 35.9061 111.289 35.5382 110.932C35.339 110.739 35.0331 110.357 34.6368 109.909C35.6637 109.578 37.1962 108.99 39.3617 109.047C41.3299 109.099 42.9632 109.663 44.1503 110.17C43.21 111.188 42.2744 112.211 41.341 113.236ZM47.9888 106.057C46.8362 105.359 45.5861 104.762 44.2701 104.342C44.398 104.341 44.5232 104.337 44.6559 104.341C46.2878 104.384 47.6894 104.779 48.798 105.202C48.5282 105.487 48.2581 105.772 47.9888 106.057Z" fill="#CCCCCC"/>
</g>
<defs>
<clipPath id="clip0_1_8016">
<rect width="263" height="210" fill="white"/>
</clipPath>
</defs>
</svg>
