<svg width="260" height="163" viewBox="0 0 260 163" fill="none" xmlns="http://www.w3.org/2000/svg">
<g clip-path="url(#clip0_1_7640)">
<path d="M90.0565 155.06C89.8534 155.069 89.6524 155.016 89.4806 154.907C89.3088 154.799 89.1746 154.64 89.0961 154.452C89.0177 154.265 88.9988 154.058 89.0421 153.859C89.0853 153.66 89.1886 153.48 89.3379 153.342L89.4058 153.072C89.3969 153.05 89.3879 153.029 89.3788 153.007C89.1742 152.524 88.8313 152.112 88.3933 151.823C87.9552 151.534 87.4415 151.381 86.9166 151.383C86.3918 151.385 85.8793 151.542 85.4434 151.834C85.0075 152.126 84.6677 152.541 84.4666 153.025C83.6632 154.959 82.6403 156.897 82.3885 158.942C82.2775 159.846 82.3243 160.762 82.5268 161.65C80.6398 157.536 79.6599 153.064 79.6536 148.538C79.6532 147.402 79.7163 146.267 79.8427 145.138C79.9471 144.213 80.092 143.294 80.2774 142.382C81.2888 137.432 83.4603 132.793 86.6135 128.846C88.1397 128.013 89.3739 126.733 90.1499 125.178C90.4311 124.619 90.6297 124.022 90.7398 123.407C90.5677 123.429 90.0907 120.808 90.2205 120.647C89.9806 120.283 89.5512 120.103 89.2891 119.747C87.9859 117.981 86.1905 118.29 85.2532 120.69C83.2508 121.7 83.2315 123.375 84.4601 124.986C85.2417 126.011 85.3491 127.398 86.035 128.496C85.9644 128.586 85.891 128.674 85.8204 128.764C84.5306 130.422 83.4064 132.202 82.464 134.079C82.6932 131.976 82.4197 129.849 81.666 127.872C80.902 126.03 79.4702 124.479 78.2093 122.886C76.6948 120.974 73.589 121.808 73.3222 124.233C73.3196 124.257 73.3171 124.28 73.3146 124.304C73.5019 124.409 73.6852 124.521 73.8646 124.64C74.09 124.79 74.2646 125.005 74.3656 125.257C74.4666 125.508 74.4893 125.784 74.4306 126.049C74.372 126.313 74.2348 126.554 74.0371 126.739C73.8393 126.924 73.5902 127.045 73.3223 127.087L73.2949 127.091C73.3616 127.766 73.4795 128.434 73.6477 129.091C72.0301 135.344 75.5223 137.622 80.5088 137.724C80.6189 137.78 80.7261 137.837 80.8362 137.89C79.8894 140.573 79.2955 143.366 79.0694 146.202C78.9414 147.874 78.949 149.555 79.092 151.226L79.0835 151.167C78.7222 149.308 77.7303 147.631 76.2753 146.419C74.1142 144.644 71.0609 143.991 68.7295 142.564C68.4817 142.405 68.1936 142.321 67.8992 142.32C67.6047 142.319 67.3162 142.403 67.0677 142.56C66.8191 142.718 66.6209 142.944 66.4964 143.211C66.3719 143.477 66.3263 143.774 66.3649 144.066C66.3681 144.087 66.3712 144.107 66.3745 144.128C66.722 144.27 67.0604 144.433 67.3877 144.616C67.575 144.722 67.7583 144.834 67.9377 144.952C68.163 145.103 68.3376 145.318 68.4386 145.569C68.5396 145.821 68.5623 146.097 68.5037 146.361C68.4451 146.626 68.3079 146.866 68.1101 147.052C67.9123 147.237 67.6632 147.358 67.3954 147.399L67.3679 147.403C67.3482 147.406 67.3312 147.409 67.3115 147.412C67.9053 148.829 68.7388 150.134 69.7754 151.268C70.7868 156.727 75.1309 157.245 79.7778 155.655H79.7806C80.2905 157.87 81.0292 160.026 81.9849 162.088H89.8592C89.8875 162 89.9129 161.91 89.9383 161.822C89.2094 161.868 88.4777 161.825 87.7594 161.693C88.3436 160.976 88.9279 160.254 89.5121 159.537C89.5251 159.524 89.5374 159.51 89.5488 159.495C89.8451 159.128 90.1443 158.764 90.4406 158.398L90.4408 158.397C90.4566 157.273 90.3273 156.151 90.0565 155.06Z" fill="#F2F2F2"/>
<path d="M185.676 82.4534H6.0373C4.43667 82.4515 2.90214 81.8151 1.77033 80.6838C0.638515 79.5524 0.00184914 78.0185 0 76.4186V6.03478C0.00184914 4.43482 0.638515 2.90093 1.77033 1.76959C2.90214 0.638248 4.43667 0.00184837 6.0373 0H185.676C187.277 0.00184837 188.811 0.638248 189.943 1.76959C191.075 2.90093 191.712 4.43482 191.713 6.03478V76.4186C191.712 78.0185 191.075 79.5524 189.943 80.6838C188.811 81.8151 187.277 82.4515 185.676 82.4534Z" fill="#F2F2F2"/>
<path d="M143.78 78.6041H34.5523C26.4128 78.5949 18.6093 75.3587 12.8538 69.6056C7.09824 63.8525 3.86075 56.0522 3.85156 47.9161V34.5397C3.86074 26.4036 7.09822 18.6033 12.8537 12.8501C18.6093 7.09697 26.4128 3.86079 34.5523 3.85156H157.162C165.302 3.86079 173.105 7.09697 178.861 12.8501C184.616 18.6033 187.854 26.4036 187.863 34.5397C187.85 46.2223 183.201 57.4225 174.937 65.6833C166.673 73.9441 155.468 78.5908 143.78 78.6041Z" fill="white"/>
<path d="M115.606 23.9995H43.4047C42.9917 23.9995 42.5957 23.8355 42.3037 23.5436C42.0117 23.2517 41.8477 22.8559 41.8477 22.4431C41.8477 22.0303 42.0117 21.6344 42.3037 21.3426C42.5957 21.0507 42.9917 20.8867 43.4047 20.8867H115.606C116.019 20.8867 116.415 21.0507 116.707 21.3426C116.999 21.6344 117.163 22.0303 117.163 22.4431C117.163 22.8559 116.999 23.2517 116.707 23.5436C116.415 23.8355 116.019 23.9995 115.606 23.9995Z" fill="#E6E6E6"/>
<path d="M152.155 40.6049H43.4047C42.9917 40.6049 42.5957 40.441 42.3037 40.1491C42.0117 39.8572 41.8477 39.4613 41.8477 39.0486C41.8477 38.6358 42.0117 38.2399 42.3037 37.948C42.5957 37.6562 42.9917 37.4922 43.4047 37.4922H152.155C152.568 37.4922 152.964 37.6562 153.256 37.948C153.548 38.2399 153.712 38.6358 153.712 39.0486C153.712 39.4613 153.548 39.8572 153.256 40.1491C152.964 40.441 152.568 40.6049 152.155 40.6049Z" fill="#E6E6E6"/>
<path d="M152.155 57.2104H43.4047C42.9917 57.2104 42.5957 57.0464 42.3037 56.7545C42.0117 56.4627 41.8477 56.0668 41.8477 55.654C41.8477 55.2412 42.0117 54.8454 42.3037 54.5535C42.5957 54.2616 42.9917 54.0977 43.4047 54.0977H152.155C152.568 54.0977 152.964 54.2616 153.256 54.5535C153.548 54.8454 153.712 55.2412 153.712 55.654C153.712 56.0668 153.548 56.4627 153.256 56.7545C152.964 57.0464 152.568 57.2104 152.155 57.2104Z" fill="#E6E6E6"/>
<path d="M152.155 57.2104H43.4047C42.9917 57.2104 42.5957 57.0464 42.3037 56.7545C42.0117 56.4627 41.8477 56.0668 41.8477 55.654C41.8477 55.2412 42.0117 54.8454 42.3037 54.5535C42.5957 54.2616 42.9917 54.0977 43.4047 54.0977H152.155C152.568 54.0977 152.964 54.2616 153.256 54.5535C153.548 54.8454 153.712 55.2412 153.712 55.654C153.712 56.0668 153.548 56.4627 153.256 56.7545C152.964 57.0464 152.568 57.2104 152.155 57.2104Z" fill="#E6E6E6"/>
<path d="M141.628 28.6487C142.624 23.2248 144.951 18.476 149.042 14.6215C149.193 14.3377 149.449 14.1252 149.756 14.0305C150.063 13.9358 150.395 13.9667 150.68 14.1164L161.278 19.7133C161.562 19.8636 161.774 20.1204 161.869 20.4272C161.964 20.734 161.933 21.0659 161.783 21.3499L154.369 35.3772C154.218 35.6609 153.962 35.8735 153.655 35.9682C153.348 36.0629 153.016 36.032 152.732 35.8823L142.133 30.2853C141.85 30.135 141.637 29.8783 141.542 29.5715C141.447 29.2646 141.478 28.9328 141.628 28.6487Z" fill="#E6E6E6"/>
<path d="M144.681 24.8407C144.812 22.0095 146.878 18.9463 149.448 15.8227C149.588 15.557 149.829 15.3579 150.116 15.2692C150.404 15.1806 150.715 15.2095 150.981 15.3497L160.089 20.1598C160.355 20.3006 160.554 20.541 160.643 20.8284C160.732 21.1157 160.703 21.4265 160.562 21.6926L153.965 34.1749C153.824 34.4407 153.583 34.6397 153.296 34.7284C153.008 34.8171 152.698 34.7881 152.431 34.6479L146.789 31.6682C145.605 31.0411 144.718 29.9701 144.323 28.6901C143.928 27.4102 144.056 26.0258 144.681 24.8407Z" fill="white"/>
<path d="M155.377 26.6462L148.264 22.9152C148.151 22.8556 148.067 22.7537 148.029 22.632C147.992 22.5102 148.004 22.3785 148.063 22.2657C148.122 22.1529 148.224 22.0681 148.345 22.0299C148.467 21.9918 148.599 22.0033 148.712 22.0621L155.824 25.7931C155.937 25.8527 156.021 25.9546 156.059 26.0763C156.097 26.198 156.085 26.3298 156.026 26.4426C155.966 26.5554 155.865 26.6402 155.743 26.6784C155.621 26.7165 155.49 26.705 155.377 26.6462Z" fill="#00C2FF"/>
<path d="M151.055 21.398L149.49 20.5771C149.434 20.5479 149.384 20.5078 149.343 20.4592C149.302 20.4106 149.272 20.3545 149.253 20.294C149.234 20.2334 149.227 20.1698 149.232 20.1066C149.238 20.0434 149.256 19.982 149.286 19.9259C149.315 19.8697 149.355 19.8199 149.404 19.7793C149.453 19.7388 149.509 19.7083 149.57 19.6895C149.631 19.6708 149.694 19.6642 149.757 19.6701C149.821 19.676 149.882 19.6943 149.938 19.724L151.503 20.5448C151.615 20.6045 151.7 20.7063 151.738 20.8281C151.775 20.9498 151.763 21.0815 151.704 21.1944C151.645 21.3072 151.543 21.392 151.421 21.4301C151.3 21.4683 151.168 21.4567 151.055 21.398Z" fill="#00C2FF"/>
<path d="M153.404 30.3964L146.292 26.6654C146.179 26.6059 146.095 26.504 146.057 26.3822C146.019 26.2604 146.031 26.1286 146.09 26.0157C146.15 25.9028 146.251 25.818 146.373 25.7798C146.495 25.7417 146.627 25.7534 146.74 25.8123L153.852 29.5433C153.965 29.6029 154.049 29.7048 154.087 29.8265C154.125 29.9482 154.113 30.08 154.053 30.1928C153.994 30.3056 153.892 30.3904 153.771 30.4286C153.649 30.4667 153.517 30.4552 153.404 30.3964Z" fill="#00C2FF"/>
<path d="M154.392 28.523L147.279 24.792C147.223 24.7628 147.173 24.7227 147.132 24.6741C147.091 24.6255 147.061 24.5693 147.042 24.5088C147.023 24.4483 147.016 24.3846 147.021 24.3215C147.027 24.2583 147.045 24.1969 147.075 24.1407C147.104 24.0845 147.144 24.0348 147.193 23.9942C147.242 23.9536 147.298 23.9231 147.359 23.9044C147.42 23.8856 147.483 23.879 147.546 23.8849C147.61 23.8908 147.671 23.9092 147.727 23.9389L154.84 27.6698C154.952 27.7295 155.037 27.8313 155.074 27.9531C155.112 28.0748 155.1 28.2065 155.041 28.3194C154.981 28.4322 154.88 28.517 154.758 28.5551C154.637 28.5933 154.505 28.5817 154.392 28.523Z" fill="#00C2FF"/>
<path d="M218.264 123.839H214.586C214.412 123.839 214.239 123.873 214.079 123.94C213.918 124.006 213.772 124.104 213.649 124.227C213.526 124.35 213.428 124.496 213.362 124.656C213.295 124.817 213.261 124.989 213.261 125.163C213.261 125.514 213.121 125.851 212.873 126.099C212.624 126.348 212.287 126.487 211.936 126.487H199.671C199.497 126.487 199.325 126.453 199.164 126.386C199.003 126.32 198.857 126.222 198.734 126.099C198.611 125.976 198.514 125.83 198.447 125.67C198.381 125.509 198.346 125.337 198.346 125.163L198.104 123.821L195.881 120.988C195.808 120.893 195.714 120.817 195.607 120.765C195.5 120.713 195.382 120.686 195.263 120.688H191.093C190.885 120.688 190.686 120.771 190.539 120.918C190.391 121.065 190.309 121.264 190.308 121.472L190.222 123.821H188.646C188.315 123.821 187.987 123.886 187.681 124.013C187.375 124.139 187.097 124.325 186.863 124.559C186.629 124.793 186.444 125.071 186.317 125.376C186.19 125.682 186.125 126.01 186.125 126.341V142.753C186.125 143.047 186.183 143.337 186.295 143.609C186.408 143.88 186.573 144.127 186.78 144.334C186.988 144.542 187.235 144.707 187.506 144.819C187.777 144.931 188.068 144.989 188.362 144.989H218.264C218.857 144.988 219.426 144.753 219.845 144.333C220.265 143.914 220.5 143.346 220.501 142.753V126.074C220.501 125.781 220.443 125.49 220.331 125.219C220.218 124.948 220.054 124.701 219.846 124.494C219.638 124.286 219.392 124.121 219.12 124.009C218.849 123.897 218.558 123.839 218.264 123.839Z" fill="#F2F2F2"/>
<path d="M198.105 123.762H190.309V121.414C190.309 121.206 190.392 121.006 190.539 120.859C190.686 120.712 190.886 120.629 191.094 120.629H195.263C195.382 120.628 195.5 120.654 195.607 120.706C195.714 120.758 195.808 120.835 195.881 120.929L198.105 123.762Z" fill="#E6E6E6"/>
<path d="M202.096 143.182H189.078C188.666 143.181 188.271 143.018 187.979 142.726C187.688 142.435 187.524 142.04 187.523 141.628V138.069C187.524 137.657 187.688 137.262 187.979 136.971C188.271 136.68 188.666 136.516 189.078 136.516H204.703C205.115 136.516 205.51 136.68 205.802 136.971C206.093 137.262 206.257 137.657 206.257 138.069V139.023C206.256 140.125 205.817 141.183 205.037 141.962C204.257 142.742 203.2 143.181 202.096 143.182Z" fill="white"/>
<path d="M192.826 139.201H189.612C189.403 139.201 189.203 139.118 189.055 138.97C188.907 138.822 188.824 138.622 188.824 138.413C188.824 138.204 188.907 138.003 189.055 137.856C189.203 137.708 189.403 137.625 189.612 137.625H192.826C193.035 137.625 193.235 137.708 193.383 137.856C193.531 138.003 193.614 138.204 193.614 138.413C193.614 138.622 193.531 138.822 193.383 138.97C193.235 139.118 193.035 139.201 192.826 139.201Z" fill="#F2F2F2"/>
<path d="M203.74 141.685H189.614C189.51 141.685 189.408 141.665 189.312 141.626C189.216 141.586 189.129 141.528 189.056 141.455C188.982 141.382 188.924 141.295 188.884 141.199C188.845 141.103 188.824 141.001 188.824 140.897C188.824 140.794 188.845 140.691 188.884 140.595C188.924 140.5 188.982 140.413 189.056 140.34C189.129 140.266 189.216 140.208 189.312 140.169C189.408 140.129 189.51 140.109 189.614 140.109H203.74C203.949 140.109 204.15 140.192 204.298 140.34C204.445 140.488 204.529 140.688 204.529 140.897C204.529 141.106 204.445 141.307 204.298 141.454C204.15 141.602 203.949 141.685 203.74 141.685Z" fill="#F2F2F2"/>
<path d="M231.335 141.847H227.656C227.482 141.847 227.31 141.881 227.149 141.947C226.988 142.014 226.842 142.112 226.719 142.235C226.596 142.357 226.499 142.503 226.432 142.664C226.365 142.825 226.331 142.997 226.331 143.171C226.331 143.522 226.192 143.859 225.943 144.107C225.695 144.355 225.358 144.495 225.006 144.495H212.741C212.567 144.495 212.395 144.461 212.234 144.394C212.074 144.328 211.928 144.23 211.805 144.107C211.682 143.984 211.584 143.838 211.518 143.678C211.451 143.517 211.417 143.345 211.417 143.171L211.174 141.829L208.951 138.995C208.878 138.901 208.784 138.825 208.677 138.773C208.57 138.721 208.452 138.694 208.333 138.695H204.164C203.956 138.696 203.756 138.778 203.609 138.925C203.462 139.073 203.379 139.272 203.379 139.48L203.293 141.829H201.716C201.385 141.829 201.057 141.894 200.752 142.02C200.446 142.147 200.168 142.333 199.934 142.567C199.7 142.801 199.514 143.078 199.387 143.384C199.261 143.69 199.195 144.018 199.195 144.348V160.761C199.195 161.054 199.253 161.345 199.366 161.617C199.478 161.888 199.643 162.134 199.851 162.342C200.058 162.55 200.305 162.714 200.576 162.827C200.848 162.939 201.139 162.997 201.432 162.997H231.335C231.928 162.996 232.496 162.76 232.916 162.341C233.335 161.922 233.571 161.354 233.571 160.761V144.082C233.571 143.789 233.513 143.498 233.401 143.227C233.289 142.956 233.124 142.709 232.916 142.501C232.709 142.294 232.462 142.129 232.191 142.017C231.919 141.905 231.628 141.847 231.335 141.847Z" fill="#F2F2F2"/>
<path d="M211.176 141.766H203.379V139.418C203.379 139.21 203.462 139.01 203.609 138.863C203.756 138.716 203.956 138.633 204.164 138.633H208.333C208.453 138.632 208.57 138.658 208.678 138.71C208.785 138.762 208.878 138.839 208.951 138.933L211.176 141.766Z" fill="#E6E6E6"/>
<path d="M215.167 161.19H202.148C201.736 161.189 201.341 161.025 201.05 160.734C200.758 160.443 200.594 160.048 200.594 159.636V156.077C200.594 155.665 200.758 155.27 201.05 154.979C201.341 154.688 201.736 154.524 202.148 154.523H217.773C218.186 154.524 218.581 154.688 218.872 154.979C219.163 155.27 219.327 155.665 219.328 156.077V157.03C219.327 158.133 218.888 159.19 218.108 159.97C217.328 160.75 216.27 161.188 215.167 161.19Z" fill="white"/>
<path d="M205.896 157.208H202.683C202.474 157.208 202.273 157.125 202.125 156.978C201.978 156.83 201.895 156.63 201.895 156.421C201.895 156.212 201.978 156.011 202.125 155.864C202.273 155.716 202.474 155.633 202.683 155.633H205.896C206.105 155.633 206.305 155.716 206.453 155.864C206.601 156.011 206.684 156.212 206.684 156.421C206.684 156.63 206.601 156.83 206.453 156.978C206.305 157.125 206.105 157.208 205.896 157.208Z" fill="#F2F2F2"/>
<path d="M216.807 159.693H202.68C202.577 159.693 202.474 159.673 202.378 159.633C202.283 159.594 202.195 159.536 202.122 159.463C202.049 159.39 201.99 159.303 201.951 159.207C201.911 159.111 201.891 159.009 201.891 158.905C201.891 158.801 201.911 158.699 201.951 158.603C201.99 158.507 202.049 158.421 202.122 158.347C202.195 158.274 202.283 158.216 202.378 158.177C202.474 158.137 202.577 158.117 202.68 158.117H216.807C217.016 158.117 217.216 158.2 217.364 158.348C217.512 158.496 217.595 158.696 217.595 158.905C217.595 159.114 217.512 159.314 217.364 159.462C217.216 159.61 217.016 159.693 216.807 159.693Z" fill="#F2F2F2"/>
<path d="M172.893 156.818L169.855 156.817L168.41 145.105H172.894L172.893 156.818Z" fill="#FFB6B6"/>
<path d="M163.724 161.297C163.725 161.637 163.861 161.963 164.101 162.203C164.342 162.444 164.667 162.58 165.008 162.583H170.726L170.903 162.215L171.712 160.547L172.025 162.215L172.095 162.583H174.252L174.221 162.213L173.646 155.319L172.893 155.273L169.642 155.08L168.844 155.031V157.09C168.238 157.734 163.482 160.17 163.724 161.297Z" fill="#2F2E41"/>
<path d="M223.186 133.364L221.718 136.022L210.762 131.627L212.929 127.703L223.186 133.364Z" fill="#FFB6B6"/>
<path d="M222.681 143.552C222.98 143.715 223.331 143.754 223.658 143.66C223.985 143.566 224.261 143.347 224.428 143.05L227.191 138.046L226.955 137.713L225.885 136.199L227.498 136.731L227.853 136.848L228.895 134.961L228.556 134.809L222.24 131.98L221.836 132.617L220.097 135.368L219.668 136.044L221.471 137.038C221.742 137.88 221.577 143.219 222.681 143.552Z" fill="#2F2E41"/>
<path d="M177.973 79.625L189.451 84.4965C189.451 84.4965 193.123 92.333 190.583 93.456V114.174L216.8 129.34L208.898 142.534C208.898 142.534 198.755 139.915 198.861 137.524C198.967 135.133 200.136 134.188 196.653 133.881C193.171 133.574 191.198 133.83 191.293 131.696C191.387 129.563 178.993 118.469 178.993 118.469L177.973 79.625Z" fill="#2F2E41"/>
<path d="M180.725 83.6003L177.815 80.332C177.815 80.332 171.278 91.0606 171.303 93.2643C171.327 95.468 165.754 106.832 165.754 106.832L158.844 147.387C158.844 147.387 172.173 150.554 173.199 150.641C174.225 150.729 175.956 151.27 174.868 149.217C173.779 147.164 174.868 147.164 174.868 147.164L175.536 115.94L180.725 94.4644V83.6003Z" fill="#2F2E41"/>
<path d="M179.198 52.1846L184.771 50.8477L187.994 54.7989C189.465 56.1821 190.561 57.9149 191.182 59.836C191.802 61.757 191.926 63.8038 191.541 65.7855L188.561 81.1521C188.561 81.1521 193.911 86.0543 193.242 88.7282C192.157 93.065 180.195 89.2352 178.136 89.5388C176.077 89.8423 173.402 86.5122 172.956 84.612C172.51 82.7118 174.329 78.1512 174.963 78.2553C175.596 78.3595 173.214 68.8212 173.214 68.8212C173.214 68.8212 173.402 62.4346 175.631 60.652C176.998 59.5392 178.111 58.1464 178.894 56.5675L179.198 52.1846Z" fill="#00C2FF"/>
<path d="M155.004 28.093C155.008 28.4676 155.094 28.8368 155.255 29.1751C155.416 29.5133 155.649 29.8126 155.937 30.0521C156.225 30.2917 156.562 30.4658 156.924 30.5624C157.286 30.659 157.665 30.6759 158.034 30.6118L165.049 41.4309L168.52 40.2271L160.094 27.438C159.94 26.8247 159.566 26.2893 159.044 25.9331C158.521 25.5769 157.886 25.4248 157.258 25.5055C156.631 25.5863 156.055 25.8942 155.639 26.3711C155.224 26.848 154.998 27.4607 155.004 28.093Z" fill="#FFB6B6"/>
<path d="M183.134 65.8094C183.134 65.8094 185.775 60.1554 183.766 57.6424C181.757 55.1294 180.288 52.5747 179.164 51.8828C178.039 51.1908 173.558 43.1781 172.428 42.9388C171.299 42.6995 172.176 41.4005 170.599 40.7033C169.022 40.0062 168.569 40.001 168.574 39.5483C168.579 39.0956 164.728 33.6602 164.728 33.6602L160.77 36.1164L170.44 55.8906L183.134 65.8094Z" fill="#00C2FF"/>
<path d="M158.177 118.72C153.113 111.986 150.186 104.457 150.09 95.8726C149.927 95.41 149.954 94.9016 150.165 94.4589C150.376 94.0162 150.755 93.6754 151.217 93.5113L168.479 87.4062C168.942 87.2431 169.451 87.2701 169.893 87.4814C170.336 87.6927 170.677 88.071 170.841 88.5332L178.929 111.38C179.092 111.843 179.065 112.351 178.853 112.794C178.642 113.237 178.264 113.577 177.801 113.742L160.539 119.847C160.077 120.01 159.568 119.983 159.125 119.771C158.682 119.56 158.341 119.182 158.177 118.72Z" fill="#E6E6E6"/>
<path d="M157.056 111.351C154.01 108.272 152.706 102.782 151.857 96.6625C151.704 96.2292 151.729 95.7531 151.927 95.3385C152.125 94.9239 152.479 94.6048 152.912 94.451L167.748 89.2042C168.181 89.0514 168.657 89.0768 169.072 89.2746C169.487 89.4725 169.806 89.8267 169.96 90.2597L177.157 110.59C177.309 111.024 177.284 111.5 177.086 111.914C176.888 112.329 176.534 112.648 176.101 112.802L166.911 116.052C164.98 116.733 162.858 116.62 161.011 115.738C159.163 114.857 157.741 113.279 157.056 111.351Z" fill="white"/>
<path d="M170.161 101.214L158.605 105.337C158.421 105.403 158.218 105.393 158.042 105.309C157.866 105.226 157.73 105.075 157.664 104.892C157.598 104.708 157.608 104.506 157.692 104.329C157.776 104.153 157.926 104.017 158.11 103.951L169.666 99.828C169.757 99.7955 169.854 99.7813 169.95 99.7861C170.047 99.7909 170.141 99.8147 170.229 99.856C170.316 99.8974 170.394 99.9556 170.459 100.027C170.524 100.099 170.574 100.183 170.607 100.274C170.639 100.365 170.654 100.461 170.649 100.558C170.644 100.654 170.62 100.749 170.579 100.836C170.537 100.924 170.479 101.002 170.407 101.067C170.336 101.132 170.252 101.182 170.161 101.214Z" fill="#00C2FF"/>
<path d="M159.79 100.628L157.248 101.535C157.064 101.6 156.862 101.59 156.686 101.506C156.51 101.422 156.374 101.272 156.308 101.089C156.243 100.905 156.253 100.703 156.336 100.527C156.42 100.351 156.569 100.215 156.753 100.149L159.295 99.2415C159.479 99.1764 159.681 99.1868 159.857 99.2704C160.033 99.3541 160.169 99.5042 160.235 99.6877C160.3 99.8713 160.29 100.073 160.207 100.25C160.124 100.426 159.974 100.562 159.79 100.628Z" fill="#00C2FF"/>
<path d="M172.337 107.308L160.781 111.431C160.69 111.464 160.593 111.478 160.496 111.473C160.4 111.468 160.305 111.444 160.218 111.403C160.13 111.362 160.052 111.303 159.987 111.232C159.922 111.16 159.872 111.076 159.84 110.985C159.807 110.894 159.793 110.798 159.798 110.701C159.803 110.605 159.826 110.51 159.868 110.423C159.909 110.336 159.967 110.257 160.039 110.192C160.111 110.128 160.195 110.077 160.286 110.045L171.842 105.922C171.933 105.889 172.029 105.875 172.126 105.88C172.222 105.885 172.317 105.908 172.404 105.95C172.492 105.991 172.57 106.049 172.635 106.121C172.7 106.193 172.75 106.276 172.783 106.367C172.815 106.458 172.829 106.555 172.824 106.651C172.82 106.748 172.796 106.843 172.754 106.93C172.713 107.017 172.655 107.096 172.583 107.16C172.512 107.225 172.428 107.275 172.337 107.308Z" fill="#00C2FF"/>
<path d="M171.247 104.261L159.691 108.384C159.6 108.417 159.503 108.431 159.407 108.426C159.31 108.421 159.215 108.398 159.128 108.356C159.041 108.315 158.962 108.257 158.897 108.185C158.832 108.113 158.782 108.03 158.75 107.939C158.717 107.848 158.703 107.751 158.708 107.654C158.713 107.558 158.737 107.463 158.778 107.376C158.819 107.289 158.878 107.21 158.949 107.146C159.021 107.081 159.105 107.031 159.196 106.998L170.752 102.875C170.936 102.809 171.138 102.819 171.315 102.903C171.491 102.987 171.627 103.137 171.693 103.321C171.758 103.504 171.748 103.707 171.665 103.883C171.581 104.059 171.431 104.195 171.247 104.261Z" fill="#00C2FF"/>
<path d="M179.874 50.1727C183.178 50.1727 185.857 47.4949 185.857 44.1918C185.857 40.8887 183.178 38.2109 179.874 38.2109C176.569 38.2109 173.891 40.8887 173.891 44.1918C173.891 47.4949 176.569 50.1727 179.874 50.1727Z" fill="#FFB6B6"/>
<path d="M173.583 43.4106C173.901 43.6222 174.28 43.7233 174.661 43.6982C174.749 43.2404 174.763 42.7715 174.702 42.3093C174.929 42.7241 175.1 43.1672 175.21 43.627C176.274 43.3948 176.227 43.0784 177.323 43.244C177.624 43.3074 177.909 43.4322 178.16 43.6104C178.411 43.7887 178.622 44.0166 178.781 44.2801C178.94 44.5435 179.043 44.8369 179.084 45.1418C179.125 45.4468 179.102 45.7569 179.018 46.0527C179.25 45.5444 180.215 45.7755 180.377 46.3571C180.547 46.9693 180.174 47.5881 179.816 48.1135C178.539 49.9915 181.842 53.4532 180.565 55.3313L180.387 55.5436C181.503 54.9629 182.56 54.2733 183.54 53.4848C183.372 52.7429 183.343 51.9765 183.454 51.224C183.593 51.8439 183.932 52.4006 184.42 52.8078C188.033 49.9761 192.379 45.8996 191.58 44.9103L189.148 40.6254C186.592 36.1243 180.428 34.3161 176.609 37.8112C176.509 37.9044 176.283 37.8426 176.182 37.9407C175.085 38.2249 173.681 38.7397 172.964 39.6164C172.25 40.4945 172.645 42.7777 173.583 43.4106Z" fill="#2F2E41"/>
<path d="M178.264 89.7264C173.396 87.1319 169.576 83.474 167.143 78.4075C166.919 78.1782 166.794 77.869 166.797 77.548C166.8 77.2269 166.93 76.9201 167.159 76.6948L175.711 68.2996C175.94 68.0749 176.249 67.9503 176.571 67.9532C176.892 67.9561 177.199 68.0862 177.424 68.3151L188.545 79.6339C188.77 79.8633 188.895 80.1724 188.892 80.4935C188.889 80.8146 188.759 81.1214 188.53 81.3467L179.978 89.7419C179.748 89.9666 179.439 90.0912 179.118 90.0883C178.797 90.0854 178.49 89.9552 178.264 89.7264Z" fill="#E6E6E6"/>
<path d="M175.56 85.6625C172.901 84.6783 170.608 81.7814 168.411 78.3857C168.2 78.1709 168.083 77.8814 168.086 77.5807C168.089 77.28 168.211 76.9926 168.425 76.7817L175.775 69.5667C175.99 69.3562 176.279 69.2395 176.58 69.2422C176.881 69.2449 177.168 69.3668 177.379 69.5811L187.275 79.6534C187.486 79.8682 187.603 80.1577 187.6 80.4584C187.597 80.7591 187.475 81.0465 187.261 81.2575L182.708 85.727C181.751 86.6645 180.461 87.1842 179.121 87.1721C177.781 87.1601 176.5 86.6171 175.56 85.6625Z" fill="white"/>
<path d="M180.528 76.0239L174.813 81.6655C174.768 81.71 174.715 81.7452 174.656 81.7691C174.597 81.793 174.535 81.805 174.471 81.8047C174.408 81.8043 174.345 81.7914 174.287 81.7669C174.229 81.7423 174.176 81.7065 174.131 81.6614C174.087 81.6164 174.052 81.5631 174.028 81.5045C174.004 81.4458 173.992 81.3831 173.992 81.3198C173.993 81.2565 174.005 81.194 174.03 81.1357C174.055 81.0774 174.091 81.0245 174.136 80.98L179.851 75.3383C179.896 75.2939 179.949 75.2587 180.008 75.2348C180.066 75.2109 180.129 75.1988 180.192 75.1992C180.256 75.1996 180.318 75.2125 180.377 75.237C180.435 75.2616 180.488 75.2974 180.532 75.3425C180.577 75.3875 180.612 75.4408 180.636 75.4994C180.66 75.5581 180.672 75.6208 180.671 75.6841C180.671 75.7474 180.658 75.8099 180.634 75.8682C180.609 75.9265 180.573 75.9794 180.528 76.0239Z" fill="#00C2FF"/>
<path d="M174.215 78.544L172.957 79.7852C172.866 79.875 172.743 79.925 172.616 79.9242C172.488 79.9234 172.366 79.8718 172.276 79.7809C172.186 79.69 172.136 79.5672 172.137 79.4394C172.138 79.3117 172.189 79.1894 172.28 79.0997L173.537 77.8585C173.582 77.8139 173.636 77.7786 173.694 77.7546C173.753 77.7306 173.816 77.7184 173.879 77.7188C173.943 77.7191 174.005 77.7319 174.064 77.7565C174.122 77.781 174.175 77.8169 174.22 77.862C174.264 77.9071 174.299 77.9605 174.323 78.0192C174.347 78.0779 174.359 78.1407 174.359 78.2041C174.358 78.2674 174.345 78.3301 174.321 78.3884C174.296 78.4467 174.26 78.4996 174.215 78.544Z" fill="#00C2FF"/>
<path d="M183.505 79.0395L177.789 84.6812C177.744 84.7257 177.691 84.7609 177.632 84.7847C177.574 84.8086 177.511 84.8207 177.448 84.8203C177.384 84.8199 177.322 84.8071 177.264 84.7825C177.205 84.7579 177.152 84.7221 177.108 84.6771C177.063 84.632 177.028 84.5787 177.004 84.5201C176.98 84.4615 176.968 84.3987 176.969 84.3354C176.969 84.2722 176.982 84.2096 177.007 84.1513C177.031 84.093 177.067 84.0401 177.112 83.9956L182.827 78.354C182.872 78.3095 182.926 78.2743 182.984 78.2504C183.043 78.2266 183.106 78.2145 183.169 78.2149C183.232 78.2152 183.295 78.2281 183.353 78.2527C183.412 78.2772 183.465 78.3131 183.509 78.3581C183.554 78.4031 183.589 78.4565 183.613 78.5151C183.636 78.5737 183.648 78.6364 183.648 78.6997C183.648 78.763 183.635 78.8256 183.61 78.8839C183.586 78.9422 183.55 78.9951 183.505 79.0395Z" fill="#00C2FF"/>
<path d="M182.017 77.5314L176.302 83.1731C176.257 83.2177 176.203 83.253 176.145 83.277C176.086 83.301 176.023 83.3131 175.96 83.3128C175.897 83.3125 175.834 83.2997 175.775 83.2751C175.717 83.2505 175.664 83.2147 175.62 83.1696C175.575 83.1245 175.54 83.0711 175.516 83.0124C175.492 82.9537 175.48 82.8909 175.48 82.8275C175.481 82.7642 175.494 82.7015 175.519 82.6432C175.543 82.5848 175.579 82.532 175.625 82.4876L181.34 76.8459C181.431 76.7562 181.554 76.7062 181.681 76.707C181.809 76.7079 181.931 76.7594 182.021 76.8503C182.111 76.9412 182.161 77.064 182.16 77.1917C182.159 77.3194 182.108 77.4416 182.017 77.5314Z" fill="#00C2FF"/>
<path d="M169.766 101.448C169.695 101.08 169.704 100.701 169.794 100.337C169.884 99.9736 170.052 99.6338 170.287 99.3413C170.521 99.0489 170.816 98.8108 171.151 98.6436C171.487 98.4763 171.854 98.3839 172.229 98.3726L176.931 86.3672L180.573 86.8508L174.884 101.069C174.856 101.701 174.597 102.3 174.156 102.754C173.716 103.208 173.124 103.484 172.493 103.531C171.862 103.577 171.236 103.391 170.733 103.007C170.231 102.623 169.886 102.068 169.766 101.448Z" fill="#FFB6B6"/>
<path d="M189.758 58.8594C189.758 58.8594 193.48 63.869 192.016 66.7337C190.551 69.5985 189.625 72.3956 188.662 73.2989C187.7 74.2022 184.916 82.9505 183.858 83.4114C182.799 83.8723 183.92 84.9689 182.514 85.9681C181.109 86.9672 180.666 87.0631 180.762 87.5055C180.858 87.9479 178.176 94.045 178.176 94.045L173.805 92.4322L183.113 60.0698L189.758 58.8594Z" fill="#00C2FF"/>
<path d="M259.581 162.999L25.4819 162.755C25.3705 162.755 25.2639 162.71 25.1853 162.631C25.1066 162.553 25.0625 162.446 25.0625 162.334C25.0625 162.223 25.1066 162.116 25.1853 162.038C25.2639 161.959 25.3705 161.914 25.4819 161.914L259.581 162.159C259.636 162.158 259.691 162.169 259.742 162.19C259.793 162.211 259.84 162.242 259.879 162.281C259.918 162.32 259.949 162.367 259.97 162.418C259.992 162.469 260.002 162.524 260.002 162.579C260.002 162.634 259.992 162.689 259.97 162.74C259.949 162.791 259.918 162.838 259.879 162.877C259.84 162.916 259.793 162.947 259.742 162.968C259.691 162.989 259.636 163 259.581 162.999Z" fill="#CACACA"/>
<path d="M87.948 70.3985C85.1759 65.6308 83.8546 60.5104 84.4551 54.9228C84.3847 54.6095 84.4416 54.2811 84.6132 54.0096C84.7848 53.7382 85.0571 53.5458 85.3704 53.4748L97.0628 50.838C97.3763 50.7677 97.7048 50.8246 97.9764 50.9961C98.2479 51.1676 98.4404 51.4398 98.5114 51.7529L102.004 67.2286C102.075 67.5419 102.018 67.8703 101.846 68.1418C101.675 68.4132 101.402 68.6055 101.089 68.6766L89.3965 71.3134C89.0831 71.3837 88.7546 71.3268 88.483 71.1553C88.2114 70.9838 88.019 70.7116 87.948 70.3985Z" fill="#E6E6E6"/>
<path d="M87.7887 65.5208C86.0465 63.2847 85.6229 59.6151 85.5432 55.5716C85.4773 55.2782 85.5306 54.9706 85.6913 54.7164C85.852 54.4622 86.107 54.2821 86.4004 54.2156L96.4491 51.9494C96.7426 51.8836 97.0503 51.9368 97.3047 52.0974C97.559 52.2581 97.7392 52.513 97.8058 52.8063L100.914 66.5775C100.98 66.871 100.927 67.1785 100.766 67.4328C100.605 67.687 100.35 67.8671 100.057 67.9336L93.8318 69.3374C92.5242 69.6307 91.1536 69.3937 90.0207 68.6782C88.8878 67.9626 88.0851 66.8272 87.7887 65.5208Z" fill="white"/>
<path d="M91.6985 57.9184C91.9031 57.6823 92.1788 57.5187 92.4841 57.4522C92.7895 57.3856 93.1082 57.4196 93.3927 57.5491C93.677 57.7001 93.9047 57.9393 94.0414 58.2307C94.1782 58.5221 94.2166 58.85 94.1509 59.1651C94.0407 59.8935 93.6601 60.5566 93.6255 61.3024C93.5944 61.6291 93.6515 61.9582 93.7907 62.2553C93.9299 62.5525 94.1463 62.807 94.4172 62.9923C94.8322 63.2443 95.2592 62.6205 94.8423 62.3673C94.1563 61.9507 94.3868 61.0351 94.5858 60.4107C94.8343 59.6309 95.0932 58.8359 94.7858 58.0325C94.6498 57.6961 94.4315 57.3991 94.1509 57.1689C93.8704 56.9386 93.5366 56.7823 93.18 56.7142C92.8234 56.6462 92.4555 56.6687 92.1098 56.7795C91.7642 56.8904 91.4518 57.0861 91.2014 57.3488C90.874 57.7016 91.367 58.2757 91.6985 57.9184Z" fill="#00C2FF"/>
<path d="M95.0256 65.1716C95.4431 65.1716 95.7816 64.8333 95.7816 64.4159C95.7816 63.9985 95.4431 63.6602 95.0256 63.6602C94.608 63.6602 94.2695 63.9985 94.2695 64.4159C94.2695 64.8333 94.608 65.1716 95.0256 65.1716Z" fill="#00C2FF"/>
<path d="M21.1159 37.4805C18.3438 32.7128 17.0225 27.5924 17.6231 22.0048C17.5527 21.6915 17.6096 21.3631 17.7812 21.0917C17.9528 20.8202 18.2251 20.6279 18.5383 20.5568L30.2308 17.9201C30.5442 17.8497 30.8728 17.9066 31.1443 18.0781C31.4159 18.2496 31.6083 18.5218 31.6794 18.835L35.1722 34.3106C35.2426 34.6239 35.1857 34.9524 35.0141 35.2238C34.8425 35.4953 34.5702 35.6876 34.257 35.7586L22.5645 38.3954C22.2511 38.4657 21.9225 38.4089 21.651 38.2374C21.3794 38.0659 21.187 37.7937 21.1159 37.4805Z" fill="#E6E6E6"/>
<path d="M20.9567 32.6067C19.2145 30.3706 18.7909 26.701 18.7112 22.6576C18.6453 22.3641 18.6985 22.0566 18.8592 21.8023C19.0199 21.5481 19.275 21.368 19.5684 21.3015L29.617 19.0354C29.9106 18.9695 30.2183 19.0227 30.4726 19.1834C30.727 19.344 30.9072 19.5989 30.9737 19.8922L34.0819 33.6635C34.1478 33.9569 34.0945 34.2645 33.9338 34.5187C33.7731 34.7729 33.5181 34.953 33.2247 35.0195L26.9997 36.4234C25.6922 36.7167 24.3216 36.4796 23.1887 35.7641C22.0558 35.0486 21.2531 33.9131 20.9567 32.6067Z" fill="white"/>
<path d="M26.2081 33.6536C26.7933 33.6536 27.2678 33.1794 27.2678 32.5944C27.2678 32.0094 26.7933 31.5352 26.2081 31.5352C25.6229 31.5352 25.1484 32.0094 25.1484 32.5944C25.1484 33.1794 25.6229 33.6536 26.2081 33.6536Z" fill="#00C2FF"/>
<path d="M27.4742 22.5369C27.0664 22.0588 26.3201 22.1348 25.7027 22.2524C25.0612 22.3456 24.435 22.5238 23.8406 22.7824C23.5437 22.9133 23.2758 23.1017 23.0521 23.3366C22.8285 23.5716 22.6536 23.8485 22.5376 24.1514C22.291 24.9074 22.5595 25.7289 22.8817 26.4559C23.5019 27.8544 24.3252 29.1536 25.3249 30.3118L25.83 30.5456C26.6159 29.5449 27.1935 28.3972 27.5288 27.1699C27.8641 25.9427 27.9504 24.6608 27.7826 23.3997C27.7635 23.0887 27.6565 22.7896 27.4742 22.5369Z" fill="#00C2FF"/>
</g>
<defs>
<clipPath id="clip0_1_7640">
<rect width="260" height="163" fill="white"/>
</clipPath>
</defs>
</svg>
