<svg width="24" height="24" viewBox="0 0 24 24" fill="none" xmlns="http://www.w3.org/2000/svg">
<path d="M9.29085 21.0011C8.46467 20.9972 7.64753 20.8289 6.887 20.5061C6.12646 20.1834 5.43771 19.7126 4.86085 19.1211C4.28832 18.5785 3.8284 17.9283 3.50743 17.2077C3.18646 16.4871 3.01073 15.7103 2.99029 14.9218C2.96986 14.1332 3.10512 13.3483 3.38835 12.6121C3.67157 11.8759 4.09719 11.2027 4.64085 10.6311L12.0009 3.20113C12.3939 2.80881 12.8624 2.50021 13.378 2.29396C13.8936 2.08771 14.4457 1.9881 15.0009 2.00113C15.5956 2.00316 16.1839 2.12357 16.7316 2.35535C17.2793 2.58713 17.7754 2.92564 18.1909 3.35113C19.0178 4.14737 19.4974 5.23765 19.5255 6.38531C19.5536 7.53297 19.1279 8.6454 18.3409 9.48113L10.9409 16.9111C10.7038 17.1498 10.4218 17.3389 10.1111 17.4677C9.80036 17.5964 9.46718 17.6622 9.13085 17.6611C8.76753 17.6616 8.40779 17.5893 8.07287 17.4485C7.73795 17.3076 7.43464 17.1011 7.18085 16.8411C6.67358 16.35 6.38062 15.6785 6.36564 14.9726C6.35066 14.2667 6.61487 13.5834 7.10085 13.0711L13.9309 6.21113C14.1252 6.08204 14.3586 6.02498 14.5907 6.04985C14.8227 6.07471 15.0387 6.17994 15.2013 6.34729C15.3639 6.51465 15.4629 6.7336 15.4811 6.96624C15.4992 7.19888 15.4355 7.43054 15.3009 7.62113L8.47085 14.4811C8.35696 14.6183 8.30152 14.7948 8.31649 14.9725C8.33145 15.1502 8.41562 15.3149 8.55085 15.4311C8.69156 15.5728 8.88126 15.6551 9.08085 15.6611C9.15479 15.6622 9.2282 15.6486 9.29685 15.6211C9.36551 15.5937 9.42804 15.5529 9.48085 15.5011L16.8709 8.07113C17.2857 7.61031 17.5025 7.00476 17.4744 6.38538C17.4463 5.766 17.1756 5.18254 16.7208 4.76113C16.2984 4.32257 15.724 4.06259 15.1157 4.03469C14.5075 4.00679 13.9116 4.21309 13.4509 4.61113L6.06085 12.0011C5.7015 12.3871 5.42201 12.8403 5.23848 13.3347C5.05494 13.8291 4.97099 14.3549 4.99143 14.8819C5.01188 15.4089 5.13633 15.9266 5.35762 16.4053C5.57891 16.884 5.89267 17.3142 6.28085 17.6711C6.67013 18.0747 7.13592 18.3966 7.65101 18.6181C8.16611 18.8396 8.72018 18.9562 9.28085 18.9611C9.76427 18.9651 10.2437 18.8734 10.6916 18.6915C11.1395 18.5096 11.5471 18.241 11.8909 17.9011L19.2809 10.4711C19.3734 10.3779 19.4835 10.3038 19.6047 10.2531C19.7259 10.2024 19.8559 10.176 19.9873 10.1756C20.1187 10.1751 20.2489 10.2005 20.3705 10.2504C20.4921 10.3002 20.6026 10.3736 20.6959 10.4661C20.7891 10.5587 20.8632 10.6688 20.9139 10.79C20.9646 10.9112 20.9909 11.0412 20.9914 11.1726C20.9919 11.304 20.9665 11.4342 20.9166 11.5558C20.8667 11.6773 20.7934 11.7879 20.7009 11.8811L13.3109 19.3111C12.7862 19.8451 12.1606 20.2695 11.4705 20.5596C10.7804 20.8497 10.0395 20.9998 9.29085 21.0011Z" fill="black"/>
</svg>
