<svg width="27" height="27" viewBox="0 0 27 27" fill="none" xmlns="http://www.w3.org/2000/svg">
<path d="M18.9533 18.7386C23.0573 18.7386 26.4593 15.3906 26.4593 11.2326C26.4593 7.07456 23.1113 3.72656 18.9533 3.72656C14.8493 3.72656 11.4473 7.07456 11.4473 11.2326C11.5013 15.3906 14.8493 18.7386 18.9533 18.7386ZM21.0053 8.96456H21.8693C22.1933 8.96456 22.4093 9.18056 22.4093 9.50456C22.4093 9.82856 22.1933 10.0446 21.8693 10.0446H21.0053C20.6813 10.0446 20.4653 9.82856 20.4653 9.50456C20.4653 9.18056 20.6813 8.96456 21.0053 8.96456ZM19.0613 14.0946C19.9253 14.0946 20.7353 13.7706 21.3293 13.1766C21.5453 12.9606 21.8693 12.9606 22.0853 13.1766C22.3013 13.3926 22.3013 13.7166 22.0853 13.9326C21.2753 14.7426 20.1953 15.1746 19.0613 15.1746C17.9273 15.1746 16.8473 14.7426 16.0373 13.9326C15.8213 13.7166 15.8213 13.3926 16.0373 13.1766C16.2533 12.9606 16.5773 12.9606 16.7933 13.1766C17.3873 13.7166 18.1973 14.0946 19.0613 14.0946ZM16.0913 8.96456H16.9553C17.2793 8.96456 17.4953 9.18056 17.4953 9.50456C17.4953 9.82856 17.2793 10.0446 16.9553 10.0446H16.0913C15.7673 10.0446 15.5513 9.82856 15.5513 9.50456C15.5513 9.18056 15.7673 8.96456 16.0913 8.96456Z" fill="#00C2FF"/>
<path d="M8.04506 23.275C11.1231 23.275 13.7691 21.493 14.9031 18.793C13.2291 17.875 11.8251 16.363 11.0691 14.581C11.0151 14.581 10.9611 14.635 10.9071 14.635H10.0431C9.71906 14.635 9.50306 14.419 9.50306 14.095C9.50306 13.771 9.71906 13.555 10.0431 13.555H10.6911C10.4751 12.853 10.3671 12.043 10.3671 11.287C10.3671 10.423 10.4751 9.61304 10.7451 8.85704C9.88106 8.53304 8.96306 8.31704 7.99106 8.31704C3.88706 8.26304 0.539062 11.665 0.539062 15.769C0.539062 19.873 3.88706 23.275 8.04506 23.275ZM11.0151 18.307C11.2311 18.523 11.2311 18.847 11.0151 19.063C10.7991 19.279 10.4751 19.279 10.2591 19.063C9.66506 18.469 8.85506 18.145 7.99106 18.145C7.12706 18.145 6.31706 18.469 5.72306 19.063C5.50706 19.279 5.18306 19.279 4.96706 19.063C4.75106 18.847 4.75106 18.523 4.96706 18.307C5.77706 17.497 6.85706 17.065 7.99106 17.065C9.12506 17.065 10.2051 17.443 11.0151 18.307ZM5.12906 13.501H5.99306C6.31706 13.501 6.53306 13.717 6.53306 14.041C6.53306 14.365 6.31706 14.581 5.99306 14.581H5.12906C4.80506 14.581 4.58906 14.365 4.58906 14.041C4.58906 13.717 4.85906 13.501 5.12906 13.501Z" fill="#00C2FF"/>
</svg>
