<svg width="100" height="100" viewBox="0 0 100 100" fill="none" xmlns="http://www.w3.org/2000/svg">
<path d="M91.3618 78.9786L55.2218 15.1086C54.1418 13.1986 52.1918 12.0586 50.0018 12.0586C47.8118 12.0586 45.8618 13.1986 44.7818 15.1086L8.64183 78.9786C7.58183 80.8586 7.59183 83.0886 8.68183 84.9586C9.77183 86.8186 11.7018 87.9386 13.8618 87.9386H86.1418C88.3018 87.9386 90.2418 86.8286 91.3218 84.9586C92.4118 83.0986 92.4318 80.8586 91.3618 78.9786ZM87.8718 82.9486C87.7018 83.2486 87.1818 83.9386 86.1418 83.9386H13.8618C12.8218 83.9386 12.3118 83.2486 12.1318 82.9486C11.9618 82.6486 11.6118 81.8586 12.1218 80.9586L48.2618 17.0786C48.7818 16.1586 49.6518 16.0586 50.0018 16.0586C50.3518 16.0586 51.2218 16.1586 51.7418 17.0786L87.8818 80.9586C88.3918 81.8586 88.0418 82.6486 87.8718 82.9486Z" fill="#1356C5"/>
<path d="M50 63.9414C46.14 63.9414 43 67.0814 43 70.9414C43 74.8014 46.14 77.9414 50 77.9414C53.86 77.9414 57 74.8014 57 70.9414C57 67.0814 53.86 63.9414 50 63.9414ZM50 73.9414C48.35 73.9414 47 72.5914 47 70.9414C47 69.2914 48.35 67.9414 50 67.9414C51.65 67.9414 53 69.2914 53 70.9414C53 72.5914 51.65 73.9414 50 73.9414ZM50 31.9414C46.14 31.9414 43 35.0814 43 38.9414V52.9414C43 56.8014 46.14 59.9414 50 59.9414C53.86 59.9414 57 56.8014 57 52.9414V38.9414C57 35.0814 53.86 31.9414 50 31.9414ZM53 52.9414C53 54.5914 51.65 55.9414 50 55.9414C48.35 55.9414 47 54.5914 47 52.9414V38.9414C47 37.2914 48.35 35.9414 50 35.9414C51.65 35.9414 53 37.2914 53 38.9414V52.9414Z" fill="#1356C5"/>
</svg>
