<svg width="148" height="112" viewBox="0 0 148 112" fill="none" xmlns="http://www.w3.org/2000/svg">
<g clip-path="url(#clip0_1_361)">
<path d="M148.001 101.129H0.0371094V112.001H148.001V101.129Z" fill="#E6E6E6" fill-opacity="0.4"/>
<path d="M147.795 101.137H0V100.773H147.861L147.795 101.137Z" fill="#3F3D56"/>
<path d="M116.082 41.849V74.0339H31.9531V41.849C31.953 31.1681 36.0579 20.8914 43.4269 13.1238C50.7958 5.35623 60.8712 0.685751 71.5893 0.0690341C72.3924 0.0224473 73.2019 -0.000560529 74.0178 1.0367e-05C74.4826 1.0367e-05 74.9458 0.00690887 75.4054 0.0241674C86.0786 0.360185 96.2206 4.73577 103.761 12.2579C103.989 12.4839 104.212 12.7117 104.436 12.943C111.914 20.7276 116.085 31.0814 116.082 41.849Z" fill="#E6E6E6" fill-opacity="0.4"/>
<path d="M75.406 0.024175V74.0339H71.5898V0.0690342C72.393 0.0224473 73.2025 -0.000560529 74.0183 1.0367e-05C74.4832 1.0367e-05 74.9463 0.00690983 75.406 0.024175Z" fill="white"/>
<path d="M107.672 16.738H40.3652C41.3672 15.4099 42.4474 14.1422 43.6003 12.9414H104.437C105.59 14.1422 106.67 15.4099 107.672 16.738Z" fill="white"/>
<path d="M109.68 27.6133H79.8633V77.8321H109.68V27.6133Z" fill="white"/>
<path d="M90.2621 36.0977H85.752V40.5847H90.2621V36.0977Z" fill="#E6E6E6"/>
<path d="M97.5277 36.0977H93.0176V40.5847H97.5277V36.0977Z" fill="#E6E6E6"/>
<path d="M104.795 36.0977H100.285V40.5847H104.795V36.0977Z" fill="#E6E6E6"/>
<path d="M90.3871 46.3164H85.877V50.8034H90.3871V46.3164Z" fill="#E6E6E6"/>
<path d="M97.6527 46.3164H93.1426V50.8034H97.6527V46.3164Z" fill="#E6E6E6"/>
<path d="M104.92 46.3164H100.41V50.8034H104.92V46.3164Z" fill="#E6E6E6"/>
<path d="M90.5121 56.5352H86.002V61.0222H90.5121V56.5352Z" fill="#E6E6E6"/>
<path d="M97.7777 56.5352H93.2676V61.0222H97.7777V56.5352Z" fill="#E6E6E6"/>
<path d="M105.045 56.5352H100.535V61.0222H105.045V56.5352Z" fill="#E6E6E6"/>
<path d="M90.6371 66.7578H86.127V71.2448H90.6371V66.7578Z" fill="#E6E6E6"/>
<path d="M97.9047 66.7578H93.3945V71.2448H97.9047V66.7578Z" fill="#E6E6E6"/>
<path d="M105.17 66.7578H100.66V71.2448H105.17V66.7578Z" fill="#E6E6E6"/>
<path d="M90.6371 66.7578H86.127V71.2448H90.6371V66.7578Z" fill="#E6E6E6"/>
<path d="M97.9047 66.7578H93.3945V71.2448H97.9047V66.7578Z" fill="#E6E6E6"/>
<path d="M105.17 66.7578H100.66V71.2448H105.17V66.7578Z" fill="#E6E6E6"/>
<path d="M41.9544 63.8215C45.3874 63.8215 48.1704 61.0528 48.1704 57.6373C48.1704 54.2219 45.3874 51.4531 41.9544 51.4531C38.5213 51.4531 35.7383 54.2219 35.7383 57.6373C35.7383 61.0528 38.5213 63.8215 41.9544 63.8215Z" fill="white"/>
<path d="M41.9709 57.6367H41.9879L42.2954 75.1699H41.6465L41.9709 57.6367Z" fill="white"/>
<path d="M43.1022 67.1886L42.959 66.918L41.9314 67.4562L42.0746 67.7268L43.1022 67.1886Z" fill="white"/>
<path d="M60.23 57.9138C65.4505 57.9138 69.6826 53.7034 69.6826 48.5096C69.6826 43.3159 65.4505 39.1055 60.23 39.1055C55.0094 39.1055 50.7773 43.3159 50.7773 48.5096C50.7773 53.7034 55.0094 57.9138 60.23 57.9138Z" fill="white"/>
<path d="M60.2551 48.5078H60.281L60.7484 75.1702H59.7617L60.2551 48.5078Z" fill="white"/>
<path d="M61.9756 63.0326L61.7578 62.6211L60.1953 63.4395L60.413 63.851L61.9756 63.0326Z" fill="white"/>
<path d="M40.7319 39.5306L42.3287 38.26C41.0882 38.1238 40.5785 38.7969 40.3699 39.3297C39.4007 38.9293 38.3457 39.454 38.3457 39.454L41.5407 40.6079C41.3795 40.1796 41.0989 39.8059 40.7319 39.5306Z" fill="white"/>
<path d="M57.558 29.1751L59.1549 27.9045C57.9143 27.7684 57.4046 28.4414 57.196 28.9742C56.2269 28.5738 55.1719 29.0985 55.1719 29.0985L58.3669 30.2525C58.2057 29.8242 57.9251 29.4504 57.558 29.1751Z" fill="white"/>
<path d="M51.1401 39.0111L52.7369 37.7405C51.4964 37.6043 50.9867 38.2774 50.7781 38.8101C49.8089 38.4098 48.7539 38.9345 48.7539 38.9345L51.9489 40.0884C51.7877 39.6601 51.5071 39.2864 51.1401 39.0111Z" fill="white"/>
<path d="M120.507 70.2383H27.5312V77.8315H120.507V70.2383Z" fill="#E6E6E6" fill-opacity="0.4"/>
<path d="M13.6442 90.003C13.6442 90.003 -5.16285 81.3896 1.44404 75.4165C8.05092 69.4434 13.6442 90.003 13.6442 90.003Z" fill="#E6E6E6" fill-opacity="0.4"/>
<path d="M13.3167 92.0113C13.3167 92.0113 4.6723 63.7542 17.4015 65.1056C30.1307 66.4569 13.3167 92.0113 13.3167 92.0113Z" fill="#E6E6E6" fill-opacity="0.4"/>
<path d="M7.01367 89.5078L7.37649 94.2346L7.38225 94.3163C7.38191 95.0544 7.41939 95.7921 7.49455 96.5264C7.98694 101.348 10.1034 103.545 12.5769 103.545C15.0504 103.545 17.0746 101.348 17.567 96.5264C17.6422 95.7921 17.6797 95.0544 17.6793 94.3163L17.6822 94.2504L17.6836 94.2346L18.0479 89.5078H7.01367Z" fill="#E6E6E6" fill-opacity="0.4"/>
<path d="M17.6841 94.2344L17.6827 94.2501L17.6798 94.316C17.6801 95.0542 17.6426 95.7918 17.5675 96.5262H7.49501C7.41985 95.7918 7.38237 95.0542 7.38271 94.316L7.37695 94.2344H17.6841Z" fill="white"/>
<path d="M139.478 90.003C139.478 90.003 120.671 81.3896 127.278 75.4165C133.885 69.4434 139.478 90.003 139.478 90.003Z" fill="#E6E6E6" fill-opacity="0.4"/>
<path d="M139.151 92.0113C139.151 92.0113 130.506 63.7542 143.235 65.1056C155.965 66.4569 139.151 92.0113 139.151 92.0113Z" fill="#E6E6E6" fill-opacity="0.4"/>
<path d="M132.848 89.5078L133.21 94.2346L133.216 94.3163C133.216 95.0544 133.253 95.7921 133.329 96.5264C133.821 101.348 135.937 103.545 138.411 103.545C140.884 103.545 142.909 101.348 143.401 96.5264C143.476 95.7921 143.514 95.0544 143.513 94.3163L143.516 94.2504L143.518 94.2346L143.882 89.5078H132.848Z" fill="#E6E6E6" fill-opacity="0.4"/>
<path d="M143.518 94.2344L143.517 94.2501L143.514 94.316C143.514 95.0542 143.477 95.7918 143.401 96.5262H133.329C133.254 95.7918 133.216 95.0542 133.217 94.316L133.211 94.2344H143.518Z" fill="white"/>
<path d="M114.507 107.116L113.274 107.26C112.3 107.844 111.157 108.064 109.891 108.019C109.714 108.014 109.542 107.963 109.391 107.871C109.241 107.779 109.117 107.649 109.032 107.495C108.958 107.36 108.917 107.209 108.911 107.056C108.905 106.902 108.935 106.749 108.999 106.608C109.062 106.468 109.157 106.344 109.277 106.246C109.396 106.148 109.537 106.079 109.688 106.044L110.624 105.827L112.885 103.628L114.249 101.172L116.23 101.398L116.642 104.517C116.695 105.141 116.501 105.761 116.103 106.246C115.704 106.731 115.132 107.043 114.507 107.116Z" fill="#FFB8B8"/>
<path d="M95.3047 105.536L94.0962 105.819C93.1956 106.51 92.0851 106.858 90.8221 106.957C90.646 106.972 90.469 106.94 90.3087 106.866C90.1484 106.792 90.0104 106.677 89.9083 106.534C89.8196 106.408 89.7613 106.263 89.738 106.111C89.7147 105.958 89.7271 105.803 89.774 105.656C89.821 105.51 89.9014 105.376 90.0089 105.265C90.1164 105.154 90.2481 105.07 90.3938 105.018L91.2998 104.696L93.2938 102.254L94.3676 99.6602H96.3617L97.1286 102.712C97.2521 103.326 97.1308 103.964 96.7905 104.491C96.4502 105.018 95.9175 105.393 95.3047 105.536Z" fill="#FFB8B8"/>
<path d="M94.3127 99.8347L96.5678 100.18L100.124 82.3185L106.282 71.8778L113.741 102.251L116.516 102.768C116.205 85.6643 117.724 64.131 114.261 61.5234L99.1697 63.2492L92.5781 80.8516L94.3127 99.8347Z" fill="#2F2E41"/>
<path d="M105.241 34.9442C108.115 34.9442 110.445 32.6263 110.445 29.767C110.445 26.9078 108.115 24.5898 105.241 24.5898C102.367 24.5898 100.037 26.9078 100.037 29.767C100.037 32.6263 102.367 34.9442 105.241 34.9442Z" fill="#FFB8B8"/>
<path d="M112.526 37.7073L106.282 38.7427L104.721 33.2203L109.231 31.8398L112.526 37.7073Z" fill="#FFB8B8"/>
<path d="M115.129 62.2123L98.4766 63.7654C99.8116 59.1471 101.035 54.545 100.038 49.9596C98.7717 45.8659 99.9937 43.4315 103.334 41.5035L105.589 36.4989L111.66 35.8086C113.267 38.3803 113.925 41.4287 113.52 44.4304C112.655 50.9576 112.888 57.0145 115.129 62.2123Z" fill="#00C2FF"/>
<path d="M105.124 23.6549C103.388 24.0496 101.411 24.6089 101.3 25.1288C99.5134 25.5767 98.1649 26.6495 97.8896 28.2851C97.8666 28.4264 97.875 28.5711 97.9143 28.7089C97.9536 28.8466 98.0227 28.9742 98.1169 29.0825C98.2111 29.1908 98.328 29.2772 98.4594 29.3357C98.5907 29.3942 98.7334 29.4233 98.8774 29.421C99.8489 29.4086 101.307 29.316 102.271 28.9158C105.068 30.7092 105.538 35.3738 104.316 38.5489L106.239 38.3736L108.228 32.5805L108.736 38.1459L113.123 37.5688L112.558 30.4719C112.385 28.7992 111.813 27.1919 110.889 25.7833C110.793 25.6418 110.689 25.5066 110.575 25.3785C109.908 24.6283 109.049 24.0719 108.089 23.7685C107.129 23.465 106.105 23.4257 105.124 23.6549Z" fill="#2F2E41"/>
<path d="M94.1053 108.896C94.0959 108.981 94.1043 109.066 94.1302 109.147C94.156 109.228 94.1986 109.303 94.2552 109.366C94.3119 109.43 94.3813 109.481 94.459 109.516C94.5367 109.552 94.621 109.57 94.7064 109.571L96.6578 109.591C96.7629 109.584 96.8613 109.537 96.9332 109.461C97.005 109.384 97.045 109.283 97.045 109.178C97.045 109.095 97.0201 109.015 96.9735 108.946C96.9268 108.878 96.8606 108.825 96.7834 108.794L96.2077 108.565L95.3704 107.398H94.7005C94.3716 107.835 94.1662 108.351 94.1057 108.893L94.1053 108.896Z" fill="#FFB8B8"/>
<path d="M89.4338 108.896C89.4433 108.981 89.4348 109.066 89.409 109.147C89.3831 109.228 89.3405 109.303 89.2839 109.366C89.2273 109.43 89.1578 109.481 89.0801 109.516C89.0024 109.552 88.9181 109.57 88.8327 109.571L86.8813 109.591C86.7762 109.584 86.6778 109.537 86.6059 109.461C86.5341 109.384 86.4941 109.283 86.4941 109.178C86.4941 109.095 86.5191 109.015 86.5657 108.946C86.6123 108.878 86.6785 108.825 86.7557 108.794L87.3315 108.565L88.1688 107.398H88.8386C89.1675 107.835 89.3729 108.351 89.4335 108.893L89.4338 108.896Z" fill="#FFB8B8"/>
<path d="M88.002 107.398H89.0067L92.5234 92.2366L94.3655 107.564H95.5378L97.1286 87.8216L89.0067 87.7383L88.002 107.398Z" fill="#3F3D56"/>
<path d="M83.4805 79.5764H84.8202V76.4109L85.1249 75.8045C85.1861 75.6828 85.2175 75.5485 85.2166 75.4124C85.2156 75.2764 85.1824 75.1425 85.1196 75.0216C85.0568 74.9007 84.9661 74.7964 84.8551 74.717C84.744 74.6376 84.6157 74.5854 84.4805 74.5647C84.3568 74.5458 84.2305 74.5537 84.1101 74.5879C83.9898 74.6221 83.8783 74.6818 83.7833 74.7628C83.6883 74.8439 83.6121 74.9445 83.5598 75.0576C83.5075 75.1707 83.4805 75.2938 83.4805 75.4183V79.5764Z" fill="#FFB8B8"/>
<path d="M91.434 71.7425C93.145 71.7425 94.532 70.3625 94.532 68.6603C94.532 66.9581 93.145 65.5781 91.434 65.5781C89.723 65.5781 88.3359 66.9581 88.3359 68.6603C88.3359 70.3625 89.723 71.7425 91.434 71.7425Z" fill="#FFB8B8"/>
<path d="M90.1776 73.9102H93.3594V70.2449H90.1776V73.9102Z" fill="#FFB8B8"/>
<path d="M88.6713 88.2363C91.4876 89.9654 94.4652 89.7964 97.5468 88.4029L96.8769 72.9088L93.3602 72.7422L89.6761 73.242L87.834 74.7414L88.6713 88.2363Z" fill="#00C2FF"/>
<path d="M85.321 82.7392L89.0052 79.9069L87.833 74.7422L85.656 78.7407L84.9861 78.0743L82.9766 79.5737L85.321 82.7392Z" fill="#00C2FF"/>
<path d="M101.675 73.1756L100.503 73.8217L98.9607 71.053L98.3986 70.6696C98.2858 70.5927 98.1929 70.4903 98.1274 70.3709C98.062 70.2514 98.0258 70.1183 98.0218 69.9823C98.0179 69.8463 98.0463 69.7113 98.1048 69.5883C98.1632 69.4653 98.25 69.3577 98.3582 69.2744C98.4571 69.1982 98.5715 69.1442 98.6934 69.1161C98.8154 69.0879 98.9419 69.0864 99.0645 69.1115C99.1871 69.1366 99.3028 69.1878 99.4036 69.2615C99.5045 69.3352 99.5881 69.4298 99.6488 69.5387L100.132 70.4069L101.675 73.1756Z" fill="#FFB8B8"/>
<path d="M95.1191 77.8268L99.5654 75.4785L101.901 74.2448L102.236 72.2455L100.729 70.7461L98.887 71.9123L99.0545 73.2452L96.8775 72.9119L95.1191 77.8268Z" fill="#00C2FF"/>
<path d="M92.1041 71.1626C94.1388 71.1626 95.7883 69.5216 95.7883 67.4973C95.7883 65.473 94.1388 63.832 92.1041 63.832C90.0694 63.832 88.4199 65.473 88.4199 67.4973C88.4199 69.5216 90.0694 71.1626 92.1041 71.1626Z" fill="#2F2E41"/>
<path d="M94.1141 64.9961C95.0389 64.9961 95.7887 64.2502 95.7887 63.3301C95.7887 62.41 95.0389 61.6641 94.1141 61.6641C93.1892 61.6641 92.4395 62.41 92.4395 63.3301C92.4395 64.2502 93.1892 64.9961 94.1141 64.9961Z" fill="#2F2E41"/>
<path d="M94.0329 64.7243C94.3649 64.8967 94.7454 64.9534 95.1136 64.8853C95.4818 64.8173 95.8164 64.6283 96.064 64.3487C96.3115 64.0692 96.4577 63.7151 96.4791 63.3431C96.5006 62.9711 96.396 62.6028 96.1822 62.2969C96.3758 62.4418 96.5355 62.6268 96.6502 62.8391C96.765 63.0515 96.832 63.2861 96.8466 63.5267C96.8613 63.7673 96.8233 64.0082 96.7352 64.2328C96.6471 64.4574 96.5111 64.6602 96.3364 64.8273C96.1618 64.9945 95.9528 65.1219 95.7239 65.2008C95.4949 65.2797 95.2515 65.3082 95.0104 65.2844C94.7693 65.2605 94.5362 65.1848 94.3274 65.0626C94.1186 64.9404 93.9389 64.7745 93.8008 64.5764C93.874 64.6319 93.9516 64.6814 94.0329 64.7243Z" fill="#2F2E41"/>
<path d="M104.375 67.3915L104.49 71.398C104.506 71.9503 104.311 72.488 103.944 72.9029C103.578 73.3178 103.066 73.5791 102.514 73.634C102.16 73.6693 101.803 73.6184 101.473 73.4858C101.143 73.3533 100.851 73.143 100.621 72.8731C100.391 72.6032 100.23 72.2817 100.152 71.9364C100.075 71.591 100.083 71.2321 100.176 70.8905L101.079 67.5641L103.681 53.4131L103.508 45.1296L109.059 44.957L108.018 54.276L104.375 67.3915Z" fill="#FFB8B8"/>
<path d="M109.405 45.8164C107.394 45.0544 105.171 45.0544 103.16 45.8164L103.507 38.9135C103.507 38.1812 103.799 37.4789 104.32 36.9611C104.84 36.4433 105.546 36.1523 106.282 36.1523C107.019 36.1523 107.724 36.4433 108.245 36.9611C108.765 37.4789 109.058 38.1812 109.058 38.9135L109.405 45.8164Z" fill="#00C2FF"/>
</g>
<defs>
<clipPath id="clip0_1_361">
<rect width="148" height="112" fill="white"/>
</clipPath>
</defs>
</svg>
