<svg width="69" height="69" viewBox="0 0 69 69" fill="none" xmlns="http://www.w3.org/2000/svg">
<path d="M33.1189 31.0503C41.1215 31.0503 47.6089 24.5629 47.6089 16.5603C47.6089 8.55771 41.1215 2.07031 33.1189 2.07031C25.1163 2.07031 18.6289 8.55771 18.6289 16.5603C18.6289 24.5629 25.1163 31.0503 33.1189 31.0503Z" fill="white"/>
<path fill-rule="evenodd" clip-rule="evenodd" d="M10.3516 57.9614C10.3516 59.6088 11.0071 61.1872 12.1714 62.3515C13.3358 63.5159 14.9142 64.1714 16.5616 64.1714C24.4966 64.1714 41.7466 64.1714 49.6816 64.1714C51.3289 64.1714 52.9073 63.5159 54.0717 62.3515C55.2361 61.1872 55.8916 59.6088 55.8916 57.9614C55.8916 45.3862 45.6968 35.1914 33.1216 35.1914C20.5463 35.1914 10.3516 45.3862 10.3516 57.9614Z" fill="white"/>
</svg>
