<svg width="22" height="23" viewBox="0 0 22 23" fill="none" xmlns="http://www.w3.org/2000/svg">
<g clip-path="url(#clip0_1_13275)">
<path d="M21.988 11.7141C21.988 10.7718 21.9132 10.0842 21.7512 9.37109H11.2188V13.6242H17.4011C17.2765 14.6811 16.6034 16.2728 15.1076 17.3424L15.0867 17.4848L18.4168 20.1204L18.6475 20.144C20.7665 18.1447 21.988 15.2032 21.988 11.7141Z" fill="#4285F4"/>
<path d="M11.2187 22.9204C14.2475 22.9204 16.7902 21.9017 18.6475 20.1444L15.1076 17.3429C14.1603 18.0178 12.8889 18.489 11.2187 18.489C8.25218 18.489 5.73438 16.4898 4.83686 13.7266L4.7053 13.738L1.24255 16.4758L1.19727 16.6044C3.04198 20.3481 6.83118 22.9204 11.2187 22.9204Z" fill="#34A853"/>
<path d="M4.8381 13.7286C4.60128 13.0156 4.46423 12.2515 4.46423 11.462C4.46423 10.6725 4.60128 9.90845 4.82564 9.19536L4.81937 9.04349L1.31322 6.26172L1.19851 6.31746C0.438213 7.87102 0.00195312 9.61559 0.00195312 11.462C0.00195312 13.3084 0.438213 15.0529 1.19851 16.6065L4.8381 13.7286Z" fill="#FBBC05"/>
<path d="M11.2187 4.43136C13.3251 4.43136 14.7461 5.36093 15.5563 6.13775L18.7222 2.97973C16.7778 1.13332 14.2475 0 11.2187 0C6.83118 0 3.04198 2.57222 1.19727 6.31596L4.8244 9.19385C5.73438 6.43061 8.25218 4.43136 11.2187 4.43136Z" fill="#EB4335"/>
</g>
<defs>
<clipPath id="clip0_1_13275">
<rect width="22" height="23" rx="5" fill="white"/>
</clipPath>
</defs>
</svg>
