<svg width="15" height="176" viewBox="0 0 15 176" fill="none" xmlns="http://www.w3.org/2000/svg">
<path d="M7.0756 36.7699C10.7057 36.7699 13.6486 33.8271 13.6486 30.197C13.6486 26.5668 10.7057 23.624 7.0756 23.624C3.44545 23.624 0.502638 26.5668 0.502638 30.197C0.502638 33.8271 3.44545 36.7699 7.0756 36.7699Z" stroke="#40C700" stroke-linecap="round" stroke-linejoin="round"/>
<path d="M5.10296 30.1967L6.41755 31.5113L9.04674 28.8821" stroke="#40C700" stroke-linecap="round" stroke-linejoin="round"/>
<path d="M7.0756 106.134C10.7057 106.134 13.6486 103.191 13.6486 99.5611C13.6486 95.9309 10.7057 92.9881 7.0756 92.9881C3.44545 92.9881 0.502638 95.9309 0.502638 99.5611C0.502638 103.191 3.44545 106.134 7.0756 106.134Z" stroke="#40C700" stroke-linecap="round" stroke-linejoin="round"/>
<path d="M5.10296 99.5608L6.41755 100.875L9.04674 98.2462" stroke="#40C700" stroke-linecap="round" stroke-linejoin="round"/>
<path d="M7.0756 59.8913C10.7057 59.8913 13.6486 56.9485 13.6486 53.3183C13.6486 49.6882 10.7057 46.7454 7.0756 46.7454C3.44545 46.7454 0.502638 49.6882 0.502638 53.3183C0.502638 56.9485 3.44545 59.8913 7.0756 59.8913Z" stroke="#40C700" stroke-linecap="round" stroke-linejoin="round"/>
<path d="M5.10296 53.318L6.41755 54.6326L9.04674 52.0034" stroke="#40C700" stroke-linecap="round" stroke-linejoin="round"/>
<path d="M7.0756 129.255C10.7057 129.255 13.6486 126.313 13.6486 122.682C13.6486 119.052 10.7057 116.109 7.0756 116.109C3.44545 116.109 0.502638 119.052 0.502638 122.682C0.502638 126.313 3.44545 129.255 7.0756 129.255Z" stroke="#40C700" stroke-linecap="round" stroke-linejoin="round"/>
<path d="M5.10296 122.682L6.41755 123.997L9.04674 121.368" stroke="#40C700" stroke-linecap="round" stroke-linejoin="round"/>
<path d="M7.0756 152.377C10.7057 152.377 13.6486 149.434 13.6486 145.804C13.6486 142.174 10.7057 139.231 7.0756 139.231C3.44545 139.231 0.502638 142.174 0.502638 145.804C0.502638 149.434 3.44545 152.377 7.0756 152.377Z" stroke="#40C700" stroke-linecap="round" stroke-linejoin="round"/>
<path d="M5.10296 145.803L6.41755 147.118L9.04674 144.489" stroke="#40C700" stroke-linecap="round" stroke-linejoin="round"/>
<path d="M7.0756 175.498C10.7057 175.498 13.6486 172.555 13.6486 168.925C13.6486 165.295 10.7057 162.352 7.0756 162.352C3.44545 162.352 0.502638 165.295 0.502638 168.925C0.502638 172.555 3.44545 175.498 7.0756 175.498Z" stroke="#40C700" stroke-linecap="round" stroke-linejoin="round"/>
<path d="M5.10296 168.925L6.41755 170.239L9.04674 167.61" stroke="#40C700" stroke-linecap="round" stroke-linejoin="round"/>
<path d="M7.0756 13.6486C10.7057 13.6486 13.6486 10.7057 13.6486 7.0756C13.6486 3.44545 10.7057 0.502638 7.0756 0.502638C3.44545 0.502638 0.502638 3.44545 0.502638 7.0756C0.502638 10.7057 3.44545 13.6486 7.0756 13.6486Z" stroke="#40C700" stroke-linecap="round" stroke-linejoin="round"/>
<path d="M5.10296 7.0753L6.41755 8.38989L9.04674 5.76071" stroke="#40C700" stroke-linecap="round" stroke-linejoin="round"/>
<path d="M7.0756 83.0127C10.7057 83.0127 13.6486 80.0698 13.6486 76.4397C13.6486 72.8095 10.7057 69.8667 7.0756 69.8667C3.44545 69.8667 0.502638 72.8095 0.502638 76.4397C0.502638 80.0698 3.44545 83.0127 7.0756 83.0127Z" stroke="#40C700" stroke-linecap="round" stroke-linejoin="round"/>
<path d="M5.10296 76.4394L6.41755 77.754L9.04674 75.1248" stroke="#40C700" stroke-linecap="round" stroke-linejoin="round"/>
</svg>
