<svg width="24" height="24" viewBox="0 0 24 24" fill="none" xmlns="http://www.w3.org/2000/svg">
<path d="M10.5 4.5H22.5C23.3291 4.5 24 3.8283 24 3C24 2.1717 23.3291 1.5 22.5 1.5H10.5C9.67095 1.5 9 2.1717 9 3C9 3.8283 9.67095 4.5 10.5 4.5ZM22.5 10.5H10.5C9.67095 10.5 9 11.1717 9 12C9 12.8283 9.67095 13.5 10.5 13.5H22.5C23.3291 13.5 24 12.8283 24 12C24 11.1717 23.3291 10.5 22.5 10.5ZM22.5 19.5H10.5C9.67095 19.5 9 20.1717 9 21C9 21.8283 9.67095 22.5 10.5 22.5H22.5C23.3291 22.5 24 21.8283 24 21C24 20.1717 23.3291 19.5 22.5 19.5Z" fill="#1356C5"/>
<path d="M3 6C4.65685 6 6 4.65685 6 3C6 1.34315 4.65685 0 3 0C1.34315 0 0 1.34315 0 3C0 4.65685 1.34315 6 3 6Z" fill="#1356C5"/>
<path d="M3 24C4.65685 24 6 22.6569 6 21C6 19.3431 4.65685 18 3 18C1.34315 18 0 19.3431 0 21C0 22.6569 1.34315 24 3 24Z" fill="#1356C5"/>
<path d="M3 15C4.65685 15 6 13.6569 6 12C6 10.3431 4.65685 9 3 9C1.34315 9 0 10.3431 0 12C0 13.6569 1.34315 15 3 15Z" fill="#1356C5"/>
</svg>
