<svg width="29" height="29" viewBox="0 0 29 29" fill="none" xmlns="http://www.w3.org/2000/svg">
<g clip-path="url(#clip0_1_12530)">
<path d="M14.5 0C11.6322 0 8.82875 0.85041 6.44424 2.44369C4.05973 4.03697 2.20122 6.30156 1.10375 8.95109C0.00628265 11.6006 -0.280866 14.5161 0.27862 17.3288C0.838106 20.1415 2.2191 22.7252 4.24696 24.753C6.27482 26.7809 8.85847 28.1619 11.6712 28.7214C14.4839 29.2809 17.3994 28.9937 20.0489 27.8962C22.6984 26.7988 24.963 24.9403 26.5563 22.5558C28.1496 20.1713 29 17.3678 29 14.5C29 10.6544 27.4723 6.96623 24.7531 4.24695C22.0338 1.52767 18.3456 0 14.5 0ZM14.5 26.5833C12.1101 26.5833 9.77396 25.8747 7.78687 24.5469C5.79977 23.2192 4.25102 21.332 3.33646 19.1241C2.4219 16.9162 2.18261 14.4866 2.64885 12.1427C3.11509 9.79872 4.26591 7.64568 5.9558 5.95579C7.64568 4.26591 9.79873 3.11508 12.1427 2.64884C14.4866 2.18261 16.9162 2.4219 19.1241 3.33646C21.332 4.25101 23.2192 5.79977 24.5469 7.78686C25.8747 9.77395 26.5833 12.1101 26.5833 14.5C26.5833 17.7047 25.3103 20.7781 23.0442 23.0442C20.7782 25.3103 17.7047 26.5833 14.5 26.5833Z" fill="#1356C5"/>
<path d="M12.0836 17.6232L8.10219 13.6478L6.39844 15.3515L12.0836 21.0428L22.6022 10.5182L20.8984 8.81445L12.0836 17.6232Z" fill="#1356C5"/>
</g>
<defs>
<clipPath id="clip0_1_12530">
<rect width="29" height="29" fill="white"/>
</clipPath>
</defs>
</svg>
