<svg width="24" height="24" viewBox="0 0 24 24" fill="none" xmlns="http://www.w3.org/2000/svg">
<path d="M24 12.9197C24 9.78094 20.8688 7.22344 17.0175 7.22344C15.7013 7.22344 14.445 7.51594 13.3463 8.07094C12.2513 6.09469 9.8175 4.71094 6.99 4.71094C3.135 4.71094 0 7.26469 0 10.4034C0 11.8959 0.72375 13.3359 2.0025 14.3934L1.92375 16.2197C1.91625 16.4147 2.01375 16.5947 2.175 16.6997C2.26125 16.7522 2.35875 16.7822 2.46 16.7822C2.55 16.7822 2.63625 16.7597 2.715 16.7184L4.51875 15.7397C5.3025 15.9834 6.1275 16.1072 6.9825 16.1072C8.325 16.1072 9.5775 15.7922 10.6462 15.2522C11.7562 17.2847 14.2312 18.6197 17.0138 18.6197C17.865 18.6197 18.69 18.4959 19.4738 18.2559L21.2775 19.2347C21.3563 19.2797 21.4462 19.2984 21.5325 19.2984C21.63 19.2984 21.7313 19.2722 21.8175 19.2159C21.9825 19.1147 22.08 18.9309 22.0687 18.7397L21.9938 16.9134C23.2725 15.8522 24 14.4122 24 12.9197ZM6.98625 15.0272C6.16875 15.0272 5.38125 14.8997 4.64625 14.6447C4.50375 14.5959 4.34625 14.6072 4.215 14.6822L3.04125 15.3197L3.09 14.1684C3.0975 13.9922 3.01875 13.8234 2.87625 13.7184C1.7175 12.8409 1.07625 11.6634 1.07625 10.4072C1.07625 7.86094 3.7275 5.78719 6.98625 5.78719C9.61125 5.78719 11.8425 7.13719 12.6075 8.99719C12.6112 9.00469 12.615 9.00844 12.615 9.01594C12.795 9.45469 12.8925 9.92344 12.8925 10.4109C12.8888 12.9534 10.2413 15.0272 6.98625 15.0272ZM21.1238 16.2272C20.985 16.3322 20.9025 16.5009 20.91 16.6772L20.955 17.8284L19.7812 17.1909C19.65 17.1197 19.4925 17.1047 19.35 17.1534C18.6112 17.4084 17.8275 17.5359 17.01 17.5359C14.5988 17.5359 12.4725 16.4072 11.5612 14.6897C13.0275 13.6434 13.9613 12.1134 13.9613 10.4034C13.9613 9.93844 13.8862 9.49219 13.7587 9.06094C14.7225 8.55844 15.84 8.29219 17.0138 8.29219C20.2725 8.29219 22.9237 10.3659 22.9237 12.9159C22.9237 14.1759 22.2863 15.3497 21.1238 16.2272Z" fill="#00C2FF"/>
<path d="M7.15453 11.9006C7.11703 11.8631 7.06828 11.8331 7.00453 11.8181C6.94453 11.7994 6.86953 11.7919 6.77578 11.7919C6.67828 11.7919 6.59953 11.7994 6.53578 11.8181C6.47578 11.8331 6.42703 11.8631 6.38953 11.9006C6.35203 11.9419 6.32578 11.9944 6.31078 12.0581C6.29953 12.1219 6.29203 12.2006 6.29203 12.2981C6.29203 12.3919 6.29953 12.4744 6.31078 12.5381C6.32578 12.5981 6.35203 12.6506 6.38953 12.6881C6.42703 12.7256 6.47578 12.7556 6.53578 12.7706C6.59953 12.7894 6.67453 12.7969 6.77578 12.7969C6.86578 12.7969 6.94453 12.7894 7.00453 12.7706C7.06828 12.7556 7.11703 12.7256 7.15453 12.6881C7.19203 12.6506 7.21828 12.5981 7.23328 12.5381C7.24828 12.4744 7.25578 12.3956 7.25578 12.2981C7.25578 12.2044 7.24828 12.1219 7.23328 12.0581C7.22098 11.9997 7.19386 11.9455 7.15453 11.9006ZM7.91578 8.42437C7.79578 8.30062 7.63828 8.19937 7.44703 8.12437C7.25578 8.05312 7.02703 8.01562 6.75703 8.01562C6.64078 8.01562 6.52453 8.02312 6.41578 8.04187C6.30703 8.06062 6.20578 8.08312 6.11953 8.10937C6.02953 8.13562 5.95078 8.16187 5.88703 8.19187C5.82328 8.22187 5.78203 8.24812 5.75953 8.27062C5.73703 8.29312 5.72203 8.32313 5.71453 8.36062C5.70703 8.39812 5.70703 8.45437 5.70703 8.53687C5.70703 8.61187 5.70703 8.67562 5.71453 8.72812C5.71828 8.77687 5.72578 8.81812 5.73703 8.84437C5.74453 8.87062 5.75578 8.88937 5.77078 8.90062C5.78203 8.91187 5.79703 8.91562 5.81203 8.91562C5.83453 8.91562 5.86828 8.90437 5.90953 8.88187C6.03124 8.81535 6.16107 8.76492 6.29578 8.73187C6.38578 8.70937 6.49078 8.69812 6.60328 8.69812C6.73078 8.69812 6.84328 8.71687 6.93703 8.75062C7.03078 8.78437 7.11328 8.83687 7.17703 8.90062C7.23703 8.96812 7.28203 9.04312 7.31578 9.13687C7.37507 9.3259 7.37638 9.52835 7.31953 9.71812C7.29492 9.80291 7.25143 9.88103 7.19233 9.94663C7.13324 10.0122 7.06006 10.0636 6.97828 10.0969C6.89203 10.1344 6.78703 10.1531 6.66703 10.1531H6.61828C6.56953 10.1531 6.52453 10.1606 6.49078 10.1681C6.45328 10.1794 6.42328 10.1981 6.40078 10.2244C6.37505 10.2556 6.35821 10.2932 6.35203 10.3331C6.34078 10.3781 6.34078 10.4381 6.34078 10.5131L6.37078 11.3194C6.37453 11.3419 6.38203 11.3644 6.39703 11.3794C6.40828 11.3944 6.43078 11.4056 6.46078 11.4169C6.49078 11.4244 6.52828 11.4319 6.58078 11.4356C6.62953 11.4394 6.69328 11.4394 6.77203 11.4394C6.88828 11.4394 6.98203 11.4281 7.04203 11.4094C7.10578 11.3906 7.13578 11.3569 7.13953 11.3194L7.16578 10.6519C7.33453 10.6331 7.48078 10.5919 7.61578 10.5244C7.75078 10.4606 7.86703 10.3744 7.96453 10.2619C8.05828 10.1531 8.13703 10.0219 8.18953 9.87187C8.24203 9.72562 8.26828 9.55312 8.26828 9.36562C8.26828 9.18187 8.24203 9.01312 8.18578 8.85187C8.12578 8.69437 8.03578 8.54812 7.91578 8.42437ZM17.182 12.3806C16.882 12.3806 16.642 12.6206 16.642 12.9169C16.642 13.2131 16.8858 13.4531 17.182 13.4531C17.3243 13.4531 17.4606 13.3966 17.5612 13.2961C17.6618 13.1955 17.7183 13.0591 17.7183 12.9169C17.7183 12.7747 17.6618 12.6383 17.5612 12.5377C17.4606 12.4371 17.3243 12.3806 17.182 12.3806ZM14.8533 12.3806C14.5533 12.3806 14.3133 12.6206 14.3133 12.9169C14.3133 13.2131 14.557 13.4531 14.8533 13.4531C14.9955 13.4531 15.1319 13.3966 15.2325 13.2961C15.333 13.1955 15.3895 13.0591 15.3895 12.9169C15.3895 12.7747 15.333 12.6383 15.2325 12.5377C15.1319 12.4371 14.9955 12.3806 14.8533 12.3806ZM19.6645 12.3806C19.3645 12.3806 19.1245 12.6206 19.1245 12.9169C19.1245 13.2131 19.3683 13.4531 19.6645 13.4531C19.9608 13.4531 20.2008 13.2131 20.2008 12.9169C20.2008 12.6206 19.9645 12.3806 19.6645 12.3806Z" fill="#00C2FF"/>
</svg>
