<svg width="222" height="178" viewBox="0 0 222 178" fill="none" xmlns="http://www.w3.org/2000/svg">
<g clip-path="url(#clip0_1_14073)">
<path d="M126.469 157.471C124.934 155.334 122.856 153.769 120.244 153.184C117.965 152.674 115.623 152.761 113.307 152.778L84.0263 153.003C81.5185 153.022 79.1141 155.183 79.2306 157.772C79.3462 160.34 81.3382 162.562 84.0263 162.541C92.6036 162.475 101.181 162.41 109.758 162.344C111.78 162.328 113.804 162.292 115.826 162.299C116.28 162.3 116.732 162.324 117.186 162.329C117.296 162.33 117.375 162.329 117.431 162.327C117.445 162.331 117.457 162.335 117.475 162.34C117.712 162.405 117.955 162.449 118.193 162.511C118.109 162.513 118.347 162.661 118.467 162.711C118.483 162.743 118.518 162.8 118.576 162.888C118.658 163.04 118.899 163.502 118.909 163.487C119.272 164.399 119.571 165.334 119.804 166.287C120.362 168.387 120.484 168.827 120.564 170.797C120.666 173.287 122.698 175.685 125.36 175.566C127.871 175.455 130.264 173.467 130.156 170.797C129.972 166.298 129.178 161.244 126.469 157.471Z" fill="#E6E6E6"/>
<path d="M85.7494 168.236C85.1994 164.922 84.66 161.605 84.0993 158.293C83.5304 154.932 82.3686 151.855 79.7389 149.65C79.0363 149.06 78.3078 148.51 77.5762 147.962C77.3189 147.769 77.062 147.576 76.8078 147.379C76.7926 147.367 76.783 147.36 76.7698 147.349C76.7418 147.326 76.7083 147.297 76.6632 147.259C75.5672 146.337 74.5082 145.373 73.4994 144.349C72.6036 143.439 71.7469 142.491 70.9293 141.504C70.725 141.257 70.5234 141.009 70.3243 140.758C70.2901 140.715 70.1057 140.478 69.9842 140.323C69.8712 140.168 69.6647 139.889 69.63 139.84C69.3975 139.513 69.1691 139.183 68.9448 138.85C67.4174 136.574 66.0948 134.168 64.9923 131.662C64.883 131.413 64.7763 131.163 64.6721 130.911C64.6442 130.834 64.608 130.736 64.56 130.605C64.3379 129.997 64.1161 129.39 63.913 128.775C63.4814 127.47 63.1104 126.145 62.7999 124.8C62.6463 124.137 62.5081 123.469 62.3852 122.799C62.3219 122.454 62.2626 122.108 62.2074 121.762C62.1984 121.705 62.1445 121.331 62.1127 121.12C62.0893 120.908 62.0457 120.532 62.0399 120.474C62.0047 120.125 61.9736 119.776 61.9464 119.426C61.885 118.639 61.8436 117.851 61.822 117.062C61.7851 115.658 61.8104 114.255 61.8978 112.852C61.9475 112.064 62.0184 111.278 62.1056 110.493C62.1109 110.445 62.115 110.406 62.1188 110.372C62.124 110.337 62.1302 110.297 62.1375 110.247C62.202 109.814 62.2699 109.381 62.3459 108.949C62.6335 107.31 63.0076 105.687 63.4667 104.086C63.684 103.33 63.92 102.579 64.1748 101.834C64.2884 101.504 64.4056 101.175 64.5264 100.847C64.5185 100.868 64.8807 99.9477 64.8855 99.9168C66.3227 96.5399 68.6734 93.4615 68.6766 89.6255C68.6788 87.0283 66.4693 84.5404 63.881 84.6604C62.5905 84.7087 61.3692 85.2534 60.4746 86.1796C59.58 87.1058 59.0819 88.3412 59.0853 89.6255C59.0853 89.6838 59.085 89.7336 59.0849 89.7819C59.0608 89.8627 59.0406 89.9302 59.0224 89.9898C58.7422 90.5955 58.3988 91.1711 58.0912 91.7617C57.2488 93.3783 56.5298 95.0479 55.8467 96.742C54.7286 99.5008 53.8727 102.358 53.2903 105.275C52.0244 111.668 51.9261 118.235 53.0002 124.662C54.8596 135.933 60.9914 146.722 69.5161 153.974C70.2559 154.603 71.0137 155.211 71.7786 155.807C72.0952 156.054 72.4144 156.296 72.7352 156.536C72.8868 156.65 73.5149 157.142 73.2386 156.904C73.8328 157.408 74.0829 157.662 74.2356 158.033C74.2577 158.119 74.2878 158.235 74.3287 158.394C74.4362 158.813 74.5384 159.231 74.6233 159.656C75.3653 163.367 75.881 167.141 76.5008 170.876C76.9268 173.443 80.1041 175.113 82.4 174.344C85.0724 173.449 86.2059 170.986 85.7494 168.236Z" fill="#E6E6E6"/>
<path d="M126.955 177.863C124.941 177.868 123.007 177.078 121.578 175.667C120.148 174.256 119.34 172.339 119.33 170.336V164.896C113.603 165.534 93.9905 165.386 88.3686 164.488V170.119C88.3535 172.12 87.5435 174.034 86.1152 175.444C84.6868 176.854 82.756 177.645 80.7435 177.645C78.7311 177.645 76.8002 176.854 75.3719 175.444C73.9435 174.034 73.1335 172.12 73.1184 170.119V159.063C65.5041 154.856 59.1565 148.705 54.7306 141.244C50.3048 133.784 47.9611 125.283 47.9414 116.621C47.9414 101.768 54.7101 87.9127 66.5121 78.6072C74.1856 72.5363 83.5088 68.8853 93.2844 68.1231C94.6113 68.0196 95.9462 67.9672 97.2524 67.9672C101.854 67.9672 122.615 68.6741 127.824 70.1644L139.701 58.4438C139.876 58.2692 140.099 58.1502 140.342 58.102C140.585 58.0539 140.837 58.0788 141.065 58.1735C141.295 58.2647 141.493 58.4229 141.631 58.6275C141.769 58.8322 141.842 59.0736 141.84 59.3201V61.1836L144.153 58.9058C144.327 58.7309 144.55 58.6118 144.792 58.5636C145.035 58.5153 145.287 58.5402 145.515 58.635C145.746 58.7261 145.943 58.8844 146.082 59.0891C146.22 59.2938 146.293 59.5354 146.291 59.7821V80.6066C152.251 85.95 156.793 92.6729 159.516 100.18C162.238 107.686 163.057 115.745 161.899 123.641C160.74 131.538 157.641 139.028 152.876 145.449C148.111 151.869 141.827 157.022 134.58 160.45V170.336C134.57 172.339 133.762 174.256 132.333 175.667C130.903 177.078 128.969 177.868 126.955 177.863ZM119.93 164.22V170.336C119.945 172.179 120.692 173.942 122.008 175.24C123.324 176.538 125.102 177.266 126.955 177.266C128.809 177.266 130.587 176.538 131.903 175.24C133.219 173.942 133.966 172.179 133.981 170.336V160.073L134.152 159.992C142.283 156.155 149.185 150.152 154.093 142.65C160.347 133.076 162.948 121.593 161.425 110.277C159.902 98.962 154.356 88.5626 145.791 80.9615L145.691 80.8725V59.782C145.693 59.6539 145.656 59.5282 145.584 59.4218C145.512 59.3155 145.409 59.2336 145.289 59.1872C145.17 59.1364 145.038 59.1227 144.91 59.1479C144.783 59.1731 144.666 59.2359 144.575 59.3282L141.24 62.6131V59.3201C141.242 59.192 141.205 59.0662 141.133 58.9599C141.061 58.8535 140.958 58.7716 140.838 58.7253C140.718 58.6746 140.586 58.661 140.459 58.6864C140.331 58.7117 140.214 58.7748 140.123 58.8673L127.991 70.8389L127.819 70.7852C122.977 69.2779 101.889 68.5633 97.2524 68.5633C95.9618 68.5633 94.6426 68.6151 93.3315 68.7175C83.6747 69.4703 74.4647 73.077 66.8846 79.0742C55.2268 88.2661 48.5408 101.951 48.5408 116.621C48.5607 125.207 50.8919 133.63 55.2922 141.017C59.6924 148.404 66.0012 154.484 73.5632 158.627L73.7179 158.712V170.119C73.7333 171.962 74.4803 173.724 75.7962 175.022C77.1121 176.319 78.8903 177.048 80.7435 177.048C82.5967 177.048 84.3749 176.319 85.6908 175.022C87.0067 173.724 87.7537 171.962 87.7692 170.119V163.774L88.1243 163.84C93.1764 164.786 114.45 164.935 119.591 164.264L119.93 164.22Z" fill="white"/>
<path d="M86.3187 35.5052L53.1269 45.425C52.0712 45.7418 51.1851 46.4624 50.6633 47.4285C50.1415 48.3945 50.0267 49.5271 50.344 50.5773C50.6614 51.6276 51.3849 52.5096 52.3558 53.0296C53.3267 53.5496 54.4654 53.6651 55.5218 53.3507L84.5682 44.6679L85.1767 44.4861C85.2999 41.3678 86.1505 38.3208 87.6615 35.5857C87.4718 35.5009 87.2692 35.4485 87.062 35.4307C86.8117 35.4066 86.5591 35.4319 86.3187 35.5052Z" fill="#00C2FF"/>
<path d="M54.949 55.466C54.5084 55.465 54.0792 55.3262 53.7222 55.0694C53.3652 54.8126 53.0984 54.4507 52.9594 54.0349L50.8839 47.8064C50.7972 47.5463 50.7629 47.2718 50.7829 46.9985C50.8029 46.7252 50.8768 46.4585 51.0005 46.2136C51.1242 45.9688 51.2952 45.7505 51.5036 45.5714C51.7121 45.3922 51.9541 45.2557 52.2156 45.1695L79.2304 36.2661C79.4919 36.1799 79.7679 36.1458 80.0427 36.1657C80.3175 36.1855 80.5857 36.259 80.8319 36.382C81.0781 36.5049 81.2976 36.6749 81.4777 36.8822C81.6579 37.0895 81.7953 37.33 81.8819 37.5901L83.9575 43.8186C84.1302 44.3309 84.0956 44.8899 83.861 45.3772C83.6264 45.8646 83.2102 46.242 82.7007 46.4295C82.6757 46.4388 82.6505 46.4476 82.6251 46.4558L55.611 55.3589C55.3975 55.4297 55.174 55.4658 54.949 55.466Z" fill="#2F2E41"/>
<path d="M105.543 24.4453C100.091 24.4474 94.8534 26.5593 90.9392 30.3339C87.025 34.1086 84.7413 39.2498 84.5714 44.6694C84.5654 44.881 84.5625 45.0956 84.5625 45.3102C84.5625 49.4369 85.793 53.4709 88.0984 56.9021C90.4038 60.3333 93.6806 63.0076 97.5143 64.5869C101.348 66.1661 105.567 66.5793 109.637 65.7742C113.706 64.9691 117.445 62.9819 120.379 60.0639C123.313 57.1459 125.312 53.4281 126.121 49.3808C126.931 45.3334 126.515 41.1381 124.927 37.3256C123.339 33.513 120.65 30.2543 117.2 27.9617C113.749 25.669 109.693 24.4453 105.543 24.4453ZM105.543 65.579C100.14 65.5734 94.9588 63.4361 91.1377 59.6362C87.3167 55.8363 85.1676 50.6841 85.1619 45.3102C85.1619 45.033 85.1679 44.7588 85.1799 44.4875C85.3422 40.5172 86.6745 36.6819 89.0111 33.4585C91.3477 30.2351 94.5856 27.7659 98.322 26.3578C102.058 24.9497 106.129 24.665 110.027 25.5389C113.924 26.4129 117.478 28.407 120.245 31.2733C123.013 34.1397 124.872 37.7517 125.591 41.6604C126.311 45.569 125.86 49.6018 124.293 53.2573C122.726 56.9128 120.114 60.0297 116.78 62.2204C113.447 64.4112 109.539 65.5791 105.543 65.579Z" fill="white"/>
<path d="M123.227 45.3087C123.227 49.9729 121.364 54.446 118.048 57.744C114.731 61.042 110.233 62.8949 105.543 62.8949C100.853 62.8949 96.3552 61.042 93.0389 57.744C89.7225 54.446 87.8594 49.9729 87.8594 45.3087C87.8594 44.7513 87.8863 44.2029 87.9372 43.6604C88.3634 39.159 90.5165 34.9938 93.9495 32.0296C97.3824 29.0654 101.832 27.5299 106.373 27.742C110.914 27.9542 115.199 29.8976 118.338 33.1687C121.476 36.4399 123.227 40.7874 123.227 45.3087Z" fill="#E6E6E6"/>
<path d="M110.81 46.4785C110.381 45.918 109.818 45.4741 109.171 45.1878C108.373 44.8534 107.549 44.5842 106.707 44.383V39.596C108.001 39.7901 109.215 40.3404 110.211 41.1847L111.188 39.1132C110.626 38.6153 109.981 38.2188 109.281 37.9417C108.506 37.6297 107.693 37.4222 106.863 37.3247V34.8984H104.6V37.3486C103.726 37.4462 102.883 37.7276 102.127 38.1742C101.444 38.5762 100.869 39.1366 100.451 39.8077C100.053 40.4625 99.8463 41.2151 99.8551 41.9806C99.8162 42.8101 100.058 43.6286 100.541 44.3055C100.987 44.8916 101.575 45.3553 102.25 45.6528C103.06 45.9971 103.899 46.2733 104.756 46.4785V51.0658C103.229 50.9512 101.773 50.3738 100.586 49.4115L99.6094 51.486C100.273 52.0317 101.028 52.4574 101.839 52.7439C102.729 53.0603 103.658 53.2529 104.6 53.3162V55.7216H106.863V53.2715C108.12 53.1349 109.298 52.5974 110.223 51.7394C110.63 51.3512 110.951 50.8832 111.167 50.3649C111.383 49.8467 111.488 49.2896 111.476 48.7289C111.513 47.9258 111.279 47.1334 110.81 46.4785ZM104.756 43.8763C104.204 43.7101 103.692 43.4365 103.248 43.0715C103.072 42.9159 102.933 42.7234 102.841 42.508C102.749 42.2926 102.705 42.0596 102.715 41.8256C102.698 41.2947 102.894 40.7791 103.26 40.3919C103.665 39.9857 104.188 39.7157 104.756 39.6199V43.8763ZM108.128 50.2192C107.745 50.6092 107.247 50.8672 106.707 50.9555V47.009C107.223 47.1469 107.707 47.3872 108.128 47.7154C108.287 47.851 108.414 48.0205 108.498 48.2114C108.583 48.4024 108.623 48.6098 108.616 48.8183C108.637 49.3299 108.462 49.8303 108.128 50.2192Z" fill="#00C2FF"/>
<path d="M55.9134 80.7071C55.45 80.7063 54.9999 80.5535 54.6327 80.2724C54.2656 79.9914 54.0019 79.5977 53.8827 79.1524L52.7527 74.8989C52.6112 74.3643 52.6888 73.7957 52.9684 73.3179C53.2479 72.8401 53.7066 72.492 54.2439 72.3501L89.8935 62.9818C90.4315 62.8422 91.0032 62.9202 91.4835 63.1987C91.9638 63.4771 92.3136 63.9335 92.4565 64.4678L93.4138 68.0714L93.2344 68.0852C84.0914 68.7922 75.3433 72.0888 68.0252 77.5851L67.9732 77.6101L56.4456 80.6384C56.2719 80.684 56.093 80.7071 55.9134 80.7071Z" fill="#2F2E41"/>
<path d="M50.007 101.717C45.8251 101.103 41.8255 99.5992 38.281 97.3084C36.525 96.1743 34.8993 94.8521 33.4333 93.3654C31.9862 91.8976 30.6019 90.2294 29.8852 88.2746C29.1956 86.4661 29.2311 84.4632 29.9844 82.6801C30.7275 80.9078 32.1469 79.5009 33.9315 78.7677C35.7267 78.0558 37.8957 77.9796 39.6429 78.7593C40.4754 79.1222 41.1959 79.6989 41.7303 80.4303C41.9787 80.7674 42.1626 81.1471 42.2729 81.5504C42.3752 81.9159 42.3845 82.301 42.2999 82.6709C42.1975 83.0403 42.0168 83.3835 41.77 83.6778C41.5233 83.972 41.2161 84.2103 40.8691 84.3768C40.1054 84.7664 39.278 85.0174 38.4257 85.1179C37.5684 85.2341 36.337 85.3399 35.6478 84.6556C35.506 84.5202 35.3944 84.3566 35.3203 84.1754C35.2685 84.0367 35.2508 83.8877 35.2687 83.7408C35.2586 83.8056 35.3102 83.6 35.3073 83.6082C35.2964 83.6386 35.2492 83.7127 35.3163 83.5989C35.3373 83.5614 35.3606 83.5252 35.3862 83.4907C35.3634 83.52 35.3134 83.5689 35.4027 83.485C35.4765 83.4046 35.5714 83.3464 35.6767 83.3167C35.7182 83.3047 35.7603 83.2952 35.8019 83.2839C35.9076 83.2551 35.6965 83.2854 35.8047 83.282C35.8464 83.2807 35.8887 83.2817 35.9303 83.2798C36.0364 83.2751 35.8256 83.251 35.9273 83.2765C35.9668 83.2863 36.0059 83.296 36.0448 83.3082C36.1293 83.3347 35.9849 83.2465 36.0422 83.3125C36.1093 83.3898 35.9717 83.2373 36.048 83.3121C36.086 83.3492 36.1218 83.3885 36.1552 83.4297C36.2876 83.5596 36.466 83.6324 36.652 83.6324C36.838 83.6324 37.0165 83.5596 37.1488 83.4297C37.2766 83.2966 37.348 83.1196 37.348 82.9356C37.348 82.7516 37.2766 82.5746 37.1488 82.4415C36.456 81.5875 35.0876 81.7985 34.3867 82.5203C33.493 83.4409 33.8469 84.8999 34.7163 85.7031C35.7005 86.6125 37.0945 86.6757 38.3605 86.5232C39.4304 86.4212 40.4731 86.1282 41.4384 85.6582C42.3976 85.1895 43.1478 84.3835 43.5437 83.3964C43.7225 82.8695 43.7867 82.311 43.7321 81.7576C43.6775 81.2042 43.5054 80.6687 43.2271 80.1865C42.1093 78.0967 39.7948 77.0252 37.507 76.8396C36.3291 76.7479 35.1447 76.8893 34.0221 77.2558C32.8996 77.6223 31.8613 78.2065 30.9673 78.9746C29.2442 80.5174 28.1831 82.6596 28.0035 84.9584C27.8039 87.3418 28.7337 89.6564 30.0894 91.5798C31.5087 93.5341 33.2023 95.276 35.1187 96.7523C38.8651 99.7268 43.2596 101.788 47.9505 102.771C48.5085 102.885 49.0695 102.983 49.6334 103.065C49.8129 103.108 50.0021 103.082 50.1627 102.991C50.3233 102.9 50.4431 102.752 50.4977 102.577C50.5458 102.398 50.5214 102.208 50.4295 102.047C50.3377 101.886 50.1859 101.768 50.007 101.717Z" fill="white"/>
<path d="M116.963 71.3512C110.836 71.2652 104.728 71.4198 98.6395 71.8151C96.5584 71.9502 94.7578 72.6817 94.7578 73.9111C94.7578 74.939 96.5441 76.1432 98.6395 76.0071C104.725 75.612 110.833 75.4573 116.963 75.5432C121.96 75.6134 121.957 71.4213 116.963 71.3512Z" fill="#CCCCCC"/>
<path d="M107.908 75.3381C107.246 75.3381 91.6914 75.3135 91.6914 73.1768C91.6914 71.0402 107.246 71.0156 107.908 71.0156C108.57 71.0156 124.125 71.0402 124.125 73.1768C124.125 75.3135 108.57 75.3381 107.908 75.3381ZM92.2996 73.1768C92.7253 73.8246 98.4429 74.7419 107.908 74.7419C117.374 74.7419 123.091 73.8246 123.517 73.1768C123.091 72.5291 117.374 71.6118 107.908 71.6118C98.4429 71.6118 92.7253 72.5291 92.2996 73.1768Z" fill="white"/>
<path d="M157.257 131.508C160.701 131.413 164.986 131.294 168.287 128.896C169.271 128.152 170.078 127.204 170.654 126.117C171.23 125.031 171.56 123.832 171.621 122.605C171.688 120.711 171 119.058 169.683 117.951C167.959 116.502 165.441 116.162 162.727 116.956L165.538 96.5234L163.475 96.2422L160.169 120.263L161.893 119.476C163.891 118.565 166.634 118.101 168.338 119.533C168.757 119.908 169.083 120.373 169.291 120.893C169.499 121.414 169.584 121.975 169.539 122.533C169.488 123.446 169.241 124.337 168.813 125.146C168.385 125.956 167.786 126.664 167.059 127.223C164.489 129.089 161.073 129.33 157.199 129.437L157.257 131.508Z" fill="white"/>
<path d="M151.551 98.2852H140.332V100.357H151.551V98.2852Z" fill="white"/>
<path d="M60.9901 90.2383C60.4907 90.2368 60.0082 90.0584 59.629 89.7352C59.2498 89.412 58.9987 88.9651 58.9207 88.4745L58.2359 84.1282C58.1504 83.5816 58.2864 83.0235 58.6141 82.5765C58.9418 82.1295 59.4345 81.83 59.984 81.7438L96.4102 76.0678C96.9598 75.9828 97.5209 76.118 97.9704 76.4439C98.4199 76.7698 98.721 77.2597 98.8077 77.8061L99.4925 82.1526C99.578 82.6992 99.442 83.2573 99.1143 83.7043C98.7866 84.1513 98.294 84.4508 97.7445 84.537L61.3183 90.2129C61.2097 90.2298 61.1 90.2383 60.9901 90.2383Z" fill="#2F2E41"/>
<path d="M45.915 39.3016C54.3572 39.3016 61.201 32.4956 61.201 24.1C61.201 15.7044 54.3572 8.89844 45.915 8.89844C37.4727 8.89844 30.6289 15.7044 30.6289 24.1C30.6289 32.4956 37.4727 39.3016 45.915 39.3016Z" fill="#00C2FF"/>
<path d="M54.5687 28.035C55.0573 27.8651 55.5035 27.5931 55.8776 27.2374C56.125 26.9837 56.3138 26.6793 56.4305 26.3455C56.5472 26.0117 56.5892 25.6566 56.5534 25.305C56.5326 25.0544 56.4538 24.8119 56.3232 24.5966C56.1926 24.3813 56.0137 24.1989 55.8004 24.0638C55.2472 23.7254 54.5162 23.7382 53.7782 24.0785L53.693 18.1445L53.0937 18.153L53.1938 25.129L53.6501 24.8314C54.1792 24.4868 54.9394 24.237 55.4864 24.5716C55.6216 24.6602 55.7346 24.7786 55.8163 24.9176C55.8981 25.0567 55.9465 25.2126 55.9578 25.3733C55.983 25.6352 55.9512 25.8995 55.8645 26.1481C55.7778 26.3967 55.6383 26.6239 55.4554 26.814C54.8056 27.4552 53.8438 27.6701 52.7461 27.8665L52.8523 28.4532C53.4359 28.3651 54.0103 28.2251 54.5687 28.035Z" fill="#2F2E41"/>
<path d="M59.8679 17.7263L56.6758 18.207L56.7655 18.7964L59.9577 18.3156L59.8679 17.7263Z" fill="#2F2E41"/>
<path d="M49.7898 19.2419L46.5977 19.7227L46.6874 20.312L49.8796 19.8312L49.7898 19.2419Z" fill="#2F2E41"/>
<path d="M56.0173 89.9729C55.4675 89.9717 54.9312 89.8041 54.4796 89.4924C54.028 89.1806 53.6826 88.7395 53.4892 88.2277L42.9499 60.1588C41.6618 56.7163 41.7993 52.9062 43.3324 49.5645C44.8655 46.2227 47.669 43.6222 51.1277 42.3335L59.6974 39.1512C60.0288 39.0274 60.3815 38.9699 60.7353 38.9821C61.0891 38.9943 61.437 39.076 61.7589 39.2224C62.0801 39.3651 62.3694 39.57 62.61 39.8252C62.8507 40.0804 63.0377 40.3807 63.1603 40.7085L82.6834 77.3663C82.8102 77.6969 82.8699 78.0491 82.8593 78.4027C82.8486 78.7564 82.7677 79.1044 82.6213 79.4268C82.4749 79.7492 82.2658 80.0396 82.0061 80.2814C81.7463 80.5231 81.4411 80.7114 81.1079 80.8353L56.96 89.8025C56.6585 89.9149 56.3392 89.9726 56.0173 89.9729Z" fill="#2F2E41"/>
<path d="M57.0977 40.115L76.4687 65.8759L63.3612 40.3854C63.2529 40.088 63.0868 39.8147 62.8723 39.5811C62.6578 39.3475 62.3992 39.1583 62.1111 39.0241C61.8231 38.89 61.5113 38.8136 61.1935 38.7993C60.8758 38.7851 60.5583 38.8332 60.2593 38.9409L57.0977 40.115Z" fill="#E6E6E6"/>
<path d="M87.7687 59.6803L53.1817 57.4648C52.6365 57.4298 52.1036 57.2885 51.6134 57.0487C51.1231 56.809 50.6852 56.4756 50.3245 56.0675C49.9639 55.6595 49.6875 55.1848 49.5113 54.6705C49.3352 54.1562 49.2626 53.6125 49.2977 53.0703C49.3328 52.5282 49.4749 51.9982 49.716 51.5107C49.9571 51.0232 50.2923 50.5876 50.7027 50.229C51.113 49.8703 51.5903 49.5955 52.1075 49.4203C52.6246 49.2451 53.1713 49.1729 53.7165 49.2078L88.3035 51.4232C88.5588 51.4395 88.8084 51.5057 89.038 51.618C89.2676 51.7302 89.4727 51.8864 89.6416 52.0775C89.8105 52.2686 89.9399 52.4909 90.0224 52.7317C90.1049 52.9726 90.139 53.2272 90.1225 53.4811L89.8382 57.8714C89.8049 58.3842 89.5683 58.8629 89.1802 59.2021C88.7921 59.5413 88.2843 59.7134 87.7687 59.6803Z" fill="#00C2FF"/>
<path d="M78.525 61.1004C78.4794 61.1004 78.4336 61.0989 78.3877 61.096L49.9867 59.2767C49.7117 59.2591 49.443 59.1879 49.1957 59.067C48.9484 58.9461 48.7276 58.7779 48.5456 58.5721C48.3637 58.3663 48.2244 58.1269 48.1355 57.8676C48.0467 57.6082 48.0101 57.334 48.0278 57.0605L48.5134 49.5616C48.5312 49.2882 48.6029 49.0209 48.7245 48.775C48.8461 48.5291 49.0152 48.3095 49.2221 48.1286C49.4291 47.9477 49.6698 47.8091 49.9307 47.7208C50.1915 47.6325 50.4672 47.5961 50.7422 47.6137L79.1431 49.4328C79.6981 49.469 80.2161 49.7226 80.5833 50.1381C80.9505 50.5536 81.137 51.0969 81.1019 51.649L80.6163 59.148C80.5896 59.5499 80.4468 59.9355 80.2051 60.2586C79.9634 60.5817 79.633 60.8285 79.2537 60.9695C79.0207 61.0562 78.7739 61.1005 78.525 61.1004Z" fill="#2F2E41"/>
<path d="M45.7406 13.9915C47.7516 12.2716 50.513 13.8102 52.8192 13.5409C55.0255 13.2832 56.7677 11.315 57.2127 9.2241C57.732 6.7847 56.4588 4.34077 54.5822 2.81984C52.5268 1.15406 49.8009 0.675848 47.2178 0.984031C44.2572 1.33724 41.5496 2.70966 39.12 4.36967C36.775 5.92235 34.6184 7.73966 32.6934 9.78535C30.9697 11.6786 29.5092 13.9353 29.0428 16.4829C28.619 18.7982 28.9426 21.3638 30.3189 23.3252C31.0487 24.3304 32.0267 25.1317 33.1586 25.6517C34.3387 26.228 35.5976 26.64 36.741 27.2916C38.4697 28.2768 40.1499 30.3196 39.6084 32.4455C39.4923 32.9099 39.2632 33.3388 38.9412 33.6944C38.5543 34.1214 37.8566 33.5571 38.2444 33.1289C38.9256 32.3769 38.8988 31.3739 38.5358 30.476C38.1041 29.4643 37.3396 28.6283 36.3677 28.1051C35.1709 27.4246 33.8496 27.0046 32.6229 26.3848C31.4488 25.8186 30.4297 24.9786 29.6522 23.9365C28.1841 21.9075 27.7449 19.267 28.0779 16.8242C28.4382 14.1808 29.8039 11.7787 31.516 9.76579C33.3791 7.57515 35.6677 5.72082 38.0058 4.05496C40.5145 2.26748 43.2862 0.75629 46.3532 0.209716C49.0118 -0.264078 51.8935 0.0276194 54.2184 1.46844C56.3885 2.81336 58.0526 5.12689 58.2181 7.71203C58.2775 8.88826 58.0207 10.059 57.4741 11.1037C56.9274 12.1485 56.1108 13.0295 55.1081 13.6562C54.0792 14.2684 52.883 14.544 51.6882 14.4441C50.4109 14.3627 49.1323 13.9738 47.8468 14.0818C47.2652 14.1169 46.7108 14.3396 46.2679 14.7162C45.8285 15.092 45.3049 14.3642 45.7406 13.9915Z" fill="#2F2E41"/>
<path d="M221.642 177.999H0.355847C0.261376 177.999 0.17087 177.961 0.104165 177.895C0.0374605 177.828 0 177.738 0 177.644C0 177.55 0.0374605 177.46 0.104165 177.393C0.17087 177.327 0.261376 177.289 0.355847 177.289H221.642C221.737 177.289 221.828 177.326 221.894 177.393C221.961 177.46 221.999 177.55 221.999 177.644C221.999 177.738 221.961 177.828 221.894 177.895C221.828 177.961 221.737 177.999 221.642 177.999Z" fill="white"/>
</g>
<defs>
<clipPath id="clip0_1_14073">
<rect width="222" height="178" fill="white"/>
</clipPath>
</defs>
</svg>
